<?xml version="1.0" encoding="UTF-8" standalone="no"?>
<!DOCTYPE svg PUBLIC "-//W3C//DTD SVG 1.1//EN"
 "http://www.w3.org/Graphics/SVG/1.1/DTD/svg11.dtd">
<!-- Generated by graphviz version 2.40.1 (20161225.0304)
 -->
<!-- Title: raw_flow_graph Pages: 1 -->
<svg width="933pt" height="632pt"
 viewBox="0.00 0.00 932.50 632.00" xmlns="http://www.w3.org/2000/svg" xmlns:xlink="http://www.w3.org/1999/xlink">
<g id="graph0" class="graph" transform="scale(1 1) rotate(0) translate(4 628)">
<title>raw_flow_graph</title>
<polygon fill="#ffffff" stroke="transparent" points="-4,4 -4,-628 928.5,-628 928.5,4 -4,4"/>
<!-- n3 -->
<!-- print -->
<g id="n3" class="node">
<title>n3</title>
<polygon fill="none" stroke="#000000" points="221,-600 221,-624 273,-624 273,-600 221,-600"/>
<text text-anchor="start" x="225.9966" y="-607.8" font-family="Courier,monospace" font-size="14.00" fill="#000000">print</text>
</g>
<!-- n4 -->
<!-- RandomState.rand -->
<g id="n4" class="node">
<title>n4</title>
<polygon fill="none" stroke="#000000" points="291,-600 291,-624 435,-624 435,-600 291,-600"/>
<text text-anchor="start" x="295.7891" y="-607.8" font-family="Courier,monospace" font-size="14.00" fill="#000000">RandomState.rand</text>
</g>
<!-- n5 -->
<!-- mul -->
<g id="n5" class="node">
<title>n5</title>
<polygon fill="none" stroke="#000000" points="327,-540 327,-564 375,-564 375,-540 327,-540"/>
<text text-anchor="start" x="338.3979" y="-547.8" font-family="Courier,monospace" font-size="14.00" fill="#000000">mul</text>
</g>
<!-- n4&#45;&gt;n5 -->
<!-- ndarray -->
<g id="e1" class="edge">
<title>n4:s&#45;&gt;n5:n</title>
<path fill="none" stroke="#000000" d="M363,-600C363,-585.875 363,-581.1023 363,-569.1692"/>
<polygon fill="#000000" stroke="#000000" points="364.7501,-569 363,-564 361.2501,-569 364.7501,-569"/>
<text text-anchor="middle" x="333.5952" y="-584.9025" font-family="Courier,monospace" font-size="14.00" fill="#000000">ndarray</text>
</g>
<!-- n6 -->
<!-- sort -->
<g id="n6" class="node">
<title>n6</title>
<polygon fill="none" stroke="#000000" points="329,-480 329,-504 372,-504 372,-480 329,-480"/>
<text text-anchor="start" x="333.6973" y="-487.8" font-family="Courier,monospace" font-size="14.00" fill="#000000">sort</text>
</g>
<!-- n5&#45;&gt;n6 -->
<!-- ndarray -->
<g id="e2" class="edge">
<title>n5:s&#45;&gt;n6:n</title>
<path fill="none" stroke="#000000" d="M351,-540C351,-525.875 351,-521.1023 351,-509.1692"/>
<polygon fill="#000000" stroke="#000000" points="352.7501,-509 351,-504 349.2501,-509 352.7501,-509"/>
<text text-anchor="middle" x="321.5952" y="-524.9025" font-family="Courier,monospace" font-size="14.00" fill="#000000">ndarray</text>
</g>
<!-- n7 -->
<!-- sin -->
<g id="n7" class="node">
<title>n7</title>
<polygon fill="none" stroke="#000000" points="401,-420 401,-444 436,-444 436,-420 401,-420"/>
<text text-anchor="start" x="405.8979" y="-427.8" font-family="Courier,monospace" font-size="14.00" fill="#000000">sin</text>
</g>
<!-- n6&#45;&gt;n7 -->
<!-- ndarray -->
<g id="e3" class="edge">
<title>n6:s&#45;&gt;n7:n</title>
<path fill="none" stroke="#000000" d="M351,-480C351,-447.6739 411.7659,-474.8525 418.4121,-449.0347"/>
<polygon fill="#000000" stroke="#000000" points="420.1582,-449.1692 419,-444 416.6818,-448.7633 420.1582,-449.1692"/>
<text text-anchor="middle" x="355.4427" y="-464.804" font-family="Courier,monospace" font-size="14.00" fill="#000000">ndarray</text>
</g>
<!-- n19 -->
<!-- BaseLibSVM.fit -->
<g id="n19" class="node">
<title>n19</title>
<polygon fill="none" stroke="#000000" points="29,-120 29,-144 156,-144 156,-120 29,-120"/>
<text text-anchor="start" x="33.6904" y="-127.8" font-family="Courier,monospace" font-size="14.00" fill="#000000">BaseLibSVM.fit</text>
</g>
<!-- n6&#45;&gt;n19 -->
<!-- ndarray -->
<g id="e4" class="edge">
<title>n6:s&#45;&gt;n19:n</title>
<path fill="none" stroke="#000000" d="M351,-480C351,-397.9798 238.6036,-488.9539 170,-444 137.4135,-422.6471 120,-410.9593 120,-372 120,-372 120,-372 120,-252 120,-204.2622 94.8651,-194.1632 93.0978,-149.0719"/>
<polygon fill="#000000" stroke="#000000" points="94.8461,-148.9653 93,-144 91.3468,-149.0328 94.8461,-148.9653"/>
<text text-anchor="middle" x="90.5952" y="-359.8" font-family="Courier,monospace" font-size="14.00" fill="#000000">ndarray</text>
</g>
<!-- n20 -->
<!-- BaseLibSVM.predict -->
<g id="n20" class="node">
<title>n20</title>
<polygon fill="none" stroke="#000000" points="33,-60 33,-84 194,-84 194,-60 33,-60"/>
<text text-anchor="start" x="37.8877" y="-67.8" font-family="Courier,monospace" font-size="14.00" fill="#000000">BaseLibSVM.predict</text>
</g>
<!-- n6&#45;&gt;n20 -->
<!-- ndarray -->
<g id="e5" class="edge">
<title>n6:s&#45;&gt;n20:n</title>
<path fill="none" stroke="#000000" d="M351,-480C351,-414.4614 256.0505,-488.5697 208,-444 183.2697,-421.0612 184,-405.731 184,-372 184,-372 184,-372 184,-192 184,-191.8305 161.2359,-110.1531 155.367,-88.9698"/>
<polygon fill="#000000" stroke="#000000" points="157.0135,-88.3568 154,-84 153.6388,-89.2851 157.0135,-88.3568"/>
<text text-anchor="middle" x="154.5952" y="-352.3" font-family="Courier,monospace" font-size="14.00" fill="#000000">ndarray</text>
</g>
<!-- n21 -->
<!-- BaseLibSVM.fit -->
<g id="n21" class="node">
<title>n21</title>
<polygon fill="none" stroke="#000000" points="251,-120 251,-144 378,-144 378,-120 251,-120"/>
<text text-anchor="start" x="255.6904" y="-127.8" font-family="Courier,monospace" font-size="14.00" fill="#000000">BaseLibSVM.fit</text>
</g>
<!-- n6&#45;&gt;n21 -->
<!-- ndarray -->
<g id="e6" class="edge">
<title>n6:s&#45;&gt;n21:n</title>
<path fill="none" stroke="#000000" d="M351,-480C351,-462.8327 342.8273,-460.148 337,-444 325.5504,-412.2717 313,-405.731 313,-372 313,-372 313,-372 313,-312 313,-239.0782 314.9073,-219.5772 314.9968,-149.1595"/>
<polygon fill="#000000" stroke="#000000" points="316.7468,-149.0011 315,-144 313.2468,-148.9989 316.7468,-149.0011"/>
<text text-anchor="middle" x="283.5952" y="-314.3733" font-family="Courier,monospace" font-size="14.00" fill="#000000">ndarray</text>
</g>
<!-- n22 -->
<!-- BaseLibSVM.predict -->
<g id="n22" class="node">
<title>n22</title>
<polygon fill="none" stroke="#000000" points="307,-60 307,-84 468,-84 468,-60 307,-60"/>
<text text-anchor="start" x="311.8877" y="-67.8" font-family="Courier,monospace" font-size="14.00" fill="#000000">BaseLibSVM.predict</text>
</g>
<!-- n6&#45;&gt;n22 -->
<!-- ndarray -->
<g id="e7" class="edge">
<title>n6:s&#45;&gt;n22:n</title>
<path fill="none" stroke="#000000" d="M351,-480C351,-414.3993 594.5739,-487.1338 644,-444 668.9354,-422.2391 663,-405.0954 663,-372 663,-372 663,-372 663,-192 663,-136.3229 442.458,-141.1019 428.6741,-89.2033"/>
<polygon fill="#000000" stroke="#000000" points="430.378,-88.7337 428,-84 426.907,-89.1834 430.378,-88.7337"/>
<text text-anchor="middle" x="371.4704" y="-440.4897" font-family="Courier,monospace" font-size="14.00" fill="#000000">ndarray</text>
</g>
<!-- n23 -->
<!-- BaseLibSVM.fit -->
<g id="n23" class="node">
<title>n23</title>
<polygon fill="none" stroke="#000000" points="730,-120 730,-144 857,-144 857,-120 730,-120"/>
<text text-anchor="start" x="734.6904" y="-127.8" font-family="Courier,monospace" font-size="14.00" fill="#000000">BaseLibSVM.fit</text>
</g>
<!-- n6&#45;&gt;n23 -->
<!-- ndarray -->
<g id="e8" class="edge">
<title>n6:s&#45;&gt;n23:n</title>
<path fill="none" stroke="#000000" d="M351,-480C351,-439.3582 677.871,-460.5286 715,-444 758.3996,-424.6799 794,-419.5057 794,-372 794,-372 794,-372 794,-252 794,-205.7813 794,-192.9402 794,-149.1987"/>
<polygon fill="#000000" stroke="#000000" points="795.7501,-149 794,-144 792.2501,-149 795.7501,-149"/>
<text text-anchor="middle" x="545.2112" y="-454.8568" font-family="Courier,monospace" font-size="14.00" fill="#000000">ndarray</text>
</g>
<!-- n24 -->
<!-- BaseLibSVM.predict -->
<g id="n24" class="node">
<title>n24</title>
<polygon fill="none" stroke="#000000" points="764,-60 764,-84 925,-84 925,-60 764,-60"/>
<text text-anchor="start" x="768.8877" y="-67.8" font-family="Courier,monospace" font-size="14.00" fill="#000000">BaseLibSVM.predict</text>
</g>
<!-- n6&#45;&gt;n24 -->
<!-- ndarray -->
<g id="e9" class="edge">
<title>n6:s&#45;&gt;n24:n</title>
<path fill="none" stroke="#000000" d="M351,-480C351,-434.9332 711.9107,-457.2033 755,-444 818.1494,-424.65 885,-438.0475 885,-372 885,-372 885,-372 885,-192 885,-145.7813 885,-132.9402 885,-89.1987"/>
<polygon fill="#000000" stroke="#000000" points="886.7501,-89 885,-84 883.2501,-89 886.7501,-89"/>
<text text-anchor="middle" x="647.9252" y="-452.0537" font-family="Courier,monospace" font-size="14.00" fill="#000000">ndarray</text>
</g>
<!-- n25 -->
<!-- scatter -->
<g id="n25" class="node">
<title>n25</title>
<polygon fill="none" stroke="#000000" points="396,-120 396,-144 464,-144 464,-120 396,-120"/>
<text text-anchor="start" x="400.5952" y="-127.8" font-family="Courier,monospace" font-size="14.00" fill="#000000">scatter</text>
</g>
<!-- n6&#45;&gt;n25 -->
<!-- ndarray -->
<g id="e10" class="edge">
<title>n6:s&#45;&gt;n25:n</title>
<path fill="none" stroke="#000000" d="M351,-480C351,-432 351,-420 351,-372 351,-372 351,-372 351,-312 351,-293.424 405.039,-180.4469 412.2161,-149.3333"/>
<polygon fill="#000000" stroke="#000000" points="414.0042,-149.2014 413,-144 410.5414,-148.6923 414.0042,-149.2014"/>
<text text-anchor="middle" x="322.9369" y="-293.2317" font-family="Courier,monospace" font-size="14.00" fill="#000000">ndarray</text>
</g>
<!-- n26 -->
<!-- plot -->
<g id="n26" class="node">
<title>n26</title>
<polygon fill="none" stroke="#000000" points="33,0 33,-24 81,-24 81,0 33,0"/>
<text text-anchor="start" x="40.1973" y="-7.8" font-family="Courier,monospace" font-size="14.00" fill="#000000">plot</text>
</g>
<!-- n6&#45;&gt;n26 -->
<!-- ndarray -->
<g id="e11" class="edge">
<title>n6:s&#45;&gt;n26:n</title>
<path fill="none" stroke="#000000" d="M351,-480C351,-431.3379 181.0749,-459.6559 135,-444 70.6154,-422.1226 0,-440 0,-372 0,-372 0,-372 0,-132 0,-98.4069 9.0304,-90.5507 23,-60 30.0057,-44.679 42.1812,-42.9648 44.5821,-29.1761"/>
<polygon fill="#000000" stroke="#000000" points="46.3419,-29.1246 45,-24 42.8532,-28.8429 46.3419,-29.1246"/>
<text text-anchor="middle" x="104.4628" y="-446.4195" font-family="Courier,monospace" font-size="14.00" fill="#000000">ndarray</text>
</g>
<!-- n27 -->
<!-- plot -->
<g id="n27" class="node">
<title>n27</title>
<polygon fill="none" stroke="#000000" points="281,0 281,-24 329,-24 329,0 281,0"/>
<text text-anchor="start" x="288.1973" y="-7.8" font-family="Courier,monospace" font-size="14.00" fill="#000000">plot</text>
</g>
<!-- n6&#45;&gt;n27 -->
<!-- ndarray -->
<g id="e12" class="edge">
<title>n6:s&#45;&gt;n27:n</title>
<path fill="none" stroke="#000000" d="M351,-480C351,-442.6131 222,-409.3869 222,-372 222,-372 222,-372 222,-132 222,-76.3516 288.6318,-81.0759 292.7963,-29.2008"/>
<polygon fill="#000000" stroke="#000000" points="294.5529,-29.0647 293,-24 291.0556,-28.9277 294.5529,-29.0647"/>
<text text-anchor="middle" x="192.5952" y="-330.8" font-family="Courier,monospace" font-size="14.00" fill="#000000">ndarray</text>
</g>
<!-- n28 -->
<!-- plot -->
<g id="n28" class="node">
<title>n28</title>
<polygon fill="none" stroke="#000000" points="749,0 749,-24 797,-24 797,0 749,0"/>
<text text-anchor="start" x="756.1973" y="-7.8" font-family="Courier,monospace" font-size="14.00" fill="#000000">plot</text>
</g>
<!-- n6&#45;&gt;n28 -->
<!-- ndarray -->
<g id="e13" class="edge">
<title>n6:s&#45;&gt;n28:n</title>
<path fill="none" stroke="#000000" d="M351,-480C351,-409.5443 608.4967,-484.7108 666,-444 695.0395,-423.4408 701,-407.5805 701,-372 701,-372 701,-372 701,-132 701,-78.9132 757.0818,-78.8517 760.806,-29.2861"/>
<polygon fill="#000000" stroke="#000000" points="762.5653,-29.0609 761,-24 759.0677,-28.9324 762.5653,-29.0609"/>
<text text-anchor="middle" x="671.5952" y="-344.8" font-family="Courier,monospace" font-size="14.00" fill="#000000">ndarray</text>
</g>
<!-- n8 -->
<!-- ndarray.ravel -->
<g id="n8" class="node">
<title>n8</title>
<polygon fill="none" stroke="#000000" points="380,-360 380,-384 499,-384 499,-360 380,-360"/>
<text text-anchor="start" x="384.8911" y="-367.8" font-family="Courier,monospace" font-size="14.00" fill="#000000">ndarray.ravel</text>
</g>
<!-- n7&#45;&gt;n8 -->
<!-- ndarray -->
<g id="e14" class="edge">
<title>n7:s&#45;&gt;n8:n</title>
<path fill="none" stroke="#000000" d="M419,-420C419,-403.358 435.951,-402.5125 439.3942,-389.0792"/>
<polygon fill="#000000" stroke="#000000" points="441.1454,-389.1721 440,-384 437.67,-388.7575 441.1454,-389.1721"/>
<text text-anchor="middle" x="399.8222" y="-405.0272" font-family="Courier,monospace" font-size="14.00" fill="#000000">ndarray</text>
</g>
<!-- n10 -->
<!-- getitem -->
<g id="n10" class="node">
<title>n10</title>
<polygon fill="none" stroke="#000000" points="489,-300 489,-324 557,-324 557,-300 489,-300"/>
<text text-anchor="start" x="493.5952" y="-307.8" font-family="Courier,monospace" font-size="14.00" fill="#000000">getitem</text>
</g>
<!-- n8&#45;&gt;n10 -->
<!-- ndarray -->
<g id="e15" class="edge">
<title>n8:s&#45;&gt;n10:n</title>
<path fill="none" stroke="#000000" d="M440,-360C440,-328.5446 498.4922,-354.0213 505.3468,-329.2376"/>
<polygon fill="#000000" stroke="#000000" points="507.1177,-329.1782 506,-324 503.6446,-328.745 507.1177,-329.1782"/>
<text text-anchor="middle" x="443.6073" y="-344.7995" font-family="Courier,monospace" font-size="14.00" fill="#000000">ndarray</text>
</g>
<!-- n15 -->
<!-- setitem -->
<g id="n15" class="node">
<title>n15</title>
<polygon fill="none" stroke="#000000" points="411,-180 411,-204 483,-204 483,-180 411,-180"/>
<text text-anchor="start" x="417.5952" y="-187.8" font-family="Courier,monospace" font-size="14.00" fill="#000000">setitem</text>
</g>
<!-- n8&#45;&gt;n15 -->
<!-- ndarray -->
<g id="e16" class="edge">
<title>n8:s&#45;&gt;n15:n</title>
<path fill="none" stroke="#000000" d="M440,-360C440,-292.027 423.8523,-274.6166 423.0323,-209.2113"/>
<polygon fill="#000000" stroke="#000000" points="424.7811,-208.989 423,-204 421.2811,-209.0108 424.7811,-208.989"/>
<text text-anchor="middle" x="402.1277" y="-284.9648" font-family="Courier,monospace" font-size="14.00" fill="#000000">ndarray</text>
</g>
<!-- n9 -->
<!-- slice -->
<g id="n9" class="node">
<title>n9</title>
<polygon fill="none" stroke="#000000" points="517,-360 517,-384 569,-384 569,-360 517,-360"/>
<text text-anchor="start" x="521.9966" y="-367.8" font-family="Courier,monospace" font-size="14.00" fill="#000000">slice</text>
</g>
<!-- n9&#45;&gt;n10 -->
<g id="e17" class="edge">
<title>n9:s&#45;&gt;n10:n</title>
<path fill="none" stroke="#000000" d="M543,-360C543,-345.826 540.6619,-341.134 540.1139,-329.1824"/>
<polygon fill="#000000" stroke="#000000" points="541.8596,-328.9603 540,-324 538.3604,-329.0373 541.8596,-328.9603"/>
</g>
<!-- n9&#45;&gt;n15 -->
<g id="e18" class="edge">
<title>n9:s&#45;&gt;n15:n</title>
<path fill="none" stroke="#000000" d="M543,-360C543,-327.751 499.7726,-349.4763 480,-324 447.146,-281.6688 446.9769,-260.6473 446.9984,-209.0868"/>
<polygon fill="#000000" stroke="#000000" points="448.7483,-209.0006 447,-204 445.2483,-208.9994 448.7483,-209.0006"/>
</g>
<!-- n14 -->
<!-- iadd -->
<g id="n14" class="node">
<title>n14</title>
<polygon fill="none" stroke="#000000" points="511,-240 511,-264 559,-264 559,-240 511,-240"/>
<text text-anchor="start" x="518.1973" y="-247.8" font-family="Courier,monospace" font-size="14.00" fill="#000000">iadd</text>
</g>
<!-- n10&#45;&gt;n14 -->
<!-- ndarray -->
<g id="e19" class="edge">
<title>n10:s&#45;&gt;n14:n</title>
<path fill="none" stroke="#000000" d="M523,-300C523,-285.875 523,-281.1023 523,-269.1692"/>
<polygon fill="#000000" stroke="#000000" points="524.7501,-269 523,-264 521.2501,-269 524.7501,-269"/>
<text text-anchor="middle" x="493.5952" y="-284.9025" font-family="Courier,monospace" font-size="14.00" fill="#000000">ndarray</text>
</g>
<!-- n11 -->
<!-- RandomState.rand -->
<g id="n11" class="node">
<title>n11</title>
<polygon fill="none" stroke="#000000" points="491,-420 491,-444 635,-444 635,-420 491,-420"/>
<text text-anchor="start" x="495.7891" y="-427.8" font-family="Courier,monospace" font-size="14.00" fill="#000000">RandomState.rand</text>
</g>
<!-- n12 -->
<!-- sub -->
<g id="n12" class="node">
<title>n12</title>
<polygon fill="none" stroke="#000000" points="587,-360 587,-384 635,-384 635,-360 587,-360"/>
<text text-anchor="start" x="598.3979" y="-367.8" font-family="Courier,monospace" font-size="14.00" fill="#000000">sub</text>
</g>
<!-- n11&#45;&gt;n12 -->
<!-- ndarray -->
<g id="e20" class="edge">
<title>n11:s&#45;&gt;n12:n</title>
<path fill="none" stroke="#000000" d="M563,-420C563,-390.8452 615.7344,-412.0476 622.3262,-389.1875"/>
<polygon fill="#000000" stroke="#000000" points="624.0913,-389.1838 623,-384 620.6204,-388.7329 624.0913,-389.1838"/>
<text text-anchor="middle" x="563.749" y="-404.7874" font-family="Courier,monospace" font-size="14.00" fill="#000000">ndarray</text>
</g>
<!-- n13 -->
<!-- mul -->
<g id="n13" class="node">
<title>n13</title>
<polygon fill="none" stroke="#000000" points="575,-300 575,-324 623,-324 623,-300 575,-300"/>
<text text-anchor="start" x="586.3979" y="-307.8" font-family="Courier,monospace" font-size="14.00" fill="#000000">mul</text>
</g>
<!-- n12&#45;&gt;n13 -->
<!-- ndarray -->
<g id="e21" class="edge">
<title>n12:s&#45;&gt;n13:n</title>
<path fill="none" stroke="#000000" d="M611,-360C611,-345.875 611,-341.1023 611,-329.1692"/>
<polygon fill="#000000" stroke="#000000" points="612.7501,-329 611,-324 609.2501,-329 612.7501,-329"/>
<text text-anchor="middle" x="581.5952" y="-344.9025" font-family="Courier,monospace" font-size="14.00" fill="#000000">ndarray</text>
</g>
<!-- n13&#45;&gt;n14 -->
<!-- ndarray -->
<g id="e22" class="edge">
<title>n13:s&#45;&gt;n14:n</title>
<path fill="none" stroke="#000000" d="M599,-300C599,-273.7575 553.6769,-289.637 547.6575,-268.9888"/>
<polygon fill="#000000" stroke="#000000" points="549.3884,-268.7285 547,-264 545.9184,-269.1858 549.3884,-268.7285"/>
<text text-anchor="middle" x="543.3405" y="-270.7613" font-family="Courier,monospace" font-size="14.00" fill="#000000">ndarray</text>
</g>
<!-- n14&#45;&gt;n15 -->
<!-- ndarray -->
<g id="e23" class="edge">
<title>n14:s&#45;&gt;n15:n</title>
<path fill="none" stroke="#000000" d="M535,-240C535,-209.2766 478.2803,-233.418 471.6334,-209.124"/>
<polygon fill="#000000" stroke="#000000" points="473.3503,-208.7475 471,-204 469.8767,-209.177 473.3503,-208.7475"/>
<text text-anchor="middle" x="473.5835" y="-224.7994" font-family="Courier,monospace" font-size="14.00" fill="#000000">ndarray</text>
</g>
<!-- n15&#45;&gt;n19 -->
<!-- ndarray -->
<g id="e24" class="edge">
<title>n15:s&#45;&gt;n19:n</title>
<path fill="none" stroke="#000000" d="M447,-180C447,-111.9788 150.6426,-208.6449 135.5932,-148.9866"/>
<polygon fill="#000000" stroke="#000000" points="137.3285,-148.7582 135,-144 133.853,-149.1717 137.3285,-148.7582"/>
<text text-anchor="middle" x="261.7461" y="-150.7837" font-family="Courier,monospace" font-size="14.00" fill="#000000">ndarray</text>
</g>
<!-- n15&#45;&gt;n21 -->
<!-- ndarray -->
<g id="e25" class="edge">
<title>n15:s&#45;&gt;n21:n</title>
<path fill="none" stroke="#000000" d="M447,-180C447,-138.7698 364.5682,-182.9426 357.4842,-149.0518"/>
<polygon fill="#000000" stroke="#000000" points="359.2192,-148.8102 357,-144 355.7351,-149.1442 359.2192,-148.8102"/>
<text text-anchor="middle" x="372.4675" y="-164.81" font-family="Courier,monospace" font-size="14.00" fill="#000000">ndarray</text>
</g>
<!-- n15&#45;&gt;n23 -->
<!-- ndarray -->
<g id="e26" class="edge">
<title>n15:s&#45;&gt;n23:n</title>
<path fill="none" stroke="#000000" d="M447,-180C447,-95.0513 819.4647,-225.0037 835.4691,-149.2891"/>
<polygon fill="#000000" stroke="#000000" points="837.2417,-149.1498 836,-144 833.7592,-148.8002 837.2417,-149.1498"/>
<text text-anchor="middle" x="611.9605" y="-164.7824" font-family="Courier,monospace" font-size="14.00" fill="#000000">ndarray</text>
</g>
<!-- n15&#45;&gt;n25 -->
<!-- ndarray -->
<g id="e27" class="edge">
<title>n15:s&#45;&gt;n25:n</title>
<path fill="none" stroke="#000000" d="M447,-180C447,-165.875 447,-161.1023 447,-149.1692"/>
<polygon fill="#000000" stroke="#000000" points="448.7501,-149 447,-144 445.2501,-149 448.7501,-149"/>
<text text-anchor="middle" x="476.4048" y="-164.9025" font-family="Courier,monospace" font-size="14.00" fill="#000000">ndarray</text>
</g>
<!-- n16 -->
<!-- SVR -->
<g id="n16" class="node">
<title>n16</title>
<polygon fill="none" stroke="#000000" points="32,-180 32,-204 67,-204 67,-180 32,-180"/>
<text text-anchor="start" x="36.8979" y="-187.8" font-family="Courier,monospace" font-size="14.00" fill="#000000">SVR</text>
</g>
<!-- n16&#45;&gt;n19 -->
<!-- SVR -->
<g id="e28" class="edge">
<title>n16:s&#45;&gt;n19:n</title>
<path fill="none" stroke="#000000" d="M50,-180C50,-165.875 50,-161.1023 50,-149.1692"/>
<polygon fill="#000000" stroke="#000000" points="51.7501,-149 50,-144 48.2501,-149 51.7501,-149"/>
<text text-anchor="middle" x="37.3979" y="-164.9025" font-family="Courier,monospace" font-size="14.00" fill="#000000">SVR</text>
</g>
<!-- n17 -->
<!-- SVR -->
<g id="n17" class="node">
<title>n17</title>
<polygon fill="none" stroke="#000000" points="251,-180 251,-204 286,-204 286,-180 251,-180"/>
<text text-anchor="start" x="255.8979" y="-187.8" font-family="Courier,monospace" font-size="14.00" fill="#000000">SVR</text>
</g>
<!-- n17&#45;&gt;n21 -->
<!-- SVR -->
<g id="e29" class="edge">
<title>n17:s&#45;&gt;n21:n</title>
<path fill="none" stroke="#000000" d="M269,-180C269,-165.826 271.3381,-161.134 271.8861,-149.1824"/>
<polygon fill="#000000" stroke="#000000" points="273.6396,-149.0373 272,-144 270.1404,-148.9603 273.6396,-149.0373"/>
<text text-anchor="middle" x="257.8826" y="-164.9023" font-family="Courier,monospace" font-size="14.00" fill="#000000">SVR</text>
</g>
<!-- n18 -->
<!-- SVR -->
<g id="n18" class="node">
<title>n18</title>
<polygon fill="none" stroke="#000000" points="731,-180 731,-204 766,-204 766,-180 731,-180"/>
<text text-anchor="start" x="735.8979" y="-187.8" font-family="Courier,monospace" font-size="14.00" fill="#000000">SVR</text>
</g>
<!-- n18&#45;&gt;n23 -->
<!-- SVR -->
<g id="e30" class="edge">
<title>n18:s&#45;&gt;n23:n</title>
<path fill="none" stroke="#000000" d="M749,-180C749,-165.8532 750.5587,-161.1164 750.924,-149.1751"/>
<polygon fill="#000000" stroke="#000000" points="752.6763,-149.0252 751,-144 749.1767,-148.9737 752.6763,-149.0252"/>
<text text-anchor="middle" x="737.3877" y="-164.9024" font-family="Courier,monospace" font-size="14.00" fill="#000000">SVR</text>
</g>
<!-- n19&#45;&gt;n20 -->
<!-- SVR -->
<g id="e31" class="edge">
<title>n19:s&#45;&gt;n20:n</title>
<path fill="none" stroke="#000000" d="M125,-120C125,-93.7575 79.6769,-109.637 73.6575,-88.9888"/>
<polygon fill="#000000" stroke="#000000" points="75.3884,-88.7285 73,-84 71.9184,-89.1858 75.3884,-88.7285"/>
<text text-anchor="middle" x="86.1433" y="-104.7613" font-family="Courier,monospace" font-size="14.00" fill="#000000">SVR</text>
</g>
<!-- n20&#45;&gt;n26 -->
<!-- ndarray -->
<g id="e32" class="edge">
<title>n20:s&#45;&gt;n26:n</title>
<path fill="none" stroke="#000000" d="M114,-60C114,-36.3885 75.7566,-47.4828 69.7811,-29.2941"/>
<polygon fill="#000000" stroke="#000000" points="71.4611,-28.691 69,-24 67.9986,-29.2019 71.4611,-28.691"/>
<text text-anchor="middle" x="62.3012" y="-44.8476" font-family="Courier,monospace" font-size="14.00" fill="#000000">ndarray</text>
</g>
<!-- n21&#45;&gt;n22 -->
<!-- SVR -->
<g id="e33" class="edge">
<title>n21:s&#45;&gt;n22:n</title>
<path fill="none" stroke="#000000" d="M347,-120C347,-105.875 347,-101.1023 347,-89.1692"/>
<polygon fill="#000000" stroke="#000000" points="348.7501,-89 347,-84 345.2501,-89 348.7501,-89"/>
<text text-anchor="middle" x="334.3979" y="-104.9025" font-family="Courier,monospace" font-size="14.00" fill="#000000">SVR</text>
</g>
<!-- n22&#45;&gt;n27 -->
<!-- ndarray -->
<g id="e34" class="edge">
<title>n22:s&#45;&gt;n27:n</title>
<path fill="none" stroke="#000000" d="M388,-60C388,-26.5547 324.5533,-55.788 317.6138,-29.1982"/>
<polygon fill="#000000" stroke="#000000" points="319.3243,-28.7603 317,-24 315.8485,-29.1707 319.3243,-28.7603"/>
<text text-anchor="middle" x="323.2545" y="-44.8014" font-family="Courier,monospace" font-size="14.00" fill="#000000">ndarray</text>
</g>
<!-- n23&#45;&gt;n24 -->
<!-- SVR -->
<g id="e35" class="edge">
<title>n23:s&#45;&gt;n24:n</title>
<path fill="none" stroke="#000000" d="M826,-120C826,-103.1533 808.2418,-102.6549 804.6347,-89.1289"/>
<polygon fill="#000000" stroke="#000000" points="806.3509,-88.7472 804,-84 802.8774,-89.1771 806.3509,-88.7472"/>
<text text-anchor="middle" x="802.6839" y="-105.0243" font-family="Courier,monospace" font-size="14.00" fill="#000000">SVR</text>
</g>
<!-- n24&#45;&gt;n28 -->
<!-- ndarray -->
<g id="e36" class="edge">
<title>n24:s&#45;&gt;n28:n</title>
<path fill="none" stroke="#000000" d="M845,-60C845,-30.8452 792.2656,-52.0476 785.6738,-29.1875"/>
<polygon fill="#000000" stroke="#000000" points="787.3796,-28.7329 785,-24 783.9087,-29.1838 787.3796,-28.7329"/>
<text text-anchor="middle" x="785.4414" y="-44.7874" font-family="Courier,monospace" font-size="14.00" fill="#000000">ndarray</text>
</g>
<!-- n29 -->
<!-- xlabel -->
<g id="n29" class="node">
<title>n29</title>
<polygon fill="none" stroke="#000000" points="453,-600 453,-624 513,-624 513,-600 453,-600"/>
<text text-anchor="start" x="457.7959" y="-607.8" font-family="Courier,monospace" font-size="14.00" fill="#000000">xlabel</text>
</g>
<!-- n30 -->
<!-- ylabel -->
<g id="n30" class="node">
<title>n30</title>
<polygon fill="none" stroke="#000000" points="531,-600 531,-624 591,-624 591,-600 531,-600"/>
<text text-anchor="start" x="535.7959" y="-607.8" font-family="Courier,monospace" font-size="14.00" fill="#000000">ylabel</text>
</g>
<!-- n31 -->
<!-- title -->
<g id="n31" class="node">
<title>n31</title>
<polygon fill="none" stroke="#000000" points="609,-600 609,-624 661,-624 661,-600 609,-600"/>
<text text-anchor="start" x="613.9966" y="-607.8" font-family="Courier,monospace" font-size="14.00" fill="#000000">title</text>
</g>
<!-- n32 -->
<!-- legend -->
<g id="n32" class="node">
<title>n32</title>
<polygon fill="none" stroke="#000000" points="679,-600 679,-624 739,-624 739,-600 679,-600"/>
<text text-anchor="start" x="683.7959" y="-607.8" font-family="Courier,monospace" font-size="14.00" fill="#000000">legend</text>
</g>
<!-- n33 -->
<!-- show -->
<g id="n33" class="node">
<title>n33</title>
<polygon fill="none" stroke="#000000" points="758,-600 758,-624 801,-624 801,-600 758,-600"/>
<text text-anchor="start" x="762.6973" y="-607.8" font-family="Courier,monospace" font-size="14.00" fill="#000000">show</text>
</g>
</g>
</svg>
