<?xml version="1.0" encoding="UTF-8" standalone="no"?>
<!DOCTYPE svg PUBLIC "-//W3C//DTD SVG 1.1//EN"
 "http://www.w3.org/Graphics/SVG/1.1/DTD/svg11.dtd">
<!-- Generated by graphviz version 2.40.1 (20161225.0304)
 -->
<!-- Title: semantic_flow_graph Pages: 1 -->
<svg width="1580pt" height="212pt"
 viewBox="0.00 0.00 1579.96 212.00" xmlns="http://www.w3.org/2000/svg" xmlns:xlink="http://www.w3.org/1999/xlink">
<g id="graph0" class="graph" transform="scale(1 1) rotate(0) translate(4 208)">
<title>semantic_flow_graph</title>
<polygon fill="#ffffff" stroke="transparent" points="-4,4 -4,-208 1575.961,-208 1575.961,4 -4,4"/>
<!-- n3 -->
<!-- ? -->
<g id="n3" class="node">
<title>n3</title>
<path fill="none" stroke="#000000" d="M357.961,-180C357.961,-180 365.961,-180 365.961,-180 369.961,-180 373.961,-184 373.961,-188 373.961,-188 373.961,-196 373.961,-196 373.961,-200 369.961,-204 365.961,-204 365.961,-204 357.961,-204 357.961,-204 353.961,-204 349.961,-200 349.961,-196 349.961,-196 349.961,-188 349.961,-188 349.961,-184 353.961,-180 357.961,-180"/>
<text text-anchor="start" x="358.0679" y="-187.8" font-family="Helvetica,sans-Serif" font-size="14.00" fill="#000000">?</text>
</g>
<!-- n4 -->
<!-- ? -->
<g id="n4" class="node">
<title>n4</title>
<path fill="none" stroke="#000000" d="M399.961,-180C399.961,-180 407.961,-180 407.961,-180 411.961,-180 415.961,-184 415.961,-188 415.961,-188 415.961,-196 415.961,-196 415.961,-200 411.961,-204 407.961,-204 407.961,-204 399.961,-204 399.961,-204 395.961,-204 391.961,-200 391.961,-196 391.961,-196 391.961,-188 391.961,-188 391.961,-184 395.961,-180 399.961,-180"/>
<text text-anchor="start" x="400.0679" y="-187.8" font-family="Helvetica,sans-Serif" font-size="14.00" fill="#000000">?</text>
</g>
<!-- n5 -->
<!-- ? -->
<g id="n5" class="node">
<title>n5</title>
<path fill="none" stroke="#000000" d="M817.961,-180C817.961,-180 849.961,-180 849.961,-180 853.961,-180 857.961,-184 857.961,-188 857.961,-188 857.961,-196 857.961,-196 857.961,-200 853.961,-204 849.961,-204 849.961,-204 817.961,-204 817.961,-204 813.961,-204 809.961,-200 809.961,-196 809.961,-196 809.961,-188 809.961,-188 809.961,-184 813.961,-180 817.961,-180"/>
<text text-anchor="start" x="830.0679" y="-187.8" font-family="Helvetica,sans-Serif" font-size="14.00" fill="#000000">?</text>
</g>
<!-- n23 -->
<!-- fit&#45;supervised -->
<g id="n23" class="node">
<title>n23</title>
<path fill="none" stroke="#000000" d="M487.961,-120C487.961,-120 564.961,-120 564.961,-120 568.961,-120 572.961,-124 572.961,-128 572.961,-128 572.961,-136 572.961,-136 572.961,-140 568.961,-144 564.961,-144 564.961,-144 487.961,-144 487.961,-144 483.961,-144 479.961,-140 479.961,-136 479.961,-136 479.961,-128 479.961,-128 479.961,-124 483.961,-120 487.961,-120"/>
<text text-anchor="start" x="484.8336" y="-127.8" font-family="Helvetica,sans-Serif" font-size="14.00" fill="#000000">fit&#45;supervised</text>
</g>
<!-- n5&#45;&gt;n23 -->
<!-- array -->
<g id="e1" class="edge">
<title>n5:s&#45;&gt;n23:n</title>
<path fill="none" stroke="#000000" d="M821.961,-180C821.961,-115.7639 542.8732,-204.9085 527.6106,-149.0605"/>
<polygon fill="#000000" stroke="#000000" points="529.3335,-148.7364 526.961,-144 525.862,-149.1822 529.3335,-148.7364"/>
<text text-anchor="middle" x="658.6782" y="-164.7832" font-family="Helvetica,sans-Serif" font-size="14.00" fill="#000000">array</text>
</g>
<!-- n5&#45;&gt;n23 -->
<g id="e2" class="edge">
<title>n5:s&#45;&gt;n23:n</title>
<path fill="none" stroke="#000000" d="M845.961,-180C845.961,-117.3915 574.5888,-203.1842 558.6881,-149.2712"/>
<polygon fill="#000000" stroke="#000000" points="560.3779,-148.7139 557.961,-144 556.9107,-149.1923 560.3779,-148.7139"/>
</g>
<!-- n27 -->
<!-- fit&#45;supervised -->
<g id="n27" class="node">
<title>n27</title>
<path fill="none" stroke="#000000" d="M782.961,-120C782.961,-120 859.961,-120 859.961,-120 863.961,-120 867.961,-124 867.961,-128 867.961,-128 867.961,-136 867.961,-136 867.961,-140 863.961,-144 859.961,-144 859.961,-144 782.961,-144 782.961,-144 778.961,-144 774.961,-140 774.961,-136 774.961,-136 774.961,-128 774.961,-128 774.961,-124 778.961,-120 782.961,-120"/>
<text text-anchor="start" x="779.8336" y="-127.8" font-family="Helvetica,sans-Serif" font-size="14.00" fill="#000000">fit&#45;supervised</text>
</g>
<!-- n5&#45;&gt;n27 -->
<!-- array -->
<g id="e3" class="edge">
<title>n5:s&#45;&gt;n27:n</title>
<path fill="none" stroke="#000000" d="M821.961,-180C821.961,-165.875 821.961,-161.1023 821.961,-149.1692"/>
<polygon fill="#000000" stroke="#000000" points="823.7111,-149 821.961,-144 820.2111,-149 823.7111,-149"/>
<text text-anchor="middle" x="806.0128" y="-164.9025" font-family="Helvetica,sans-Serif" font-size="14.00" fill="#000000">array</text>
</g>
<!-- n5&#45;&gt;n27 -->
<g id="e4" class="edge">
<title>n5:s&#45;&gt;n27:n</title>
<path fill="none" stroke="#000000" d="M845.961,-180C845.961,-165.6105 851.4165,-161.2738 852.6951,-149.2404"/>
<polygon fill="#000000" stroke="#000000" points="854.4553,-149.0823 852.961,-144 850.9598,-148.9049 854.4553,-149.0823"/>
</g>
<!-- n6 -->
<!-- ? -->
<g id="n6" class="node">
<title>n6</title>
<path fill="none" stroke="#000000" d="M630.961,0C630.961,0 710.961,0 710.961,0 714.961,0 718.961,-4 718.961,-8 718.961,-8 718.961,-16 718.961,-16 718.961,-20 714.961,-24 710.961,-24 710.961,-24 630.961,-24 630.961,-24 626.961,-24 622.961,-20 622.961,-16 622.961,-16 622.961,-8 622.961,-8 622.961,-4 626.961,0 630.961,0"/>
<text text-anchor="start" x="667.0679" y="-7.8" font-family="Helvetica,sans-Serif" font-size="14.00" fill="#000000">?</text>
</g>
<!-- n7 -->
<!-- ? -->
<g id="n7" class="node">
<title>n7</title>
<path fill="none" stroke="#000000" d="M883.961,-180C883.961,-180 891.961,-180 891.961,-180 895.961,-180 899.961,-184 899.961,-188 899.961,-188 899.961,-196 899.961,-196 899.961,-200 895.961,-204 891.961,-204 891.961,-204 883.961,-204 883.961,-204 879.961,-204 875.961,-200 875.961,-196 875.961,-196 875.961,-188 875.961,-188 875.961,-184 879.961,-180 883.961,-180"/>
<text text-anchor="start" x="884.0679" y="-187.8" font-family="Helvetica,sans-Serif" font-size="14.00" fill="#000000">?</text>
</g>
<!-- n8 -->
<!-- predict -->
<g id="n8" class="node">
<title>n8</title>
<path fill="none" stroke="#000000" d="M81.961,-60C81.961,-60 117.961,-60 117.961,-60 121.961,-60 125.961,-64 125.961,-68 125.961,-68 125.961,-76 125.961,-76 125.961,-80 121.961,-84 117.961,-84 117.961,-84 81.961,-84 81.961,-84 77.961,-84 73.961,-80 73.961,-76 73.961,-76 73.961,-68 73.961,-68 73.961,-64 77.961,-60 81.961,-60"/>
<text text-anchor="start" x="78.9507" y="-67.8" font-family="Helvetica,sans-Serif" font-size="14.00" fill="#000000">predict</text>
</g>
<!-- n31 -->
<!-- ? -->
<g id="n31" class="node">
<title>n31</title>
<path fill="none" stroke="#000000" d="M32.961,0C32.961,0 112.961,0 112.961,0 116.961,0 120.961,-4 120.961,-8 120.961,-8 120.961,-16 120.961,-16 120.961,-20 116.961,-24 112.961,-24 112.961,-24 32.961,-24 32.961,-24 28.961,-24 24.961,-20 24.961,-16 24.961,-16 24.961,-8 24.961,-8 24.961,-4 28.961,0 32.961,0"/>
<text text-anchor="start" x="69.0679" y="-7.8" font-family="Helvetica,sans-Serif" font-size="14.00" fill="#000000">?</text>
</g>
<!-- n8&#45;&gt;n31 -->
<!-- data -->
<g id="e5" class="edge">
<title>n8:s&#45;&gt;n31:n</title>
<path fill="none" stroke="#000000" d="M99.961,-60C99.961,-44.5625 88.0628,-41.8164 85.4601,-29.1552"/>
<polygon fill="#000000" stroke="#000000" points="87.1847,-28.8081 84.961,-24 83.701,-29.1454 87.1847,-28.8081"/>
<text text-anchor="middle" x="78.815" y="-44.7727" font-family="Helvetica,sans-Serif" font-size="14.00" fill="#000000">data</text>
</g>
<!-- n9 -->
<!-- array&#45;shape -->
<g id="n9" class="node">
<title>n9</title>
<path fill="none" stroke="#000000" d="M151.961,-60C151.961,-60 219.961,-60 219.961,-60 223.961,-60 227.961,-64 227.961,-68 227.961,-68 227.961,-76 227.961,-76 227.961,-80 223.961,-84 219.961,-84 219.961,-84 151.961,-84 151.961,-84 147.961,-84 143.961,-80 143.961,-76 143.961,-76 143.961,-68 143.961,-68 143.961,-64 147.961,-60 151.961,-60"/>
<text text-anchor="start" x="148.6094" y="-67.8" font-family="Helvetica,sans-Serif" font-size="14.00" fill="#000000">array&#45;shape</text>
</g>
<!-- n9&#45;&gt;n31 -->
<!-- vector -->
<g id="e6" class="edge">
<title>n9:s&#45;&gt;n31:n</title>
<path fill="none" stroke="#000000" d="M185.961,-60C185.961,-24.1406 116.5827,-57.9598 109.5365,-29.1772"/>
<polygon fill="#000000" stroke="#000000" points="111.2528,-28.776 108.961,-24 107.7742,-29.1628 111.2528,-28.776"/>
<text text-anchor="middle" x="128.3338" y="-44.8015" font-family="Helvetica,sans-Serif" font-size="14.00" fill="#000000">vector</text>
</g>
<!-- n10 -->
<!-- ? -->
<g id="n10" class="node">
<title>n10</title>
<path fill="none" stroke="#000000" d="M925.961,-180C925.961,-180 933.961,-180 933.961,-180 937.961,-180 941.961,-184 941.961,-188 941.961,-188 941.961,-196 941.961,-196 941.961,-200 937.961,-204 933.961,-204 933.961,-204 925.961,-204 925.961,-204 921.961,-204 917.961,-200 917.961,-196 917.961,-196 917.961,-188 917.961,-188 917.961,-184 921.961,-180 925.961,-180"/>
<text text-anchor="start" x="926.0679" y="-187.8" font-family="Helvetica,sans-Serif" font-size="14.00" fill="#000000">?</text>
</g>
<!-- n11 -->
<!-- ? -->
<g id="n11" class="node">
<title>n11</title>
<path fill="none" stroke="#000000" d="M967.961,-180C967.961,-180 975.961,-180 975.961,-180 979.961,-180 983.961,-184 983.961,-188 983.961,-188 983.961,-196 983.961,-196 983.961,-200 979.961,-204 975.961,-204 975.961,-204 967.961,-204 967.961,-204 963.961,-204 959.961,-200 959.961,-196 959.961,-196 959.961,-188 959.961,-188 959.961,-184 963.961,-180 967.961,-180"/>
<text text-anchor="start" x="968.0679" y="-187.8" font-family="Helvetica,sans-Serif" font-size="14.00" fill="#000000">?</text>
</g>
<!-- n12 -->
<!-- ? -->
<g id="n12" class="node">
<title>n12</title>
<path fill="none" stroke="#000000" d="M1014.961,0C1014.961,0 1046.961,0 1046.961,0 1050.961,0 1054.961,-4 1054.961,-8 1054.961,-8 1054.961,-16 1054.961,-16 1054.961,-20 1050.961,-24 1046.961,-24 1046.961,-24 1014.961,-24 1014.961,-24 1010.961,-24 1006.961,-20 1006.961,-16 1006.961,-16 1006.961,-8 1006.961,-8 1006.961,-4 1010.961,0 1014.961,0"/>
<text text-anchor="start" x="1027.0679" y="-7.8" font-family="Helvetica,sans-Serif" font-size="14.00" fill="#000000">?</text>
</g>
<!-- n13 -->
<!-- ? -->
<g id="n13" class="node">
<title>n13</title>
<path fill="none" stroke="#000000" d="M1009.961,-180C1009.961,-180 1017.961,-180 1017.961,-180 1021.961,-180 1025.961,-184 1025.961,-188 1025.961,-188 1025.961,-196 1025.961,-196 1025.961,-200 1021.961,-204 1017.961,-204 1017.961,-204 1009.961,-204 1009.961,-204 1005.961,-204 1001.961,-200 1001.961,-196 1001.961,-196 1001.961,-188 1001.961,-188 1001.961,-184 1005.961,-180 1009.961,-180"/>
<text text-anchor="start" x="1010.0679" y="-187.8" font-family="Helvetica,sans-Serif" font-size="14.00" fill="#000000">?</text>
</g>
<!-- n14 -->
<!-- ? -->
<g id="n14" class="node">
<title>n14</title>
<path fill="none" stroke="#000000" d="M1051.961,-180C1051.961,-180 1059.961,-180 1059.961,-180 1063.961,-180 1067.961,-184 1067.961,-188 1067.961,-188 1067.961,-196 1067.961,-196 1067.961,-200 1063.961,-204 1059.961,-204 1059.961,-204 1051.961,-204 1051.961,-204 1047.961,-204 1043.961,-200 1043.961,-196 1043.961,-196 1043.961,-188 1043.961,-188 1043.961,-184 1047.961,-180 1051.961,-180"/>
<text text-anchor="start" x="1052.0679" y="-187.8" font-family="Helvetica,sans-Serif" font-size="14.00" fill="#000000">?</text>
</g>
<!-- n15 -->
<!-- ? -->
<g id="n15" class="node">
<title>n15</title>
<path fill="none" stroke="#000000" d="M624.961,-120C624.961,-120 680.961,-120 680.961,-120 684.961,-120 688.961,-124 688.961,-128 688.961,-128 688.961,-136 688.961,-136 688.961,-140 684.961,-144 680.961,-144 680.961,-144 624.961,-144 624.961,-144 620.961,-144 616.961,-140 616.961,-136 616.961,-136 616.961,-128 616.961,-128 616.961,-124 620.961,-120 624.961,-120"/>
<text text-anchor="start" x="649.0679" y="-127.8" font-family="Helvetica,sans-Serif" font-size="14.00" fill="#000000">?</text>
</g>
<!-- n15&#45;&gt;n6 -->
<!-- array -->
<g id="e7" class="edge">
<title>n15:s&#45;&gt;n6:n</title>
<path fill="none" stroke="#000000" d="M652.961,-120C652.961,-101.0133 635.2858,-102.2247 629.961,-84 622.9548,-60.0204 633.3885,-51.8425 634.8051,-29.0878"/>
<polygon fill="#000000" stroke="#000000" points="636.5569,-29.0513 634.961,-24 633.0586,-28.944 636.5569,-29.0513"/>
<text text-anchor="middle" x="611.905" y="-76.601" font-family="Helvetica,sans-Serif" font-size="14.00" fill="#000000">array</text>
</g>
<!-- n15&#45;&gt;n6 -->
<!-- array -->
<g id="e8" class="edge">
<title>n15:s&#45;&gt;n6:n</title>
<path fill="none" stroke="#000000" d="M676.961,-120C676.961,-102.8327 666.6861,-100.7583 662.961,-84 657.5469,-59.6434 658.7555,-51.7635 658.9399,-29.077"/>
<polygon fill="#000000" stroke="#000000" points="660.6902,-29.0072 658.961,-24 657.1902,-28.9927 660.6902,-29.0072"/>
<text text-anchor="middle" x="644.849" y="-76.0043" font-family="Helvetica,sans-Serif" font-size="14.00" fill="#000000">array</text>
</g>
<!-- n21 -->
<!-- predict -->
<g id="n21" class="node">
<title>n21</title>
<path fill="none" stroke="#000000" d="M679.961,-60C679.961,-60 715.961,-60 715.961,-60 719.961,-60 723.961,-64 723.961,-68 723.961,-68 723.961,-76 723.961,-76 723.961,-80 719.961,-84 715.961,-84 715.961,-84 679.961,-84 679.961,-84 675.961,-84 671.961,-80 671.961,-76 671.961,-76 671.961,-68 671.961,-68 671.961,-64 675.961,-60 679.961,-60"/>
<text text-anchor="start" x="676.9507" y="-67.8" font-family="Helvetica,sans-Serif" font-size="14.00" fill="#000000">predict</text>
</g>
<!-- n15&#45;&gt;n21 -->
<!-- array -->
<g id="e9" class="edge">
<title>n15:s&#45;&gt;n21:n</title>
<path fill="none" stroke="#000000" d="M628.961,-120C628.961,-82.0637 703.4537,-119.8974 710.4374,-89.0645"/>
<polygon fill="#000000" stroke="#000000" points="712.1874,-89.1535 710.961,-84 708.706,-88.7935 712.1874,-89.1535"/>
<text text-anchor="middle" x="653.8776" y="-104.7937" font-family="Helvetica,sans-Serif" font-size="14.00" fill="#000000">array</text>
</g>
<!-- n25 -->
<!-- array&#45;shape -->
<g id="n25" class="node">
<title>n25</title>
<path fill="none" stroke="#000000" d="M749.961,-60C749.961,-60 817.961,-60 817.961,-60 821.961,-60 825.961,-64 825.961,-68 825.961,-68 825.961,-76 825.961,-76 825.961,-80 821.961,-84 817.961,-84 817.961,-84 749.961,-84 749.961,-84 745.961,-84 741.961,-80 741.961,-76 741.961,-76 741.961,-68 741.961,-68 741.961,-64 745.961,-60 749.961,-60"/>
<text text-anchor="start" x="746.6094" y="-67.8" font-family="Helvetica,sans-Serif" font-size="14.00" fill="#000000">array&#45;shape</text>
</g>
<!-- n15&#45;&gt;n25 -->
<!-- array -->
<g id="e10" class="edge">
<title>n15:s&#45;&gt;n25:n</title>
<path fill="none" stroke="#000000" d="M652.961,-120C652.961,-61.5062 775.9014,-139.2248 783.5852,-89.2443"/>
<polygon fill="#000000" stroke="#000000" points="785.3491,-89.1123 783.961,-84 781.858,-88.8621 785.3491,-89.1123"/>
<text text-anchor="middle" x="702.7886" y="-104.8513" font-family="Helvetica,sans-Serif" font-size="14.00" fill="#000000">array</text>
</g>
<!-- n16 -->
<!-- ? -->
<g id="n16" class="node">
<title>n16</title>
<path fill="none" stroke="#000000" d="M851.961,-60C851.961,-60 859.961,-60 859.961,-60 863.961,-60 867.961,-64 867.961,-68 867.961,-68 867.961,-76 867.961,-76 867.961,-80 863.961,-84 859.961,-84 859.961,-84 851.961,-84 851.961,-84 847.961,-84 843.961,-80 843.961,-76 843.961,-76 843.961,-68 843.961,-68 843.961,-64 847.961,-60 851.961,-60"/>
<text text-anchor="start" x="852.0679" y="-67.8" font-family="Helvetica,sans-Serif" font-size="14.00" fill="#000000">?</text>
</g>
<!-- n17 -->
<!-- ? -->
<g id="n17" class="node">
<title>n17</title>
<path fill="none" stroke="#000000" d="M1093.961,-180C1093.961,-180 1101.961,-180 1101.961,-180 1105.961,-180 1109.961,-184 1109.961,-188 1109.961,-188 1109.961,-196 1109.961,-196 1109.961,-200 1105.961,-204 1101.961,-204 1101.961,-204 1093.961,-204 1093.961,-204 1089.961,-204 1085.961,-200 1085.961,-196 1085.961,-196 1085.961,-188 1085.961,-188 1085.961,-184 1089.961,-180 1093.961,-180"/>
<text text-anchor="start" x="1094.0679" y="-187.8" font-family="Helvetica,sans-Serif" font-size="14.00" fill="#000000">?</text>
</g>
<!-- n18 -->
<!-- svm&#45;support&#45;vectors -->
<g id="n18" class="node">
<title>n18</title>
<path fill="none" stroke="#000000" d="M407.961,-60C407.961,-60 527.961,-60 527.961,-60 531.961,-60 535.961,-64 535.961,-68 535.961,-68 535.961,-76 535.961,-76 535.961,-80 531.961,-84 527.961,-84 527.961,-84 407.961,-84 407.961,-84 403.961,-84 399.961,-80 399.961,-76 399.961,-76 399.961,-68 399.961,-68 399.961,-64 403.961,-60 407.961,-60"/>
<text text-anchor="start" x="404.5577" y="-67.8" font-family="Helvetica,sans-Serif" font-size="14.00" fill="#000000">svm&#45;support&#45;vectors</text>
</g>
<!-- n32 -->
<!-- ? -->
<g id="n32" class="node">
<title>n32</title>
<path fill="none" stroke="#000000" d="M374.961,0C374.961,0 406.961,0 406.961,0 410.961,0 414.961,-4 414.961,-8 414.961,-8 414.961,-16 414.961,-16 414.961,-20 410.961,-24 406.961,-24 406.961,-24 374.961,-24 374.961,-24 370.961,-24 366.961,-20 366.961,-16 366.961,-16 366.961,-8 366.961,-8 366.961,-4 370.961,0 374.961,0"/>
<text text-anchor="start" x="387.0679" y="-7.8" font-family="Helvetica,sans-Serif" font-size="14.00" fill="#000000">?</text>
</g>
<!-- n18&#45;&gt;n32 -->
<!-- array -->
<g id="e11" class="edge">
<title>n18:s&#45;&gt;n32:n</title>
<path fill="none" stroke="#000000" d="M467.961,-60C467.961,-28.9112 410.355,-53.7191 403.6043,-29.1807"/>
<polygon fill="#000000" stroke="#000000" points="405.3139,-28.7462 402.961,-24 401.8406,-29.1776 405.3139,-28.7462"/>
<text text-anchor="middle" x="419.5009" y="-44.7995" font-family="Helvetica,sans-Serif" font-size="14.00" fill="#000000">array</text>
</g>
<!-- n19 -->
<!-- ? -->
<g id="n19" class="node">
<title>n19</title>
<path fill="none" stroke="#000000" d="M1135.961,-180C1135.961,-180 1143.961,-180 1143.961,-180 1147.961,-180 1151.961,-184 1151.961,-188 1151.961,-188 1151.961,-196 1151.961,-196 1151.961,-200 1147.961,-204 1143.961,-204 1143.961,-204 1135.961,-204 1135.961,-204 1131.961,-204 1127.961,-200 1127.961,-196 1127.961,-196 1127.961,-188 1127.961,-188 1127.961,-184 1131.961,-180 1135.961,-180"/>
<text text-anchor="start" x="1136.0679" y="-187.8" font-family="Helvetica,sans-Serif" font-size="14.00" fill="#000000">?</text>
</g>
<!-- n20 -->
<!-- ? -->
<g id="n20" class="node">
<title>n20</title>
<path fill="none" stroke="#000000" d="M1177.961,-180C1177.961,-180 1185.961,-180 1185.961,-180 1189.961,-180 1193.961,-184 1193.961,-188 1193.961,-188 1193.961,-196 1193.961,-196 1193.961,-200 1189.961,-204 1185.961,-204 1185.961,-204 1177.961,-204 1177.961,-204 1173.961,-204 1169.961,-200 1169.961,-196 1169.961,-196 1169.961,-188 1169.961,-188 1169.961,-184 1173.961,-180 1177.961,-180"/>
<text text-anchor="start" x="1178.0679" y="-187.8" font-family="Helvetica,sans-Serif" font-size="14.00" fill="#000000">?</text>
</g>
<!-- n21&#45;&gt;n6 -->
<!-- data -->
<g id="e12" class="edge">
<title>n21:s&#45;&gt;n6:n</title>
<path fill="none" stroke="#000000" d="M697.961,-60C697.961,-44.5625 686.0628,-41.8164 683.4601,-29.1552"/>
<polygon fill="#000000" stroke="#000000" points="685.1847,-28.8081 682.961,-24 681.701,-29.1454 685.1847,-28.8081"/>
<text text-anchor="middle" x="676.815" y="-44.7727" font-family="Helvetica,sans-Serif" font-size="14.00" fill="#000000">data</text>
</g>
<!-- n22 -->
<!-- svm&#45;classification -->
<g id="n22" class="node">
<title>n22</title>
<path fill="none" stroke="#000000" d="M442.961,-180C442.961,-180 545.961,-180 545.961,-180 549.961,-180 553.961,-184 553.961,-188 553.961,-188 553.961,-196 553.961,-196 553.961,-200 549.961,-204 545.961,-204 545.961,-204 442.961,-204 442.961,-204 438.961,-204 434.961,-200 434.961,-196 434.961,-196 434.961,-188 434.961,-188 434.961,-184 438.961,-180 442.961,-180"/>
<text text-anchor="start" x="439.6163" y="-187.8" font-family="Helvetica,sans-Serif" font-size="14.00" fill="#000000">svm&#45;classification</text>
</g>
<!-- n22&#45;&gt;n23 -->
<!-- svm&#45;classification -->
<g id="e13" class="edge">
<title>n22:s&#45;&gt;n23:n</title>
<path fill="none" stroke="#000000" d="M494.961,-180C494.961,-165.875 494.961,-161.1023 494.961,-149.1692"/>
<polygon fill="#000000" stroke="#000000" points="496.7111,-149 494.961,-144 493.2111,-149 496.7111,-149"/>
<text text-anchor="middle" x="440.1163" y="-164.9025" font-family="Helvetica,sans-Serif" font-size="14.00" fill="#000000">svm&#45;classification</text>
</g>
<!-- n23&#45;&gt;n8 -->
<!-- supervised&#45;model -->
<g id="e14" class="edge">
<title>n23:s&#45;&gt;n8:n</title>
<path fill="none" stroke="#000000" d="M526.961,-120C526.961,-23.7158 103.1376,-176.2482 87.4098,-89.1974"/>
<polygon fill="#000000" stroke="#000000" points="89.1348,-88.8309 86.961,-84 85.6477,-89.1321 89.1348,-88.8309"/>
<text text-anchor="middle" x="251.8266" y="-104.784" font-family="Helvetica,sans-Serif" font-size="14.00" fill="#000000">supervised&#45;model</text>
</g>
<!-- n23&#45;&gt;n18 -->
<!-- supervised&#45;model -->
<g id="e15" class="edge">
<title>n23:s&#45;&gt;n18:n</title>
<path fill="none" stroke="#000000" d="M526.961,-120C526.961,-91.2017 475.1055,-111.758 468.6236,-89.129"/>
<polygon fill="#000000" stroke="#000000" points="470.3373,-88.7346 467.961,-84 466.8661,-89.183 470.3373,-88.7346"/>
<text text-anchor="middle" x="442.0617" y="-90.7865" font-family="Helvetica,sans-Serif" font-size="14.00" fill="#000000">supervised&#45;model</text>
</g>
<!-- n24 -->
<!-- svm&#45;support&#45;vectors -->
<g id="n24" class="node">
<title>n24</title>
<path fill="none" stroke="#000000" d="M253.961,-60C253.961,-60 373.961,-60 373.961,-60 377.961,-60 381.961,-64 381.961,-68 381.961,-68 381.961,-76 381.961,-76 381.961,-80 377.961,-84 373.961,-84 373.961,-84 253.961,-84 253.961,-84 249.961,-84 245.961,-80 245.961,-76 245.961,-76 245.961,-68 245.961,-68 245.961,-64 249.961,-60 253.961,-60"/>
<text text-anchor="start" x="250.5577" y="-67.8" font-family="Helvetica,sans-Serif" font-size="14.00" fill="#000000">svm&#45;support&#45;vectors</text>
</g>
<!-- n23&#45;&gt;n24 -->
<!-- supervised&#45;model -->
<g id="e16" class="edge">
<title>n23:s&#45;&gt;n24:n</title>
<path fill="none" stroke="#000000" d="M526.961,-120C526.961,-25.7722 321.792,-174.3063 314.1783,-89.0872"/>
<polygon fill="#000000" stroke="#000000" points="315.9229,-88.9207 313.961,-84 312.426,-89.0702 315.9229,-88.9207"/>
<text text-anchor="middle" x="365.1148" y="-104.8276" font-family="Helvetica,sans-Serif" font-size="14.00" fill="#000000">supervised&#45;model</text>
</g>
<!-- n28 -->
<!-- ? -->
<g id="n28" class="node">
<title>n28</title>
<path fill="none" stroke="#000000" d="M561.961,-60C561.961,-60 569.961,-60 569.961,-60 573.961,-60 577.961,-64 577.961,-68 577.961,-68 577.961,-76 577.961,-76 577.961,-80 573.961,-84 569.961,-84 569.961,-84 561.961,-84 561.961,-84 557.961,-84 553.961,-80 553.961,-76 553.961,-76 553.961,-68 553.961,-68 553.961,-64 557.961,-60 561.961,-60"/>
<text text-anchor="start" x="562.0679" y="-67.8" font-family="Helvetica,sans-Serif" font-size="14.00" fill="#000000">?</text>
</g>
<!-- n23&#45;&gt;n28 -->
<!-- supervised&#45;model -->
<g id="e17" class="edge">
<title>n23:s&#45;&gt;n28:n</title>
<path fill="none" stroke="#000000" d="M526.961,-120C526.961,-98.4381 559.5459,-105.9246 565.1464,-89.3554"/>
<polygon fill="#000000" stroke="#000000" points="566.9392,-89.2063 565.961,-84 563.479,-88.68 566.9392,-89.2063"/>
<text text-anchor="middle" x="491.2058" y="-104.8023" font-family="Helvetica,sans-Serif" font-size="14.00" fill="#000000">supervised&#45;model</text>
</g>
<!-- n24&#45;&gt;n32 -->
<!-- array -->
<g id="e18" class="edge">
<title>n24:s&#45;&gt;n32:n</title>
<path fill="none" stroke="#000000" d="M313.961,-60C313.961,-28.9112 371.567,-53.7191 378.3177,-29.1807"/>
<polygon fill="#000000" stroke="#000000" points="380.0814,-29.1776 378.961,-24 376.6081,-28.7462 380.0814,-29.1776"/>
<text text-anchor="middle" x="330.5247" y="-44.7995" font-family="Helvetica,sans-Serif" font-size="14.00" fill="#000000">array</text>
</g>
<!-- n25&#45;&gt;n6 -->
<!-- vector -->
<g id="e19" class="edge">
<title>n25:s&#45;&gt;n6:n</title>
<path fill="none" stroke="#000000" d="M783.961,-60C783.961,-24.1406 714.5827,-57.9598 707.5365,-29.1772"/>
<polygon fill="#000000" stroke="#000000" points="709.2528,-28.776 706.961,-24 705.7742,-29.1628 709.2528,-28.776"/>
<text text-anchor="middle" x="726.3338" y="-44.8015" font-family="Helvetica,sans-Serif" font-size="14.00" fill="#000000">vector</text>
</g>
<!-- n26 -->
<!-- svm&#45;classification -->
<g id="n26" class="node">
<title>n26</title>
<path fill="none" stroke="#000000" d="M680.961,-180C680.961,-180 783.961,-180 783.961,-180 787.961,-180 791.961,-184 791.961,-188 791.961,-188 791.961,-196 791.961,-196 791.961,-200 787.961,-204 783.961,-204 783.961,-204 680.961,-204 680.961,-204 676.961,-204 672.961,-200 672.961,-196 672.961,-196 672.961,-188 672.961,-188 672.961,-184 676.961,-180 680.961,-180"/>
<text text-anchor="start" x="677.6163" y="-187.8" font-family="Helvetica,sans-Serif" font-size="14.00" fill="#000000">svm&#45;classification</text>
</g>
<!-- n26&#45;&gt;n27 -->
<!-- svm&#45;classification -->
<g id="e20" class="edge">
<title>n26:s&#45;&gt;n27:n</title>
<path fill="none" stroke="#000000" d="M732.961,-180C732.961,-151.9097 783.0587,-171.1827 789.3209,-149.0129"/>
<polygon fill="#000000" stroke="#000000" points="791.0635,-149.1814 789.961,-144 787.5917,-148.738 791.0635,-149.1814"/>
<text text-anchor="middle" x="816.4518" y="-150.7845" font-family="Helvetica,sans-Serif" font-size="14.00" fill="#000000">svm&#45;classification</text>
</g>
<!-- n27&#45;&gt;n16 -->
<!-- supervised&#45;model -->
<g id="e21" class="edge">
<title>n27:s&#45;&gt;n16:n</title>
<path fill="none" stroke="#000000" d="M821.961,-120C821.961,-99.8834 850.3683,-104.8519 855.2509,-89.0468"/>
<polygon fill="#000000" stroke="#000000" points="856.9972,-89.1951 855.961,-84 853.5313,-88.7074 856.9972,-89.1951"/>
<text text-anchor="middle" x="783.7067" y="-104.8026" font-family="Helvetica,sans-Serif" font-size="14.00" fill="#000000">supervised&#45;model</text>
</g>
<!-- n27&#45;&gt;n21 -->
<!-- supervised&#45;model -->
<g id="e22" class="edge">
<title>n27:s&#45;&gt;n21:n</title>
<path fill="none" stroke="#000000" d="M821.961,-120C821.961,-58.8884 692.8708,-141.8189 685.3069,-89.1473"/>
<polygon fill="#000000" stroke="#000000" points="687.0424,-88.8714 684.961,-84 683.5502,-89.1061 687.0424,-88.8714"/>
<text text-anchor="middle" x="698.4959" y="-90.7443" font-family="Helvetica,sans-Serif" font-size="14.00" fill="#000000">supervised&#45;model</text>
</g>
<!-- n30 -->
<!-- svm&#45;support&#45;vectors -->
<g id="n30" class="node">
<title>n30</title>
<path fill="none" stroke="#000000" d="M1047.961,-60C1047.961,-60 1167.961,-60 1167.961,-60 1171.961,-60 1175.961,-64 1175.961,-68 1175.961,-68 1175.961,-76 1175.961,-76 1175.961,-80 1171.961,-84 1167.961,-84 1167.961,-84 1047.961,-84 1047.961,-84 1043.961,-84 1039.961,-80 1039.961,-76 1039.961,-76 1039.961,-68 1039.961,-68 1039.961,-64 1043.961,-60 1047.961,-60"/>
<text text-anchor="start" x="1044.5577" y="-67.8" font-family="Helvetica,sans-Serif" font-size="14.00" fill="#000000">svm&#45;support&#45;vectors</text>
</g>
<!-- n27&#45;&gt;n30 -->
<!-- supervised&#45;model -->
<g id="e23" class="edge">
<title>n27:s&#45;&gt;n30:n</title>
<path fill="none" stroke="#000000" d="M821.961,-120C821.961,-57.8196 1091.4487,-142.7938 1107.239,-89.2357"/>
<polygon fill="#000000" stroke="#000000" points="1109.0114,-89.1922 1107.961,-84 1105.5443,-88.714 1109.0114,-89.1922"/>
<text text-anchor="middle" x="909.5288" y="-90.7819" font-family="Helvetica,sans-Serif" font-size="14.00" fill="#000000">supervised&#45;model</text>
</g>
<!-- n34 -->
<!-- svm&#45;support&#45;vectors -->
<g id="n34" class="node">
<title>n34</title>
<path fill="none" stroke="#000000" d="M893.961,-60C893.961,-60 1013.961,-60 1013.961,-60 1017.961,-60 1021.961,-64 1021.961,-68 1021.961,-68 1021.961,-76 1021.961,-76 1021.961,-80 1017.961,-84 1013.961,-84 1013.961,-84 893.961,-84 893.961,-84 889.961,-84 885.961,-80 885.961,-76 885.961,-76 885.961,-68 885.961,-68 885.961,-64 889.961,-60 893.961,-60"/>
<text text-anchor="start" x="890.5577" y="-67.8" font-family="Helvetica,sans-Serif" font-size="14.00" fill="#000000">svm&#45;support&#45;vectors</text>
</g>
<!-- n27&#45;&gt;n34 -->
<!-- supervised&#45;model -->
<g id="e24" class="edge">
<title>n27:s&#45;&gt;n34:n</title>
<path fill="none" stroke="#000000" d="M821.961,-120C821.961,-61.0909 945.8399,-139.6012 953.5823,-89.2808"/>
<polygon fill="#000000" stroke="#000000" points="955.3488,-89.1124 953.961,-84 951.8578,-88.862 955.3488,-89.1124"/>
<text text-anchor="middle" x="943.487" y="-104.8522" font-family="Helvetica,sans-Serif" font-size="14.00" fill="#000000">supervised&#45;model</text>
</g>
<!-- n29 -->
<!-- ? -->
<g id="n29" class="node">
<title>n29</title>
<path fill="none" stroke="#000000" d="M1219.961,-180C1219.961,-180 1227.961,-180 1227.961,-180 1231.961,-180 1235.961,-184 1235.961,-188 1235.961,-188 1235.961,-196 1235.961,-196 1235.961,-200 1231.961,-204 1227.961,-204 1227.961,-204 1219.961,-204 1219.961,-204 1215.961,-204 1211.961,-200 1211.961,-196 1211.961,-196 1211.961,-188 1211.961,-188 1211.961,-184 1215.961,-180 1219.961,-180"/>
<text text-anchor="start" x="1220.0679" y="-187.8" font-family="Helvetica,sans-Serif" font-size="14.00" fill="#000000">?</text>
</g>
<!-- n30&#45;&gt;n12 -->
<!-- array -->
<g id="e25" class="edge">
<title>n30:s&#45;&gt;n12:n</title>
<path fill="none" stroke="#000000" d="M1107.961,-60C1107.961,-28.9112 1050.355,-53.7191 1043.6043,-29.1807"/>
<polygon fill="#000000" stroke="#000000" points="1045.3139,-28.7462 1042.961,-24 1041.8406,-29.1776 1045.3139,-28.7462"/>
<text text-anchor="middle" x="1059.5009" y="-44.7995" font-family="Helvetica,sans-Serif" font-size="14.00" fill="#000000">array</text>
</g>
<!-- n33 -->
<!-- ? -->
<g id="n33" class="node">
<title>n33</title>
<path fill="none" stroke="#000000" d="M1261.961,-180C1261.961,-180 1269.961,-180 1269.961,-180 1273.961,-180 1277.961,-184 1277.961,-188 1277.961,-188 1277.961,-196 1277.961,-196 1277.961,-200 1273.961,-204 1269.961,-204 1269.961,-204 1261.961,-204 1261.961,-204 1257.961,-204 1253.961,-200 1253.961,-196 1253.961,-196 1253.961,-188 1253.961,-188 1253.961,-184 1257.961,-180 1261.961,-180"/>
<text text-anchor="start" x="1262.0679" y="-187.8" font-family="Helvetica,sans-Serif" font-size="14.00" fill="#000000">?</text>
</g>
<!-- n34&#45;&gt;n12 -->
<!-- array -->
<g id="e26" class="edge">
<title>n34:s&#45;&gt;n12:n</title>
<path fill="none" stroke="#000000" d="M953.961,-60C953.961,-28.9112 1011.567,-53.7191 1018.3177,-29.1807"/>
<polygon fill="#000000" stroke="#000000" points="1020.0814,-29.1776 1018.961,-24 1016.6081,-28.7462 1020.0814,-29.1776"/>
<text text-anchor="middle" x="970.5247" y="-44.7995" font-family="Helvetica,sans-Serif" font-size="14.00" fill="#000000">array</text>
</g>
<!-- n35 -->
<!-- ? -->
<g id="n35" class="node">
<title>n35</title>
<path fill="none" stroke="#000000" d="M1303.961,-180C1303.961,-180 1311.961,-180 1311.961,-180 1315.961,-180 1319.961,-184 1319.961,-188 1319.961,-188 1319.961,-196 1319.961,-196 1319.961,-200 1315.961,-204 1311.961,-204 1311.961,-204 1303.961,-204 1303.961,-204 1299.961,-204 1295.961,-200 1295.961,-196 1295.961,-196 1295.961,-188 1295.961,-188 1295.961,-184 1299.961,-180 1303.961,-180"/>
<text text-anchor="start" x="1304.0679" y="-187.8" font-family="Helvetica,sans-Serif" font-size="14.00" fill="#000000">?</text>
</g>
<!-- n36 -->
<!-- ? -->
<g id="n36" class="node">
<title>n36</title>
<path fill="none" stroke="#000000" d="M1345.961,-180C1345.961,-180 1353.961,-180 1353.961,-180 1357.961,-180 1361.961,-184 1361.961,-188 1361.961,-188 1361.961,-196 1361.961,-196 1361.961,-200 1357.961,-204 1353.961,-204 1353.961,-204 1345.961,-204 1345.961,-204 1341.961,-204 1337.961,-200 1337.961,-196 1337.961,-196 1337.961,-188 1337.961,-188 1337.961,-184 1341.961,-180 1345.961,-180"/>
<text text-anchor="start" x="1346.0679" y="-187.8" font-family="Helvetica,sans-Serif" font-size="14.00" fill="#000000">?</text>
</g>
<!-- n37 -->
<!-- ? -->
<g id="n37" class="node">
<title>n37</title>
<path fill="none" stroke="#000000" d="M1387.961,-180C1387.961,-180 1395.961,-180 1395.961,-180 1399.961,-180 1403.961,-184 1403.961,-188 1403.961,-188 1403.961,-196 1403.961,-196 1403.961,-200 1399.961,-204 1395.961,-204 1395.961,-204 1387.961,-204 1387.961,-204 1383.961,-204 1379.961,-200 1379.961,-196 1379.961,-196 1379.961,-188 1379.961,-188 1379.961,-184 1383.961,-180 1387.961,-180"/>
<text text-anchor="start" x="1388.0679" y="-187.8" font-family="Helvetica,sans-Serif" font-size="14.00" fill="#000000">?</text>
</g>
<!-- n38 -->
<!-- ? -->
<g id="n38" class="node">
<title>n38</title>
<path fill="none" stroke="#000000" d="M50.961,-120C50.961,-120 106.961,-120 106.961,-120 110.961,-120 114.961,-124 114.961,-128 114.961,-128 114.961,-136 114.961,-136 114.961,-140 110.961,-144 106.961,-144 106.961,-144 50.961,-144 50.961,-144 46.961,-144 42.961,-140 42.961,-136 42.961,-136 42.961,-128 42.961,-128 42.961,-124 46.961,-120 50.961,-120"/>
<text text-anchor="start" x="75.0679" y="-127.8" font-family="Helvetica,sans-Serif" font-size="14.00" fill="#000000">?</text>
</g>
<!-- n38&#45;&gt;n8 -->
<!-- array -->
<g id="e27" class="edge">
<title>n38:s&#45;&gt;n8:n</title>
<path fill="none" stroke="#000000" d="M54.961,-120C54.961,-91.5566 105.9376,-111.4696 112.3096,-89.0708"/>
<polygon fill="#000000" stroke="#000000" points="114.0596,-89.1822 112.961,-84 110.5881,-88.7363 114.0596,-89.1822"/>
<text text-anchor="middle" x="68.1614" y="-104.7855" font-family="Helvetica,sans-Serif" font-size="14.00" fill="#000000">array</text>
</g>
<!-- n38&#45;&gt;n9 -->
<!-- array -->
<g id="e28" class="edge">
<title>n38:s&#45;&gt;n9:n</title>
<path fill="none" stroke="#000000" d="M78.961,-120C78.961,-71.785 177.7649,-129.3224 185.4839,-89.3693"/>
<polygon fill="#000000" stroke="#000000" points="187.2615,-89.1353 185.961,-84 183.7753,-88.8255 187.2615,-89.1353"/>
<text text-anchor="middle" x="116.3903" y="-104.7838" font-family="Helvetica,sans-Serif" font-size="14.00" fill="#000000">array</text>
</g>
<!-- n38&#45;&gt;n31 -->
<!-- array -->
<g id="e29" class="edge">
<title>n38:s&#45;&gt;n31:n</title>
<path fill="none" stroke="#000000" d="M78.961,-120C78.961,-93.6875 43.6089,-107.5939 31.961,-84 20.902,-61.599 34.8502,-52.0522 36.7515,-29.1087"/>
<polygon fill="#000000" stroke="#000000" points="38.5045,-29.0675 36.961,-24 35.0075,-28.9241 38.5045,-29.0675"/>
<text text-anchor="middle" x="15.9482" y="-86.6689" font-family="Helvetica,sans-Serif" font-size="14.00" fill="#000000">array</text>
</g>
<!-- n38&#45;&gt;n31 -->
<!-- array -->
<g id="e30" class="edge">
<title>n38:s&#45;&gt;n31:n</title>
<path fill="none" stroke="#000000" d="M102.961,-120C102.961,-96.7356 74.8596,-105.0536 64.961,-84 54.3448,-61.4201 60.0646,-51.9995 60.8711,-29.1005"/>
<polygon fill="#000000" stroke="#000000" points="62.6225,-29.0301 60.961,-24 59.1231,-28.9684 62.6225,-29.0301"/>
<text text-anchor="middle" x="47.0083" y="-68.223" font-family="Helvetica,sans-Serif" font-size="14.00" fill="#000000">array</text>
</g>
<!-- n39 -->
<!-- ? -->
<g id="n39" class="node">
<title>n39</title>
<path fill="none" stroke="#000000" d="M1429.961,-180C1429.961,-180 1437.961,-180 1437.961,-180 1441.961,-180 1445.961,-184 1445.961,-188 1445.961,-188 1445.961,-196 1445.961,-196 1445.961,-200 1441.961,-204 1437.961,-204 1437.961,-204 1429.961,-204 1429.961,-204 1425.961,-204 1421.961,-200 1421.961,-196 1421.961,-196 1421.961,-188 1421.961,-188 1421.961,-184 1425.961,-180 1429.961,-180"/>
<text text-anchor="start" x="1430.0679" y="-187.8" font-family="Helvetica,sans-Serif" font-size="14.00" fill="#000000">?</text>
</g>
<!-- n40 -->
<!-- ? -->
<g id="n40" class="node">
<title>n40</title>
<path fill="none" stroke="#000000" d="M1471.961,-180C1471.961,-180 1479.961,-180 1479.961,-180 1483.961,-180 1487.961,-184 1487.961,-188 1487.961,-188 1487.961,-196 1487.961,-196 1487.961,-200 1483.961,-204 1479.961,-204 1479.961,-204 1471.961,-204 1471.961,-204 1467.961,-204 1463.961,-200 1463.961,-196 1463.961,-196 1463.961,-188 1463.961,-188 1463.961,-184 1467.961,-180 1471.961,-180"/>
<text text-anchor="start" x="1472.0679" y="-187.8" font-family="Helvetica,sans-Serif" font-size="14.00" fill="#000000">?</text>
</g>
<!-- n41 -->
<!-- ? -->
<g id="n41" class="node">
<title>n41</title>
<path fill="none" stroke="#000000" d="M1513.961,-180C1513.961,-180 1521.961,-180 1521.961,-180 1525.961,-180 1529.961,-184 1529.961,-188 1529.961,-188 1529.961,-196 1529.961,-196 1529.961,-200 1525.961,-204 1521.961,-204 1521.961,-204 1513.961,-204 1513.961,-204 1509.961,-204 1505.961,-200 1505.961,-196 1505.961,-196 1505.961,-188 1505.961,-188 1505.961,-184 1509.961,-180 1513.961,-180"/>
<text text-anchor="start" x="1514.0679" y="-187.8" font-family="Helvetica,sans-Serif" font-size="14.00" fill="#000000">?</text>
</g>
<!-- n42 -->
<!-- ? -->
<g id="n42" class="node">
<title>n42</title>
<path fill="none" stroke="#000000" d="M1555.961,-180C1555.961,-180 1563.961,-180 1563.961,-180 1567.961,-180 1571.961,-184 1571.961,-188 1571.961,-188 1571.961,-196 1571.961,-196 1571.961,-200 1567.961,-204 1563.961,-204 1563.961,-204 1555.961,-204 1555.961,-204 1551.961,-204 1547.961,-200 1547.961,-196 1547.961,-196 1547.961,-188 1547.961,-188 1547.961,-184 1551.961,-180 1555.961,-180"/>
<text text-anchor="start" x="1556.0679" y="-187.8" font-family="Helvetica,sans-Serif" font-size="14.00" fill="#000000">?</text>
</g>
</g>
</svg>
