<?xml version="1.0" encoding="UTF-8" standalone="no"?>
<!DOCTYPE svg PUBLIC "-//W3C//DTD SVG 1.1//EN"
 "http://www.w3.org/Graphics/SVG/1.1/DTD/svg11.dtd">
<!-- Generated by graphviz version 2.40.1 (20161225.0304)
 -->
<!-- Title: raw_flow_graph Pages: 1 -->
<svg width="1234pt" height="932pt"
 viewBox="0.00 0.00 1233.94 932.00" xmlns="http://www.w3.org/2000/svg" xmlns:xlink="http://www.w3.org/1999/xlink">
<g id="graph0" class="graph" transform="scale(1 1) rotate(0) translate(4 928)">
<title>raw_flow_graph</title>
<polygon fill="#ffffff" stroke="transparent" points="-4,4 -4,-928 1229.9423,-928 1229.9423,4 -4,4"/>
<!-- n3 -->
<!-- print -->
<g id="n3" class="node">
<title>n3</title>
<polygon fill="none" stroke="#000000" points="293.4423,-900 293.4423,-924 345.4423,-924 345.4423,-900 293.4423,-900"/>
<text text-anchor="start" x="298.4389" y="-907.8" font-family="Courier,monospace" font-size="14.00" fill="#000000">print</text>
</g>
<!-- n4 -->
<!-- __list__ -->
<g id="n4" class="node">
<title>n4</title>
<polygon fill="none" stroke="#000000" points="485.4423,-600 485.4423,-624 562.4423,-624 562.4423,-600 485.4423,-600"/>
<text text-anchor="start" x="490.3369" y="-607.8" font-family="Courier,monospace" font-size="14.00" fill="#000000">__list__</text>
</g>
<!-- n6 -->
<!-- __list__ -->
<g id="n6" class="node">
<title>n6</title>
<polygon fill="none" stroke="#000000" points="525.4423,-540 525.4423,-564 602.4423,-564 602.4423,-540 525.4423,-540"/>
<text text-anchor="start" x="530.3369" y="-547.8" font-family="Courier,monospace" font-size="14.00" fill="#000000">__list__</text>
</g>
<!-- n4&#45;&gt;n6 -->
<g id="e1" class="edge">
<title>n4:s&#45;&gt;n6:n</title>
<path fill="none" stroke="#000000" d="M524.4423,-600C524.4423,-583.5556 540.5861,-582.3752 543.8653,-569.0313"/>
<polygon fill="#000000" stroke="#000000" points="545.6112,-569.1669 544.4423,-564 542.134,-568.768 545.6112,-569.1669"/>
</g>
<!-- n5 -->
<!-- __list__ -->
<g id="n5" class="node">
<title>n5</title>
<polygon fill="none" stroke="#000000" points="580.4423,-600 580.4423,-624 657.4423,-624 657.4423,-600 580.4423,-600"/>
<text text-anchor="start" x="585.3369" y="-607.8" font-family="Courier,monospace" font-size="14.00" fill="#000000">__list__</text>
</g>
<!-- n5&#45;&gt;n6 -->
<g id="e2" class="edge">
<title>n5:s&#45;&gt;n6:n</title>
<path fill="none" stroke="#000000" d="M619.4423,-600C619.4423,-579.3171 589.364,-585.2722 584.1942,-569.1677"/>
<polygon fill="#000000" stroke="#000000" points="585.8941,-568.6959 583.4423,-564 582.4306,-569.1999 585.8941,-568.6959"/>
</g>
<!-- n9 -->
<!-- make_blobs -->
<g id="n9" class="node">
<title>n9</title>
<polygon fill="none" stroke="#000000" points="501.4423,-480 501.4423,-504 595.4423,-504 595.4423,-480 501.4423,-480"/>
<text text-anchor="start" x="506.4355" y="-487.8" font-family="Courier,monospace" font-size="14.00" fill="#000000">make_blobs</text>
</g>
<!-- n6&#45;&gt;n9 -->
<g id="e3" class="edge">
<title>n6:s&#45;&gt;n9:n</title>
<path fill="none" stroke="#000000" d="M564.4423,-540C564.4423,-524.5625 552.5441,-521.8164 549.9414,-509.1552"/>
<polygon fill="#000000" stroke="#000000" points="551.6661,-508.8081 549.4423,-504 548.1824,-509.1454 551.6661,-508.8081"/>
</g>
<!-- n7 -->
<!-- __list__ -->
<g id="n7" class="node">
<title>n7</title>
<polygon fill="none" stroke="#000000" points="620.4423,-540 620.4423,-564 697.4423,-564 697.4423,-540 620.4423,-540"/>
<text text-anchor="start" x="625.3369" y="-547.8" font-family="Courier,monospace" font-size="14.00" fill="#000000">__list__</text>
</g>
<!-- n7&#45;&gt;n9 -->
<g id="e4" class="edge">
<title>n7:s&#45;&gt;n9:n</title>
<path fill="none" stroke="#000000" d="M659.4423,-540C659.4423,-503.3745 588.2621,-538.6092 581.0328,-509.2821"/>
<polygon fill="#000000" stroke="#000000" points="582.7371,-508.7746 580.4423,-504 579.2587,-509.1635 582.7371,-508.7746"/>
</g>
<!-- n8 -->
<!-- __list__ -->
<g id="n8" class="node">
<title>n8</title>
<polygon fill="none" stroke="#000000" points="430.4423,-540 430.4423,-564 507.4423,-564 507.4423,-540 430.4423,-540"/>
<text text-anchor="start" x="435.3369" y="-547.8" font-family="Courier,monospace" font-size="14.00" fill="#000000">__list__</text>
</g>
<!-- n8&#45;&gt;n9 -->
<g id="e5" class="edge">
<title>n8:s&#45;&gt;n9:n</title>
<path fill="none" stroke="#000000" d="M469.4423,-540C469.4423,-515.2083 510.9296,-528.4467 516.7638,-509.003"/>
<polygon fill="#000000" stroke="#000000" points="518.5044,-509.1899 517.4423,-504 515.0361,-508.7194 518.5044,-509.1899"/>
</g>
<!-- n11 -->
<!-- BaseLibSVM.fit -->
<g id="n11" class="node">
<title>n11</title>
<polygon fill="none" stroke="#000000" points="192.4423,-420 192.4423,-444 319.4423,-444 319.4423,-420 192.4423,-420"/>
<text text-anchor="start" x="197.1328" y="-427.8" font-family="Courier,monospace" font-size="14.00" fill="#000000">BaseLibSVM.fit</text>
</g>
<!-- n9&#45;&gt;n11 -->
<!-- ndarray -->
<g id="e6" class="edge">
<title>n9:s&#45;&gt;n11:n</title>
<path fill="none" stroke="#000000" d="M524.4423,-480C524.4423,-421.7874 272.9306,-498.97 257.2111,-449.2196"/>
<polygon fill="#000000" stroke="#000000" points="258.9023,-448.6916 256.4423,-444 255.4397,-449.2017 258.9023,-448.6916"/>
<text text-anchor="middle" x="360.8535" y="-464.8165" font-family="Courier,monospace" font-size="14.00" fill="#000000">ndarray</text>
</g>
<!-- n9&#45;&gt;n11 -->
<!-- ndarray -->
<g id="e7" class="edge">
<title>n9:s&#45;&gt;n11:n</title>
<path fill="none" stroke="#000000" d="M572.4423,-480C572.4423,-420.387 314.2618,-500.4521 299.1341,-449.0233"/>
<polygon fill="#000000" stroke="#000000" points="300.8582,-448.7145 298.4423,-444 297.3909,-449.192 300.8582,-448.7145"/>
<text text-anchor="middle" x="406.2139" y="-450.7836" font-family="Courier,monospace" font-size="14.00" fill="#000000">ndarray</text>
</g>
<!-- n13 -->
<!-- BaseLibSVM.fit -->
<g id="n13" class="node">
<title>n13</title>
<polygon fill="none" stroke="#000000" points="430.4423,-420 430.4423,-444 557.4423,-444 557.4423,-420 430.4423,-420"/>
<text text-anchor="start" x="435.1328" y="-427.8" font-family="Courier,monospace" font-size="14.00" fill="#000000">BaseLibSVM.fit</text>
</g>
<!-- n9&#45;&gt;n13 -->
<!-- ndarray -->
<g id="e8" class="edge">
<title>n9:s&#45;&gt;n13:n</title>
<path fill="none" stroke="#000000" d="M524.4423,-480C524.4423,-461.1252 499.8037,-463.9998 495.1839,-449.2031"/>
<polygon fill="#000000" stroke="#000000" points="496.8804,-448.703 494.4423,-444 493.4154,-449.1969 496.8804,-448.703"/>
<text text-anchor="middle" x="480.2353" y="-450.9" font-family="Courier,monospace" font-size="14.00" fill="#000000">ndarray</text>
</g>
<!-- n9&#45;&gt;n13 -->
<!-- ndarray -->
<g id="e9" class="edge">
<title>n9:s&#45;&gt;n13:n</title>
<path fill="none" stroke="#000000" d="M572.4423,-480C572.4423,-459.3171 542.364,-465.2722 537.1942,-449.1677"/>
<polygon fill="#000000" stroke="#000000" points="538.8941,-448.6959 536.4423,-444 535.4306,-449.1999 538.8941,-448.6959"/>
<text text-anchor="middle" x="583.8537" y="-450.8024" font-family="Courier,monospace" font-size="14.00" fill="#000000">ndarray</text>
</g>
<!-- n16 -->
<!-- getitem -->
<g id="n16" class="node">
<title>n16</title>
<polygon fill="none" stroke="#000000" points="575.4423,-420 575.4423,-444 643.4423,-444 643.4423,-420 575.4423,-420"/>
<text text-anchor="start" x="580.0375" y="-427.8" font-family="Courier,monospace" font-size="14.00" fill="#000000">getitem</text>
</g>
<!-- n9&#45;&gt;n16 -->
<!-- ndarray -->
<g id="e10" class="edge">
<title>n9:s&#45;&gt;n16:n</title>
<path fill="none" stroke="#000000" d="M524.4423,-480C524.4423,-447.6739 585.2082,-474.8525 591.8545,-449.0347"/>
<polygon fill="#000000" stroke="#000000" points="593.6006,-449.1692 592.4423,-444 590.1242,-448.7633 593.6006,-449.1692"/>
<text text-anchor="middle" x="528.885" y="-464.804" font-family="Courier,monospace" font-size="14.00" fill="#000000">ndarray</text>
</g>
<!-- n19 -->
<!-- getitem -->
<g id="n19" class="node">
<title>n19</title>
<polygon fill="none" stroke="#000000" points="661.4423,-420 661.4423,-444 729.4423,-444 729.4423,-420 661.4423,-420"/>
<text text-anchor="start" x="666.0375" y="-427.8" font-family="Courier,monospace" font-size="14.00" fill="#000000">getitem</text>
</g>
<!-- n9&#45;&gt;n19 -->
<!-- ndarray -->
<g id="e11" class="edge">
<title>n9:s&#45;&gt;n19:n</title>
<path fill="none" stroke="#000000" d="M524.4423,-480C524.4423,-411.495 670.7213,-509.0918 678.1495,-449.0216"/>
<polygon fill="#000000" stroke="#000000" points="679.8982,-449.0934 678.4423,-444 676.4042,-448.8896 679.8982,-449.0934"/>
<text text-anchor="middle" x="630.9925" y="-464.8324" font-family="Courier,monospace" font-size="14.00" fill="#000000">ndarray</text>
</g>
<!-- n21 -->
<!-- scatter -->
<g id="n21" class="node">
<title>n21</title>
<polygon fill="none" stroke="#000000" points="697.4423,-360 697.4423,-384 793.4423,-384 793.4423,-360 697.4423,-360"/>
<text text-anchor="start" x="716.0375" y="-367.8" font-family="Courier,monospace" font-size="14.00" fill="#000000">scatter</text>
</g>
<!-- n9&#45;&gt;n21 -->
<!-- ndarray -->
<g id="e12" class="edge">
<title>n9:s&#45;&gt;n21:n</title>
<path fill="none" stroke="#000000" d="M572.4423,-480C572.4423,-404.5072 682.6343,-494.8392 738.4423,-444 757.8281,-426.3403 757.5648,-413.6427 757.4561,-389.0765"/>
<polygon fill="#000000" stroke="#000000" points="759.206,-388.9952 757.4423,-384 755.706,-389.0048 759.206,-388.9952"/>
<text text-anchor="middle" x="689.9382" y="-460.4865" font-family="Courier,monospace" font-size="14.00" fill="#000000">ndarray</text>
</g>
<!-- n10 -->
<!-- SVC -->
<g id="n10" class="node">
<title>n10</title>
<polygon fill="none" stroke="#000000" points="195.4423,-480 195.4423,-504 230.4423,-504 230.4423,-480 195.4423,-480"/>
<text text-anchor="start" x="200.3403" y="-487.8" font-family="Courier,monospace" font-size="14.00" fill="#000000">SVC</text>
</g>
<!-- n10&#45;&gt;n11 -->
<!-- SVC -->
<g id="e13" class="edge">
<title>n10:s&#45;&gt;n11:n</title>
<path fill="none" stroke="#000000" d="M213.4423,-480C213.4423,-465.875 213.4423,-461.1023 213.4423,-449.1692"/>
<polygon fill="#000000" stroke="#000000" points="215.1924,-449 213.4423,-444 211.6924,-449 215.1924,-449"/>
<text text-anchor="middle" x="200.8403" y="-464.9025" font-family="Courier,monospace" font-size="14.00" fill="#000000">SVC</text>
</g>
<!-- n37 -->
<!-- BaseSVC.decision_function -->
<g id="n37" class="node">
<title>n37</title>
<polygon fill="none" stroke="#000000" points="155.4423,-360 155.4423,-384 375.4423,-384 375.4423,-360 155.4423,-360"/>
<text text-anchor="start" x="160.4252" y="-367.8" font-family="Courier,monospace" font-size="14.00" fill="#000000">BaseSVC.decision_function</text>
</g>
<!-- n11&#45;&gt;n37 -->
<!-- SVC -->
<g id="e14" class="edge">
<title>n11:s&#45;&gt;n37:n</title>
<path fill="none" stroke="#000000" d="M288.4423,-420C288.4423,-383.758 218.1631,-418.2842 211.0253,-389.2296"/>
<polygon fill="#000000" stroke="#000000" points="212.7356,-388.7753 210.4423,-384 209.2572,-389.1631 212.7356,-388.7753"/>
<text text-anchor="middle" x="236.7742" y="-404.8018" font-family="Courier,monospace" font-size="14.00" fill="#000000">SVC</text>
</g>
<!-- n12 -->
<!-- SVC -->
<g id="n12" class="node">
<title>n12</title>
<polygon fill="none" stroke="#000000" points="433.4423,-480 433.4423,-504 468.4423,-504 468.4423,-480 433.4423,-480"/>
<text text-anchor="start" x="438.3403" y="-487.8" font-family="Courier,monospace" font-size="14.00" fill="#000000">SVC</text>
</g>
<!-- n12&#45;&gt;n13 -->
<!-- SVC -->
<g id="e15" class="edge">
<title>n12:s&#45;&gt;n13:n</title>
<path fill="none" stroke="#000000" d="M451.4423,-480C451.4423,-465.875 451.4423,-461.1023 451.4423,-449.1692"/>
<polygon fill="#000000" stroke="#000000" points="453.1924,-449 451.4423,-444 449.6924,-449 453.1924,-449"/>
<text text-anchor="middle" x="438.8403" y="-464.9025" font-family="Courier,monospace" font-size="14.00" fill="#000000">SVC</text>
</g>
<!-- n43 -->
<!-- BaseSVC.decision_function -->
<g id="n43" class="node">
<title>n43</title>
<polygon fill="none" stroke="#000000" points="459.4423,-360 459.4423,-384 679.4423,-384 679.4423,-360 459.4423,-360"/>
<text text-anchor="start" x="464.4252" y="-367.8" font-family="Courier,monospace" font-size="14.00" fill="#000000">BaseSVC.decision_function</text>
</g>
<!-- n13&#45;&gt;n43 -->
<!-- SVC -->
<g id="e16" class="edge">
<title>n13:s&#45;&gt;n43:n</title>
<path fill="none" stroke="#000000" d="M526.4423,-420C526.4423,-404.9792 516.9238,-401.5364 514.8416,-389.0483"/>
<polygon fill="#000000" stroke="#000000" points="516.5812,-388.8464 514.4423,-384 513.0921,-389.1224 516.5812,-388.8464"/>
<text text-anchor="middle" x="507.8227" y="-404.772" font-family="Courier,monospace" font-size="14.00" fill="#000000">SVC</text>
</g>
<!-- n14 -->
<!-- slice -->
<g id="n14" class="node">
<title>n14</title>
<polygon fill="none" stroke="#000000" points="715.4423,-540 715.4423,-564 767.4423,-564 767.4423,-540 715.4423,-540"/>
<text text-anchor="start" x="720.4389" y="-547.8" font-family="Courier,monospace" font-size="14.00" fill="#000000">slice</text>
</g>
<!-- n15 -->
<!-- __tuple__ -->
<g id="n15" class="node">
<title>n15</title>
<polygon fill="none" stroke="#000000" points="625.4423,-480 625.4423,-504 710.4423,-504 710.4423,-480 625.4423,-480"/>
<text text-anchor="start" x="630.1362" y="-487.8" font-family="Courier,monospace" font-size="14.00" fill="#000000">__tuple__</text>
</g>
<!-- n14&#45;&gt;n15 -->
<g id="e17" class="edge">
<title>n14:s&#45;&gt;n15:n</title>
<path fill="none" stroke="#000000" d="M741.4423,-540C741.4423,-505.8032 676.2084,-536.4162 669.0734,-509.308"/>
<polygon fill="#000000" stroke="#000000" points="670.7705,-508.7584 668.4423,-504 667.295,-509.1717 670.7705,-508.7584"/>
</g>
<!-- n15&#45;&gt;n16 -->
<g id="e18" class="edge">
<title>n15:s&#45;&gt;n16:n</title>
<path fill="none" stroke="#000000" d="M668.4423,-480C668.4423,-457.3353 632.7485,-466.7579 627.1713,-449.1069"/>
<polygon fill="#000000" stroke="#000000" points="628.8814,-448.7025 626.4423,-444 625.4165,-449.1972 628.8814,-448.7025"/>
</g>
<!-- n16&#45;&gt;n21 -->
<!-- ndarray -->
<g id="e19" class="edge">
<title>n16:s&#45;&gt;n21:n</title>
<path fill="none" stroke="#000000" d="M609.4423,-420C609.4423,-374.6085 701.7824,-426.8298 708.9965,-389.0643"/>
<polygon fill="#000000" stroke="#000000" points="710.747,-389.1342 709.4423,-384 707.2605,-388.8272 710.747,-389.1342"/>
<text text-anchor="middle" x="629.9231" y="-404.7871" font-family="Courier,monospace" font-size="14.00" fill="#000000">ndarray</text>
</g>
<!-- n17 -->
<!-- slice -->
<g id="n17" class="node">
<title>n17</title>
<polygon fill="none" stroke="#000000" points="785.4423,-540 785.4423,-564 837.4423,-564 837.4423,-540 785.4423,-540"/>
<text text-anchor="start" x="790.4389" y="-547.8" font-family="Courier,monospace" font-size="14.00" fill="#000000">slice</text>
</g>
<!-- n18 -->
<!-- __tuple__ -->
<g id="n18" class="node">
<title>n18</title>
<polygon fill="none" stroke="#000000" points="749.4423,-480 749.4423,-504 834.4423,-504 834.4423,-480 749.4423,-480"/>
<text text-anchor="start" x="754.1362" y="-487.8" font-family="Courier,monospace" font-size="14.00" fill="#000000">__tuple__</text>
</g>
<!-- n17&#45;&gt;n18 -->
<g id="e20" class="edge">
<title>n17:s&#45;&gt;n18:n</title>
<path fill="none" stroke="#000000" d="M811.4423,-540C811.4423,-523.7458 796.1057,-522.2429 792.9905,-508.9851"/>
<polygon fill="#000000" stroke="#000000" points="794.7284,-508.7787 792.4423,-504 791.2494,-509.1613 794.7284,-508.7787"/>
</g>
<!-- n18&#45;&gt;n19 -->
<g id="e21" class="edge">
<title>n18:s&#45;&gt;n19:n</title>
<path fill="none" stroke="#000000" d="M792.4423,-480C792.4423,-442.9902 720.361,-478.935 713.0403,-449.3347"/>
<polygon fill="#000000" stroke="#000000" points="714.7385,-448.7739 712.4423,-444 711.2603,-449.1638 714.7385,-448.7739"/>
</g>
<!-- n19&#45;&gt;n21 -->
<!-- ndarray -->
<g id="e22" class="edge">
<title>n19:s&#45;&gt;n21:n</title>
<path fill="none" stroke="#000000" d="M695.4423,-420C695.4423,-398.7348 727.1917,-405.7044 732.6486,-389.292"/>
<polygon fill="#000000" stroke="#000000" points="734.4313,-389.2043 733.4423,-384 730.97,-388.6851 734.4313,-389.2043"/>
<text text-anchor="middle" x="743.8402" y="-404.8023" font-family="Courier,monospace" font-size="14.00" fill="#000000">ndarray</text>
</g>
<!-- n20 -->
<!-- Paired -->
<g id="n20" class="node">
<title>n20</title>
<polygon fill="none" stroke="#000000" points="785.4423,-420 785.4423,-444 845.4423,-444 845.4423,-420 785.4423,-420"/>
<text text-anchor="start" x="790.2382" y="-427.8" font-family="Courier,monospace" font-size="14.00" fill="#000000">Paired</text>
</g>
<!-- n20&#45;&gt;n21 -->
<!-- ListedColormap -->
<g id="e23" class="edge">
<title>n20:s&#45;&gt;n21:n</title>
<path fill="none" stroke="#000000" d="M815.4423,-420C815.4423,-399.8834 787.035,-404.8519 782.1525,-389.0468"/>
<polygon fill="#000000" stroke="#000000" points="783.872,-388.7074 781.4423,-384 780.4062,-389.1951 783.872,-388.7074"/>
<text text-anchor="middle" x="857.2581" y="-404.8026" font-family="Courier,monospace" font-size="14.00" fill="#000000">ListedColormap</text>
</g>
<!-- n22 -->
<!-- gca -->
<g id="n22" class="node">
<title>n22</title>
<polygon fill="none" stroke="#000000" points="364.4423,-900 364.4423,-924 399.4423,-924 399.4423,-900 364.4423,-900"/>
<text text-anchor="start" x="369.3403" y="-907.8" font-family="Courier,monospace" font-size="14.00" fill="#000000">gca</text>
</g>
<!-- n23 -->
<!-- _AxesBase.get_xlim -->
<g id="n23" class="node">
<title>n23</title>
<polygon fill="none" stroke="#000000" points="247.4423,-840 247.4423,-864 408.4423,-864 408.4423,-840 247.4423,-840"/>
<text text-anchor="start" x="252.33" y="-847.8" font-family="Courier,monospace" font-size="14.00" fill="#000000">_AxesBase.get_xlim</text>
</g>
<!-- n22&#45;&gt;n23 -->
<!-- AxesSubplot -->
<g id="e24" class="edge">
<title>n22:s&#45;&gt;n23:n</title>
<path fill="none" stroke="#000000" d="M382.4423,-900C382.4423,-873.071 335.3761,-890.1867 329.1251,-869.1074"/>
<polygon fill="#000000" stroke="#000000" points="330.8395,-868.724 328.4423,-864 327.3704,-869.1878 330.8395,-868.724"/>
<text text-anchor="middle" x="308.9703" y="-870.7649" font-family="Courier,monospace" font-size="14.00" fill="#000000">AxesSubplot</text>
</g>
<!-- n24 -->
<!-- _AxesBase.get_ylim -->
<g id="n24" class="node">
<title>n24</title>
<polygon fill="none" stroke="#000000" points="68.4423,-840 68.4423,-864 229.4423,-864 229.4423,-840 68.4423,-840"/>
<text text-anchor="start" x="73.33" y="-847.8" font-family="Courier,monospace" font-size="14.00" fill="#000000">_AxesBase.get_ylim</text>
</g>
<!-- n22&#45;&gt;n24 -->
<!-- AxesSubplot -->
<g id="e25" class="edge">
<title>n22:s&#45;&gt;n24:n</title>
<path fill="none" stroke="#000000" d="M382.4423,-900C382.4423,-797.0576 157.5617,-962.7683 149.6558,-869.2707"/>
<polygon fill="#000000" stroke="#000000" points="151.3933,-868.9251 149.4423,-864 147.8962,-869.0667 151.3933,-868.9251"/>
<text text-anchor="middle" x="219.4535" y="-884.883" font-family="Courier,monospace" font-size="14.00" fill="#000000">AxesSubplot</text>
</g>
<!-- n42 -->
<!-- Axes.contour -->
<g id="n42" class="node">
<title>n42</title>
<polygon fill="none" stroke="#000000" points="339.4423,-240 339.4423,-264 531.4423,-264 531.4423,-240 339.4423,-240"/>
<text text-anchor="start" x="385.0341" y="-247.8" font-family="Courier,monospace" font-size="14.00" fill="#000000">Axes.contour</text>
</g>
<!-- n22&#45;&gt;n42 -->
<!-- AxesSubplot -->
<g id="e26" class="edge">
<title>n22:s&#45;&gt;n42:n</title>
<path fill="none" stroke="#000000" d="M382.4423,-900C382.4423,-877.9921 405.624,-883.1653 416.4423,-864 432.7681,-835.078 436.4423,-825.2116 436.4423,-792 436.4423,-792 436.4423,-792 436.4423,-672 436.4423,-661.5331 380.3582,-309.7068 376.4423,-300 369.8947,-283.7697 354.9326,-283.3682 351.961,-269.3272"/>
<polygon fill="#000000" stroke="#000000" points="353.6687,-268.8069 351.4423,-264 350.1851,-269.1461 353.6687,-268.8069"/>
<text text-anchor="middle" x="467.9893" y="-576.0189" font-family="Courier,monospace" font-size="14.00" fill="#000000">AxesSubplot</text>
</g>
<!-- n48 -->
<!-- Axes.contour -->
<g id="n48" class="node">
<title>n48</title>
<polygon fill="none" stroke="#000000" points="961.4423,-240 961.4423,-264 1153.4423,-264 1153.4423,-240 961.4423,-240"/>
<text text-anchor="start" x="1007.0341" y="-247.8" font-family="Courier,monospace" font-size="14.00" fill="#000000">Axes.contour</text>
</g>
<!-- n22&#45;&gt;n48 -->
<!-- AxesSubplot -->
<g id="e27" class="edge">
<title>n22:s&#45;&gt;n48:n</title>
<path fill="none" stroke="#000000" d="M382.4423,-900C382.4423,-831.7151 987.4423,-860.2849 987.4423,-792 987.4423,-792 987.4423,-792 987.4423,-372 987.4423,-325.3945 974.4621,-313.2839 973.4987,-269.2386"/>
<polygon fill="#000000" stroke="#000000" points="975.2462,-268.9808 973.4423,-264 971.7464,-269.0186 975.2462,-268.9808"/>
<text text-anchor="middle" x="941.2348" y="-742.3" font-family="Courier,monospace" font-size="14.00" fill="#000000">AxesSubplot</text>
</g>
<!-- n25 -->
<!-- getitem -->
<g id="n25" class="node">
<title>n25</title>
<polygon fill="none" stroke="#000000" points="249.4423,-780 249.4423,-804 317.4423,-804 317.4423,-780 249.4423,-780"/>
<text text-anchor="start" x="254.0375" y="-787.8" font-family="Courier,monospace" font-size="14.00" fill="#000000">getitem</text>
</g>
<!-- n23&#45;&gt;n25 -->
<g id="e28" class="edge">
<title>n23:s&#45;&gt;n25:n</title>
<path fill="none" stroke="#000000" d="M328.4423,-840C328.4423,-816.3885 290.1989,-827.4828 284.2234,-809.2941"/>
<polygon fill="#000000" stroke="#000000" points="285.9034,-808.691 283.4423,-804 282.4409,-809.2019 285.9034,-808.691"/>
</g>
<!-- n26 -->
<!-- getitem -->
<g id="n26" class="node">
<title>n26</title>
<polygon fill="none" stroke="#000000" points="335.4423,-780 335.4423,-804 403.4423,-804 403.4423,-780 335.4423,-780"/>
<text text-anchor="start" x="340.0375" y="-787.8" font-family="Courier,monospace" font-size="14.00" fill="#000000">getitem</text>
</g>
<!-- n23&#45;&gt;n26 -->
<g id="e29" class="edge">
<title>n23:s&#45;&gt;n26:n</title>
<path fill="none" stroke="#000000" d="M328.4423,-840C328.4423,-817.6448 363.2863,-826.521 368.7307,-809.0457"/>
<polygon fill="#000000" stroke="#000000" points="370.4768,-809.1954 369.4423,-804 367.0111,-808.7066 370.4768,-809.1954"/>
</g>
<!-- n28 -->
<!-- getitem -->
<g id="n28" class="node">
<title>n28</title>
<polygon fill="none" stroke="#000000" points="77.4423,-780 77.4423,-804 145.4423,-804 145.4423,-780 77.4423,-780"/>
<text text-anchor="start" x="82.0375" y="-787.8" font-family="Courier,monospace" font-size="14.00" fill="#000000">getitem</text>
</g>
<!-- n24&#45;&gt;n28 -->
<g id="e30" class="edge">
<title>n24:s&#45;&gt;n28:n</title>
<path fill="none" stroke="#000000" d="M149.4423,-840C149.4423,-818.7348 117.6929,-825.7044 112.236,-809.292"/>
<polygon fill="#000000" stroke="#000000" points="113.9146,-808.6851 111.4423,-804 110.4534,-809.2043 113.9146,-808.6851"/>
</g>
<!-- n29 -->
<!-- getitem -->
<g id="n29" class="node">
<title>n29</title>
<polygon fill="none" stroke="#000000" points="163.4423,-780 163.4423,-804 231.4423,-804 231.4423,-780 163.4423,-780"/>
<text text-anchor="start" x="168.0375" y="-787.8" font-family="Courier,monospace" font-size="14.00" fill="#000000">getitem</text>
</g>
<!-- n24&#45;&gt;n29 -->
<g id="e31" class="edge">
<title>n24:s&#45;&gt;n29:n</title>
<path fill="none" stroke="#000000" d="M149.4423,-840C149.4423,-815.2083 190.9296,-828.4467 196.7638,-809.003"/>
<polygon fill="#000000" stroke="#000000" points="198.5044,-809.1899 197.4423,-804 195.0361,-808.7194 198.5044,-809.1899"/>
</g>
<!-- n27 -->
<!-- linspace -->
<g id="n27" class="node">
<title>n27</title>
<polygon fill="none" stroke="#000000" points="264.4423,-720 264.4423,-744 341.4423,-744 341.4423,-720 264.4423,-720"/>
<text text-anchor="start" x="269.3369" y="-727.8" font-family="Courier,monospace" font-size="14.00" fill="#000000">linspace</text>
</g>
<!-- n25&#45;&gt;n27 -->
<!-- float64 -->
<g id="e32" class="edge">
<title>n25:s&#45;&gt;n27:n</title>
<path fill="none" stroke="#000000" d="M283.4423,-780C283.4423,-765.875 283.4423,-761.1023 283.4423,-749.1692"/>
<polygon fill="#000000" stroke="#000000" points="285.1924,-749 283.4423,-744 281.6924,-749 285.1924,-749"/>
<text text-anchor="middle" x="254.0375" y="-764.9025" font-family="Courier,monospace" font-size="14.00" fill="#000000">float64</text>
</g>
<!-- n26&#45;&gt;n27 -->
<!-- float64 -->
<g id="e33" class="edge">
<title>n26:s&#45;&gt;n27:n</title>
<path fill="none" stroke="#000000" d="M369.4423,-780C369.4423,-755.7432 329.4992,-767.9769 323.2581,-749.4217"/>
<polygon fill="#000000" stroke="#000000" points="324.9169,-748.6839 322.4423,-744 321.4558,-749.2048 324.9169,-748.6839"/>
<text text-anchor="middle" x="316.7527" y="-764.8443" font-family="Courier,monospace" font-size="14.00" fill="#000000">float64</text>
</g>
<!-- n31 -->
<!-- meshgrid -->
<g id="n31" class="node">
<title>n31</title>
<polygon fill="none" stroke="#000000" points="202.4423,-660 202.4423,-684 279.4423,-684 279.4423,-660 202.4423,-660"/>
<text text-anchor="start" x="207.3369" y="-667.8" font-family="Courier,monospace" font-size="14.00" fill="#000000">meshgrid</text>
</g>
<!-- n27&#45;&gt;n31 -->
<!-- ndarray -->
<g id="e34" class="edge">
<title>n27:s&#45;&gt;n31:n</title>
<path fill="none" stroke="#000000" d="M303.4423,-720C303.4423,-697.0227 266.8986,-706.9973 261.1887,-689.1687"/>
<polygon fill="#000000" stroke="#000000" points="262.889,-688.6985 260.4423,-684 259.425,-689.1988 262.889,-688.6985"/>
<text text-anchor="middle" x="252.7344" y="-704.8507" font-family="Courier,monospace" font-size="14.00" fill="#000000">ndarray</text>
</g>
<!-- n30 -->
<!-- linspace -->
<g id="n30" class="node">
<title>n30</title>
<polygon fill="none" stroke="#000000" points="139.4423,-720 139.4423,-744 216.4423,-744 216.4423,-720 139.4423,-720"/>
<text text-anchor="start" x="144.3369" y="-727.8" font-family="Courier,monospace" font-size="14.00" fill="#000000">linspace</text>
</g>
<!-- n28&#45;&gt;n30 -->
<!-- float64 -->
<g id="e35" class="edge">
<title>n28:s&#45;&gt;n30:n</title>
<path fill="none" stroke="#000000" d="M111.4423,-780C111.4423,-755.7432 151.3854,-767.9769 157.6266,-749.4217"/>
<polygon fill="#000000" stroke="#000000" points="159.4288,-749.2048 158.4423,-744 155.9678,-748.6839 159.4288,-749.2048"/>
<text text-anchor="middle" x="105.3224" y="-764.8443" font-family="Courier,monospace" font-size="14.00" fill="#000000">float64</text>
</g>
<!-- n29&#45;&gt;n30 -->
<!-- float64 -->
<g id="e36" class="edge">
<title>n29:s&#45;&gt;n30:n</title>
<path fill="none" stroke="#000000" d="M197.4423,-780C197.4423,-765.875 197.4423,-761.1023 197.4423,-749.1692"/>
<polygon fill="#000000" stroke="#000000" points="199.1924,-749 197.4423,-744 195.6924,-749 199.1924,-749"/>
<text text-anchor="middle" x="168.0375" y="-764.9025" font-family="Courier,monospace" font-size="14.00" fill="#000000">float64</text>
</g>
<!-- n30&#45;&gt;n31 -->
<!-- ndarray -->
<g id="e37" class="edge">
<title>n30:s&#45;&gt;n31:n</title>
<path fill="none" stroke="#000000" d="M178.4423,-720C178.4423,-697.0227 214.986,-706.9973 220.696,-689.1687"/>
<polygon fill="#000000" stroke="#000000" points="222.4597,-689.1988 221.4423,-684 218.9956,-688.6985 222.4597,-689.1988"/>
<text text-anchor="middle" x="170.3407" y="-704.8507" font-family="Courier,monospace" font-size="14.00" fill="#000000">ndarray</text>
</g>
<!-- n32 -->
<!-- ndarray.ravel -->
<g id="n32" class="node">
<title>n32</title>
<polygon fill="none" stroke="#000000" points="152.4423,-600 152.4423,-624 271.4423,-624 271.4423,-600 152.4423,-600"/>
<text text-anchor="start" x="157.3334" y="-607.8" font-family="Courier,monospace" font-size="14.00" fill="#000000">ndarray.ravel</text>
</g>
<!-- n31&#45;&gt;n32 -->
<!-- ndarray -->
<g id="e38" class="edge">
<title>n31:s&#45;&gt;n32:n</title>
<path fill="none" stroke="#000000" d="M260.4423,-660C260.4423,-635.2083 218.955,-648.4467 213.1209,-629.003"/>
<polygon fill="#000000" stroke="#000000" points="214.8485,-628.7194 212.4423,-624 211.3803,-629.1899 214.8485,-628.7194"/>
<text text-anchor="middle" x="206.9541" y="-644.7838" font-family="Courier,monospace" font-size="14.00" fill="#000000">ndarray</text>
</g>
<!-- n33 -->
<!-- ndarray.ravel -->
<g id="n33" class="node">
<title>n33</title>
<polygon fill="none" stroke="#000000" points="289.4423,-600 289.4423,-624 408.4423,-624 408.4423,-600 289.4423,-600"/>
<text text-anchor="start" x="294.3334" y="-607.8" font-family="Courier,monospace" font-size="14.00" fill="#000000">ndarray.ravel</text>
</g>
<!-- n31&#45;&gt;n33 -->
<!-- ndarray -->
<g id="e39" class="edge">
<title>n31:s&#45;&gt;n33:n</title>
<path fill="none" stroke="#000000" d="M221.4423,-660C221.4423,-602.7507 341.5673,-678.097 349.0751,-629.1349"/>
<polygon fill="#000000" stroke="#000000" points="350.8312,-629.1121 349.4423,-624 347.3401,-628.8624 350.8312,-629.1121"/>
<text text-anchor="middle" x="315.1166" y="-644.8486" font-family="Courier,monospace" font-size="14.00" fill="#000000">ndarray</text>
</g>
<!-- n38 -->
<!-- shape -->
<g id="n38" class="node">
<title>n38</title>
<polygon fill="none" stroke="#000000" points="85.4423,-360 85.4423,-384 137.4423,-384 137.4423,-360 85.4423,-360"/>
<text text-anchor="start" x="90.4389" y="-367.8" font-family="Courier,monospace" font-size="14.00" fill="#000000">shape</text>
</g>
<!-- n31&#45;&gt;n38 -->
<!-- ndarray -->
<g id="e40" class="edge">
<title>n31:s&#45;&gt;n38:n</title>
<path fill="none" stroke="#000000" d="M260.4423,-660C260.4423,-605.1692 177.831,-665.8815 142.4423,-624 74.1106,-543.1315 110.2681,-493.1323 111.4148,-388.9999"/>
<polygon fill="#000000" stroke="#000000" points="113.1646,-389.0096 111.4423,-384 109.6647,-388.9902 113.1646,-389.0096"/>
<text text-anchor="middle" x="71.5076" y="-527.1508" font-family="Courier,monospace" font-size="14.00" fill="#000000">ndarray</text>
</g>
<!-- n31&#45;&gt;n42 -->
<!-- ndarray -->
<g id="e41" class="edge">
<title>n31:s&#45;&gt;n42:n</title>
<path fill="none" stroke="#000000" d="M260.4423,-660C260.4423,-605.1692 181.6498,-662.33 142.4423,-624 34.7737,-518.741 -57.1258,-412.0627 43.4423,-300 91.7493,-246.1717 361.2501,-333.561 374.9045,-269.3337"/>
<polygon fill="#000000" stroke="#000000" points="376.6818,-269.1504 375.4423,-264 373.1995,-268.7992 376.6818,-269.1504"/>
<text text-anchor="middle" x="284.9282" y="-282.8406" font-family="Courier,monospace" font-size="14.00" fill="#000000">ndarray</text>
</g>
<!-- n31&#45;&gt;n42 -->
<!-- ndarray -->
<g id="e42" class="edge">
<title>n31:s&#45;&gt;n42:n</title>
<path fill="none" stroke="#000000" d="M221.4423,-660C221.4423,-612.7633 155.1844,-657.0573 121.4423,-624 36.4202,-540.7033 10.1777,-458.8742 76.4423,-360 115.4993,-301.7228 155.324,-320.4159 222.4423,-300 259.0437,-288.8667 386.6689,-302.716 398.5533,-269.2842"/>
<polygon fill="#000000" stroke="#000000" points="400.3385,-269.2211 399.4423,-264 396.887,-268.6403 400.3385,-269.2211"/>
<text text-anchor="middle" x="181.1476" y="-627.8913" font-family="Courier,monospace" font-size="14.00" fill="#000000">ndarray</text>
</g>
<!-- n44 -->
<!-- shape -->
<g id="n44" class="node">
<title>n44</title>
<polygon fill="none" stroke="#000000" points="892.4423,-360 892.4423,-384 944.4423,-384 944.4423,-360 892.4423,-360"/>
<text text-anchor="start" x="897.4389" y="-367.8" font-family="Courier,monospace" font-size="14.00" fill="#000000">shape</text>
</g>
<!-- n31&#45;&gt;n44 -->
<!-- ndarray -->
<g id="e43" class="edge">
<title>n31:s&#45;&gt;n44:n</title>
<path fill="none" stroke="#000000" d="M260.4423,-660C260.4423,-590.2186 832.0259,-666.4083 887.4423,-624 914.2296,-603.5007 911.4423,-585.731 911.4423,-552 911.4423,-552 911.4423,-552 911.4423,-492 911.4423,-445.6843 917.9324,-433.0264 918.4141,-389.2087"/>
<polygon fill="#000000" stroke="#000000" points="920.1651,-389.0094 918.4423,-384 916.6652,-388.9904 920.1651,-389.0094"/>
<text text-anchor="middle" x="556.2947" y="-635.6653" font-family="Courier,monospace" font-size="14.00" fill="#000000">ndarray</text>
</g>
<!-- n31&#45;&gt;n48 -->
<!-- ndarray -->
<g id="e44" class="edge">
<title>n31:s&#45;&gt;n48:n</title>
<path fill="none" stroke="#000000" d="M260.4423,-660C260.4423,-587.6671 848.5224,-661.3895 910.4423,-624 995.592,-572.5835 1025.4423,-531.4692 1025.4423,-432 1025.4423,-432 1025.4423,-432 1025.4423,-372 1025.4423,-324.1564 999.3765,-314.2579 997.5437,-269.0823"/>
<polygon fill="#000000" stroke="#000000" points="999.2918,-268.9641 997.4423,-264 995.7925,-269.0339 999.2918,-268.9641"/>
<text text-anchor="middle" x="652.4681" y="-633.6997" font-family="Courier,monospace" font-size="14.00" fill="#000000">ndarray</text>
</g>
<!-- n31&#45;&gt;n48 -->
<!-- ndarray -->
<g id="e45" class="edge">
<title>n31:s&#45;&gt;n48:n</title>
<path fill="none" stroke="#000000" d="M221.4423,-660C221.4423,-610.394 617.8374,-633.9153 666.4423,-624 761.883,-604.5303 873.4423,-649.4064 873.4423,-552 873.4423,-552 873.4423,-552 873.4423,-492 873.4423,-412.8627 829.9624,-401.6005 814.4423,-324 812.3504,-313.5405 807.5764,-308.1631 814.4423,-300 873.3762,-229.9322 1015.7375,-352.4244 1021.276,-269.2204"/>
<polygon fill="#000000" stroke="#000000" points="1023.0321,-269.0532 1021.4423,-264 1019.5339,-268.9417 1023.0321,-269.0532"/>
<text text-anchor="middle" x="695.8646" y="-612.7964" font-family="Courier,monospace" font-size="14.00" fill="#000000">ndarray</text>
</g>
<!-- n34 -->
<!-- __list__ -->
<g id="n34" class="node">
<title>n34</title>
<polygon fill="none" stroke="#000000" points="291.4423,-540 291.4423,-564 368.4423,-564 368.4423,-540 291.4423,-540"/>
<text text-anchor="start" x="296.3369" y="-547.8" font-family="Courier,monospace" font-size="14.00" fill="#000000">__list__</text>
</g>
<!-- n32&#45;&gt;n34 -->
<!-- ndarray -->
<g id="e46" class="edge">
<title>n32:s&#45;&gt;n34:n</title>
<path fill="none" stroke="#000000" d="M212.4423,-600C212.4423,-555.5924 302.2014,-605.7104 309.9151,-569.4262"/>
<polygon fill="#000000" stroke="#000000" points="311.7005,-569.1458 310.4423,-564 308.2169,-568.8073 311.7005,-569.1458"/>
<text text-anchor="middle" x="232.1766" y="-584.8148" font-family="Courier,monospace" font-size="14.00" fill="#000000">ndarray</text>
</g>
<!-- n33&#45;&gt;n34 -->
<!-- ndarray -->
<g id="e47" class="edge">
<title>n33:s&#45;&gt;n34:n</title>
<path fill="none" stroke="#000000" d="M349.4423,-600C349.4423,-585.875 349.4423,-581.1023 349.4423,-569.1692"/>
<polygon fill="#000000" stroke="#000000" points="351.1924,-569 349.4423,-564 347.6924,-569 351.1924,-569"/>
<text text-anchor="middle" x="320.0375" y="-584.9025" font-family="Courier,monospace" font-size="14.00" fill="#000000">ndarray</text>
</g>
<!-- n35 -->
<!-- vstack -->
<g id="n35" class="node">
<title>n35</title>
<polygon fill="none" stroke="#000000" points="307.4423,-480 307.4423,-504 367.4423,-504 367.4423,-480 307.4423,-480"/>
<text text-anchor="start" x="312.2382" y="-487.8" font-family="Courier,monospace" font-size="14.00" fill="#000000">vstack</text>
</g>
<!-- n34&#45;&gt;n35 -->
<g id="e48" class="edge">
<title>n34:s&#45;&gt;n35:n</title>
<path fill="none" stroke="#000000" d="M330.4423,-540C330.4423,-525.6105 335.8978,-521.2738 337.1765,-509.2404"/>
<polygon fill="#000000" stroke="#000000" points="338.9367,-509.0823 337.4423,-504 335.4412,-508.9049 338.9367,-509.0823"/>
</g>
<!-- n36 -->
<!-- T -->
<g id="n36" class="node">
<title>n36</title>
<polygon fill="none" stroke="#000000" points="337.4423,-420 337.4423,-444 361.4423,-444 361.4423,-420 337.4423,-420"/>
<text text-anchor="start" x="345.2416" y="-427.8" font-family="Courier,monospace" font-size="14.00" fill="#000000">T</text>
</g>
<!-- n35&#45;&gt;n36 -->
<!-- ndarray -->
<g id="e49" class="edge">
<title>n35:s&#45;&gt;n36:n</title>
<path fill="none" stroke="#000000" d="M337.4423,-480C337.4423,-464.9792 346.9609,-461.5364 349.0431,-449.0483"/>
<polygon fill="#000000" stroke="#000000" points="350.7926,-449.1224 349.4423,-444 347.3035,-448.8464 350.7926,-449.1224"/>
<text text-anchor="middle" x="314.0551" y="-450.772" font-family="Courier,monospace" font-size="14.00" fill="#000000">ndarray</text>
</g>
<!-- n36&#45;&gt;n37 -->
<!-- ndarray -->
<g id="e50" class="edge">
<title>n36:s&#45;&gt;n37:n</title>
<path fill="none" stroke="#000000" d="M349.4423,-420C349.4423,-401.3805 325.625,-403.8164 321.1592,-389.1447"/>
<polygon fill="#000000" stroke="#000000" points="322.8657,-388.7106 320.4423,-384 319.3992,-389.1937 322.8657,-388.7106"/>
<text text-anchor="middle" x="305.7287" y="-404.9019" font-family="Courier,monospace" font-size="14.00" fill="#000000">ndarray</text>
</g>
<!-- n36&#45;&gt;n43 -->
<!-- ndarray -->
<g id="e51" class="edge">
<title>n36:s&#45;&gt;n43:n</title>
<path fill="none" stroke="#000000" d="M349.4423,-420C349.4423,-360.1731 608.5651,-440.6471 623.7481,-389.041"/>
<polygon fill="#000000" stroke="#000000" points="625.4937,-389.192 624.4423,-384 622.0264,-388.7144 625.4937,-389.192"/>
<text text-anchor="middle" x="457.3605" y="-404.7835" font-family="Courier,monospace" font-size="14.00" fill="#000000">ndarray</text>
</g>
<!-- n39 -->
<!-- ndarray.reshape -->
<g id="n39" class="node">
<title>n39</title>
<polygon fill="none" stroke="#000000" points="231.4423,-300 231.4423,-324 367.4423,-324 367.4423,-300 231.4423,-300"/>
<text text-anchor="start" x="236.4321" y="-307.8" font-family="Courier,monospace" font-size="14.00" fill="#000000">ndarray.reshape</text>
</g>
<!-- n37&#45;&gt;n39 -->
<!-- ndarray -->
<g id="e52" class="edge">
<title>n37:s&#45;&gt;n39:n</title>
<path fill="none" stroke="#000000" d="M265.4423,-360C265.4423,-345.875 265.4423,-341.1023 265.4423,-329.1692"/>
<polygon fill="#000000" stroke="#000000" points="267.1924,-329 265.4423,-324 263.6924,-329 267.1924,-329"/>
<text text-anchor="middle" x="236.0375" y="-344.9025" font-family="Courier,monospace" font-size="14.00" fill="#000000">ndarray</text>
</g>
<!-- n38&#45;&gt;n39 -->
<g id="e53" class="edge">
<title>n38:s&#45;&gt;n39:n</title>
<path fill="none" stroke="#000000" d="M111.4423,-360C111.4423,-261.8015 325.7062,-418.2746 333.239,-329.0294"/>
<polygon fill="#000000" stroke="#000000" points="334.9888,-329.0667 333.4423,-324 331.4916,-328.9252 334.9888,-329.0667"/>
</g>
<!-- n39&#45;&gt;n42 -->
<!-- ndarray -->
<g id="e54" class="edge">
<title>n39:s&#45;&gt;n42:n</title>
<path fill="none" stroke="#000000" d="M299.4423,-300C299.4423,-244.4066 415.8134,-316.5963 423.0866,-268.9894"/>
<polygon fill="#000000" stroke="#000000" points="424.8322,-269.1118 423.4423,-264 421.3411,-268.8629 424.8322,-269.1118"/>
<text text-anchor="middle" x="391.1082" y="-284.845" font-family="Courier,monospace" font-size="14.00" fill="#000000">ndarray</text>
</g>
<!-- n40 -->
<!-- __list__ -->
<g id="n40" class="node">
<title>n40</title>
<polygon fill="none" stroke="#000000" points="432.4423,-300 432.4423,-324 509.4423,-324 509.4423,-300 432.4423,-300"/>
<text text-anchor="start" x="437.3369" y="-307.8" font-family="Courier,monospace" font-size="14.00" fill="#000000">__list__</text>
</g>
<!-- n40&#45;&gt;n42 -->
<g id="e55" class="edge">
<title>n40:s&#45;&gt;n42:n</title>
<path fill="none" stroke="#000000" d="M471.4423,-300C471.4423,-285.875 471.4423,-281.1023 471.4423,-269.1692"/>
<polygon fill="#000000" stroke="#000000" points="473.1924,-269 471.4423,-264 469.6924,-269 473.1924,-269"/>
</g>
<!-- n41 -->
<!-- __list__ -->
<g id="n41" class="node">
<title>n41</title>
<polygon fill="none" stroke="#000000" points="527.4423,-300 527.4423,-324 604.4423,-324 604.4423,-300 527.4423,-300"/>
<text text-anchor="start" x="532.3369" y="-307.8" font-family="Courier,monospace" font-size="14.00" fill="#000000">__list__</text>
</g>
<!-- n41&#45;&gt;n42 -->
<g id="e56" class="edge">
<title>n41:s&#45;&gt;n42:n</title>
<path fill="none" stroke="#000000" d="M566.4423,-300C566.4423,-275.7432 526.4992,-287.9769 520.2581,-269.4217"/>
<polygon fill="#000000" stroke="#000000" points="521.9169,-268.6839 519.4423,-264 518.4558,-269.2048 521.9169,-268.6839"/>
</g>
<!-- n49 -->
<!-- collections -->
<g id="n49" class="node">
<title>n49</title>
<polygon fill="none" stroke="#000000" points="635.4423,-180 635.4423,-204 737.4423,-204 737.4423,-180 635.4423,-180"/>
<text text-anchor="start" x="640.2348" y="-187.8" font-family="Courier,monospace" font-size="14.00" fill="#000000">collections</text>
</g>
<!-- n42&#45;&gt;n49 -->
<!-- QuadContourSet -->
<g id="e57" class="edge">
<title>n42:s&#45;&gt;n49:n</title>
<path fill="none" stroke="#000000" d="M435.4423,-240C435.4423,-129.0638 678.6599,-310.8523 686.2604,-209.0637"/>
<polygon fill="#000000" stroke="#000000" points="688.0116,-209.0596 686.4423,-204 684.5138,-208.9339 688.0116,-209.0596"/>
<text text-anchor="middle" x="502.0868" y="-224.786" font-family="Courier,monospace" font-size="14.00" fill="#000000">QuadContourSet</text>
</g>
<!-- n45 -->
<!-- ndarray.reshape -->
<g id="n45" class="node">
<title>n45</title>
<polygon fill="none" stroke="#000000" points="823.4423,-300 823.4423,-324 959.4423,-324 959.4423,-300 823.4423,-300"/>
<text text-anchor="start" x="828.4321" y="-307.8" font-family="Courier,monospace" font-size="14.00" fill="#000000">ndarray.reshape</text>
</g>
<!-- n43&#45;&gt;n45 -->
<!-- ndarray -->
<g id="e58" class="edge">
<title>n43:s&#45;&gt;n45:n</title>
<path fill="none" stroke="#000000" d="M569.4423,-360C569.4423,-297.3915 840.8145,-383.1842 856.7152,-329.2712"/>
<polygon fill="#000000" stroke="#000000" points="858.4926,-329.1923 857.4423,-324 855.0254,-328.7139 858.4926,-329.1923"/>
<text text-anchor="middle" x="683.8522" y="-344.7817" font-family="Courier,monospace" font-size="14.00" fill="#000000">ndarray</text>
</g>
<!-- n44&#45;&gt;n45 -->
<g id="e59" class="edge">
<title>n44:s&#45;&gt;n45:n</title>
<path fill="none" stroke="#000000" d="M918.4423,-360C918.4423,-345.6105 923.8978,-341.2738 925.1765,-329.2404"/>
<polygon fill="#000000" stroke="#000000" points="926.9367,-329.0823 925.4423,-324 923.4412,-328.9049 926.9367,-329.0823"/>
</g>
<!-- n45&#45;&gt;n48 -->
<!-- ndarray -->
<g id="e60" class="edge">
<title>n45:s&#45;&gt;n48:n</title>
<path fill="none" stroke="#000000" d="M891.4423,-300C891.4423,-231.495 1037.7213,-329.0918 1045.1495,-269.0216"/>
<polygon fill="#000000" stroke="#000000" points="1046.8982,-269.0934 1045.4423,-264 1043.4042,-268.8896 1046.8982,-269.0934"/>
<text text-anchor="middle" x="939.1829" y="-284.8324" font-family="Courier,monospace" font-size="14.00" fill="#000000">ndarray</text>
</g>
<!-- n46 -->
<!-- __list__ -->
<g id="n46" class="node">
<title>n46</title>
<polygon fill="none" stroke="#000000" points="1054.4423,-300 1054.4423,-324 1131.4423,-324 1131.4423,-300 1054.4423,-300"/>
<text text-anchor="start" x="1059.3369" y="-307.8" font-family="Courier,monospace" font-size="14.00" fill="#000000">__list__</text>
</g>
<!-- n46&#45;&gt;n48 -->
<g id="e61" class="edge">
<title>n46:s&#45;&gt;n48:n</title>
<path fill="none" stroke="#000000" d="M1093.4423,-300C1093.4423,-285.875 1093.4423,-281.1023 1093.4423,-269.1692"/>
<polygon fill="#000000" stroke="#000000" points="1095.1924,-269 1093.4423,-264 1091.6924,-269 1095.1924,-269"/>
</g>
<!-- n47 -->
<!-- __list__ -->
<g id="n47" class="node">
<title>n47</title>
<polygon fill="none" stroke="#000000" points="1149.4423,-300 1149.4423,-324 1226.4423,-324 1226.4423,-300 1149.4423,-300"/>
<text text-anchor="start" x="1154.3369" y="-307.8" font-family="Courier,monospace" font-size="14.00" fill="#000000">__list__</text>
</g>
<!-- n47&#45;&gt;n48 -->
<g id="e62" class="edge">
<title>n47:s&#45;&gt;n48:n</title>
<path fill="none" stroke="#000000" d="M1188.4423,-300C1188.4423,-275.7432 1148.4992,-287.9769 1142.2581,-269.4217"/>
<polygon fill="#000000" stroke="#000000" points="1143.9169,-268.6839 1141.4423,-264 1140.4558,-269.2048 1143.9169,-268.6839"/>
</g>
<!-- n51 -->
<!-- collections -->
<g id="n51" class="node">
<title>n51</title>
<polygon fill="none" stroke="#000000" points="880.4423,-180 880.4423,-204 982.4423,-204 982.4423,-180 880.4423,-180"/>
<text text-anchor="start" x="885.2348" y="-187.8" font-family="Courier,monospace" font-size="14.00" fill="#000000">collections</text>
</g>
<!-- n48&#45;&gt;n51 -->
<!-- QuadContourSet -->
<g id="e63" class="edge">
<title>n48:s&#45;&gt;n51:n</title>
<path fill="none" stroke="#000000" d="M1057.4423,-240C1057.4423,-183.5791 939.1943,-257.3462 931.8038,-209.0621"/>
<polygon fill="#000000" stroke="#000000" points="933.5441,-208.8626 931.4423,-204 930.053,-209.112 933.5441,-208.8626"/>
<text text-anchor="middle" x="935.3674" y="-224.8468" font-family="Courier,monospace" font-size="14.00" fill="#000000">QuadContourSet</text>
</g>
<!-- n50 -->
<!-- getitem -->
<g id="n50" class="node">
<title>n50</title>
<polygon fill="none" stroke="#000000" points="669.4423,-120 669.4423,-144 737.4423,-144 737.4423,-120 669.4423,-120"/>
<text text-anchor="start" x="674.0375" y="-127.8" font-family="Courier,monospace" font-size="14.00" fill="#000000">getitem</text>
</g>
<!-- n49&#45;&gt;n50 -->
<!-- silent_list -->
<g id="e64" class="edge">
<title>n49:s&#45;&gt;n50:n</title>
<path fill="none" stroke="#000000" d="M686.4423,-180C686.4423,-164.2411 699.927,-162.0324 702.8767,-149.2376"/>
<polygon fill="#000000" stroke="#000000" points="704.6453,-149.159 703.4423,-144 701.1655,-148.7832 704.6453,-149.159"/>
<text text-anchor="middle" x="648.7597" y="-164.7732" font-family="Courier,monospace" font-size="14.00" fill="#000000">silent_list</text>
</g>
<!-- n53 -->
<!-- __list__ -->
<g id="n53" class="node">
<title>n53</title>
<polygon fill="none" stroke="#000000" points="743.4423,-60 743.4423,-84 820.4423,-84 820.4423,-60 743.4423,-60"/>
<text text-anchor="start" x="748.3369" y="-67.8" font-family="Courier,monospace" font-size="14.00" fill="#000000">__list__</text>
</g>
<!-- n50&#45;&gt;n53 -->
<!-- LineCollection -->
<g id="e65" class="edge">
<title>n50:s&#45;&gt;n53:n</title>
<path fill="none" stroke="#000000" d="M703.4423,-120C703.4423,-91.2017 755.2978,-111.758 761.7797,-89.129"/>
<polygon fill="#000000" stroke="#000000" points="763.5372,-89.183 762.4423,-84 760.0661,-88.7346 763.5372,-89.183"/>
<text text-anchor="middle" x="674.284" y="-104.7865" font-family="Courier,monospace" font-size="14.00" fill="#000000">LineCollection</text>
</g>
<!-- n52 -->
<!-- getitem -->
<g id="n52" class="node">
<title>n52</title>
<polygon fill="none" stroke="#000000" points="826.4423,-120 826.4423,-144 894.4423,-144 894.4423,-120 826.4423,-120"/>
<text text-anchor="start" x="831.0375" y="-127.8" font-family="Courier,monospace" font-size="14.00" fill="#000000">getitem</text>
</g>
<!-- n51&#45;&gt;n52 -->
<!-- silent_list -->
<g id="e66" class="edge">
<title>n51:s&#45;&gt;n52:n</title>
<path fill="none" stroke="#000000" d="M931.4423,-180C931.4423,-146.5547 867.9956,-175.788 861.0561,-149.1982"/>
<polygon fill="#000000" stroke="#000000" points="862.7667,-148.7603 860.4423,-144 859.2908,-149.1707 862.7667,-148.7603"/>
<text text-anchor="middle" x="849.8941" y="-164.8014" font-family="Courier,monospace" font-size="14.00" fill="#000000">silent_list</text>
</g>
<!-- n52&#45;&gt;n53 -->
<!-- LineCollection -->
<g id="e67" class="edge">
<title>n52:s&#45;&gt;n53:n</title>
<path fill="none" stroke="#000000" d="M860.4423,-120C860.4423,-91.2017 808.5869,-111.758 802.1049,-89.129"/>
<polygon fill="#000000" stroke="#000000" points="803.8186,-88.7346 801.4423,-84 800.3474,-89.183 803.8186,-88.7346"/>
<text text-anchor="middle" x="771.9815" y="-90.7865" font-family="Courier,monospace" font-size="14.00" fill="#000000">LineCollection</text>
</g>
<!-- n55 -->
<!-- legend -->
<g id="n55" class="node">
<title>n55</title>
<polygon fill="none" stroke="#000000" points="799.4423,0 799.4423,-24 859.4423,-24 859.4423,0 799.4423,0"/>
<text text-anchor="start" x="804.2382" y="-7.8" font-family="Courier,monospace" font-size="14.00" fill="#000000">legend</text>
</g>
<!-- n53&#45;&gt;n55 -->
<g id="e68" class="edge">
<title>n53:s&#45;&gt;n55:n</title>
<path fill="none" stroke="#000000" d="M782.4423,-60C782.4423,-40.5997 808.7236,-44.3776 813.6513,-29.3232"/>
<polygon fill="#000000" stroke="#000000" points="815.4383,-29.2029 814.4423,-24 811.9763,-28.6884 815.4383,-29.2029"/>
</g>
<!-- n54 -->
<!-- __list__ -->
<g id="n54" class="node">
<title>n54</title>
<polygon fill="none" stroke="#000000" points="838.4423,-60 838.4423,-84 915.4423,-84 915.4423,-60 838.4423,-60"/>
<text text-anchor="start" x="843.3369" y="-67.8" font-family="Courier,monospace" font-size="14.00" fill="#000000">__list__</text>
</g>
<!-- n54&#45;&gt;n55 -->
<g id="e69" class="edge">
<title>n54:s&#45;&gt;n55:n</title>
<path fill="none" stroke="#000000" d="M877.4423,-60C877.4423,-40.1602 849.8705,-44.6465 845.1316,-28.9877"/>
<polygon fill="#000000" stroke="#000000" points="846.8604,-28.7133 844.4423,-24 843.3933,-29.1925 846.8604,-28.7133"/>
</g>
<!-- n56 -->
<!-- show -->
<g id="n56" class="node">
<title>n56</title>
<polygon fill="none" stroke="#000000" points="417.4423,-900 417.4423,-924 460.4423,-924 460.4423,-900 417.4423,-900"/>
<text text-anchor="start" x="422.1396" y="-907.8" font-family="Courier,monospace" font-size="14.00" fill="#000000">show</text>
</g>
</g>
</svg>
