<?xml version="1.0" encoding="UTF-8" standalone="no"?>
<!DOCTYPE svg PUBLIC "-//W3C//DTD SVG 1.1//EN"
 "http://www.w3.org/Graphics/SVG/1.1/DTD/svg11.dtd">
<!-- Generated by graphviz version 2.40.1 (20161225.0304)
 -->
<!-- Title: semantic_flow_graph Pages: 1 -->
<svg width="524pt" height="152pt"
 viewBox="0.00 0.00 524.40 152.00" xmlns="http://www.w3.org/2000/svg" xmlns:xlink="http://www.w3.org/1999/xlink">
<g id="graph0" class="graph" transform="scale(1 1) rotate(0) translate(4 148)">
<title>semantic_flow_graph</title>
<polygon fill="#ffffff" stroke="transparent" points="-4,4 -4,-148 520.3983,-148 520.3983,4 -4,4"/>
<!-- n3 -->
<!-- ? -->
<g id="n3" class="node">
<title>n3</title>
<path fill="none" stroke="#000000" d="M36.3983,-120C36.3983,-120 92.3983,-120 92.3983,-120 96.3983,-120 100.3983,-124 100.3983,-128 100.3983,-128 100.3983,-136 100.3983,-136 100.3983,-140 96.3983,-144 92.3983,-144 92.3983,-144 36.3983,-144 36.3983,-144 32.3983,-144 28.3983,-140 28.3983,-136 28.3983,-136 28.3983,-128 28.3983,-128 28.3983,-124 32.3983,-120 36.3983,-120"/>
<text text-anchor="start" x="60.5052" y="-127.8" font-family="Helvetica,sans-Serif" font-size="14.00" fill="#000000">?</text>
</g>
<!-- n4 -->
<!-- ? -->
<g id="n4" class="node">
<title>n4</title>
<path fill="none" stroke="#000000" d="M46.3983,0C46.3983,0 174.3983,0 174.3983,0 178.3983,0 182.3983,-4 182.3983,-8 182.3983,-8 182.3983,-16 182.3983,-16 182.3983,-20 178.3983,-24 174.3983,-24 174.3983,-24 46.3983,-24 46.3983,-24 42.3983,-24 38.3983,-20 38.3983,-16 38.3983,-16 38.3983,-8 38.3983,-8 38.3983,-4 42.3983,0 46.3983,0"/>
<text text-anchor="start" x="106.5052" y="-7.8" font-family="Helvetica,sans-Serif" font-size="14.00" fill="#000000">?</text>
</g>
<!-- n3&#45;&gt;n4 -->
<!-- array -->
<g id="e1" class="edge">
<title>n3:s&#45;&gt;n4:n</title>
<path fill="none" stroke="#000000" d="M40.3983,-120C40.3983,-97.0562 12.3235,-105.1367 3.3983,-84 -.7511,-74.1735 -1.3236,-69.5646 3.3983,-60 14.2272,-38.065 45.5441,-48.5423 49.8945,-28.9808"/>
<polygon fill="#000000" stroke="#000000" points="51.6361,-29.1508 50.3983,-24 48.1539,-28.7985 51.6361,-29.1508"/>
<text text-anchor="middle" x="19.7568" y="-44.5433" font-family="Helvetica,sans-Serif" font-size="14.00" fill="#000000">array</text>
</g>
<!-- n3&#45;&gt;n4 -->
<!-- array -->
<g id="e2" class="edge">
<title>n3:s&#45;&gt;n4:n</title>
<path fill="none" stroke="#000000" d="M64.3983,-120C64.3983,-99.7302 42.9766,-103.1726 36.3983,-84 32.9366,-73.9107 32.1836,-69.7987 36.3983,-60 44.8008,-40.4653 69.5918,-46.0018 73.7908,-29.3304"/>
<polygon fill="#000000" stroke="#000000" points="75.5707,-29.166 74.3983,-24 72.0932,-28.7696 75.5707,-29.166"/>
<text text-anchor="middle" x="72.528" y="-46.4283" font-family="Helvetica,sans-Serif" font-size="14.00" fill="#000000">array</text>
</g>
<!-- n3&#45;&gt;n4 -->
<!-- array -->
<g id="e3" class="edge">
<title>n3:s&#45;&gt;n4:n</title>
<path fill="none" stroke="#000000" d="M88.3983,-120C88.3983,-92.617 124.3276,-107.4914 138.3983,-84 151.3041,-62.4533 147.0851,-52.2908 146.4679,-29.1449"/>
<polygon fill="#000000" stroke="#000000" points="148.2158,-28.9758 146.3983,-24 144.7162,-29.0232 148.2158,-28.9758"/>
<text text-anchor="middle" x="154.497" y="-86.548" font-family="Helvetica,sans-Serif" font-size="14.00" fill="#000000">array</text>
</g>
<!-- n9 -->
<!-- array&#45;shape -->
<g id="n9" class="node">
<title>n9</title>
<path fill="none" stroke="#000000" d="M53.3983,-60C53.3983,-60 121.3983,-60 121.3983,-60 125.3983,-60 129.3983,-64 129.3983,-68 129.3983,-68 129.3983,-76 129.3983,-76 129.3983,-80 125.3983,-84 121.3983,-84 121.3983,-84 53.3983,-84 53.3983,-84 49.3983,-84 45.3983,-80 45.3983,-76 45.3983,-76 45.3983,-68 45.3983,-68 45.3983,-64 49.3983,-60 53.3983,-60"/>
<text text-anchor="start" x="50.0467" y="-67.8" font-family="Helvetica,sans-Serif" font-size="14.00" fill="#000000">array&#45;shape</text>
</g>
<!-- n3&#45;&gt;n9 -->
<!-- array -->
<g id="e4" class="edge">
<title>n3:s&#45;&gt;n9:n</title>
<path fill="none" stroke="#000000" d="M40.3983,-120C40.3983,-95.7432 80.3414,-107.9769 86.5825,-89.4217"/>
<polygon fill="#000000" stroke="#000000" points="88.3848,-89.2048 87.3983,-84 84.9237,-88.6839 88.3848,-89.2048"/>
<text text-anchor="middle" x="47.7349" y="-104.8443" font-family="Helvetica,sans-Serif" font-size="14.00" fill="#000000">array</text>
</g>
<!-- n5 -->
<!-- ? -->
<g id="n5" class="node">
<title>n5</title>
<path fill="none" stroke="#000000" d="M290.3983,-120C290.3983,-120 298.3983,-120 298.3983,-120 302.3983,-120 306.3983,-124 306.3983,-128 306.3983,-128 306.3983,-136 306.3983,-136 306.3983,-140 302.3983,-144 298.3983,-144 298.3983,-144 290.3983,-144 290.3983,-144 286.3983,-144 282.3983,-140 282.3983,-136 282.3983,-136 282.3983,-128 282.3983,-128 282.3983,-124 286.3983,-120 290.3983,-120"/>
<text text-anchor="start" x="290.5052" y="-127.8" font-family="Helvetica,sans-Serif" font-size="14.00" fill="#000000">?</text>
</g>
<!-- n6 -->
<!-- ? -->
<g id="n6" class="node">
<title>n6</title>
<path fill="none" stroke="#000000" d="M248.3983,-120C248.3983,-120 256.3983,-120 256.3983,-120 260.3983,-120 264.3983,-124 264.3983,-128 264.3983,-128 264.3983,-136 264.3983,-136 264.3983,-140 260.3983,-144 256.3983,-144 256.3983,-144 248.3983,-144 248.3983,-144 244.3983,-144 240.3983,-140 240.3983,-136 240.3983,-136 240.3983,-128 240.3983,-128 240.3983,-124 244.3983,-120 248.3983,-120"/>
<text text-anchor="start" x="248.5052" y="-127.8" font-family="Helvetica,sans-Serif" font-size="14.00" fill="#000000">?</text>
</g>
<!-- n6&#45;&gt;n4 -->
<!-- array -->
<g id="e5" class="edge">
<title>n6:s&#45;&gt;n4:n</title>
<path fill="none" stroke="#000000" d="M252.3983,-120C252.3983,-92.9655 258.4595,-81.7463 242.3983,-60 222.3054,-32.7951 175.8603,-56.8253 170.8404,-29.3124"/>
<polygon fill="#000000" stroke="#000000" points="172.5571,-28.8376 170.3983,-24 169.0691,-29.128 172.5571,-28.8376"/>
<text text-anchor="middle" x="198.7866" y="-48.685" font-family="Helvetica,sans-Serif" font-size="14.00" fill="#000000">array</text>
</g>
<!-- n12 -->
<!-- fit -->
<g id="n12" class="node">
<title>n12</title>
<path fill="none" stroke="#000000" d="M193.3983,-60C193.3983,-60 225.3983,-60 225.3983,-60 229.3983,-60 233.3983,-64 233.3983,-68 233.3983,-68 233.3983,-76 233.3983,-76 233.3983,-80 229.3983,-84 225.3983,-84 225.3983,-84 193.3983,-84 193.3983,-84 189.3983,-84 185.3983,-80 185.3983,-76 185.3983,-76 185.3983,-68 185.3983,-68 185.3983,-64 189.3983,-60 193.3983,-60"/>
<text text-anchor="start" x="203.9535" y="-67.8" font-family="Helvetica,sans-Serif" font-size="14.00" fill="#000000">fit</text>
</g>
<!-- n6&#45;&gt;n12 -->
<!-- array -->
<g id="e6" class="edge">
<title>n6:s&#45;&gt;n12:n</title>
<path fill="none" stroke="#000000" d="M252.3983,-120C252.3983,-100.8649 226.9383,-104.187 222.1646,-89.2626"/>
<polygon fill="#000000" stroke="#000000" points="223.8506,-88.6956 221.3983,-84 220.3871,-89.2 223.8506,-88.6956"/>
<text text-anchor="middle" x="221.1544" y="-104.8981" font-family="Helvetica,sans-Serif" font-size="14.00" fill="#000000">array</text>
</g>
<!-- n7 -->
<!-- ? -->
<g id="n7" class="node">
<title>n7</title>
<path fill="none" stroke="#000000" d="M332.3983,-120C332.3983,-120 340.3983,-120 340.3983,-120 344.3983,-120 348.3983,-124 348.3983,-128 348.3983,-128 348.3983,-136 348.3983,-136 348.3983,-140 344.3983,-144 340.3983,-144 340.3983,-144 332.3983,-144 332.3983,-144 328.3983,-144 324.3983,-140 324.3983,-136 324.3983,-136 324.3983,-128 324.3983,-128 324.3983,-124 328.3983,-120 332.3983,-120"/>
<text text-anchor="start" x="332.5052" y="-127.8" font-family="Helvetica,sans-Serif" font-size="14.00" fill="#000000">?</text>
</g>
<!-- n8 -->
<!-- ? -->
<g id="n8" class="node">
<title>n8</title>
<path fill="none" stroke="#000000" d="M374.3983,-120C374.3983,-120 382.3983,-120 382.3983,-120 386.3983,-120 390.3983,-124 390.3983,-128 390.3983,-128 390.3983,-136 390.3983,-136 390.3983,-140 386.3983,-144 382.3983,-144 382.3983,-144 374.3983,-144 374.3983,-144 370.3983,-144 366.3983,-140 366.3983,-136 366.3983,-136 366.3983,-128 366.3983,-128 366.3983,-124 370.3983,-120 374.3983,-120"/>
<text text-anchor="start" x="374.5052" y="-127.8" font-family="Helvetica,sans-Serif" font-size="14.00" fill="#000000">?</text>
</g>
<!-- n9&#45;&gt;n4 -->
<!-- vector -->
<g id="e7" class="edge">
<title>n9:s&#45;&gt;n4:n</title>
<path fill="none" stroke="#000000" d="M87.3983,-60C87.3983,-45.0996 96.1236,-41.4555 98.0323,-29.0175"/>
<polygon fill="#000000" stroke="#000000" points="99.7798,-29.1141 98.3983,-24 96.2891,-28.8594 99.7798,-29.1141"/>
<text text-anchor="middle" x="73.8524" y="-30.7718" font-family="Helvetica,sans-Serif" font-size="14.00" fill="#000000">vector</text>
</g>
<!-- n10 -->
<!-- ? -->
<g id="n10" class="node">
<title>n10</title>
<path fill="none" stroke="#000000" d="M416.3983,-120C416.3983,-120 424.3983,-120 424.3983,-120 428.3983,-120 432.3983,-124 432.3983,-128 432.3983,-128 432.3983,-136 432.3983,-136 432.3983,-140 428.3983,-144 424.3983,-144 424.3983,-144 416.3983,-144 416.3983,-144 412.3983,-144 408.3983,-140 408.3983,-136 408.3983,-136 408.3983,-128 408.3983,-128 408.3983,-124 412.3983,-120 416.3983,-120"/>
<text text-anchor="start" x="416.5052" y="-127.8" font-family="Helvetica,sans-Serif" font-size="14.00" fill="#000000">?</text>
</g>
<!-- n11 -->
<!-- svm -->
<g id="n11" class="node">
<title>n11</title>
<path fill="none" stroke="#000000" d="M187.3983,-120C187.3983,-120 206.3983,-120 206.3983,-120 210.3983,-120 214.3983,-124 214.3983,-128 214.3983,-128 214.3983,-136 214.3983,-136 214.3983,-140 210.3983,-144 206.3983,-144 206.3983,-144 187.3983,-144 187.3983,-144 183.3983,-144 179.3983,-140 179.3983,-136 179.3983,-136 179.3983,-128 179.3983,-128 179.3983,-124 183.3983,-120 187.3983,-120"/>
<text text-anchor="start" x="184.0672" y="-127.8" font-family="Helvetica,sans-Serif" font-size="14.00" fill="#000000">svm</text>
</g>
<!-- n11&#45;&gt;n12 -->
<!-- svm -->
<g id="e8" class="edge">
<title>n11:s&#45;&gt;n12:n</title>
<path fill="none" stroke="#000000" d="M197.3983,-120C197.3983,-105.875 197.3983,-101.1023 197.3983,-89.1692"/>
<polygon fill="#000000" stroke="#000000" points="199.1484,-89 197.3983,-84 195.6484,-89 199.1484,-89"/>
<text text-anchor="middle" x="184.5672" y="-104.9025" font-family="Helvetica,sans-Serif" font-size="14.00" fill="#000000">svm</text>
</g>
<!-- n12&#45;&gt;n4 -->
<!-- model -->
<g id="e9" class="edge">
<title>n12:s&#45;&gt;n4:n</title>
<path fill="none" stroke="#000000" d="M209.3983,-60C209.3983,-20.1153 130.3634,-61.5718 122.9538,-29.3129"/>
<polygon fill="#000000" stroke="#000000" points="124.6589,-28.7909 122.3983,-24 121.1779,-29.1549 124.6589,-28.7909"/>
<text text-anchor="middle" x="146.9762" y="-44.7904" font-family="Helvetica,sans-Serif" font-size="14.00" fill="#000000">model</text>
</g>
<!-- n13 -->
<!-- ? -->
<g id="n13" class="node">
<title>n13</title>
<path fill="none" stroke="#000000" d="M458.3983,-120C458.3983,-120 466.3983,-120 466.3983,-120 470.3983,-120 474.3983,-124 474.3983,-128 474.3983,-128 474.3983,-136 474.3983,-136 474.3983,-140 470.3983,-144 466.3983,-144 466.3983,-144 458.3983,-144 458.3983,-144 454.3983,-144 450.3983,-140 450.3983,-136 450.3983,-136 450.3983,-128 450.3983,-128 450.3983,-124 454.3983,-120 458.3983,-120"/>
<text text-anchor="start" x="458.5052" y="-127.8" font-family="Helvetica,sans-Serif" font-size="14.00" fill="#000000">?</text>
</g>
<!-- n14 -->
<!-- ? -->
<g id="n14" class="node">
<title>n14</title>
<path fill="none" stroke="#000000" d="M500.3983,-120C500.3983,-120 508.3983,-120 508.3983,-120 512.3983,-120 516.3983,-124 516.3983,-128 516.3983,-128 516.3983,-136 516.3983,-136 516.3983,-140 512.3983,-144 508.3983,-144 508.3983,-144 500.3983,-144 500.3983,-144 496.3983,-144 492.3983,-140 492.3983,-136 492.3983,-136 492.3983,-128 492.3983,-128 492.3983,-124 496.3983,-120 500.3983,-120"/>
<text text-anchor="start" x="500.5052" y="-127.8" font-family="Helvetica,sans-Serif" font-size="14.00" fill="#000000">?</text>
</g>
</g>
</svg>
