<?xml version="1.0" encoding="UTF-8" standalone="no"?>
<!DOCTYPE svg PUBLIC "-//W3C//DTD SVG 1.1//EN"
 "http://www.w3.org/Graphics/SVG/1.1/DTD/svg11.dtd">
<!-- Generated by graphviz version 2.40.1 (20161225.0304)
 -->
<!-- Title: raw_flow_graph Pages: 1 -->
<svg width="1415pt" height="932pt"
 viewBox="0.00 0.00 1414.50 932.00" xmlns="http://www.w3.org/2000/svg" xmlns:xlink="http://www.w3.org/1999/xlink">
<g id="graph0" class="graph" transform="scale(1 1) rotate(0) translate(4 928)">
<title>raw_flow_graph</title>
<polygon fill="#ffffff" stroke="transparent" points="-4,4 -4,-928 1410.5,-928 1410.5,4 -4,4"/>
<!-- n3 -->
<!-- print -->
<g id="n3" class="node">
<title>n3</title>
<polygon fill="none" stroke="#000000" points="1091.5,-900 1091.5,-924 1143.5,-924 1143.5,-900 1091.5,-900"/>
<text text-anchor="start" x="1096.4966" y="-907.8" font-family="Courier,monospace" font-size="14.00" fill="#000000">print</text>
</g>
<!-- n4 -->
<!-- make_blobs -->
<g id="n4" class="node">
<title>n4</title>
<polygon fill="none" stroke="#000000" points="1031.5,-840 1031.5,-864 1125.5,-864 1125.5,-840 1031.5,-840"/>
<text text-anchor="start" x="1036.4932" y="-847.8" font-family="Courier,monospace" font-size="14.00" fill="#000000">make_blobs</text>
</g>
<!-- n6 -->
<!-- BaseLibSVM.fit -->
<g id="n6" class="node">
<title>n6</title>
<polygon fill="none" stroke="#000000" points="810.5,-780 810.5,-804 937.5,-804 937.5,-780 810.5,-780"/>
<text text-anchor="start" x="815.1904" y="-787.8" font-family="Courier,monospace" font-size="14.00" fill="#000000">BaseLibSVM.fit</text>
</g>
<!-- n4&#45;&gt;n6 -->
<!-- ndarray -->
<g id="e1" class="edge">
<title>n4:s&#45;&gt;n6:n</title>
<path fill="none" stroke="#000000" d="M1054.5,-840C1054.5,-760.3278 882.8386,-879.738 874.792,-809.3978"/>
<polygon fill="#000000" stroke="#000000" points="876.5176,-808.8981 874.5,-804 873.0227,-809.0873 876.5176,-808.8981"/>
<text text-anchor="middle" x="935.1694" y="-824.7812" font-family="Courier,monospace" font-size="14.00" fill="#000000">ndarray</text>
</g>
<!-- n4&#45;&gt;n6 -->
<!-- ndarray -->
<g id="e2" class="edge">
<title>n4:s&#45;&gt;n6:n</title>
<path fill="none" stroke="#000000" d="M1102.5,-840C1102.5,-757.6082 924.4063,-882.6117 916.7539,-809.1314"/>
<polygon fill="#000000" stroke="#000000" points="918.495,-808.9074 916.5,-804 914.9993,-809.0804 918.495,-808.9074"/>
<text text-anchor="middle" x="1038.7026" y="-824.8524" font-family="Courier,monospace" font-size="14.00" fill="#000000">ndarray</text>
</g>
<!-- n9 -->
<!-- getitem -->
<g id="n9" class="node">
<title>n9</title>
<polygon fill="none" stroke="#000000" points="1136.5,-780 1136.5,-804 1204.5,-804 1204.5,-780 1136.5,-780"/>
<text text-anchor="start" x="1141.0952" y="-787.8" font-family="Courier,monospace" font-size="14.00" fill="#000000">getitem</text>
</g>
<!-- n4&#45;&gt;n9 -->
<!-- ndarray -->
<g id="e3" class="edge">
<title>n4:s&#45;&gt;n9:n</title>
<path fill="none" stroke="#000000" d="M1054.5,-840C1054.5,-795.0101 1145.9167,-846.4753 1153.0586,-809.0209"/>
<polygon fill="#000000" stroke="#000000" points="1154.8053,-809.1341 1153.5,-804 1151.3188,-808.8275 1154.8053,-809.1341"/>
<text text-anchor="middle" x="1074.4819" y="-810.7876" font-family="Courier,monospace" font-size="14.00" fill="#000000">ndarray</text>
</g>
<!-- n12 -->
<!-- getitem -->
<g id="n12" class="node">
<title>n12</title>
<polygon fill="none" stroke="#000000" points="1222.5,-780 1222.5,-804 1290.5,-804 1290.5,-780 1222.5,-780"/>
<text text-anchor="start" x="1227.0952" y="-787.8" font-family="Courier,monospace" font-size="14.00" fill="#000000">getitem</text>
</g>
<!-- n4&#45;&gt;n12 -->
<!-- ndarray -->
<g id="e4" class="edge">
<title>n4:s&#45;&gt;n12:n</title>
<path fill="none" stroke="#000000" d="M1054.5,-840C1054.5,-758.0351 1231.6362,-882.2123 1239.2475,-809.105"/>
<polygon fill="#000000" stroke="#000000" points="1241.0008,-809.0804 1239.5,-804 1237.505,-808.9074 1241.0008,-809.0804"/>
<text text-anchor="middle" x="1117.7963" y="-824.8519" font-family="Courier,monospace" font-size="14.00" fill="#000000">ndarray</text>
</g>
<!-- n14 -->
<!-- scatter -->
<g id="n14" class="node">
<title>n14</title>
<polygon fill="none" stroke="#000000" points="1227.5,-720 1227.5,-744 1347.5,-744 1347.5,-720 1227.5,-720"/>
<text text-anchor="start" x="1258.0952" y="-727.8" font-family="Courier,monospace" font-size="14.00" fill="#000000">scatter</text>
</g>
<!-- n4&#45;&gt;n14 -->
<!-- ndarray -->
<g id="e5" class="edge">
<title>n4:s&#45;&gt;n14:n</title>
<path fill="none" stroke="#000000" d="M1102.5,-840C1102.5,-750.9945 1236.0419,-866.4103 1299.5,-804 1317.6015,-786.1974 1312.3633,-773.0426 1311.5877,-749.2452"/>
<polygon fill="#000000" stroke="#000000" points="1313.3335,-748.97 1311.5,-744 1309.834,-749.0286 1313.3335,-748.97"/>
<text text-anchor="middle" x="1231.0268" y="-820.5574" font-family="Courier,monospace" font-size="14.00" fill="#000000">ndarray</text>
</g>
<!-- n5 -->
<!-- SVC -->
<g id="n5" class="node">
<title>n5</title>
<polygon fill="none" stroke="#000000" points="813.5,-840 813.5,-864 848.5,-864 848.5,-840 813.5,-840"/>
<text text-anchor="start" x="818.3979" y="-847.8" font-family="Courier,monospace" font-size="14.00" fill="#000000">SVC</text>
</g>
<!-- n5&#45;&gt;n6 -->
<!-- SVC -->
<g id="e6" class="edge">
<title>n5:s&#45;&gt;n6:n</title>
<path fill="none" stroke="#000000" d="M831.5,-840C831.5,-825.875 831.5,-821.1023 831.5,-809.1692"/>
<polygon fill="#000000" stroke="#000000" points="833.2501,-809 831.5,-804 829.7501,-809 833.2501,-809"/>
<text text-anchor="middle" x="818.8979" y="-824.9025" font-family="Courier,monospace" font-size="14.00" fill="#000000">SVC</text>
</g>
<!-- n30 -->
<!-- BaseSVC.decision_function -->
<g id="n30" class="node">
<title>n30</title>
<polygon fill="none" stroke="#000000" points="358.5,-120 358.5,-144 578.5,-144 578.5,-120 358.5,-120"/>
<text text-anchor="start" x="363.4829" y="-127.8" font-family="Courier,monospace" font-size="14.00" fill="#000000">BaseSVC.decision_function</text>
</g>
<!-- n6&#45;&gt;n30 -->
<!-- SVC -->
<g id="e7" class="edge">
<title>n6:s&#45;&gt;n30:n</title>
<path fill="none" stroke="#000000" d="M906.5,-780C906.5,-725.4106 704.181,-780.4013 663.5,-744 638.8367,-721.9313 644.5,-705.0954 644.5,-672 644.5,-672 644.5,-672 644.5,-252 644.5,-195.7817 591.3424,-203.9904 540.5,-180 489.0998,-155.7464 418.101,-199.7579 413.7137,-149.194"/>
<polygon fill="#000000" stroke="#000000" points="415.4542,-148.9238 413.5,-144 411.9571,-149.0678 415.4542,-148.9238"/>
<text text-anchor="middle" x="631.8979" y="-622.3" font-family="Courier,monospace" font-size="14.00" fill="#000000">SVC</text>
</g>
<!-- n36 -->
<!-- support_vectors_ -->
<g id="n36" class="node">
<title>n36</title>
<polygon fill="none" stroke="#000000" points="672.5,-720 672.5,-744 816.5,-744 816.5,-720 672.5,-720"/>
<text text-anchor="start" x="677.2891" y="-727.8" font-family="Courier,monospace" font-size="14.00" fill="#000000">support_vectors_</text>
</g>
<!-- n6&#45;&gt;n36 -->
<!-- SVC -->
<g id="e8" class="edge">
<title>n6:s&#45;&gt;n36:n</title>
<path fill="none" stroke="#000000" d="M906.5,-780C906.5,-708.1164 752.6221,-812.213 744.808,-749.2659"/>
<polygon fill="#000000" stroke="#000000" points="746.5391,-748.8893 744.5,-744 743.045,-749.0937 746.5391,-748.8893"/>
<text text-anchor="middle" x="812.745" y="-764.8356" font-family="Courier,monospace" font-size="14.00" fill="#000000">SVC</text>
</g>
<!-- n40 -->
<!-- support_vectors_ -->
<g id="n40" class="node">
<title>n40</title>
<polygon fill="none" stroke="#000000" points="834.5,-720 834.5,-744 978.5,-744 978.5,-720 834.5,-720"/>
<text text-anchor="start" x="839.2891" y="-727.8" font-family="Courier,monospace" font-size="14.00" fill="#000000">support_vectors_</text>
</g>
<!-- n6&#45;&gt;n40 -->
<!-- SVC -->
<g id="e9" class="edge">
<title>n6:s&#45;&gt;n40:n</title>
<path fill="none" stroke="#000000" d="M906.5,-780C906.5,-765.875 906.5,-761.1023 906.5,-749.1692"/>
<polygon fill="#000000" stroke="#000000" points="908.2501,-749 906.5,-744 904.7501,-749 908.2501,-749"/>
<text text-anchor="middle" x="893.8979" y="-764.9025" font-family="Courier,monospace" font-size="14.00" fill="#000000">SVC</text>
</g>
<!-- n7 -->
<!-- slice -->
<g id="n7" class="node">
<title>n7</title>
<polygon fill="none" stroke="#000000" points="1161.5,-900 1161.5,-924 1213.5,-924 1213.5,-900 1161.5,-900"/>
<text text-anchor="start" x="1166.4966" y="-907.8" font-family="Courier,monospace" font-size="14.00" fill="#000000">slice</text>
</g>
<!-- n8 -->
<!-- __tuple__ -->
<g id="n8" class="node">
<title>n8</title>
<polygon fill="none" stroke="#000000" points="1144.5,-840 1144.5,-864 1229.5,-864 1229.5,-840 1144.5,-840"/>
<text text-anchor="start" x="1149.1938" y="-847.8" font-family="Courier,monospace" font-size="14.00" fill="#000000">__tuple__</text>
</g>
<!-- n7&#45;&gt;n8 -->
<g id="e10" class="edge">
<title>n7:s&#45;&gt;n8:n</title>
<path fill="none" stroke="#000000" d="M1187.5,-900C1187.5,-885.875 1187.5,-881.1023 1187.5,-869.1692"/>
<polygon fill="#000000" stroke="#000000" points="1189.2501,-869 1187.5,-864 1185.7501,-869 1189.2501,-869"/>
</g>
<!-- n8&#45;&gt;n9 -->
<g id="e11" class="edge">
<title>n8:s&#45;&gt;n9:n</title>
<path fill="none" stroke="#000000" d="M1187.5,-840C1187.5,-825.875 1187.5,-821.1023 1187.5,-809.1692"/>
<polygon fill="#000000" stroke="#000000" points="1189.2501,-809 1187.5,-804 1185.7501,-809 1189.2501,-809"/>
</g>
<!-- n9&#45;&gt;n14 -->
<!-- ndarray -->
<g id="e12" class="edge">
<title>n9:s&#45;&gt;n14:n</title>
<path fill="none" stroke="#000000" d="M1170.5,-780C1170.5,-747.302 1232.1595,-775.1633 1238.9035,-749.089"/>
<polygon fill="#000000" stroke="#000000" points="1240.6559,-749.1698 1239.5,-744 1237.1797,-748.7622 1240.6559,-749.1698"/>
<text text-anchor="middle" x="1175.4404" y="-764.8032" font-family="Courier,monospace" font-size="14.00" fill="#000000">ndarray</text>
</g>
<!-- n10 -->
<!-- slice -->
<g id="n10" class="node">
<title>n10</title>
<polygon fill="none" stroke="#000000" points="1264.5,-900 1264.5,-924 1316.5,-924 1316.5,-900 1264.5,-900"/>
<text text-anchor="start" x="1269.4966" y="-907.8" font-family="Courier,monospace" font-size="14.00" fill="#000000">slice</text>
</g>
<!-- n11 -->
<!-- __tuple__ -->
<g id="n11" class="node">
<title>n11</title>
<polygon fill="none" stroke="#000000" points="1247.5,-840 1247.5,-864 1332.5,-864 1332.5,-840 1247.5,-840"/>
<text text-anchor="start" x="1252.1938" y="-847.8" font-family="Courier,monospace" font-size="14.00" fill="#000000">__tuple__</text>
</g>
<!-- n10&#45;&gt;n11 -->
<g id="e13" class="edge">
<title>n10:s&#45;&gt;n11:n</title>
<path fill="none" stroke="#000000" d="M1290.5,-900C1290.5,-885.875 1290.5,-881.1023 1290.5,-869.1692"/>
<polygon fill="#000000" stroke="#000000" points="1292.2501,-869 1290.5,-864 1288.7501,-869 1292.2501,-869"/>
</g>
<!-- n11&#45;&gt;n12 -->
<g id="e14" class="edge">
<title>n11:s&#45;&gt;n12:n</title>
<path fill="none" stroke="#000000" d="M1290.5,-840C1290.5,-824.2411 1277.0154,-822.0324 1274.0656,-809.2376"/>
<polygon fill="#000000" stroke="#000000" points="1275.7768,-808.7832 1273.5,-804 1272.297,-809.159 1275.7768,-808.7832"/>
</g>
<!-- n12&#45;&gt;n14 -->
<!-- ndarray -->
<g id="e15" class="edge">
<title>n12:s&#45;&gt;n14:n</title>
<path fill="none" stroke="#000000" d="M1256.5,-780C1256.5,-765.6105 1261.9555,-761.2738 1263.2341,-749.2404"/>
<polygon fill="#000000" stroke="#000000" points="1264.9943,-749.0823 1263.5,-744 1261.4988,-748.9049 1264.9943,-749.0823"/>
<text text-anchor="middle" x="1289.3689" y="-764.901" font-family="Courier,monospace" font-size="14.00" fill="#000000">ndarray</text>
</g>
<!-- n13 -->
<!-- Paired -->
<g id="n13" class="node">
<title>n13</title>
<polygon fill="none" stroke="#000000" points="1346.5,-780 1346.5,-804 1406.5,-804 1406.5,-780 1346.5,-780"/>
<text text-anchor="start" x="1351.2959" y="-787.8" font-family="Courier,monospace" font-size="14.00" fill="#000000">Paired</text>
</g>
<!-- n13&#45;&gt;n14 -->
<!-- ListedColormap -->
<g id="e16" class="edge">
<title>n13:s&#45;&gt;n14:n</title>
<path fill="none" stroke="#000000" d="M1376.5,-780C1376.5,-757.6448 1341.656,-766.521 1336.2116,-749.0457"/>
<polygon fill="#000000" stroke="#000000" points="1337.9312,-748.7066 1335.5,-744 1334.4655,-749.1954 1337.9312,-748.7066"/>
<text text-anchor="middle" x="1296.9352" y="-750.7268" font-family="Courier,monospace" font-size="14.00" fill="#000000">ListedColormap</text>
</g>
<!-- n15 -->
<!-- gca -->
<g id="n15" class="node">
<title>n15</title>
<polygon fill="none" stroke="#000000" points="226.5,-660 226.5,-684 261.5,-684 261.5,-660 226.5,-660"/>
<text text-anchor="start" x="231.3979" y="-667.8" font-family="Courier,monospace" font-size="14.00" fill="#000000">gca</text>
</g>
<!-- n16 -->
<!-- _AxesBase.get_xlim -->
<g id="n16" class="node">
<title>n16</title>
<polygon fill="none" stroke="#000000" points="218.5,-600 218.5,-624 379.5,-624 379.5,-600 218.5,-600"/>
<text text-anchor="start" x="223.3877" y="-607.8" font-family="Courier,monospace" font-size="14.00" fill="#000000">_AxesBase.get_xlim</text>
</g>
<!-- n15&#45;&gt;n16 -->
<!-- AxesSubplot -->
<g id="e17" class="edge">
<title>n15:s&#45;&gt;n16:n</title>
<path fill="none" stroke="#000000" d="M244.5,-660C244.5,-632.7248 292.4379,-650.4639 298.8046,-629.1672"/>
<polygon fill="#000000" stroke="#000000" points="300.5674,-629.1888 299.5,-624 297.0987,-628.7219 300.5674,-629.1888"/>
<text text-anchor="middle" x="226.0619" y="-644.7668" font-family="Courier,monospace" font-size="14.00" fill="#000000">AxesSubplot</text>
</g>
<!-- n17 -->
<!-- _AxesBase.get_ylim -->
<g id="n17" class="node">
<title>n17</title>
<polygon fill="none" stroke="#000000" points=".5,-600 .5,-624 161.5,-624 161.5,-600 .5,-600"/>
<text text-anchor="start" x="5.3877" y="-607.8" font-family="Courier,monospace" font-size="14.00" fill="#000000">_AxesBase.get_ylim</text>
</g>
<!-- n15&#45;&gt;n17 -->
<!-- AxesSubplot -->
<g id="e18" class="edge">
<title>n15:s&#45;&gt;n17:n</title>
<path fill="none" stroke="#000000" d="M244.5,-660C244.5,-587.6935 89.6723,-692.6037 81.8099,-629.2965"/>
<polygon fill="#000000" stroke="#000000" points="83.5392,-628.8892 81.5,-624 80.0451,-629.0937 83.5392,-628.8892"/>
<text text-anchor="middle" x="116.6386" y="-644.8361" font-family="Courier,monospace" font-size="14.00" fill="#000000">AxesSubplot</text>
</g>
<!-- n35 -->
<!-- Axes.contour -->
<g id="n35" class="node">
<title>n35</title>
<polygon fill="none" stroke="#000000" points="318.5,0 318.5,-24 510.5,-24 510.5,0 318.5,0"/>
<text text-anchor="start" x="364.0918" y="-7.8" font-family="Courier,monospace" font-size="14.00" fill="#000000">Axes.contour</text>
</g>
<!-- n15&#45;&gt;n35 -->
<!-- AxesSubplot -->
<g id="e19" class="edge">
<title>n15:s&#45;&gt;n35:n</title>
<path fill="none" stroke="#000000" d="M244.5,-660C244.5,-637.3726 219.7765,-643.6173 208.5,-624 192.0067,-595.3072 189.5,-585.0954 189.5,-552 189.5,-552 189.5,-552 189.5,-132 189.5,-113.6532 311.369,-53.1303 328.5068,-28.8525"/>
<polygon fill="#000000" stroke="#000000" points="330.2189,-29.29 330.5,-24 326.9814,-27.9601 330.2189,-29.29"/>
<text text-anchor="middle" x="235.7075" y="-502.3" font-family="Courier,monospace" font-size="14.00" fill="#000000">AxesSubplot</text>
</g>
<!-- n44 -->
<!-- Axes.scatter -->
<g id="n44" class="node">
<title>n44</title>
<polygon fill="none" stroke="#000000" points="743.5,-600 743.5,-624 853.5,-624 853.5,-600 743.5,-600"/>
<text text-anchor="start" x="748.0918" y="-607.8" font-family="Courier,monospace" font-size="14.00" fill="#000000">Axes.scatter</text>
</g>
<!-- n15&#45;&gt;n44 -->
<!-- AxesSubplot -->
<g id="e20" class="edge">
<title>n15:s&#45;&gt;n44:n</title>
<path fill="none" stroke="#000000" d="M244.5,-660C244.5,-604.2159 729.6924,-676.7691 760.0169,-629.0062"/>
<polygon fill="#000000" stroke="#000000" points="761.7576,-629.2912 761.5,-624 758.4018,-628.2969 761.7576,-629.2912"/>
<text text-anchor="middle" x="456.7806" y="-644.7995" font-family="Courier,monospace" font-size="14.00" fill="#000000">AxesSubplot</text>
</g>
<!-- n18 -->
<!-- getitem -->
<g id="n18" class="node">
<title>n18</title>
<polygon fill="none" stroke="#000000" points="260.5,-540 260.5,-564 328.5,-564 328.5,-540 260.5,-540"/>
<text text-anchor="start" x="265.0952" y="-547.8" font-family="Courier,monospace" font-size="14.00" fill="#000000">getitem</text>
</g>
<!-- n16&#45;&gt;n18 -->
<g id="e21" class="edge">
<title>n16:s&#45;&gt;n18:n</title>
<path fill="none" stroke="#000000" d="M299.5,-600C299.5,-585.7394 295.6032,-581.1902 294.6899,-569.2057"/>
<polygon fill="#000000" stroke="#000000" points="296.4312,-568.9328 294.5,-564 292.9335,-569.0605 296.4312,-568.9328"/>
</g>
<!-- n19 -->
<!-- getitem -->
<g id="n19" class="node">
<title>n19</title>
<polygon fill="none" stroke="#000000" points="346.5,-540 346.5,-564 414.5,-564 414.5,-540 346.5,-540"/>
<text text-anchor="start" x="351.0952" y="-547.8" font-family="Courier,monospace" font-size="14.00" fill="#000000">getitem</text>
</g>
<!-- n16&#45;&gt;n19 -->
<g id="e22" class="edge">
<title>n16:s&#45;&gt;n19:n</title>
<path fill="none" stroke="#000000" d="M299.5,-600C299.5,-562.4512 373.0842,-599.5644 379.9827,-569.0152"/>
<polygon fill="#000000" stroke="#000000" points="381.7277,-569.1532 380.5,-564 378.2462,-568.794 381.7277,-569.1532"/>
</g>
<!-- n21 -->
<!-- getitem -->
<g id="n21" class="node">
<title>n21</title>
<polygon fill="none" stroke="#000000" points="7.5,-540 7.5,-564 75.5,-564 75.5,-540 7.5,-540"/>
<text text-anchor="start" x="12.0952" y="-547.8" font-family="Courier,monospace" font-size="14.00" fill="#000000">getitem</text>
</g>
<!-- n17&#45;&gt;n21 -->
<g id="e23" class="edge">
<title>n17:s&#45;&gt;n21:n</title>
<path fill="none" stroke="#000000" d="M81.5,-600C81.5,-577.951 47.5059,-586.2865 42.1943,-568.9851"/>
<polygon fill="#000000" stroke="#000000" points="43.923,-568.7108 41.5,-564 40.4565,-569.1936 43.923,-568.7108"/>
</g>
<!-- n22 -->
<!-- getitem -->
<g id="n22" class="node">
<title>n22</title>
<polygon fill="none" stroke="#000000" points="93.5,-540 93.5,-564 161.5,-564 161.5,-540 93.5,-540"/>
<text text-anchor="start" x="98.0952" y="-547.8" font-family="Courier,monospace" font-size="14.00" fill="#000000">getitem</text>
</g>
<!-- n17&#45;&gt;n22 -->
<g id="e24" class="edge">
<title>n17:s&#45;&gt;n22:n</title>
<path fill="none" stroke="#000000" d="M81.5,-600C81.5,-576.0672 120.5933,-587.7288 126.7016,-569.3577"/>
<polygon fill="#000000" stroke="#000000" points="128.4938,-569.2034 127.5,-564 125.0321,-568.6874 128.4938,-569.2034"/>
</g>
<!-- n20 -->
<!-- linspace -->
<g id="n20" class="node">
<title>n20</title>
<polygon fill="none" stroke="#000000" points="319.5,-480 319.5,-504 396.5,-504 396.5,-480 319.5,-480"/>
<text text-anchor="start" x="324.3945" y="-487.8" font-family="Courier,monospace" font-size="14.00" fill="#000000">linspace</text>
</g>
<!-- n18&#45;&gt;n20 -->
<!-- float64 -->
<g id="e25" class="edge">
<title>n18:s&#45;&gt;n20:n</title>
<path fill="none" stroke="#000000" d="M294.5,-540C294.5,-516.707 331.8936,-527.239 337.7363,-509.2311"/>
<polygon fill="#000000" stroke="#000000" points="339.5093,-509.2004 338.5,-504 336.046,-508.6947 339.5093,-509.2004"/>
<text text-anchor="middle" x="286.8938" y="-524.8491" font-family="Courier,monospace" font-size="14.00" fill="#000000">float64</text>
</g>
<!-- n19&#45;&gt;n20 -->
<!-- float64 -->
<g id="e26" class="edge">
<title>n19:s&#45;&gt;n20:n</title>
<path fill="none" stroke="#000000" d="M380.5,-540C380.5,-525.826 378.1619,-521.134 377.6139,-509.1824"/>
<polygon fill="#000000" stroke="#000000" points="379.3596,-508.9603 377.5,-504 375.8604,-509.0373 379.3596,-508.9603"/>
<text text-anchor="middle" x="349.6106" y="-524.9023" font-family="Courier,monospace" font-size="14.00" fill="#000000">float64</text>
</g>
<!-- n24 -->
<!-- meshgrid -->
<g id="n24" class="node">
<title>n24</title>
<polygon fill="none" stroke="#000000" points="300.5,-420 300.5,-444 377.5,-444 377.5,-420 300.5,-420"/>
<text text-anchor="start" x="305.3945" y="-427.8" font-family="Courier,monospace" font-size="14.00" fill="#000000">meshgrid</text>
</g>
<!-- n20&#45;&gt;n24 -->
<!-- ndarray -->
<g id="e27" class="edge">
<title>n20:s&#45;&gt;n24:n</title>
<path fill="none" stroke="#000000" d="M358.5,-480C358.5,-465.875 358.5,-461.1023 358.5,-449.1692"/>
<polygon fill="#000000" stroke="#000000" points="360.2501,-449 358.5,-444 356.7501,-449 360.2501,-449"/>
<text text-anchor="middle" x="329.0952" y="-464.9025" font-family="Courier,monospace" font-size="14.00" fill="#000000">ndarray</text>
</g>
<!-- n23 -->
<!-- linspace -->
<g id="n23" class="node">
<title>n23</title>
<polygon fill="none" stroke="#000000" points="69.5,-480 69.5,-504 146.5,-504 146.5,-480 69.5,-480"/>
<text text-anchor="start" x="74.3945" y="-487.8" font-family="Courier,monospace" font-size="14.00" fill="#000000">linspace</text>
</g>
<!-- n21&#45;&gt;n23 -->
<!-- float64 -->
<g id="e28" class="edge">
<title>n21:s&#45;&gt;n23:n</title>
<path fill="none" stroke="#000000" d="M41.5,-540C41.5,-515.7432 81.4431,-527.9769 87.6842,-509.4217"/>
<polygon fill="#000000" stroke="#000000" points="89.4865,-509.2048 88.5,-504 86.0255,-508.6839 89.4865,-509.2048"/>
<text text-anchor="middle" x="35.3801" y="-524.8443" font-family="Courier,monospace" font-size="14.00" fill="#000000">float64</text>
</g>
<!-- n22&#45;&gt;n23 -->
<!-- float64 -->
<g id="e29" class="edge">
<title>n22:s&#45;&gt;n23:n</title>
<path fill="none" stroke="#000000" d="M127.5,-540C127.5,-525.875 127.5,-521.1023 127.5,-509.1692"/>
<polygon fill="#000000" stroke="#000000" points="129.2501,-509 127.5,-504 125.7501,-509 129.2501,-509"/>
<text text-anchor="middle" x="98.0952" y="-524.9025" font-family="Courier,monospace" font-size="14.00" fill="#000000">float64</text>
</g>
<!-- n23&#45;&gt;n24 -->
<!-- ndarray -->
<g id="e30" class="edge">
<title>n23:s&#45;&gt;n24:n</title>
<path fill="none" stroke="#000000" d="M108.5,-480C108.5,-386.6322 311.7426,-533.4941 319.2848,-449.0411"/>
<polygon fill="#000000" stroke="#000000" points="321.035,-449.0701 319.5,-444 317.5382,-448.9208 321.035,-449.0701"/>
<text text-anchor="middle" x="184.6924" y="-464.8272" font-family="Courier,monospace" font-size="14.00" fill="#000000">ndarray</text>
</g>
<!-- n25 -->
<!-- ndarray.ravel -->
<g id="n25" class="node">
<title>n25</title>
<polygon fill="none" stroke="#000000" points="432.5,-360 432.5,-384 551.5,-384 551.5,-360 432.5,-360"/>
<text text-anchor="start" x="437.3911" y="-367.8" font-family="Courier,monospace" font-size="14.00" fill="#000000">ndarray.ravel</text>
</g>
<!-- n24&#45;&gt;n25 -->
<!-- ndarray -->
<g id="e31" class="edge">
<title>n24:s&#45;&gt;n25:n</title>
<path fill="none" stroke="#000000" d="M358.5,-420C358.5,-360.1393 484.7635,-440.678 492.1617,-389.0438"/>
<polygon fill="#000000" stroke="#000000" points="493.9114,-389.1059 492.5,-384 490.4192,-388.8716 493.9114,-389.1059"/>
<text text-anchor="middle" x="395.8184" y="-404.747" font-family="Courier,monospace" font-size="14.00" fill="#000000">ndarray</text>
</g>
<!-- n26 -->
<!-- ndarray.ravel -->
<g id="n26" class="node">
<title>n26</title>
<polygon fill="none" stroke="#000000" points="256.5,-360 256.5,-384 375.5,-384 375.5,-360 256.5,-360"/>
<text text-anchor="start" x="261.3911" y="-367.8" font-family="Courier,monospace" font-size="14.00" fill="#000000">ndarray.ravel</text>
</g>
<!-- n24&#45;&gt;n26 -->
<!-- ndarray -->
<g id="e32" class="edge">
<title>n24:s&#45;&gt;n26:n</title>
<path fill="none" stroke="#000000" d="M319.5,-420C319.5,-405.826 317.1619,-401.134 316.6139,-389.1824"/>
<polygon fill="#000000" stroke="#000000" points="318.3596,-388.9603 316.5,-384 314.8604,-389.0373 318.3596,-388.9603"/>
<text text-anchor="middle" x="288.6106" y="-404.9023" font-family="Courier,monospace" font-size="14.00" fill="#000000">ndarray</text>
</g>
<!-- n31 -->
<!-- shape -->
<g id="n31" class="node">
<title>n31</title>
<polygon fill="none" stroke="#000000" points="564.5,-300 564.5,-324 616.5,-324 616.5,-300 564.5,-300"/>
<text text-anchor="start" x="569.4966" y="-307.8" font-family="Courier,monospace" font-size="14.00" fill="#000000">shape</text>
</g>
<!-- n24&#45;&gt;n31 -->
<!-- ndarray -->
<g id="e33" class="edge">
<title>n24:s&#45;&gt;n31:n</title>
<path fill="none" stroke="#000000" d="M358.5,-420C358.5,-374.6226 522.9831,-410.9375 559.5,-384 582.2394,-367.2258 589.6384,-355.4608 590.4274,-329.0971"/>
<polygon fill="#000000" stroke="#000000" points="592.1785,-329.0245 590.5,-324 588.6789,-328.9745 592.1785,-329.0245"/>
<text text-anchor="middle" x="503.8874" y="-398.0476" font-family="Courier,monospace" font-size="14.00" fill="#000000">ndarray</text>
</g>
<!-- n24&#45;&gt;n35 -->
<!-- ndarray -->
<g id="e34" class="edge">
<title>n24:s&#45;&gt;n35:n</title>
<path fill="none" stroke="#000000" d="M358.5,-420C358.5,-400.5203 377.6784,-402.5894 383.5,-384 386.6878,-373.8208 384.3318,-370.6342 383.5,-360 375.9214,-263.1139 357.0786,-240.8861 349.5,-144 346.5886,-106.7804 346.9259,-97.2445 349.5,-60 350.4832,-45.7734 353.6272,-41.1982 354.3506,-29.2071"/>
<polygon fill="#000000" stroke="#000000" points="356.1058,-29.0482 354.5,-24 352.6072,-28.9477 356.1058,-29.0482"/>
<text text-anchor="middle" x="330.545" y="-224.0813" font-family="Courier,monospace" font-size="14.00" fill="#000000">ndarray</text>
</g>
<!-- n24&#45;&gt;n35 -->
<!-- ndarray -->
<g id="e35" class="edge">
<title>n24:s&#45;&gt;n35:n</title>
<path fill="none" stroke="#000000" d="M319.5,-420C319.5,-383.8248 269.3962,-412.0073 246.5,-384 225.5531,-358.3771 227.5,-345.0954 227.5,-312 227.5,-312 227.5,-312 227.5,-132 227.5,-92.5177 365.8022,-67.4747 377.6876,-29.2332"/>
<polygon fill="#000000" stroke="#000000" points="379.4622,-29.2093 378.5,-24 376.0036,-28.6723 379.4622,-29.2093"/>
<text text-anchor="middle" x="198.0952" y="-292.3" font-family="Courier,monospace" font-size="14.00" fill="#000000">ndarray</text>
</g>
<!-- n27 -->
<!-- __list__ -->
<g id="n27" class="node">
<title>n27</title>
<polygon fill="none" stroke="#000000" points="469.5,-300 469.5,-324 546.5,-324 546.5,-300 469.5,-300"/>
<text text-anchor="start" x="474.3945" y="-307.8" font-family="Courier,monospace" font-size="14.00" fill="#000000">__list__</text>
</g>
<!-- n25&#45;&gt;n27 -->
<!-- ndarray -->
<g id="e36" class="edge">
<title>n25:s&#45;&gt;n27:n</title>
<path fill="none" stroke="#000000" d="M492.5,-360C492.5,-345.7881 489.3826,-341.1587 488.6519,-329.1926"/>
<polygon fill="#000000" stroke="#000000" points="490.3956,-328.9467 488.5,-324 486.8971,-329.0491 490.3956,-328.9467"/>
<text text-anchor="middle" x="461.1157" y="-344.902" font-family="Courier,monospace" font-size="14.00" fill="#000000">ndarray</text>
</g>
<!-- n26&#45;&gt;n27 -->
<!-- ndarray -->
<g id="e37" class="edge">
<title>n26:s&#45;&gt;n27:n</title>
<path fill="none" stroke="#000000" d="M316.5,-360C316.5,-266.6322 519.7426,-413.4941 527.2848,-329.0411"/>
<polygon fill="#000000" stroke="#000000" points="529.035,-329.0701 527.5,-324 525.5382,-328.9208 529.035,-329.0701"/>
<text text-anchor="middle" x="392.6924" y="-344.8272" font-family="Courier,monospace" font-size="14.00" fill="#000000">ndarray</text>
</g>
<!-- n28 -->
<!-- vstack -->
<g id="n28" class="node">
<title>n28</title>
<polygon fill="none" stroke="#000000" points="485.5,-240 485.5,-264 545.5,-264 545.5,-240 485.5,-240"/>
<text text-anchor="start" x="490.2959" y="-247.8" font-family="Courier,monospace" font-size="14.00" fill="#000000">vstack</text>
</g>
<!-- n27&#45;&gt;n28 -->
<g id="e38" class="edge">
<title>n27:s&#45;&gt;n28:n</title>
<path fill="none" stroke="#000000" d="M508.5,-300C508.5,-285.6105 513.9555,-281.2738 515.2341,-269.2404"/>
<polygon fill="#000000" stroke="#000000" points="516.9943,-269.0823 515.5,-264 513.4988,-268.9049 516.9943,-269.0823"/>
</g>
<!-- n29 -->
<!-- T -->
<g id="n29" class="node">
<title>n29</title>
<polygon fill="none" stroke="#000000" points="507.5,-180 507.5,-204 531.5,-204 531.5,-180 507.5,-180"/>
<text text-anchor="start" x="515.2993" y="-187.8" font-family="Courier,monospace" font-size="14.00" fill="#000000">T</text>
</g>
<!-- n28&#45;&gt;n29 -->
<!-- ndarray -->
<g id="e39" class="edge">
<title>n28:s&#45;&gt;n29:n</title>
<path fill="none" stroke="#000000" d="M515.5,-240C515.5,-225.7881 518.6174,-221.1587 519.3481,-209.1926"/>
<polygon fill="#000000" stroke="#000000" points="521.1029,-209.0491 519.5,-204 517.6044,-208.9467 521.1029,-209.0491"/>
<text text-anchor="middle" x="488.0747" y="-224.902" font-family="Courier,monospace" font-size="14.00" fill="#000000">ndarray</text>
</g>
<!-- n29&#45;&gt;n30 -->
<!-- ndarray -->
<g id="e40" class="edge">
<title>n29:s&#45;&gt;n30:n</title>
<path fill="none" stroke="#000000" d="M519.5,-180C519.5,-165.7881 522.6174,-161.1587 523.3481,-149.1926"/>
<polygon fill="#000000" stroke="#000000" points="525.1029,-149.0491 523.5,-144 521.6044,-148.9467 525.1029,-149.0491"/>
<text text-anchor="middle" x="492.0747" y="-164.902" font-family="Courier,monospace" font-size="14.00" fill="#000000">ndarray</text>
</g>
<!-- n32 -->
<!-- ndarray.reshape -->
<g id="n32" class="node">
<title>n32</title>
<polygon fill="none" stroke="#000000" points="358.5,-60 358.5,-84 494.5,-84 494.5,-60 358.5,-60"/>
<text text-anchor="start" x="363.4897" y="-67.8" font-family="Courier,monospace" font-size="14.00" fill="#000000">ndarray.reshape</text>
</g>
<!-- n30&#45;&gt;n32 -->
<!-- ndarray -->
<g id="e41" class="edge">
<title>n30:s&#45;&gt;n32:n</title>
<path fill="none" stroke="#000000" d="M468.5,-120C468.5,-84.5223 400.0228,-117.6363 393.068,-89.1249"/>
<polygon fill="#000000" stroke="#000000" points="394.7903,-88.7767 392.5,-84 391.3116,-89.1624 394.7903,-88.7767"/>
<text text-anchor="middle" x="401.0309" y="-104.8012" font-family="Courier,monospace" font-size="14.00" fill="#000000">ndarray</text>
</g>
<!-- n31&#45;&gt;n32 -->
<g id="e42" class="edge">
<title>n31:s&#45;&gt;n32:n</title>
<path fill="none" stroke="#000000" d="M590.5,-300C590.5,-219.9889 636.2789,-183.4223 587.5,-120 552.8505,-74.9487 466.1479,-138.458 460.7628,-89.1331"/>
<polygon fill="#000000" stroke="#000000" points="462.5035,-88.9039 460.5,-84 459.008,-89.083 462.5035,-88.9039"/>
</g>
<!-- n32&#45;&gt;n35 -->
<!-- ndarray -->
<g id="e43" class="edge">
<title>n32:s&#45;&gt;n35:n</title>
<path fill="none" stroke="#000000" d="M426.5,-60C426.5,-42.7234 407.1274,-42.9538 403.1924,-29.2333"/>
<polygon fill="#000000" stroke="#000000" points="404.8908,-28.7272 402.5,-24 401.421,-29.1864 404.8908,-28.7272"/>
<text text-anchor="middle" x="385.4072" y="-45.0181" font-family="Courier,monospace" font-size="14.00" fill="#000000">ndarray</text>
</g>
<!-- n33 -->
<!-- __list__ -->
<g id="n33" class="node">
<title>n33</title>
<polygon fill="none" stroke="#000000" points="513.5,-60 513.5,-84 590.5,-84 590.5,-60 513.5,-60"/>
<text text-anchor="start" x="518.3945" y="-67.8" font-family="Courier,monospace" font-size="14.00" fill="#000000">__list__</text>
</g>
<!-- n33&#45;&gt;n35 -->
<g id="e44" class="edge">
<title>n33:s&#45;&gt;n35:n</title>
<path fill="none" stroke="#000000" d="M552.5,-60C552.5,-13.8039 458.3131,-67.5401 450.9548,-29.1512"/>
<polygon fill="#000000" stroke="#000000" points="452.683,-28.8267 450.5,-24 449.1966,-29.1346 452.683,-28.8267"/>
</g>
<!-- n34 -->
<!-- __list__ -->
<g id="n34" class="node">
<title>n34</title>
<polygon fill="none" stroke="#000000" points="608.5,-60 608.5,-84 685.5,-84 685.5,-60 608.5,-60"/>
<text text-anchor="start" x="613.3945" y="-67.8" font-family="Courier,monospace" font-size="14.00" fill="#000000">__list__</text>
</g>
<!-- n34&#45;&gt;n35 -->
<g id="e45" class="edge">
<title>n34:s&#45;&gt;n35:n</title>
<path fill="none" stroke="#000000" d="M647.5,-60C647.5,6.2648 506.537,-86.7709 498.8281,-29.2178"/>
<polygon fill="#000000" stroke="#000000" points="500.5604,-28.8803 498.5,-24 497.0673,-29.1 500.5604,-28.8803"/>
</g>
<!-- n39 -->
<!-- getitem -->
<g id="n39" class="node">
<title>n39</title>
<polygon fill="none" stroke="#000000" points="765.5,-660 765.5,-684 833.5,-684 833.5,-660 765.5,-660"/>
<text text-anchor="start" x="770.0952" y="-667.8" font-family="Courier,monospace" font-size="14.00" fill="#000000">getitem</text>
</g>
<!-- n36&#45;&gt;n39 -->
<!-- ndarray -->
<g id="e46" class="edge">
<title>n36:s&#45;&gt;n39:n</title>
<path fill="none" stroke="#000000" d="M744.5,-720C744.5,-698.7348 776.2494,-705.7044 781.7063,-689.292"/>
<polygon fill="#000000" stroke="#000000" points="783.489,-689.2043 782.5,-684 780.0277,-688.6851 783.489,-689.2043"/>
<text text-anchor="middle" x="734.0883" y="-704.8023" font-family="Courier,monospace" font-size="14.00" fill="#000000">ndarray</text>
</g>
<!-- n37 -->
<!-- slice -->
<g id="n37" class="node">
<title>n37</title>
<polygon fill="none" stroke="#000000" points="996.5,-780 996.5,-804 1048.5,-804 1048.5,-780 996.5,-780"/>
<text text-anchor="start" x="1001.4966" y="-787.8" font-family="Courier,monospace" font-size="14.00" fill="#000000">slice</text>
</g>
<!-- n38 -->
<!-- __tuple__ -->
<g id="n38" class="node">
<title>n38</title>
<polygon fill="none" stroke="#000000" points="997.5,-720 997.5,-744 1082.5,-744 1082.5,-720 997.5,-720"/>
<text text-anchor="start" x="1002.1938" y="-727.8" font-family="Courier,monospace" font-size="14.00" fill="#000000">__tuple__</text>
</g>
<!-- n37&#45;&gt;n38 -->
<g id="e47" class="edge">
<title>n37:s&#45;&gt;n38:n</title>
<path fill="none" stroke="#000000" d="M1022.5,-780C1022.5,-764.068 1036.7778,-762.1486 1039.9011,-749.2819"/>
<polygon fill="#000000" stroke="#000000" points="1041.6755,-749.1654 1040.5,-744 1038.1977,-748.771 1041.6755,-749.1654"/>
</g>
<!-- n38&#45;&gt;n39 -->
<g id="e48" class="edge">
<title>n38:s&#45;&gt;n39:n</title>
<path fill="none" stroke="#000000" d="M1040.5,-720C1040.5,-620.9394 824.3058,-779.0912 816.7052,-689.0732"/>
<polygon fill="#000000" stroke="#000000" points="818.4507,-688.9252 816.5,-684 814.9536,-689.0667 818.4507,-688.9252"/>
</g>
<!-- n39&#45;&gt;n44 -->
<!-- ndarray -->
<g id="e49" class="edge">
<title>n39:s&#45;&gt;n44:n</title>
<path fill="none" stroke="#000000" d="M799.5,-660C799.5,-645.875 799.5,-641.1023 799.5,-629.1692"/>
<polygon fill="#000000" stroke="#000000" points="801.2501,-629 799.5,-624 797.7501,-629 801.2501,-629"/>
<text text-anchor="middle" x="770.0952" y="-644.9025" font-family="Courier,monospace" font-size="14.00" fill="#000000">ndarray</text>
</g>
<!-- n43 -->
<!-- getitem -->
<g id="n43" class="node">
<title>n43</title>
<polygon fill="none" stroke="#000000" points="889.5,-660 889.5,-684 957.5,-684 957.5,-660 889.5,-660"/>
<text text-anchor="start" x="894.0952" y="-667.8" font-family="Courier,monospace" font-size="14.00" fill="#000000">getitem</text>
</g>
<!-- n40&#45;&gt;n43 -->
<!-- ndarray -->
<g id="e50" class="edge">
<title>n40:s&#45;&gt;n43:n</title>
<path fill="none" stroke="#000000" d="M906.5,-720C906.5,-705.875 906.5,-701.1023 906.5,-689.1692"/>
<polygon fill="#000000" stroke="#000000" points="908.2501,-689 906.5,-684 904.7501,-689 908.2501,-689"/>
<text text-anchor="middle" x="877.0952" y="-704.9025" font-family="Courier,monospace" font-size="14.00" fill="#000000">ndarray</text>
</g>
<!-- n41 -->
<!-- slice -->
<g id="n41" class="node">
<title>n41</title>
<polygon fill="none" stroke="#000000" points="1066.5,-780 1066.5,-804 1118.5,-804 1118.5,-780 1066.5,-780"/>
<text text-anchor="start" x="1071.4966" y="-787.8" font-family="Courier,monospace" font-size="14.00" fill="#000000">slice</text>
</g>
<!-- n42 -->
<!-- __tuple__ -->
<g id="n42" class="node">
<title>n42</title>
<polygon fill="none" stroke="#000000" points="1100.5,-720 1100.5,-744 1185.5,-744 1185.5,-720 1100.5,-720"/>
<text text-anchor="start" x="1105.1938" y="-727.8" font-family="Courier,monospace" font-size="14.00" fill="#000000">__tuple__</text>
</g>
<!-- n41&#45;&gt;n42 -->
<g id="e51" class="edge">
<title>n41:s&#45;&gt;n42:n</title>
<path fill="none" stroke="#000000" d="M1092.5,-780C1092.5,-754.2059 1136.5803,-769.2376 1142.779,-749.1847"/>
<polygon fill="#000000" stroke="#000000" points="1144.5446,-749.1934 1143.5,-744 1141.078,-748.7113 1144.5446,-749.1934"/>
</g>
<!-- n42&#45;&gt;n43 -->
<g id="e52" class="edge">
<title>n42:s&#45;&gt;n43:n</title>
<path fill="none" stroke="#000000" d="M1143.5,-720C1143.5,-630.1597 948.3522,-769.9687 940.7293,-689.0991"/>
<polygon fill="#000000" stroke="#000000" points="942.4729,-688.9163 940.5,-684 938.9765,-689.0736 942.4729,-688.9163"/>
</g>
<!-- n43&#45;&gt;n44 -->
<!-- ndarray -->
<g id="e53" class="edge">
<title>n43:s&#45;&gt;n44:n</title>
<path fill="none" stroke="#000000" d="M923.5,-660C923.5,-619.7235 843.5566,-661.9085 836.062,-629.3628"/>
<polygon fill="#000000" stroke="#000000" points="837.7616,-628.7904 835.5,-624 834.2807,-629.1552 837.7616,-628.7904"/>
<text text-anchor="middle" x="850.2402" y="-644.7897" font-family="Courier,monospace" font-size="14.00" fill="#000000">ndarray</text>
</g>
<!-- n45 -->
<!-- show -->
<g id="n45" class="node">
<title>n45</title>
<polygon fill="none" stroke="#000000" points="1335.5,-900 1335.5,-924 1378.5,-924 1378.5,-900 1335.5,-900"/>
<text text-anchor="start" x="1340.1973" y="-907.8" font-family="Courier,monospace" font-size="14.00" fill="#000000">show</text>
</g>
</g>
</svg>
