<?xml version="1.0" encoding="UTF-8" standalone="no"?>
<!DOCTYPE svg PUBLIC "-//W3C//DTD SVG 1.1//EN"
 "http://www.w3.org/Graphics/SVG/1.1/DTD/svg11.dtd">
<!-- Generated by graphviz version 2.40.1 (20161225.0304)
 -->
<!-- Title: raw_flow_graph Pages: 1 -->
<svg width="851pt" height="812pt"
 viewBox="0.00 0.00 850.70 812.00" xmlns="http://www.w3.org/2000/svg" xmlns:xlink="http://www.w3.org/1999/xlink">
<g id="graph0" class="graph" transform="scale(1 1) rotate(0) translate(4 808)">
<title>raw_flow_graph</title>
<polygon fill="#ffffff" stroke="transparent" points="-4,4 -4,-808 846.7041,-808 846.7041,4 -4,4"/>
<!-- n3 -->
<!-- print -->
<g id="n3" class="node">
<title>n3</title>
<polygon fill="none" stroke="#000000" points="40.2041,-780 40.2041,-804 92.2041,-804 92.2041,-780 40.2041,-780"/>
<text text-anchor="start" x="45.2007" y="-787.8" font-family="Courier,monospace" font-size="14.00" fill="#000000">print</text>
</g>
<!-- n4 -->
<!-- load_iris -->
<g id="n4" class="node">
<title>n4</title>
<polygon fill="none" stroke="#000000" points="111.2041,-780 111.2041,-804 196.2041,-804 196.2041,-780 111.2041,-780"/>
<text text-anchor="start" x="115.8979" y="-787.8" font-family="Courier,monospace" font-size="14.00" fill="#000000">load_iris</text>
</g>
<!-- n5 -->
<!-- data -->
<g id="n5" class="node">
<title>n5</title>
<polygon fill="none" stroke="#000000" points="206.2041,-720 206.2041,-744 249.2041,-744 249.2041,-720 206.2041,-720"/>
<text text-anchor="start" x="210.9014" y="-727.8" font-family="Courier,monospace" font-size="14.00" fill="#000000">data</text>
</g>
<!-- n4&#45;&gt;n5 -->
<!-- Bunch -->
<g id="e1" class="edge">
<title>n4:s&#45;&gt;n5:n</title>
<path fill="none" stroke="#000000" d="M154.2041,-780C154.2041,-745.283 220.8793,-776.9915 227.651,-749.0208"/>
<polygon fill="#000000" stroke="#000000" points="229.396,-749.1616 228.2041,-744 225.917,-748.7783 229.396,-749.1616"/>
<text text-anchor="middle" x="170.2634" y="-764.8005" font-family="Courier,monospace" font-size="14.00" fill="#000000">Bunch</text>
</g>
<!-- n10 -->
<!-- target -->
<g id="n10" class="node">
<title>n10</title>
<polygon fill="none" stroke="#000000" points="77.2041,-660 77.2041,-684 137.2041,-684 137.2041,-660 77.2041,-660"/>
<text text-anchor="start" x="82" y="-667.8" font-family="Courier,monospace" font-size="14.00" fill="#000000">target</text>
</g>
<!-- n4&#45;&gt;n10 -->
<!-- Bunch -->
<g id="e2" class="edge">
<title>n4:s&#45;&gt;n10:n</title>
<path fill="none" stroke="#000000" d="M154.2041,-780C154.2041,-759.7302 135.6336,-761.9429 126.2041,-744 114.0049,-720.7868 107.98,-712.9485 107.2745,-689.0114"/>
<polygon fill="#000000" stroke="#000000" points="109.0243,-688.9749 107.2041,-684 105.5246,-689.0241 109.0243,-688.9749"/>
<text text-anchor="middle" x="101.1649" y="-739.2219" font-family="Courier,monospace" font-size="14.00" fill="#000000">Bunch</text>
</g>
<!-- n9 -->
<!-- getitem -->
<g id="n9" class="node">
<title>n9</title>
<polygon fill="none" stroke="#000000" points="259.2041,-660 259.2041,-684 327.2041,-684 327.2041,-660 259.2041,-660"/>
<text text-anchor="start" x="263.7993" y="-667.8" font-family="Courier,monospace" font-size="14.00" fill="#000000">getitem</text>
</g>
<!-- n5&#45;&gt;n9 -->
<!-- ndarray -->
<g id="e3" class="edge">
<title>n5:s&#45;&gt;n9:n</title>
<path fill="none" stroke="#000000" d="M228.2041,-720C228.2041,-695.2083 269.6914,-708.4467 275.5256,-689.003"/>
<polygon fill="#000000" stroke="#000000" points="277.2662,-689.1899 276.2041,-684 273.7979,-688.7194 277.2662,-689.1899"/>
<text text-anchor="middle" x="222.8828" y="-704.7838" font-family="Courier,monospace" font-size="14.00" fill="#000000">ndarray</text>
</g>
<!-- n6 -->
<!-- slice -->
<g id="n6" class="node">
<title>n6</title>
<polygon fill="none" stroke="#000000" points="248.2041,-780 248.2041,-804 300.2041,-804 300.2041,-780 248.2041,-780"/>
<text text-anchor="start" x="253.2007" y="-787.8" font-family="Courier,monospace" font-size="14.00" fill="#000000">slice</text>
</g>
<!-- n8 -->
<!-- __tuple__ -->
<g id="n8" class="node">
<title>n8</title>
<polygon fill="none" stroke="#000000" points="267.2041,-720 267.2041,-744 352.2041,-744 352.2041,-720 267.2041,-720"/>
<text text-anchor="start" x="271.8979" y="-727.8" font-family="Courier,monospace" font-size="14.00" fill="#000000">__tuple__</text>
</g>
<!-- n6&#45;&gt;n8 -->
<g id="e4" class="edge">
<title>n6:s&#45;&gt;n8:n</title>
<path fill="none" stroke="#000000" d="M274.2041,-780C274.2041,-764.7104 285.3091,-761.7171 287.7383,-749.1172"/>
<polygon fill="#000000" stroke="#000000" points="289.4935,-749.1381 288.2041,-744 286.008,-748.8207 289.4935,-749.1381"/>
</g>
<!-- n7 -->
<!-- slice -->
<g id="n7" class="node">
<title>n7</title>
<polygon fill="none" stroke="#000000" points="318.2041,-780 318.2041,-804 370.2041,-804 370.2041,-780 318.2041,-780"/>
<text text-anchor="start" x="323.2007" y="-787.8" font-family="Courier,monospace" font-size="14.00" fill="#000000">slice</text>
</g>
<!-- n7&#45;&gt;n8 -->
<g id="e5" class="edge">
<title>n7:s&#45;&gt;n8:n</title>
<path fill="none" stroke="#000000" d="M344.2041,-780C344.2041,-764.8494 333.8923,-761.6237 331.6366,-749.0816"/>
<polygon fill="#000000" stroke="#000000" points="333.3719,-748.8335 331.2041,-744 329.8845,-749.1304 333.3719,-748.8335"/>
</g>
<!-- n8&#45;&gt;n9 -->
<g id="e6" class="edge">
<title>n8:s&#45;&gt;n9:n</title>
<path fill="none" stroke="#000000" d="M310.2041,-720C310.2041,-705.875 310.2041,-701.1023 310.2041,-689.1692"/>
<polygon fill="#000000" stroke="#000000" points="311.9542,-689 310.2041,-684 308.4542,-689 311.9542,-689"/>
</g>
<!-- n12 -->
<!-- BaseLibSVM.fit -->
<g id="n12" class="node">
<title>n12</title>
<polygon fill="none" stroke="#000000" points="4.2041,-600 4.2041,-624 131.2041,-624 131.2041,-600 4.2041,-600"/>
<text text-anchor="start" x="8.8945" y="-607.8" font-family="Courier,monospace" font-size="14.00" fill="#000000">BaseLibSVM.fit</text>
</g>
<!-- n9&#45;&gt;n12 -->
<!-- ndarray -->
<g id="e7" class="edge">
<title>n9:s&#45;&gt;n12:n</title>
<path fill="none" stroke="#000000" d="M293.2041,-660C293.2041,-560.5083 76.0447,-719.4996 68.4102,-629.0952"/>
<polygon fill="#000000" stroke="#000000" points="70.1549,-628.9251 68.2041,-624 66.6577,-629.0667 70.1549,-628.9251"/>
<text text-anchor="middle" x="151.0277" y="-644.8788" font-family="Courier,monospace" font-size="14.00" fill="#000000">ndarray</text>
</g>
<!-- n15 -->
<!-- getitem -->
<g id="n15" class="node">
<title>n15</title>
<polygon fill="none" stroke="#000000" points="187.2041,-600 187.2041,-624 255.2041,-624 255.2041,-600 187.2041,-600"/>
<text text-anchor="start" x="191.7993" y="-607.8" font-family="Courier,monospace" font-size="14.00" fill="#000000">getitem</text>
</g>
<!-- n9&#45;&gt;n15 -->
<!-- ndarray -->
<g id="e8" class="edge">
<title>n9:s&#45;&gt;n15:n</title>
<path fill="none" stroke="#000000" d="M293.2041,-660C293.2041,-619.1645 211.6882,-662.5989 204.6829,-629.0053"/>
<polygon fill="#000000" stroke="#000000" points="206.4224,-628.8106 204.2041,-624 202.9383,-629.144 206.4224,-628.8106"/>
<text text-anchor="middle" x="219.173" y="-644.8095" font-family="Courier,monospace" font-size="14.00" fill="#000000">ndarray</text>
</g>
<!-- n20 -->
<!-- getitem -->
<g id="n20" class="node">
<title>n20</title>
<polygon fill="none" stroke="#000000" points="276.2041,-600 276.2041,-624 344.2041,-624 344.2041,-600 276.2041,-600"/>
<text text-anchor="start" x="280.7993" y="-607.8" font-family="Courier,monospace" font-size="14.00" fill="#000000">getitem</text>
</g>
<!-- n9&#45;&gt;n20 -->
<!-- ndarray -->
<g id="e9" class="edge">
<title>n9:s&#45;&gt;n20:n</title>
<path fill="none" stroke="#000000" d="M293.2041,-660C293.2041,-645.875 293.2041,-641.1023 293.2041,-629.1692"/>
<polygon fill="#000000" stroke="#000000" points="294.9542,-629 293.2041,-624 291.4542,-629 294.9542,-629"/>
<text text-anchor="middle" x="322.6089" y="-644.9025" font-family="Courier,monospace" font-size="14.00" fill="#000000">ndarray</text>
</g>
<!-- n25 -->
<!-- getitem -->
<g id="n25" class="node">
<title>n25</title>
<polygon fill="none" stroke="#000000" points="393.2041,-600 393.2041,-624 461.2041,-624 461.2041,-600 393.2041,-600"/>
<text text-anchor="start" x="397.7993" y="-607.8" font-family="Courier,monospace" font-size="14.00" fill="#000000">getitem</text>
</g>
<!-- n9&#45;&gt;n25 -->
<!-- ndarray -->
<g id="e10" class="edge">
<title>n9:s&#45;&gt;n25:n</title>
<path fill="none" stroke="#000000" d="M293.2041,-660C293.2041,-607.4006 402.5636,-673.711 409.8257,-629.0079"/>
<polygon fill="#000000" stroke="#000000" points="411.5723,-629.1177 410.2041,-624 408.0823,-628.8539 411.5723,-629.1177"/>
<text text-anchor="middle" x="322.3683" y="-630.8108" font-family="Courier,monospace" font-size="14.00" fill="#000000">ndarray</text>
</g>
<!-- n30 -->
<!-- getitem -->
<g id="n30" class="node">
<title>n30</title>
<polygon fill="none" stroke="#000000" points="495.2041,-600 495.2041,-624 563.2041,-624 563.2041,-600 495.2041,-600"/>
<text text-anchor="start" x="499.7993" y="-607.8" font-family="Courier,monospace" font-size="14.00" fill="#000000">getitem</text>
</g>
<!-- n9&#45;&gt;n30 -->
<!-- ndarray -->
<g id="e11" class="edge">
<title>n9:s&#45;&gt;n30:n</title>
<path fill="none" stroke="#000000" d="M293.2041,-660C293.2041,-563.1906 504.1525,-716.7441 511.9807,-629.2256"/>
<polygon fill="#000000" stroke="#000000" points="513.7389,-629.0702 512.2041,-624 510.2421,-628.9207 513.7389,-629.0702"/>
<text text-anchor="middle" x="432.2098" y="-644.8289" font-family="Courier,monospace" font-size="14.00" fill="#000000">ndarray</text>
</g>
<!-- n48 -->
<!-- getitem -->
<g id="n48" class="node">
<title>n48</title>
<polygon fill="none" stroke="#000000" points="581.2041,-600 581.2041,-624 649.2041,-624 649.2041,-600 581.2041,-600"/>
<text text-anchor="start" x="585.7993" y="-607.8" font-family="Courier,monospace" font-size="14.00" fill="#000000">getitem</text>
</g>
<!-- n9&#45;&gt;n48 -->
<!-- ndarray -->
<g id="e12" class="edge">
<title>n9:s&#45;&gt;n48:n</title>
<path fill="none" stroke="#000000" d="M293.2041,-660C293.2041,-593.6179 581.7525,-686.8785 597.5324,-629.2269"/>
<polygon fill="#000000" stroke="#000000" points="599.3025,-629.1823 598.2041,-624 595.831,-628.7362 599.3025,-629.1823"/>
<text text-anchor="middle" x="416.1283" y="-630.7819" font-family="Courier,monospace" font-size="14.00" fill="#000000">ndarray</text>
</g>
<!-- n51 -->
<!-- getitem -->
<g id="n51" class="node">
<title>n51</title>
<polygon fill="none" stroke="#000000" points="667.2041,-600 667.2041,-624 735.2041,-624 735.2041,-600 667.2041,-600"/>
<text text-anchor="start" x="671.7993" y="-607.8" font-family="Courier,monospace" font-size="14.00" fill="#000000">getitem</text>
</g>
<!-- n9&#45;&gt;n51 -->
<!-- ndarray -->
<g id="e13" class="edge">
<title>n9:s&#45;&gt;n51:n</title>
<path fill="none" stroke="#000000" d="M293.2041,-660C293.2041,-574.6183 667.5838,-705.4089 683.6704,-629.3158"/>
<polygon fill="#000000" stroke="#000000" points="685.4458,-629.1498 684.2041,-624 681.9633,-628.8002 685.4458,-629.1498"/>
<text text-anchor="middle" x="517.9735" y="-644.7823" font-family="Courier,monospace" font-size="14.00" fill="#000000">ndarray</text>
</g>
<!-- n10&#45;&gt;n12 -->
<!-- ndarray -->
<g id="e14" class="edge">
<title>n10:s&#45;&gt;n12:n</title>
<path fill="none" stroke="#000000" d="M107.2041,-660C107.2041,-645.826 109.5422,-641.134 110.0902,-629.1824"/>
<polygon fill="#000000" stroke="#000000" points="111.8437,-629.0373 110.2041,-624 108.3445,-628.9603 111.8437,-629.0373"/>
<text text-anchor="middle" x="79.2839" y="-644.9023" font-family="Courier,monospace" font-size="14.00" fill="#000000">ndarray</text>
</g>
<!-- n53 -->
<!-- scatter -->
<g id="n53" class="node">
<title>n53</title>
<polygon fill="none" stroke="#000000" points="618.2041,-540 618.2041,-564 714.2041,-564 714.2041,-540 618.2041,-540"/>
<text text-anchor="start" x="636.7993" y="-547.8" font-family="Courier,monospace" font-size="14.00" fill="#000000">scatter</text>
</g>
<!-- n10&#45;&gt;n53 -->
<!-- ndarray -->
<g id="e15" class="edge">
<title>n10:s&#45;&gt;n53:n</title>
<path fill="none" stroke="#000000" d="M107.2041,-660C107.2041,-649.6714 168.6384,-603.8957 178.2041,-600 228.1774,-579.6478 650.5657,-617.2154 676.9162,-568.9442"/>
<polygon fill="#000000" stroke="#000000" points="678.6371,-569.2797 678.2041,-564 675.2501,-568.3974 678.6371,-569.2797"/>
<text text-anchor="middle" x="363.2165" y="-583.2997" font-family="Courier,monospace" font-size="14.00" fill="#000000">ndarray</text>
</g>
<!-- n11 -->
<!-- SVC -->
<g id="n11" class="node">
<title>n11</title>
<polygon fill="none" stroke="#000000" points="7.2041,-660 7.2041,-684 42.2041,-684 42.2041,-660 7.2041,-660"/>
<text text-anchor="start" x="12.1021" y="-667.8" font-family="Courier,monospace" font-size="14.00" fill="#000000">SVC</text>
</g>
<!-- n11&#45;&gt;n12 -->
<!-- SVC -->
<g id="e16" class="edge">
<title>n11:s&#45;&gt;n12:n</title>
<path fill="none" stroke="#000000" d="M25.2041,-660C25.2041,-645.875 25.2041,-641.1023 25.2041,-629.1692"/>
<polygon fill="#000000" stroke="#000000" points="26.9542,-629 25.2041,-624 23.4542,-629 26.9542,-629"/>
<text text-anchor="middle" x="12.6021" y="-644.9025" font-family="Courier,monospace" font-size="14.00" fill="#000000">SVC</text>
</g>
<!-- n41 -->
<!-- BaseSVC.predict -->
<g id="n41" class="node">
<title>n41</title>
<polygon fill="none" stroke="#000000" points="176.2041,-120 176.2041,-144 312.2041,-144 312.2041,-120 176.2041,-120"/>
<text text-anchor="start" x="181.1938" y="-127.8" font-family="Courier,monospace" font-size="14.00" fill="#000000">BaseSVC.predict</text>
</g>
<!-- n12&#45;&gt;n41 -->
<!-- SVC -->
<g id="e17" class="edge">
<title>n12:s&#45;&gt;n41:n</title>
<path fill="none" stroke="#000000" d="M100.2041,-600C100.2041,-551.9486 105.2041,-540.0514 105.2041,-492 105.2041,-492 105.2041,-492 105.2041,-252 105.2041,-209.7708 137.1369,-209.6525 167.2041,-180 183.564,-163.8658 206.304,-168.0665 209.7573,-149.294"/>
<polygon fill="#000000" stroke="#000000" points="211.5273,-149.1295 210.2041,-144 208.0397,-148.8351 211.5273,-149.1295"/>
<text text-anchor="middle" x="92.6021" y="-464.8" font-family="Courier,monospace" font-size="14.00" fill="#000000">SVC</text>
</g>
<!-- n13 -->
<!-- slice -->
<g id="n13" class="node">
<title>n13</title>
<polygon fill="none" stroke="#000000" points="135.2041,-720 135.2041,-744 187.2041,-744 187.2041,-720 135.2041,-720"/>
<text text-anchor="start" x="140.2007" y="-727.8" font-family="Courier,monospace" font-size="14.00" fill="#000000">slice</text>
</g>
<!-- n14 -->
<!-- __tuple__ -->
<g id="n14" class="node">
<title>n14</title>
<polygon fill="none" stroke="#000000" points="156.2041,-660 156.2041,-684 241.2041,-684 241.2041,-660 156.2041,-660"/>
<text text-anchor="start" x="160.8979" y="-667.8" font-family="Courier,monospace" font-size="14.00" fill="#000000">__tuple__</text>
</g>
<!-- n13&#45;&gt;n14 -->
<g id="e18" class="edge">
<title>n13:s&#45;&gt;n14:n</title>
<path fill="none" stroke="#000000" d="M161.2041,-720C161.2041,-698.7348 192.9535,-705.7044 198.4104,-689.292"/>
<polygon fill="#000000" stroke="#000000" points="200.1931,-689.2043 199.2041,-684 196.7318,-688.6851 200.1931,-689.2043"/>
</g>
<!-- n14&#45;&gt;n15 -->
<g id="e19" class="edge">
<title>n14:s&#45;&gt;n15:n</title>
<path fill="none" stroke="#000000" d="M199.2041,-660C199.2041,-638.4381 231.789,-645.9246 237.3895,-629.3554"/>
<polygon fill="#000000" stroke="#000000" points="239.1823,-629.2063 238.2041,-624 235.7221,-628.68 239.1823,-629.2063"/>
</g>
<!-- n16 -->
<!-- ndarray.min -->
<g id="n16" class="node">
<title>n16</title>
<polygon fill="none" stroke="#000000" points="136.2041,-540 136.2041,-564 238.2041,-564 238.2041,-540 136.2041,-540"/>
<text text-anchor="start" x="140.9966" y="-547.8" font-family="Courier,monospace" font-size="14.00" fill="#000000">ndarray.min</text>
</g>
<!-- n15&#45;&gt;n16 -->
<!-- ndarray -->
<g id="e20" class="edge">
<title>n15:s&#45;&gt;n16:n</title>
<path fill="none" stroke="#000000" d="M221.2041,-600C221.2041,-579.8834 192.7968,-584.8519 187.9142,-569.0468"/>
<polygon fill="#000000" stroke="#000000" points="189.6338,-568.7074 187.2041,-564 186.1679,-569.1951 189.6338,-568.7074"/>
<text text-anchor="middle" x="174.8055" y="-584.8026" font-family="Courier,monospace" font-size="14.00" fill="#000000">ndarray</text>
</g>
<!-- n17 -->
<!-- sub -->
<g id="n17" class="node">
<title>n17</title>
<polygon fill="none" stroke="#000000" points="201.2041,-480 201.2041,-504 236.2041,-504 236.2041,-480 201.2041,-480"/>
<text text-anchor="start" x="206.1021" y="-487.8" font-family="Courier,monospace" font-size="14.00" fill="#000000">sub</text>
</g>
<!-- n16&#45;&gt;n17 -->
<!-- float64 -->
<g id="e21" class="edge">
<title>n16:s&#45;&gt;n17:n</title>
<path fill="none" stroke="#000000" d="M187.2041,-540C187.2041,-520.5997 213.4854,-524.3776 218.4131,-509.3232"/>
<polygon fill="#000000" stroke="#000000" points="220.2001,-509.2029 219.2041,-504 216.7381,-508.6884 220.2001,-509.2029"/>
<text text-anchor="middle" x="173.5884" y="-524.8962" font-family="Courier,monospace" font-size="14.00" fill="#000000">float64</text>
</g>
<!-- n33 -->
<!-- arange -->
<g id="n33" class="node">
<title>n33</title>
<polygon fill="none" stroke="#000000" points="257.2041,-420 257.2041,-444 317.2041,-444 317.2041,-420 257.2041,-420"/>
<text text-anchor="start" x="262" y="-427.8" font-family="Courier,monospace" font-size="14.00" fill="#000000">arange</text>
</g>
<!-- n17&#45;&gt;n33 -->
<!-- float64 -->
<g id="e22" class="edge">
<title>n17:s&#45;&gt;n33:n</title>
<path fill="none" stroke="#000000" d="M219.2041,-480C219.2041,-453.4153 265.3988,-469.911 271.534,-449.0479"/>
<polygon fill="#000000" stroke="#000000" points="273.2808,-449.1868 272.2041,-444 269.8113,-448.7262 273.2808,-449.1868"/>
<text text-anchor="middle" x="216.5589" y="-464.7631" font-family="Courier,monospace" font-size="14.00" fill="#000000">float64</text>
</g>
<!-- n18 -->
<!-- slice -->
<g id="n18" class="node">
<title>n18</title>
<polygon fill="none" stroke="#000000" points="370.2041,-720 370.2041,-744 422.2041,-744 422.2041,-720 370.2041,-720"/>
<text text-anchor="start" x="375.2007" y="-727.8" font-family="Courier,monospace" font-size="14.00" fill="#000000">slice</text>
</g>
<!-- n19 -->
<!-- __tuple__ -->
<g id="n19" class="node">
<title>n19</title>
<polygon fill="none" stroke="#000000" points="346.2041,-660 346.2041,-684 431.2041,-684 431.2041,-660 346.2041,-660"/>
<text text-anchor="start" x="350.8979" y="-667.8" font-family="Courier,monospace" font-size="14.00" fill="#000000">__tuple__</text>
</g>
<!-- n18&#45;&gt;n19 -->
<g id="e23" class="edge">
<title>n18:s&#45;&gt;n19:n</title>
<path fill="none" stroke="#000000" d="M396.2041,-720C396.2041,-705.6105 390.7486,-701.2738 389.47,-689.2404"/>
<polygon fill="#000000" stroke="#000000" points="391.2053,-688.9049 389.2041,-684 387.7098,-689.0823 391.2053,-688.9049"/>
</g>
<!-- n19&#45;&gt;n20 -->
<g id="e24" class="edge">
<title>n19:s&#45;&gt;n20:n</title>
<path fill="none" stroke="#000000" d="M389.2041,-660C389.2041,-630.0031 334.2569,-652.8191 327.8177,-629.0113"/>
<polygon fill="#000000" stroke="#000000" points="329.5489,-628.7502 327.2041,-624 326.0749,-629.1757 329.5489,-628.7502"/>
</g>
<!-- n21 -->
<!-- ndarray.max -->
<g id="n21" class="node">
<title>n21</title>
<polygon fill="none" stroke="#000000" points="256.2041,-540 256.2041,-564 358.2041,-564 358.2041,-540 256.2041,-540"/>
<text text-anchor="start" x="260.9966" y="-547.8" font-family="Courier,monospace" font-size="14.00" fill="#000000">ndarray.max</text>
</g>
<!-- n20&#45;&gt;n21 -->
<!-- ndarray -->
<g id="e25" class="edge">
<title>n20:s&#45;&gt;n21:n</title>
<path fill="none" stroke="#000000" d="M310.2041,-600C310.2041,-585.826 307.866,-581.134 307.318,-569.1824"/>
<polygon fill="#000000" stroke="#000000" points="309.0637,-568.9603 307.2041,-564 305.5645,-569.0373 309.0637,-568.9603"/>
<text text-anchor="middle" x="279.3147" y="-584.9023" font-family="Courier,monospace" font-size="14.00" fill="#000000">ndarray</text>
</g>
<!-- n22 -->
<!-- add -->
<g id="n22" class="node">
<title>n22</title>
<polygon fill="none" stroke="#000000" points="286.2041,-480 286.2041,-504 321.2041,-504 321.2041,-480 286.2041,-480"/>
<text text-anchor="start" x="291.1021" y="-487.8" font-family="Courier,monospace" font-size="14.00" fill="#000000">add</text>
</g>
<!-- n21&#45;&gt;n22 -->
<!-- float64 -->
<g id="e26" class="edge">
<title>n21:s&#45;&gt;n22:n</title>
<path fill="none" stroke="#000000" d="M307.2041,-540C307.2041,-525.826 304.866,-521.134 304.318,-509.1824"/>
<polygon fill="#000000" stroke="#000000" points="306.0637,-508.9603 304.2041,-504 302.5645,-509.0373 306.0637,-508.9603"/>
<text text-anchor="middle" x="276.3147" y="-524.9023" font-family="Courier,monospace" font-size="14.00" fill="#000000">float64</text>
</g>
<!-- n22&#45;&gt;n33 -->
<!-- float64 -->
<g id="e27" class="edge">
<title>n22:s&#45;&gt;n33:n</title>
<path fill="none" stroke="#000000" d="M304.2041,-480C304.2041,-465.8532 302.6454,-461.1164 302.2801,-449.1751"/>
<polygon fill="#000000" stroke="#000000" points="304.0274,-448.9737 302.2041,-444 300.5278,-449.0252 304.0274,-448.9737"/>
<text text-anchor="middle" x="332.6191" y="-464.9024" font-family="Courier,monospace" font-size="14.00" fill="#000000">float64</text>
</g>
<!-- n23 -->
<!-- slice -->
<g id="n23" class="node">
<title>n23</title>
<polygon fill="none" stroke="#000000" points="466.2041,-720 466.2041,-744 518.2041,-744 518.2041,-720 466.2041,-720"/>
<text text-anchor="start" x="471.2007" y="-727.8" font-family="Courier,monospace" font-size="14.00" fill="#000000">slice</text>
</g>
<!-- n24 -->
<!-- __tuple__ -->
<g id="n24" class="node">
<title>n24</title>
<polygon fill="none" stroke="#000000" points="449.2041,-660 449.2041,-684 534.2041,-684 534.2041,-660 449.2041,-660"/>
<text text-anchor="start" x="453.8979" y="-667.8" font-family="Courier,monospace" font-size="14.00" fill="#000000">__tuple__</text>
</g>
<!-- n23&#45;&gt;n24 -->
<g id="e28" class="edge">
<title>n23:s&#45;&gt;n24:n</title>
<path fill="none" stroke="#000000" d="M492.2041,-720C492.2041,-705.875 492.2041,-701.1023 492.2041,-689.1692"/>
<polygon fill="#000000" stroke="#000000" points="493.9542,-689 492.2041,-684 490.4542,-689 493.9542,-689"/>
</g>
<!-- n24&#45;&gt;n25 -->
<g id="e29" class="edge">
<title>n24:s&#45;&gt;n25:n</title>
<path fill="none" stroke="#000000" d="M492.2041,-660C492.2041,-635.2083 450.7168,-648.4467 444.8826,-629.003"/>
<polygon fill="#000000" stroke="#000000" points="446.6103,-628.7194 444.2041,-624 443.142,-629.1899 446.6103,-628.7194"/>
</g>
<!-- n26 -->
<!-- ndarray.min -->
<g id="n26" class="node">
<title>n26</title>
<polygon fill="none" stroke="#000000" points="376.2041,-540 376.2041,-564 478.2041,-564 478.2041,-540 376.2041,-540"/>
<text text-anchor="start" x="380.9966" y="-547.8" font-family="Courier,monospace" font-size="14.00" fill="#000000">ndarray.min</text>
</g>
<!-- n25&#45;&gt;n26 -->
<!-- ndarray -->
<g id="e30" class="edge">
<title>n25:s&#45;&gt;n26:n</title>
<path fill="none" stroke="#000000" d="M427.2041,-600C427.2041,-585.875 427.2041,-581.1023 427.2041,-569.1692"/>
<polygon fill="#000000" stroke="#000000" points="428.9542,-569 427.2041,-564 425.4542,-569 428.9542,-569"/>
<text text-anchor="middle" x="456.6089" y="-584.9025" font-family="Courier,monospace" font-size="14.00" fill="#000000">ndarray</text>
</g>
<!-- n27 -->
<!-- sub -->
<g id="n27" class="node">
<title>n27</title>
<polygon fill="none" stroke="#000000" points="409.2041,-480 409.2041,-504 444.2041,-504 444.2041,-480 409.2041,-480"/>
<text text-anchor="start" x="414.1021" y="-487.8" font-family="Courier,monospace" font-size="14.00" fill="#000000">sub</text>
</g>
<!-- n26&#45;&gt;n27 -->
<!-- float64 -->
<g id="e31" class="edge">
<title>n26:s&#45;&gt;n27:n</title>
<path fill="none" stroke="#000000" d="M427.2041,-540C427.2041,-525.875 427.2041,-521.1023 427.2041,-509.1692"/>
<polygon fill="#000000" stroke="#000000" points="428.9542,-509 427.2041,-504 425.4542,-509 428.9542,-509"/>
<text text-anchor="middle" x="397.7993" y="-524.9025" font-family="Courier,monospace" font-size="14.00" fill="#000000">float64</text>
</g>
<!-- n34 -->
<!-- arange -->
<g id="n34" class="node">
<title>n34</title>
<polygon fill="none" stroke="#000000" points="412.2041,-420 412.2041,-444 472.2041,-444 472.2041,-420 412.2041,-420"/>
<text text-anchor="start" x="417" y="-427.8" font-family="Courier,monospace" font-size="14.00" fill="#000000">arange</text>
</g>
<!-- n27&#45;&gt;n34 -->
<!-- float64 -->
<g id="e32" class="edge">
<title>n27:s&#45;&gt;n34:n</title>
<path fill="none" stroke="#000000" d="M427.2041,-480C427.2041,-465.875 427.2041,-461.1023 427.2041,-449.1692"/>
<polygon fill="#000000" stroke="#000000" points="428.9542,-449 427.2041,-444 425.4542,-449 428.9542,-449"/>
<text text-anchor="middle" x="397.7993" y="-464.9025" font-family="Courier,monospace" font-size="14.00" fill="#000000">float64</text>
</g>
<!-- n28 -->
<!-- slice -->
<g id="n28" class="node">
<title>n28</title>
<polygon fill="none" stroke="#000000" points="569.2041,-720 569.2041,-744 621.2041,-744 621.2041,-720 569.2041,-720"/>
<text text-anchor="start" x="574.2007" y="-727.8" font-family="Courier,monospace" font-size="14.00" fill="#000000">slice</text>
</g>
<!-- n29 -->
<!-- __tuple__ -->
<g id="n29" class="node">
<title>n29</title>
<polygon fill="none" stroke="#000000" points="552.2041,-660 552.2041,-684 637.2041,-684 637.2041,-660 552.2041,-660"/>
<text text-anchor="start" x="556.8979" y="-667.8" font-family="Courier,monospace" font-size="14.00" fill="#000000">__tuple__</text>
</g>
<!-- n28&#45;&gt;n29 -->
<g id="e33" class="edge">
<title>n28:s&#45;&gt;n29:n</title>
<path fill="none" stroke="#000000" d="M595.2041,-720C595.2041,-705.875 595.2041,-701.1023 595.2041,-689.1692"/>
<polygon fill="#000000" stroke="#000000" points="596.9542,-689 595.2041,-684 593.4542,-689 596.9542,-689"/>
</g>
<!-- n29&#45;&gt;n30 -->
<g id="e34" class="edge">
<title>n29:s&#45;&gt;n30:n</title>
<path fill="none" stroke="#000000" d="M595.2041,-660C595.2041,-634.8766 552.8525,-648.7085 546.8968,-629.0631"/>
<polygon fill="#000000" stroke="#000000" points="548.6158,-628.7166 546.2041,-624 545.1481,-629.1911 548.6158,-628.7166"/>
</g>
<!-- n31 -->
<!-- ndarray.max -->
<g id="n31" class="node">
<title>n31</title>
<polygon fill="none" stroke="#000000" points="496.2041,-540 496.2041,-564 598.2041,-564 598.2041,-540 496.2041,-540"/>
<text text-anchor="start" x="500.9966" y="-547.8" font-family="Courier,monospace" font-size="14.00" fill="#000000">ndarray.max</text>
</g>
<!-- n30&#45;&gt;n31 -->
<!-- ndarray -->
<g id="e35" class="edge">
<title>n30:s&#45;&gt;n31:n</title>
<path fill="none" stroke="#000000" d="M529.2041,-600C529.2041,-584.068 543.4819,-582.1486 546.6052,-569.2819"/>
<polygon fill="#000000" stroke="#000000" points="548.3796,-569.1654 547.2041,-564 544.9018,-568.771 548.3796,-569.1654"/>
<text text-anchor="middle" x="508.8257" y="-570.7735" font-family="Courier,monospace" font-size="14.00" fill="#000000">ndarray</text>
</g>
<!-- n32 -->
<!-- add -->
<g id="n32" class="node">
<title>n32</title>
<polygon fill="none" stroke="#000000" points="495.2041,-480 495.2041,-504 530.2041,-504 530.2041,-480 495.2041,-480"/>
<text text-anchor="start" x="500.1021" y="-487.8" font-family="Courier,monospace" font-size="14.00" fill="#000000">add</text>
</g>
<!-- n31&#45;&gt;n32 -->
<!-- float64 -->
<g id="e36" class="edge">
<title>n31:s&#45;&gt;n32:n</title>
<path fill="none" stroke="#000000" d="M547.2041,-540C547.2041,-519.8834 518.7968,-524.8519 513.9142,-509.0468"/>
<polygon fill="#000000" stroke="#000000" points="515.6338,-508.7074 513.2041,-504 512.1679,-509.1951 515.6338,-508.7074"/>
<text text-anchor="middle" x="500.8055" y="-524.8026" font-family="Courier,monospace" font-size="14.00" fill="#000000">float64</text>
</g>
<!-- n32&#45;&gt;n34 -->
<!-- float64 -->
<g id="e37" class="edge">
<title>n32:s&#45;&gt;n34:n</title>
<path fill="none" stroke="#000000" d="M513.2041,-480C513.2041,-452.3767 464.3947,-470.7427 457.9121,-449.2274"/>
<polygon fill="#000000" stroke="#000000" points="459.6095,-448.7198 457.2041,-444 456.1411,-449.1897 459.6095,-448.7198"/>
<text text-anchor="middle" x="455.525" y="-450.7686" font-family="Courier,monospace" font-size="14.00" fill="#000000">float64</text>
</g>
<!-- n35 -->
<!-- meshgrid -->
<g id="n35" class="node">
<title>n35</title>
<polygon fill="none" stroke="#000000" points="268.2041,-360 268.2041,-384 345.2041,-384 345.2041,-360 268.2041,-360"/>
<text text-anchor="start" x="273.0986" y="-367.8" font-family="Courier,monospace" font-size="14.00" fill="#000000">meshgrid</text>
</g>
<!-- n33&#45;&gt;n35 -->
<!-- ndarray -->
<g id="e38" class="edge">
<title>n33:s&#45;&gt;n35:n</title>
<path fill="none" stroke="#000000" d="M287.2041,-420C287.2041,-405.875 287.2041,-401.1023 287.2041,-389.1692"/>
<polygon fill="#000000" stroke="#000000" points="288.9542,-389 287.2041,-384 285.4542,-389 288.9542,-389"/>
<text text-anchor="middle" x="257.7993" y="-404.9025" font-family="Courier,monospace" font-size="14.00" fill="#000000">ndarray</text>
</g>
<!-- n34&#45;&gt;n35 -->
<!-- ndarray -->
<g id="e39" class="edge">
<title>n34:s&#45;&gt;n35:n</title>
<path fill="none" stroke="#000000" d="M442.2041,-420C442.2041,-367.9165 334.217,-433.077 326.6241,-389.2373"/>
<polygon fill="#000000" stroke="#000000" points="328.3483,-388.8441 326.2041,-384 324.8595,-389.1239 328.3483,-388.8441"/>
<text text-anchor="middle" x="354.5789" y="-404.8342" font-family="Courier,monospace" font-size="14.00" fill="#000000">ndarray</text>
</g>
<!-- n37 -->
<!-- ndarray.ravel -->
<g id="n37" class="node">
<title>n37</title>
<polygon fill="none" stroke="#000000" points="223.2041,-300 223.2041,-324 342.2041,-324 342.2041,-300 223.2041,-300"/>
<text text-anchor="start" x="228.0952" y="-307.8" font-family="Courier,monospace" font-size="14.00" fill="#000000">ndarray.ravel</text>
</g>
<!-- n35&#45;&gt;n37 -->
<!-- ndarray -->
<g id="e40" class="edge">
<title>n35:s&#45;&gt;n37:n</title>
<path fill="none" stroke="#000000" d="M287.2041,-360C287.2041,-345.7881 284.0867,-341.1587 283.356,-329.1926"/>
<polygon fill="#000000" stroke="#000000" points="285.0997,-328.9467 283.2041,-324 281.6012,-329.0491 285.0997,-328.9467"/>
<text text-anchor="middle" x="255.8198" y="-344.902" font-family="Courier,monospace" font-size="14.00" fill="#000000">ndarray</text>
</g>
<!-- n38 -->
<!-- ndarray.ravel -->
<g id="n38" class="node">
<title>n38</title>
<polygon fill="none" stroke="#000000" points="360.2041,-300 360.2041,-324 479.2041,-324 479.2041,-300 360.2041,-300"/>
<text text-anchor="start" x="365.0952" y="-307.8" font-family="Courier,monospace" font-size="14.00" fill="#000000">ndarray.ravel</text>
</g>
<!-- n35&#45;&gt;n38 -->
<!-- ndarray -->
<g id="e41" class="edge">
<title>n35:s&#45;&gt;n38:n</title>
<path fill="none" stroke="#000000" d="M326.2041,-360C326.2041,-317.1855 412.2995,-364.3228 419.6984,-329.2385"/>
<polygon fill="#000000" stroke="#000000" points="421.4654,-329.1451 420.2041,-324 417.9816,-328.8087 421.4654,-329.1451"/>
<text text-anchor="middle" x="343.9327" y="-344.8124" font-family="Courier,monospace" font-size="14.00" fill="#000000">ndarray</text>
</g>
<!-- n42 -->
<!-- shape -->
<g id="n42" class="node">
<title>n42</title>
<polygon fill="none" stroke="#000000" points="176.2041,-180 176.2041,-204 228.2041,-204 228.2041,-180 176.2041,-180"/>
<text text-anchor="start" x="181.2007" y="-187.8" font-family="Courier,monospace" font-size="14.00" fill="#000000">shape</text>
</g>
<!-- n35&#45;&gt;n42 -->
<!-- ndarray -->
<g id="e42" class="edge">
<title>n35:s&#45;&gt;n42:n</title>
<path fill="none" stroke="#000000" d="M287.2041,-360C287.2041,-323.4257 233.9976,-354.0884 213.2041,-324 183.7665,-281.4035 200.9676,-259.0673 202.1423,-209.2336"/>
<polygon fill="#000000" stroke="#000000" points="203.8949,-209.0203 202.2041,-204 200.3951,-208.979 203.8949,-209.0203"/>
<text text-anchor="middle" x="169.2572" y="-297.0758" font-family="Courier,monospace" font-size="14.00" fill="#000000">ndarray</text>
</g>
<!-- n45 -->
<!-- pcolormesh -->
<g id="n45" class="node">
<title>n45</title>
<polygon fill="none" stroke="#000000" points="153.2041,0 153.2041,-24 249.2041,-24 249.2041,0 153.2041,0"/>
<text text-anchor="start" x="159.1973" y="-7.8" font-family="Courier,monospace" font-size="14.00" fill="#000000">pcolormesh</text>
</g>
<!-- n35&#45;&gt;n45 -->
<!-- ndarray -->
<g id="e43" class="edge">
<title>n35:s&#45;&gt;n45:n</title>
<path fill="none" stroke="#000000" d="M287.2041,-360C287.2041,-316.9187 230.7875,-350.9844 197.2041,-324 167.0302,-299.7552 148.2041,-290.7075 148.2041,-252 148.2041,-252 148.2041,-252 148.2041,-132 148.2041,-82.4625 186.372,-75.7731 189.0556,-29.2484"/>
<polygon fill="#000000" stroke="#000000" points="190.8119,-29.0475 189.2041,-24 187.3133,-28.9485 190.8119,-29.0475"/>
<text text-anchor="middle" x="118.7993" y="-239.8" font-family="Courier,monospace" font-size="14.00" fill="#000000">ndarray</text>
</g>
<!-- n35&#45;&gt;n45 -->
<!-- ndarray -->
<g id="e44" class="edge">
<title>n35:s&#45;&gt;n45:n</title>
<path fill="none" stroke="#000000" d="M326.2041,-360C326.2041,-286.2436 435.0348,-375.1178 488.2041,-324 512.0619,-301.0628 507.2041,-285.0954 507.2041,-252 507.2041,-252 507.2041,-252 507.2041,-132 507.2041,-57.2487 425.5423,-85.304 355.2041,-60 295.6153,-38.5631 217.6048,-86.3653 213.3831,-29.084"/>
<polygon fill="#000000" stroke="#000000" points="215.1291,-28.9353 213.2041,-24 211.6313,-29.0585 215.1291,-28.9353"/>
<text text-anchor="middle" x="309.5573" y="-335.1045" font-family="Courier,monospace" font-size="14.00" fill="#000000">ndarray</text>
</g>
<!-- n36 -->
<!-- c_ -->
<g id="n36" class="node">
<title>n36</title>
<polygon fill="none" stroke="#000000" points="232.2041,-240 232.2041,-264 258.2041,-264 258.2041,-240 232.2041,-240"/>
<text text-anchor="start" x="236.8027" y="-247.8" font-family="Courier,monospace" font-size="14.00" fill="#000000">c_</text>
</g>
<!-- n40 -->
<!-- getitem -->
<g id="n40" class="node">
<title>n40</title>
<polygon fill="none" stroke="#000000" points="246.2041,-180 246.2041,-204 314.2041,-204 314.2041,-180 246.2041,-180"/>
<text text-anchor="start" x="250.7993" y="-187.8" font-family="Courier,monospace" font-size="14.00" fill="#000000">getitem</text>
</g>
<!-- n36&#45;&gt;n40 -->
<!-- CClass -->
<g id="e45" class="edge">
<title>n36:s&#45;&gt;n40:n</title>
<path fill="none" stroke="#000000" d="M245.2041,-240C245.2041,-224.068 259.4819,-222.1486 262.6052,-209.2819"/>
<polygon fill="#000000" stroke="#000000" points="264.3796,-209.1654 263.2041,-204 260.9018,-208.771 264.3796,-209.1654"/>
<text text-anchor="middle" x="229.0264" y="-224.7735" font-family="Courier,monospace" font-size="14.00" fill="#000000">CClass</text>
</g>
<!-- n39 -->
<!-- __tuple__ -->
<g id="n39" class="node">
<title>n39</title>
<polygon fill="none" stroke="#000000" points="277.2041,-240 277.2041,-264 362.2041,-264 362.2041,-240 277.2041,-240"/>
<text text-anchor="start" x="281.8979" y="-247.8" font-family="Courier,monospace" font-size="14.00" fill="#000000">__tuple__</text>
</g>
<!-- n37&#45;&gt;n39 -->
<!-- ndarray -->
<g id="e46" class="edge">
<title>n37:s&#45;&gt;n39:n</title>
<path fill="none" stroke="#000000" d="M283.2041,-300C283.2041,-284.5625 295.1023,-281.8164 297.705,-269.1552"/>
<polygon fill="#000000" stroke="#000000" points="299.4641,-269.1454 298.2041,-264 295.9804,-268.8081 299.4641,-269.1454"/>
<text text-anchor="middle" x="261.3213" y="-284.7727" font-family="Courier,monospace" font-size="14.00" fill="#000000">ndarray</text>
</g>
<!-- n38&#45;&gt;n39 -->
<!-- ndarray -->
<g id="e47" class="edge">
<title>n38:s&#45;&gt;n39:n</title>
<path fill="none" stroke="#000000" d="M420.2041,-300C420.2041,-263.3745 349.0238,-298.6092 341.7946,-269.2821"/>
<polygon fill="#000000" stroke="#000000" points="343.4988,-268.7746 341.2041,-264 340.0205,-269.1635 343.4988,-268.7746"/>
<text text-anchor="middle" x="351.2324" y="-284.8022" font-family="Courier,monospace" font-size="14.00" fill="#000000">ndarray</text>
</g>
<!-- n39&#45;&gt;n40 -->
<g id="e48" class="edge">
<title>n39:s&#45;&gt;n40:n</title>
<path fill="none" stroke="#000000" d="M320.2041,-240C320.2041,-222.9417 301.6387,-222.802 297.8676,-209.1803"/>
<polygon fill="#000000" stroke="#000000" points="299.5753,-208.7371 297.2041,-204 296.1036,-209.1819 299.5753,-208.7371"/>
</g>
<!-- n40&#45;&gt;n41 -->
<!-- ndarray -->
<g id="e49" class="edge">
<title>n40:s&#45;&gt;n41:n</title>
<path fill="none" stroke="#000000" d="M280.2041,-180C280.2041,-165.8532 278.6454,-161.1164 278.2801,-149.1751"/>
<polygon fill="#000000" stroke="#000000" points="280.0274,-148.9737 278.2041,-144 276.5278,-149.0252 280.0274,-148.9737"/>
<text text-anchor="middle" x="249.8096" y="-164.9024" font-family="Courier,monospace" font-size="14.00" fill="#000000">ndarray</text>
</g>
<!-- n43 -->
<!-- ndarray.reshape -->
<g id="n43" class="node">
<title>n43</title>
<polygon fill="none" stroke="#000000" points="210.2041,-60 210.2041,-84 346.2041,-84 346.2041,-60 210.2041,-60"/>
<text text-anchor="start" x="215.1938" y="-67.8" font-family="Courier,monospace" font-size="14.00" fill="#000000">ndarray.reshape</text>
</g>
<!-- n41&#45;&gt;n43 -->
<!-- ndarray -->
<g id="e50" class="edge">
<title>n41:s&#45;&gt;n43:n</title>
<path fill="none" stroke="#000000" d="M244.2041,-120C244.2041,-105.875 244.2041,-101.1023 244.2041,-89.1692"/>
<polygon fill="#000000" stroke="#000000" points="245.9542,-89 244.2041,-84 242.4542,-89 245.9542,-89"/>
<text text-anchor="middle" x="214.7993" y="-104.9025" font-family="Courier,monospace" font-size="14.00" fill="#000000">ndarray</text>
</g>
<!-- n42&#45;&gt;n43 -->
<g id="e51" class="edge">
<title>n42:s&#45;&gt;n43:n</title>
<path fill="none" stroke="#000000" d="M202.2041,-180C202.2041,-124.7439 288.2713,-188.3697 321.2041,-144 336.2081,-123.7854 315.3524,-112.522 312.5164,-89.1734"/>
<polygon fill="#000000" stroke="#000000" points="314.2523,-88.8854 312.2041,-84 310.7586,-89.0964 314.2523,-88.8854"/>
</g>
<!-- n43&#45;&gt;n45 -->
<!-- ndarray -->
<g id="e52" class="edge">
<title>n43:s&#45;&gt;n45:n</title>
<path fill="none" stroke="#000000" d="M278.2041,-60C278.2041,-37.6448 243.3601,-46.521 237.9157,-29.0457"/>
<polygon fill="#000000" stroke="#000000" points="239.6353,-28.7066 237.2041,-24 236.1696,-29.1954 239.6353,-28.7066"/>
<text text-anchor="middle" x="228.0441" y="-44.7268" font-family="Courier,monospace" font-size="14.00" fill="#000000">ndarray</text>
</g>
<!-- n44 -->
<!-- Paired -->
<g id="n44" class="node">
<title>n44</title>
<polygon fill="none" stroke="#000000" points="60.2041,-60 60.2041,-84 120.2041,-84 120.2041,-60 60.2041,-60"/>
<text text-anchor="start" x="65" y="-67.8" font-family="Courier,monospace" font-size="14.00" fill="#000000">Paired</text>
</g>
<!-- n44&#45;&gt;n45 -->
<!-- ListedColormap -->
<g id="e53" class="edge">
<title>n44:s&#45;&gt;n45:n</title>
<path fill="none" stroke="#000000" d="M90.2041,-60C90.2041,-24.9031 157.7803,-57.3135 164.6435,-29.0728"/>
<polygon fill="#000000" stroke="#000000" points="166.3942,-29.162 165.2041,-24 162.9154,-28.7775 166.3942,-29.162"/>
<text text-anchor="middle" x="68.958" y="-44.8008" font-family="Courier,monospace" font-size="14.00" fill="#000000">ListedColormap</text>
</g>
<!-- n46 -->
<!-- slice -->
<g id="n46" class="node">
<title>n46</title>
<polygon fill="none" stroke="#000000" points="672.2041,-720 672.2041,-744 724.2041,-744 724.2041,-720 672.2041,-720"/>
<text text-anchor="start" x="677.2007" y="-727.8" font-family="Courier,monospace" font-size="14.00" fill="#000000">slice</text>
</g>
<!-- n47 -->
<!-- __tuple__ -->
<g id="n47" class="node">
<title>n47</title>
<polygon fill="none" stroke="#000000" points="655.2041,-660 655.2041,-684 740.2041,-684 740.2041,-660 655.2041,-660"/>
<text text-anchor="start" x="659.8979" y="-667.8" font-family="Courier,monospace" font-size="14.00" fill="#000000">__tuple__</text>
</g>
<!-- n46&#45;&gt;n47 -->
<g id="e54" class="edge">
<title>n46:s&#45;&gt;n47:n</title>
<path fill="none" stroke="#000000" d="M698.2041,-720C698.2041,-705.875 698.2041,-701.1023 698.2041,-689.1692"/>
<polygon fill="#000000" stroke="#000000" points="699.9542,-689 698.2041,-684 696.4542,-689 699.9542,-689"/>
</g>
<!-- n47&#45;&gt;n48 -->
<g id="e55" class="edge">
<title>n47:s&#45;&gt;n48:n</title>
<path fill="none" stroke="#000000" d="M698.2041,-660C698.2041,-628.5446 639.7119,-654.0213 632.8573,-629.2376"/>
<polygon fill="#000000" stroke="#000000" points="634.5595,-628.745 632.2041,-624 631.0864,-629.1782 634.5595,-628.745"/>
</g>
<!-- n48&#45;&gt;n53 -->
<!-- ndarray -->
<g id="e56" class="edge">
<title>n48:s&#45;&gt;n53:n</title>
<path fill="none" stroke="#000000" d="M615.2041,-600C615.2041,-584.5625 627.1023,-581.8164 629.705,-569.1552"/>
<polygon fill="#000000" stroke="#000000" points="631.4641,-569.1454 630.2041,-564 627.9804,-568.8081 631.4641,-569.1454"/>
<text text-anchor="middle" x="593.3213" y="-584.7727" font-family="Courier,monospace" font-size="14.00" fill="#000000">ndarray</text>
</g>
<!-- n49 -->
<!-- slice -->
<g id="n49" class="node">
<title>n49</title>
<polygon fill="none" stroke="#000000" points="775.2041,-720 775.2041,-744 827.2041,-744 827.2041,-720 775.2041,-720"/>
<text text-anchor="start" x="780.2007" y="-727.8" font-family="Courier,monospace" font-size="14.00" fill="#000000">slice</text>
</g>
<!-- n50 -->
<!-- __tuple__ -->
<g id="n50" class="node">
<title>n50</title>
<polygon fill="none" stroke="#000000" points="758.2041,-660 758.2041,-684 843.2041,-684 843.2041,-660 758.2041,-660"/>
<text text-anchor="start" x="762.8979" y="-667.8" font-family="Courier,monospace" font-size="14.00" fill="#000000">__tuple__</text>
</g>
<!-- n49&#45;&gt;n50 -->
<g id="e57" class="edge">
<title>n49:s&#45;&gt;n50:n</title>
<path fill="none" stroke="#000000" d="M801.2041,-720C801.2041,-705.875 801.2041,-701.1023 801.2041,-689.1692"/>
<polygon fill="#000000" stroke="#000000" points="802.9542,-689 801.2041,-684 799.4542,-689 802.9542,-689"/>
</g>
<!-- n50&#45;&gt;n51 -->
<g id="e58" class="edge">
<title>n50:s&#45;&gt;n51:n</title>
<path fill="none" stroke="#000000" d="M801.2041,-660C801.2041,-621.6755 725.803,-660.231 718.7341,-629.114"/>
<polygon fill="#000000" stroke="#000000" points="720.4603,-628.7929 718.2041,-624 716.979,-629.1538 720.4603,-628.7929"/>
</g>
<!-- n51&#45;&gt;n53 -->
<!-- ndarray -->
<g id="e59" class="edge">
<title>n51:s&#45;&gt;n53:n</title>
<path fill="none" stroke="#000000" d="M701.2041,-600C701.2041,-575.7432 661.261,-587.9769 655.0199,-569.4217"/>
<polygon fill="#000000" stroke="#000000" points="656.6786,-568.6839 654.2041,-564 653.2176,-569.2048 656.6786,-568.6839"/>
<text text-anchor="middle" x="707.324" y="-584.8443" font-family="Courier,monospace" font-size="14.00" fill="#000000">ndarray</text>
</g>
<!-- n52 -->
<!-- Paired -->
<g id="n52" class="node">
<title>n52</title>
<polygon fill="none" stroke="#000000" points="753.2041,-600 753.2041,-624 813.2041,-624 813.2041,-600 753.2041,-600"/>
<text text-anchor="start" x="758" y="-607.8" font-family="Courier,monospace" font-size="14.00" fill="#000000">Paired</text>
</g>
<!-- n52&#45;&gt;n53 -->
<!-- ListedColormap -->
<g id="e60" class="edge">
<title>n52:s&#45;&gt;n53:n</title>
<path fill="none" stroke="#000000" d="M783.2041,-600C783.2041,-562.4512 709.6199,-599.5644 702.7214,-569.0152"/>
<polygon fill="#000000" stroke="#000000" points="704.4579,-568.794 702.2041,-564 700.9764,-569.1532 704.4579,-568.794"/>
<text text-anchor="middle" x="684.028" y="-570.7944" font-family="Courier,monospace" font-size="14.00" fill="#000000">ListedColormap</text>
</g>
<!-- n54 -->
<!-- title -->
<g id="n54" class="node">
<title>n54</title>
<polygon fill="none" stroke="#000000" points="388.2041,-780 388.2041,-804 440.2041,-804 440.2041,-780 388.2041,-780"/>
<text text-anchor="start" x="393.2007" y="-787.8" font-family="Courier,monospace" font-size="14.00" fill="#000000">title</text>
</g>
<!-- n55 -->
<!-- axis -->
<g id="n55" class="node">
<title>n55</title>
<polygon fill="none" stroke="#000000" points="459.2041,-780 459.2041,-804 502.2041,-804 502.2041,-780 459.2041,-780"/>
<text text-anchor="start" x="463.9014" y="-787.8" font-family="Courier,monospace" font-size="14.00" fill="#000000">axis</text>
</g>
<!-- n56 -->
<!-- show -->
<g id="n56" class="node">
<title>n56</title>
<polygon fill="none" stroke="#000000" points="520.2041,-780 520.2041,-804 563.2041,-804 563.2041,-780 520.2041,-780"/>
<text text-anchor="start" x="524.9014" y="-787.8" font-family="Courier,monospace" font-size="14.00" fill="#000000">show</text>
</g>
</g>
</svg>
