<?xml version="1.0" encoding="UTF-8" standalone="no"?>
<!DOCTYPE svg PUBLIC "-//W3C//DTD SVG 1.1//EN"
 "http://www.w3.org/Graphics/SVG/1.1/DTD/svg11.dtd">
<!-- Generated by graphviz version 2.40.1 (20161225.0304)
 -->
<!-- Title: semantic_flow_graph Pages: 1 -->
<svg width="511pt" height="212pt"
 viewBox="0.00 0.00 511.00 212.00" xmlns="http://www.w3.org/2000/svg" xmlns:xlink="http://www.w3.org/1999/xlink">
<g id="graph0" class="graph" transform="scale(1 1) rotate(0) translate(4 208)">
<title>semantic_flow_graph</title>
<polygon fill="#ffffff" stroke="transparent" points="-4,4 -4,-208 507,-208 507,4 -4,4"/>
<!-- n3 -->
<!-- ? -->
<g id="n3" class="node">
<title>n3</title>
<path fill="none" stroke="#000000" d="M8,-180C8,-180 16,-180 16,-180 20,-180 24,-184 24,-188 24,-188 24,-196 24,-196 24,-200 20,-204 16,-204 16,-204 8,-204 8,-204 4,-204 0,-200 0,-196 0,-196 0,-188 0,-188 0,-184 4,-180 8,-180"/>
<text text-anchor="start" x="8.1069" y="-187.8" font-family="Helvetica,sans-Serif" font-size="14.00" fill="#000000">?</text>
</g>
<!-- n4 -->
<!-- ? -->
<g id="n4" class="node">
<title>n4</title>
<path fill="none" stroke="#000000" d="M367,0C367,0 471,0 471,0 475,0 479,-4 479,-8 479,-8 479,-16 479,-16 479,-20 475,-24 471,-24 471,-24 367,-24 367,-24 363,-24 359,-20 359,-16 359,-16 359,-8 359,-8 359,-4 363,0 367,0"/>
<text text-anchor="start" x="415.1069" y="-7.8" font-family="Helvetica,sans-Serif" font-size="14.00" fill="#000000">?</text>
</g>
<!-- n5 -->
<!-- svm&#45;classification -->
<g id="n5" class="node">
<title>n5</title>
<path fill="none" stroke="#000000" d="M51,-180C51,-180 154,-180 154,-180 158,-180 162,-184 162,-188 162,-188 162,-196 162,-196 162,-200 158,-204 154,-204 154,-204 51,-204 51,-204 47,-204 43,-200 43,-196 43,-196 43,-188 43,-188 43,-184 47,-180 51,-180"/>
<text text-anchor="start" x="47.6553" y="-187.8" font-family="Helvetica,sans-Serif" font-size="14.00" fill="#000000">svm&#45;classification</text>
</g>
<!-- n6 -->
<!-- fit&#45;supervised -->
<g id="n6" class="node">
<title>n6</title>
<path fill="none" stroke="#000000" d="M146,-120C146,-120 223,-120 223,-120 227,-120 231,-124 231,-128 231,-128 231,-136 231,-136 231,-140 227,-144 223,-144 223,-144 146,-144 146,-144 142,-144 138,-140 138,-136 138,-136 138,-128 138,-128 138,-124 142,-120 146,-120"/>
<text text-anchor="start" x="142.8726" y="-127.8" font-family="Helvetica,sans-Serif" font-size="14.00" fill="#000000">fit&#45;supervised</text>
</g>
<!-- n5&#45;&gt;n6 -->
<!-- svm&#45;classification -->
<g id="e1" class="edge">
<title>n5:s&#45;&gt;n6:n</title>
<path fill="none" stroke="#000000" d="M103,-180C103,-154.5424 146.2159,-168.9722 152.2932,-149.1237"/>
<polygon fill="#000000" stroke="#000000" points="154.0502,-149.1923 153,-144 150.5831,-148.7139 154.0502,-149.1923"/>
<text text-anchor="middle" x="73.2422" y="-164.785" font-family="Helvetica,sans-Serif" font-size="14.00" fill="#000000">svm&#45;classification</text>
</g>
<!-- n12 -->
<!-- discriminant&#45;function -->
<g id="n12" class="node">
<title>n12</title>
<path fill="none" stroke="#000000" d="M159,-60C159,-60 281,-60 281,-60 285,-60 289,-64 289,-68 289,-68 289,-76 289,-76 289,-80 285,-84 281,-84 281,-84 159,-84 159,-84 155,-84 151,-80 151,-76 151,-76 151,-68 151,-68 151,-64 155,-60 159,-60"/>
<text text-anchor="start" x="155.8071" y="-67.8" font-family="Helvetica,sans-Serif" font-size="14.00" fill="#000000">discriminant&#45;function</text>
</g>
<!-- n6&#45;&gt;n12 -->
<!-- supervised&#45;model -->
<g id="e2" class="edge">
<title>n6:s&#45;&gt;n12:n</title>
<path fill="none" stroke="#000000" d="M185,-120C185,-105.875 185,-101.1023 185,-89.1692"/>
<polygon fill="#000000" stroke="#000000" points="186.7501,-89 185,-84 183.2501,-89 186.7501,-89"/>
<text text-anchor="middle" x="129.752" y="-104.9025" font-family="Helvetica,sans-Serif" font-size="14.00" fill="#000000">supervised&#45;model</text>
</g>
<!-- n7 -->
<!-- ? -->
<g id="n7" class="node">
<title>n7</title>
<path fill="none" stroke="#000000" d="M254,-180C254,-180 262,-180 262,-180 266,-180 270,-184 270,-188 270,-188 270,-196 270,-196 270,-200 266,-204 262,-204 262,-204 254,-204 254,-204 250,-204 246,-200 246,-196 246,-196 246,-188 246,-188 246,-184 250,-180 254,-180"/>
<text text-anchor="start" x="254.1069" y="-187.8" font-family="Helvetica,sans-Serif" font-size="14.00" fill="#000000">?</text>
</g>
<!-- n8 -->
<!-- ? -->
<g id="n8" class="node">
<title>n8</title>
<path fill="none" stroke="#000000" d="M296,-180C296,-180 304,-180 304,-180 308,-180 312,-184 312,-188 312,-188 312,-196 312,-196 312,-200 308,-204 304,-204 304,-204 296,-204 296,-204 292,-204 288,-200 288,-196 288,-196 288,-188 288,-188 288,-184 292,-180 296,-180"/>
<text text-anchor="start" x="296.1069" y="-187.8" font-family="Helvetica,sans-Serif" font-size="14.00" fill="#000000">?</text>
</g>
<!-- n9 -->
<!-- ? -->
<g id="n9" class="node">
<title>n9</title>
<path fill="none" stroke="#000000" d="M338,-180C338,-180 346,-180 346,-180 350,-180 354,-184 354,-188 354,-188 354,-196 354,-196 354,-200 350,-204 346,-204 346,-204 338,-204 338,-204 334,-204 330,-200 330,-196 330,-196 330,-188 330,-188 330,-184 334,-180 338,-180"/>
<text text-anchor="start" x="338.1069" y="-187.8" font-family="Helvetica,sans-Serif" font-size="14.00" fill="#000000">?</text>
</g>
<!-- n10 -->
<!-- ? -->
<g id="n10" class="node">
<title>n10</title>
<path fill="none" stroke="#000000" d="M380,-180C380,-180 388,-180 388,-180 392,-180 396,-184 396,-188 396,-188 396,-196 396,-196 396,-200 392,-204 388,-204 388,-204 380,-204 380,-204 376,-204 372,-200 372,-196 372,-196 372,-188 372,-188 372,-184 376,-180 380,-180"/>
<text text-anchor="start" x="380.1069" y="-187.8" font-family="Helvetica,sans-Serif" font-size="14.00" fill="#000000">?</text>
</g>
<!-- n11 -->
<!-- ? -->
<g id="n11" class="node">
<title>n11</title>
<path fill="none" stroke="#000000" d="M415,-120C415,-120 495,-120 495,-120 499,-120 503,-124 503,-128 503,-128 503,-136 503,-136 503,-140 499,-144 495,-144 495,-144 415,-144 415,-144 411,-144 407,-140 407,-136 407,-136 407,-128 407,-128 407,-124 411,-120 415,-120"/>
<text text-anchor="start" x="451.1069" y="-127.8" font-family="Helvetica,sans-Serif" font-size="14.00" fill="#000000">?</text>
</g>
<!-- n11&#45;&gt;n4 -->
<!-- array -->
<g id="e3" class="edge">
<title>n11:s&#45;&gt;n4:n</title>
<path fill="none" stroke="#000000" d="M419,-120C419,-79.1667 419,-67.6424 419,-29.3278"/>
<polygon fill="#000000" stroke="#000000" points="420.7501,-29 419,-24 417.2501,-29 420.7501,-29"/>
<text text-anchor="middle" x="434.9482" y="-74.7243" font-family="Helvetica,sans-Serif" font-size="14.00" fill="#000000">array</text>
</g>
<!-- n11&#45;&gt;n4 -->
<!-- array -->
<g id="e4" class="edge">
<title>n11:s&#45;&gt;n4:n</title>
<path fill="none" stroke="#000000" d="M443,-120C443,-79.1667 443,-67.6424 443,-29.3278"/>
<polygon fill="#000000" stroke="#000000" points="444.7501,-29 443,-24 441.2501,-29 444.7501,-29"/>
<text text-anchor="middle" x="427.0518" y="-60.7243" font-family="Helvetica,sans-Serif" font-size="14.00" fill="#000000">array</text>
</g>
<!-- n11&#45;&gt;n4 -->
<g id="e5" class="edge">
<title>n11:s&#45;&gt;n4:n</title>
<path fill="none" stroke="#000000" d="M491,-120C491,-77.91 469.0182,-68.7371 467.1291,-29.4759"/>
<polygon fill="#000000" stroke="#000000" points="468.8675,-28.9573 467,-24 465.3684,-29.0399 468.8675,-28.9573"/>
</g>
<!-- n11&#45;&gt;n12 -->
<!-- array -->
<g id="e6" class="edge">
<title>n11:s&#45;&gt;n12:n</title>
<path fill="none" stroke="#000000" d="M467,-120C467,-26.2022 262.7942,-173.9001 255.2163,-89.0641"/>
<polygon fill="#000000" stroke="#000000" points="256.9618,-88.9208 255,-84 253.465,-89.0701 256.9618,-88.9208"/>
<text text-anchor="middle" x="344.9541" y="-104.8274" font-family="Helvetica,sans-Serif" font-size="14.00" fill="#000000">array</text>
</g>
<!-- n13 -->
<!-- array&#45;shape -->
<g id="n13" class="node">
<title>n13</title>
<path fill="none" stroke="#000000" d="M315,-60C315,-60 383,-60 383,-60 387,-60 391,-64 391,-68 391,-68 391,-76 391,-76 391,-80 387,-84 383,-84 383,-84 315,-84 315,-84 311,-84 307,-80 307,-76 307,-76 307,-68 307,-68 307,-64 311,-60 315,-60"/>
<text text-anchor="start" x="311.6484" y="-67.8" font-family="Helvetica,sans-Serif" font-size="14.00" fill="#000000">array&#45;shape</text>
</g>
<!-- n11&#45;&gt;n13 -->
<!-- array -->
<g id="e7" class="edge">
<title>n11:s&#45;&gt;n13:n</title>
<path fill="none" stroke="#000000" d="M419,-120C419,-86.9289 356.4469,-115.4752 349.6052,-89.1435"/>
<polygon fill="#000000" stroke="#000000" points="351.3223,-88.7612 349,-84 347.8463,-89.1703 351.3223,-88.7612"/>
<text text-anchor="middle" x="368.2088" y="-90.8023" font-family="Helvetica,sans-Serif" font-size="14.00" fill="#000000">array</text>
</g>
<!-- n12&#45;&gt;n4 -->
<!-- vector -->
<g id="e8" class="edge">
<title>n12:s&#45;&gt;n4:n</title>
<path fill="none" stroke="#000000" d="M220,-60C220,7.1055 362.8551,-87.5426 370.6675,-29.283"/>
<polygon fill="#000000" stroke="#000000" points="372.4324,-29.1001 371,-24 368.9393,-28.8802 372.4324,-29.1001"/>
<text text-anchor="middle" x="276.3533" y="-44.7815" font-family="Helvetica,sans-Serif" font-size="14.00" fill="#000000">vector</text>
</g>
<!-- n13&#45;&gt;n4 -->
<!-- vector -->
<g id="e9" class="edge">
<title>n13:s&#45;&gt;n4:n</title>
<path fill="none" stroke="#000000" d="M349,-60C349,-36.0672 388.0933,-47.7288 394.2016,-29.3577"/>
<polygon fill="#000000" stroke="#000000" points="395.9938,-29.2034 395,-24 392.5321,-28.6874 395.9938,-29.2034"/>
<text text-anchor="middle" x="352.7274" y="-44.846" font-family="Helvetica,sans-Serif" font-size="14.00" fill="#000000">vector</text>
</g>
<!-- n14 -->
<!-- ? -->
<g id="n14" class="node">
<title>n14</title>
<path fill="none" stroke="#000000" d="M188,-180C188,-180 220,-180 220,-180 224,-180 228,-184 228,-188 228,-188 228,-196 228,-196 228,-200 224,-204 220,-204 220,-204 188,-204 188,-204 184,-204 180,-200 180,-196 180,-196 180,-188 180,-188 180,-184 184,-180 188,-180"/>
<text text-anchor="start" x="200.1069" y="-187.8" font-family="Helvetica,sans-Serif" font-size="14.00" fill="#000000">?</text>
</g>
<!-- n14&#45;&gt;n6 -->
<!-- array -->
<g id="e10" class="edge">
<title>n14:s&#45;&gt;n6:n</title>
<path fill="none" stroke="#000000" d="M192,-180C192,-165.6105 186.5445,-161.2738 185.2659,-149.2404"/>
<polygon fill="#000000" stroke="#000000" points="187.0012,-148.9049 185,-144 183.5057,-149.0823 187.0012,-148.9049"/>
<text text-anchor="middle" x="172.5876" y="-164.901" font-family="Helvetica,sans-Serif" font-size="14.00" fill="#000000">array</text>
</g>
<!-- n14&#45;&gt;n6 -->
<!-- array -->
<g id="e11" class="edge">
<title>n14:s&#45;&gt;n6:n</title>
<path fill="none" stroke="#000000" d="M216,-180C216,-165.875 216,-161.1023 216,-149.1692"/>
<polygon fill="#000000" stroke="#000000" points="217.7501,-149 216,-144 214.2501,-149 217.7501,-149"/>
<text text-anchor="middle" x="231.9482" y="-164.9025" font-family="Helvetica,sans-Serif" font-size="14.00" fill="#000000">array</text>
</g>
<!-- n15 -->
<!-- ? -->
<g id="n15" class="node">
<title>n15</title>
<path fill="none" stroke="#000000" d="M422,-180C422,-180 430,-180 430,-180 434,-180 438,-184 438,-188 438,-188 438,-196 438,-196 438,-200 434,-204 430,-204 430,-204 422,-204 422,-204 418,-204 414,-200 414,-196 414,-196 414,-188 414,-188 414,-184 418,-180 422,-180"/>
<text text-anchor="start" x="422.1069" y="-187.8" font-family="Helvetica,sans-Serif" font-size="14.00" fill="#000000">?</text>
</g>
</g>
</svg>
