<?xml version="1.0" encoding="UTF-8" standalone="no"?>
<!DOCTYPE svg PUBLIC "-//W3C//DTD SVG 1.1//EN"
 "http://www.w3.org/Graphics/SVG/1.1/DTD/svg11.dtd">
<!-- Generated by graphviz version 2.40.1 (20161225.0304)
 -->
<!-- Title: semantic_flow_graph Pages: 1 -->
<svg width="2218pt" height="212pt"
 viewBox="0.00 0.00 2217.90 212.00" xmlns="http://www.w3.org/2000/svg" xmlns:xlink="http://www.w3.org/1999/xlink">
<g id="graph0" class="graph" transform="scale(1 1) rotate(0) translate(4 208)">
<title>semantic_flow_graph</title>
<polygon fill="#ffffff" stroke="transparent" points="-4,4 -4,-208 2213.898,-208 2213.898,4 -4,4"/>
<!-- n3 -->
<!-- ? -->
<g id="n3" class="node">
<title>n3</title>
<path fill="none" stroke="#000000" d="M235.898,-180C235.898,-180 243.898,-180 243.898,-180 247.898,-180 251.898,-184 251.898,-188 251.898,-188 251.898,-196 251.898,-196 251.898,-200 247.898,-204 243.898,-204 243.898,-204 235.898,-204 235.898,-204 231.898,-204 227.898,-200 227.898,-196 227.898,-196 227.898,-188 227.898,-188 227.898,-184 231.898,-180 235.898,-180"/>
<text text-anchor="start" x="236.005" y="-187.8" font-family="Helvetica,sans-Serif" font-size="14.00" fill="#000000">?</text>
</g>
<!-- n4 -->
<!-- ? -->
<g id="n4" class="node">
<title>n4</title>
<path fill="none" stroke="#000000" d="M277.898,-180C277.898,-180 285.898,-180 285.898,-180 289.898,-180 293.898,-184 293.898,-188 293.898,-188 293.898,-196 293.898,-196 293.898,-200 289.898,-204 285.898,-204 285.898,-204 277.898,-204 277.898,-204 273.898,-204 269.898,-200 269.898,-196 269.898,-196 269.898,-188 269.898,-188 269.898,-184 273.898,-180 277.898,-180"/>
<text text-anchor="start" x="278.005" y="-187.8" font-family="Helvetica,sans-Serif" font-size="14.00" fill="#000000">?</text>
</g>
<!-- n5 -->
<!-- ? -->
<g id="n5" class="node">
<title>n5</title>
<path fill="none" stroke="#000000" d="M319.898,-180C319.898,-180 327.898,-180 327.898,-180 331.898,-180 335.898,-184 335.898,-188 335.898,-188 335.898,-196 335.898,-196 335.898,-200 331.898,-204 327.898,-204 327.898,-204 319.898,-204 319.898,-204 315.898,-204 311.898,-200 311.898,-196 311.898,-196 311.898,-188 311.898,-188 311.898,-184 315.898,-180 319.898,-180"/>
<text text-anchor="start" x="320.005" y="-187.8" font-family="Helvetica,sans-Serif" font-size="14.00" fill="#000000">?</text>
</g>
<!-- n6 -->
<!-- ? -->
<g id="n6" class="node">
<title>n6</title>
<path fill="none" stroke="#000000" d="M361.898,-180C361.898,-180 369.898,-180 369.898,-180 373.898,-180 377.898,-184 377.898,-188 377.898,-188 377.898,-196 377.898,-196 377.898,-200 373.898,-204 369.898,-204 369.898,-204 361.898,-204 361.898,-204 357.898,-204 353.898,-200 353.898,-196 353.898,-196 353.898,-188 353.898,-188 353.898,-184 357.898,-180 361.898,-180"/>
<text text-anchor="start" x="362.005" y="-187.8" font-family="Helvetica,sans-Serif" font-size="14.00" fill="#000000">?</text>
</g>
<!-- n7 -->
<!-- ? -->
<g id="n7" class="node">
<title>n7</title>
<path fill="none" stroke="#000000" d="M403.898,-180C403.898,-180 411.898,-180 411.898,-180 415.898,-180 419.898,-184 419.898,-188 419.898,-188 419.898,-196 419.898,-196 419.898,-200 415.898,-204 411.898,-204 411.898,-204 403.898,-204 403.898,-204 399.898,-204 395.898,-200 395.898,-196 395.898,-196 395.898,-188 395.898,-188 395.898,-184 399.898,-180 403.898,-180"/>
<text text-anchor="start" x="404.005" y="-187.8" font-family="Helvetica,sans-Serif" font-size="14.00" fill="#000000">?</text>
</g>
<!-- n8 -->
<!-- ? -->
<g id="n8" class="node">
<title>n8</title>
<path fill="none" stroke="#000000" d="M73.898,-120C73.898,-120 129.898,-120 129.898,-120 133.898,-120 137.898,-124 137.898,-128 137.898,-128 137.898,-136 137.898,-136 137.898,-140 133.898,-144 129.898,-144 129.898,-144 73.898,-144 73.898,-144 69.898,-144 65.898,-140 65.898,-136 65.898,-136 65.898,-128 65.898,-128 65.898,-124 69.898,-120 73.898,-120"/>
<text text-anchor="start" x="98.005" y="-127.8" font-family="Helvetica,sans-Serif" font-size="14.00" fill="#000000">?</text>
</g>
<!-- n11 -->
<!-- discriminant&#45;function -->
<g id="n11" class="node">
<title>n11</title>
<path fill="none" stroke="#000000" d="M160.898,-60C160.898,-60 282.898,-60 282.898,-60 286.898,-60 290.898,-64 290.898,-68 290.898,-68 290.898,-76 290.898,-76 290.898,-80 286.898,-84 282.898,-84 282.898,-84 160.898,-84 160.898,-84 156.898,-84 152.898,-80 152.898,-76 152.898,-76 152.898,-68 152.898,-68 152.898,-64 156.898,-60 160.898,-60"/>
<text text-anchor="start" x="157.7052" y="-67.8" font-family="Helvetica,sans-Serif" font-size="14.00" fill="#000000">discriminant&#45;function</text>
</g>
<!-- n8&#45;&gt;n11 -->
<!-- array -->
<g id="e1" class="edge">
<title>n8:s&#45;&gt;n11:n</title>
<path fill="none" stroke="#000000" d="M125.898,-120C125.898,-61.5062 248.8385,-139.2248 256.5222,-89.2443"/>
<polygon fill="#000000" stroke="#000000" points="258.2861,-89.1123 256.898,-84 254.7951,-88.8621 258.2861,-89.1123"/>
<text text-anchor="middle" x="175.7256" y="-104.8513" font-family="Helvetica,sans-Serif" font-size="14.00" fill="#000000">array</text>
</g>
<!-- n12 -->
<!-- array&#45;shape -->
<g id="n12" class="node">
<title>n12</title>
<path fill="none" stroke="#000000" d="M20.898,-60C20.898,-60 88.898,-60 88.898,-60 92.898,-60 96.898,-64 96.898,-68 96.898,-68 96.898,-76 96.898,-76 96.898,-80 92.898,-84 88.898,-84 88.898,-84 20.898,-84 20.898,-84 16.898,-84 12.898,-80 12.898,-76 12.898,-76 12.898,-68 12.898,-68 12.898,-64 16.898,-60 20.898,-60"/>
<text text-anchor="start" x="17.5465" y="-67.8" font-family="Helvetica,sans-Serif" font-size="14.00" fill="#000000">array&#45;shape</text>
</g>
<!-- n8&#45;&gt;n12 -->
<!-- array -->
<g id="e2" class="edge">
<title>n8:s&#45;&gt;n12:n</title>
<path fill="none" stroke="#000000" d="M77.898,-120C77.898,-102.9417 59.3327,-102.802 55.5616,-89.1803"/>
<polygon fill="#000000" stroke="#000000" points="57.2692,-88.7371 54.898,-84 53.7976,-89.1819 57.2692,-88.7371"/>
<text text-anchor="middle" x="50.7488" y="-105.0212" font-family="Helvetica,sans-Serif" font-size="14.00" fill="#000000">array</text>
</g>
<!-- n51 -->
<!-- ? -->
<g id="n51" class="node">
<title>n51</title>
<path fill="none" stroke="#000000" d="M38.898,0C38.898,0 118.898,0 118.898,0 122.898,0 126.898,-4 126.898,-8 126.898,-8 126.898,-16 126.898,-16 126.898,-20 122.898,-24 118.898,-24 118.898,-24 38.898,-24 38.898,-24 34.898,-24 30.898,-20 30.898,-16 30.898,-16 30.898,-8 30.898,-8 30.898,-4 34.898,0 38.898,0"/>
<text text-anchor="start" x="75.005" y="-7.8" font-family="Helvetica,sans-Serif" font-size="14.00" fill="#000000">?</text>
</g>
<!-- n8&#45;&gt;n51 -->
<!-- array -->
<g id="e3" class="edge">
<title>n8:s&#45;&gt;n51:n</title>
<path fill="none" stroke="#000000" d="M77.898,-120C77.898,-83.4257 23.2951,-115.007 3.898,-84 -1.759,-74.957 -.3801,-69.7712 3.898,-60 12.5459,-40.2483 37.9693,-46.2357 42.2751,-29.3955"/>
<polygon fill="#000000" stroke="#000000" points="44.0629,-29.1678 42.898,-24 40.586,-28.7663 44.0629,-29.1678"/>
<text text-anchor="middle" x="41.6254" y="-89.272" font-family="Helvetica,sans-Serif" font-size="14.00" fill="#000000">array</text>
</g>
<!-- n8&#45;&gt;n51 -->
<!-- array -->
<g id="e4" class="edge">
<title>n8:s&#45;&gt;n51:n</title>
<path fill="none" stroke="#000000" d="M101.898,-120C101.898,-93.2741 116.6171,-84.4821 105.898,-60 97.2501,-40.2483 71.8268,-46.2357 67.521,-29.3955"/>
<polygon fill="#000000" stroke="#000000" points="69.2101,-28.7663 66.898,-24 65.7332,-29.1678 69.2101,-28.7663"/>
<text text-anchor="middle" x="89.9244" y="-48.7422" font-family="Helvetica,sans-Serif" font-size="14.00" fill="#000000">array</text>
</g>
<!-- n9 -->
<!-- ? -->
<g id="n9" class="node">
<title>n9</title>
<path fill="none" stroke="#000000" d="M1437.898,-180C1437.898,-180 1445.898,-180 1445.898,-180 1449.898,-180 1453.898,-184 1453.898,-188 1453.898,-188 1453.898,-196 1453.898,-196 1453.898,-200 1449.898,-204 1445.898,-204 1445.898,-204 1437.898,-204 1437.898,-204 1433.898,-204 1429.898,-200 1429.898,-196 1429.898,-196 1429.898,-188 1429.898,-188 1429.898,-184 1433.898,-180 1437.898,-180"/>
<text text-anchor="start" x="1438.005" y="-187.8" font-family="Helvetica,sans-Serif" font-size="14.00" fill="#000000">?</text>
</g>
<!-- n10 -->
<!-- ? -->
<g id="n10" class="node">
<title>n10</title>
<path fill="none" stroke="#000000" d="M1021.898,-180C1021.898,-180 1053.898,-180 1053.898,-180 1057.898,-180 1061.898,-184 1061.898,-188 1061.898,-188 1061.898,-196 1061.898,-196 1061.898,-200 1057.898,-204 1053.898,-204 1053.898,-204 1021.898,-204 1021.898,-204 1017.898,-204 1013.898,-200 1013.898,-196 1013.898,-196 1013.898,-188 1013.898,-188 1013.898,-184 1017.898,-180 1021.898,-180"/>
<text text-anchor="start" x="1034.005" y="-187.8" font-family="Helvetica,sans-Serif" font-size="14.00" fill="#000000">?</text>
</g>
<!-- n31 -->
<!-- fit&#45;supervised -->
<g id="n31" class="node">
<title>n31</title>
<path fill="none" stroke="#000000" d="M491.898,-120C491.898,-120 568.898,-120 568.898,-120 572.898,-120 576.898,-124 576.898,-128 576.898,-128 576.898,-136 576.898,-136 576.898,-140 572.898,-144 568.898,-144 568.898,-144 491.898,-144 491.898,-144 487.898,-144 483.898,-140 483.898,-136 483.898,-136 483.898,-128 483.898,-128 483.898,-124 487.898,-120 491.898,-120"/>
<text text-anchor="start" x="488.7706" y="-127.8" font-family="Helvetica,sans-Serif" font-size="14.00" fill="#000000">fit&#45;supervised</text>
</g>
<!-- n10&#45;&gt;n31 -->
<!-- array -->
<g id="e5" class="edge">
<title>n10:s&#45;&gt;n31:n</title>
<path fill="none" stroke="#000000" d="M1025.898,-180C1025.898,-126.578 561.3521,-194.6285 532.318,-148.7986"/>
<polygon fill="#000000" stroke="#000000" points="533.995,-148.2979 530.898,-144 530.6388,-149.2911 533.995,-148.2979"/>
<text text-anchor="middle" x="762.1099" y="-164.8131" font-family="Helvetica,sans-Serif" font-size="14.00" fill="#000000">array</text>
</g>
<!-- n10&#45;&gt;n31 -->
<g id="e6" class="edge">
<title>n10:s&#45;&gt;n31:n</title>
<path fill="none" stroke="#000000" d="M1049.898,-180C1049.898,-127.4357 593.7663,-193.6794 563.4763,-149.0046"/>
<polygon fill="#000000" stroke="#000000" points="565.0709,-148.2422 561.898,-144 561.7329,-149.2949 565.0709,-148.2422"/>
</g>
<!-- n33 -->
<!-- fit&#45;supervised -->
<g id="n33" class="node">
<title>n33</title>
<path fill="none" stroke="#000000" d="M979.898,-120C979.898,-120 1056.898,-120 1056.898,-120 1060.898,-120 1064.898,-124 1064.898,-128 1064.898,-128 1064.898,-136 1064.898,-136 1064.898,-140 1060.898,-144 1056.898,-144 1056.898,-144 979.898,-144 979.898,-144 975.898,-144 971.898,-140 971.898,-136 971.898,-136 971.898,-128 971.898,-128 971.898,-124 975.898,-120 979.898,-120"/>
<text text-anchor="start" x="976.7706" y="-127.8" font-family="Helvetica,sans-Serif" font-size="14.00" fill="#000000">fit&#45;supervised</text>
</g>
<!-- n10&#45;&gt;n33 -->
<!-- array -->
<g id="e7" class="edge">
<title>n10:s&#45;&gt;n33:n</title>
<path fill="none" stroke="#000000" d="M1025.898,-180C1025.898,-165.6105 1020.4425,-161.2738 1019.1639,-149.2404"/>
<polygon fill="#000000" stroke="#000000" points="1020.8992,-148.9049 1018.898,-144 1017.4037,-149.0823 1020.8992,-148.9049"/>
<text text-anchor="middle" x="1006.4857" y="-164.901" font-family="Helvetica,sans-Serif" font-size="14.00" fill="#000000">array</text>
</g>
<!-- n10&#45;&gt;n33 -->
<g id="e8" class="edge">
<title>n10:s&#45;&gt;n33:n</title>
<path fill="none" stroke="#000000" d="M1049.898,-180C1049.898,-165.875 1049.898,-161.1023 1049.898,-149.1692"/>
<polygon fill="#000000" stroke="#000000" points="1051.6481,-149 1049.898,-144 1048.1481,-149 1051.6481,-149"/>
</g>
<!-- n45 -->
<!-- fit&#45;supervised -->
<g id="n45" class="node">
<title>n45</title>
<path fill="none" stroke="#000000" d="M1345.898,-120C1345.898,-120 1422.898,-120 1422.898,-120 1426.898,-120 1430.898,-124 1430.898,-128 1430.898,-128 1430.898,-136 1430.898,-136 1430.898,-140 1426.898,-144 1422.898,-144 1422.898,-144 1345.898,-144 1345.898,-144 1341.898,-144 1337.898,-140 1337.898,-136 1337.898,-136 1337.898,-128 1337.898,-128 1337.898,-124 1341.898,-120 1345.898,-120"/>
<text text-anchor="start" x="1342.7706" y="-127.8" font-family="Helvetica,sans-Serif" font-size="14.00" fill="#000000">fit&#45;supervised</text>
</g>
<!-- n10&#45;&gt;n45 -->
<!-- array -->
<g id="e9" class="edge">
<title>n10:s&#45;&gt;n45:n</title>
<path fill="none" stroke="#000000" d="M1025.898,-180C1025.898,-101.7013 1368.2671,-218.4611 1384.3157,-149.3057"/>
<polygon fill="#000000" stroke="#000000" points="1386.092,-149.1611 1384.898,-144 1382.6129,-148.7792 1386.092,-149.1611"/>
<text text-anchor="middle" x="1189.8155" y="-164.845" font-family="Helvetica,sans-Serif" font-size="14.00" fill="#000000">array</text>
</g>
<!-- n10&#45;&gt;n45 -->
<g id="e10" class="edge">
<title>n10:s&#45;&gt;n45:n</title>
<path fill="none" stroke="#000000" d="M1049.898,-180C1049.898,-100.03 1400.3404,-220.3459 1415.3985,-148.982"/>
<polygon fill="#000000" stroke="#000000" points="1417.1404,-149.1497 1415.898,-144 1413.6578,-148.8004 1417.1404,-149.1497"/>
</g>
<!-- n11&#45;&gt;n51 -->
<!-- vector -->
<g id="e11" class="edge">
<title>n11:s&#45;&gt;n51:n</title>
<path fill="none" stroke="#000000" d="M221.898,-60C221.898,-1.5062 98.9576,-79.2248 91.2738,-29.2443"/>
<polygon fill="#000000" stroke="#000000" points="93.001,-28.8621 90.898,-24 89.51,-29.1123 93.001,-28.8621"/>
<text text-anchor="middle" x="137.0602" y="-44.8513" font-family="Helvetica,sans-Serif" font-size="14.00" fill="#000000">vector</text>
</g>
<!-- n12&#45;&gt;n51 -->
<!-- vector -->
<g id="e12" class="edge">
<title>n12:s&#45;&gt;n51:n</title>
<path fill="none" stroke="#000000" d="M54.898,-60C54.898,-30.8452 107.6324,-52.0476 114.2242,-29.1875"/>
<polygon fill="#000000" stroke="#000000" points="115.9893,-29.1838 114.898,-24 112.5185,-28.7329 115.9893,-29.1838"/>
<text text-anchor="middle" x="65.9898" y="-30.7874" font-family="Helvetica,sans-Serif" font-size="14.00" fill="#000000">vector</text>
</g>
<!-- n13 -->
<!-- ? -->
<g id="n13" class="node">
<title>n13</title>
<path fill="none" stroke="#000000" d="M1314.898,0C1314.898,0 1394.898,0 1394.898,0 1398.898,0 1402.898,-4 1402.898,-8 1402.898,-8 1402.898,-16 1402.898,-16 1402.898,-20 1398.898,-24 1394.898,-24 1394.898,-24 1314.898,-24 1314.898,-24 1310.898,-24 1306.898,-20 1306.898,-16 1306.898,-16 1306.898,-8 1306.898,-8 1306.898,-4 1310.898,0 1314.898,0"/>
<text text-anchor="start" x="1351.005" y="-7.8" font-family="Helvetica,sans-Serif" font-size="14.00" fill="#000000">?</text>
</g>
<!-- n14 -->
<!-- ? -->
<g id="n14" class="node">
<title>n14</title>
<path fill="none" stroke="#000000" d="M1479.898,-180C1479.898,-180 1487.898,-180 1487.898,-180 1491.898,-180 1495.898,-184 1495.898,-188 1495.898,-188 1495.898,-196 1495.898,-196 1495.898,-200 1491.898,-204 1487.898,-204 1487.898,-204 1479.898,-204 1479.898,-204 1475.898,-204 1471.898,-200 1471.898,-196 1471.898,-196 1471.898,-188 1471.898,-188 1471.898,-184 1475.898,-180 1479.898,-180"/>
<text text-anchor="start" x="1480.005" y="-187.8" font-family="Helvetica,sans-Serif" font-size="14.00" fill="#000000">?</text>
</g>
<!-- n15 -->
<!-- ? -->
<g id="n15" class="node">
<title>n15</title>
<path fill="none" stroke="#000000" d="M1521.898,-180C1521.898,-180 1529.898,-180 1529.898,-180 1533.898,-180 1537.898,-184 1537.898,-188 1537.898,-188 1537.898,-196 1537.898,-196 1537.898,-200 1533.898,-204 1529.898,-204 1529.898,-204 1521.898,-204 1521.898,-204 1517.898,-204 1513.898,-200 1513.898,-196 1513.898,-196 1513.898,-188 1513.898,-188 1513.898,-184 1517.898,-180 1521.898,-180"/>
<text text-anchor="start" x="1522.005" y="-187.8" font-family="Helvetica,sans-Serif" font-size="14.00" fill="#000000">?</text>
</g>
<!-- n16 -->
<!-- ? -->
<g id="n16" class="node">
<title>n16</title>
<path fill="none" stroke="#000000" d="M1563.898,-180C1563.898,-180 1571.898,-180 1571.898,-180 1575.898,-180 1579.898,-184 1579.898,-188 1579.898,-188 1579.898,-196 1579.898,-196 1579.898,-200 1575.898,-204 1571.898,-204 1571.898,-204 1563.898,-204 1563.898,-204 1559.898,-204 1555.898,-200 1555.898,-196 1555.898,-196 1555.898,-188 1555.898,-188 1555.898,-184 1559.898,-180 1563.898,-180"/>
<text text-anchor="start" x="1564.005" y="-187.8" font-family="Helvetica,sans-Serif" font-size="14.00" fill="#000000">?</text>
</g>
<!-- n17 -->
<!-- discriminant&#45;function -->
<g id="n17" class="node">
<title>n17</title>
<path fill="none" stroke="#000000" d="M802.898,-60C802.898,-60 924.898,-60 924.898,-60 928.898,-60 932.898,-64 932.898,-68 932.898,-68 932.898,-76 932.898,-76 932.898,-80 928.898,-84 924.898,-84 924.898,-84 802.898,-84 802.898,-84 798.898,-84 794.898,-80 794.898,-76 794.898,-76 794.898,-68 794.898,-68 794.898,-64 798.898,-60 802.898,-60"/>
<text text-anchor="start" x="799.7052" y="-67.8" font-family="Helvetica,sans-Serif" font-size="14.00" fill="#000000">discriminant&#45;function</text>
</g>
<!-- n22 -->
<!-- ? -->
<g id="n22" class="node">
<title>n22</title>
<path fill="none" stroke="#000000" d="M680.898,0C680.898,0 760.898,0 760.898,0 764.898,0 768.898,-4 768.898,-8 768.898,-8 768.898,-16 768.898,-16 768.898,-20 764.898,-24 760.898,-24 760.898,-24 680.898,-24 680.898,-24 676.898,-24 672.898,-20 672.898,-16 672.898,-16 672.898,-8 672.898,-8 672.898,-4 676.898,0 680.898,0"/>
<text text-anchor="start" x="717.005" y="-7.8" font-family="Helvetica,sans-Serif" font-size="14.00" fill="#000000">?</text>
</g>
<!-- n17&#45;&gt;n22 -->
<!-- vector -->
<g id="e13" class="edge">
<title>n17:s&#45;&gt;n22:n</title>
<path fill="none" stroke="#000000" d="M863.898,-60C863.898,-1.5062 740.9576,-79.2248 733.2738,-29.2443"/>
<polygon fill="#000000" stroke="#000000" points="735.001,-28.8621 732.898,-24 731.51,-29.1123 735.001,-28.8621"/>
<text text-anchor="middle" x="779.0602" y="-44.8513" font-family="Helvetica,sans-Serif" font-size="14.00" fill="#000000">vector</text>
</g>
<!-- n18 -->
<!-- array&#45;shape -->
<g id="n18" class="node">
<title>n18</title>
<path fill="none" stroke="#000000" d="M662.898,-60C662.898,-60 730.898,-60 730.898,-60 734.898,-60 738.898,-64 738.898,-68 738.898,-68 738.898,-76 738.898,-76 738.898,-80 734.898,-84 730.898,-84 730.898,-84 662.898,-84 662.898,-84 658.898,-84 654.898,-80 654.898,-76 654.898,-76 654.898,-68 654.898,-68 654.898,-64 658.898,-60 662.898,-60"/>
<text text-anchor="start" x="659.5465" y="-67.8" font-family="Helvetica,sans-Serif" font-size="14.00" fill="#000000">array&#45;shape</text>
</g>
<!-- n18&#45;&gt;n22 -->
<!-- vector -->
<g id="e14" class="edge">
<title>n18:s&#45;&gt;n22:n</title>
<path fill="none" stroke="#000000" d="M696.898,-60C696.898,-30.8452 749.6324,-52.0476 756.2242,-29.1875"/>
<polygon fill="#000000" stroke="#000000" points="757.9893,-29.1838 756.898,-24 754.5185,-28.7329 757.9893,-29.1838"/>
<text text-anchor="middle" x="707.9898" y="-44.7874" font-family="Helvetica,sans-Serif" font-size="14.00" fill="#000000">vector</text>
</g>
<!-- n19 -->
<!-- ? -->
<g id="n19" class="node">
<title>n19</title>
<path fill="none" stroke="#000000" d="M1605.898,-180C1605.898,-180 1613.898,-180 1613.898,-180 1617.898,-180 1621.898,-184 1621.898,-188 1621.898,-188 1621.898,-196 1621.898,-196 1621.898,-200 1617.898,-204 1613.898,-204 1613.898,-204 1605.898,-204 1605.898,-204 1601.898,-204 1597.898,-200 1597.898,-196 1597.898,-196 1597.898,-188 1597.898,-188 1597.898,-184 1601.898,-180 1605.898,-180"/>
<text text-anchor="start" x="1606.005" y="-187.8" font-family="Helvetica,sans-Serif" font-size="14.00" fill="#000000">?</text>
</g>
<!-- n20 -->
<!-- ? -->
<g id="n20" class="node">
<title>n20</title>
<path fill="none" stroke="#000000" d="M1647.898,-180C1647.898,-180 1655.898,-180 1655.898,-180 1659.898,-180 1663.898,-184 1663.898,-188 1663.898,-188 1663.898,-196 1663.898,-196 1663.898,-200 1659.898,-204 1655.898,-204 1655.898,-204 1647.898,-204 1647.898,-204 1643.898,-204 1639.898,-200 1639.898,-196 1639.898,-196 1639.898,-188 1639.898,-188 1639.898,-184 1643.898,-180 1647.898,-180"/>
<text text-anchor="start" x="1648.005" y="-187.8" font-family="Helvetica,sans-Serif" font-size="14.00" fill="#000000">?</text>
</g>
<!-- n21 -->
<!-- ? -->
<g id="n21" class="node">
<title>n21</title>
<path fill="none" stroke="#000000" d="M1254.898,-120C1254.898,-120 1310.898,-120 1310.898,-120 1314.898,-120 1318.898,-124 1318.898,-128 1318.898,-128 1318.898,-136 1318.898,-136 1318.898,-140 1314.898,-144 1310.898,-144 1310.898,-144 1254.898,-144 1254.898,-144 1250.898,-144 1246.898,-140 1246.898,-136 1246.898,-136 1246.898,-128 1246.898,-128 1246.898,-124 1250.898,-120 1254.898,-120"/>
<text text-anchor="start" x="1279.005" y="-127.8" font-family="Helvetica,sans-Serif" font-size="14.00" fill="#000000">?</text>
</g>
<!-- n21&#45;&gt;n13 -->
<!-- array -->
<g id="e15" class="edge">
<title>n21:s&#45;&gt;n13:n</title>
<path fill="none" stroke="#000000" d="M1282.898,-120C1282.898,-92.9655 1282.487,-84.9495 1292.898,-60 1299.786,-43.4932 1315.5431,-43.548 1318.437,-29.0136"/>
<polygon fill="#000000" stroke="#000000" points="1320.1827,-29.1393 1318.898,-24 1316.6974,-28.8187 1320.1827,-29.1393"/>
<text text-anchor="middle" x="1276.9599" y="-62.7758" font-family="Helvetica,sans-Serif" font-size="14.00" fill="#000000">array</text>
</g>
<!-- n21&#45;&gt;n13 -->
<!-- array -->
<g id="e16" class="edge">
<title>n21:s&#45;&gt;n13:n</title>
<path fill="none" stroke="#000000" d="M1306.898,-120C1306.898,-92.0282 1315.6807,-86.0389 1325.898,-60 1331.6544,-45.33 1340.6419,-42.2706 1342.539,-29.2766"/>
<polygon fill="#000000" stroke="#000000" points="1344.3045,-29.1073 1342.898,-24 1340.8126,-28.8696 1344.3045,-29.1073"/>
<text text-anchor="middle" x="1309.954" y="-62.7893" font-family="Helvetica,sans-Serif" font-size="14.00" fill="#000000">array</text>
</g>
<!-- n29 -->
<!-- discriminant&#45;function -->
<g id="n29" class="node">
<title>n29</title>
<path fill="none" stroke="#000000" d="M1342.898,-60C1342.898,-60 1464.898,-60 1464.898,-60 1468.898,-60 1472.898,-64 1472.898,-68 1472.898,-68 1472.898,-76 1472.898,-76 1472.898,-80 1468.898,-84 1464.898,-84 1464.898,-84 1342.898,-84 1342.898,-84 1338.898,-84 1334.898,-80 1334.898,-76 1334.898,-76 1334.898,-68 1334.898,-68 1334.898,-64 1338.898,-60 1342.898,-60"/>
<text text-anchor="start" x="1339.7052" y="-67.8" font-family="Helvetica,sans-Serif" font-size="14.00" fill="#000000">discriminant&#45;function</text>
</g>
<!-- n21&#45;&gt;n29 -->
<!-- array -->
<g id="e17" class="edge">
<title>n21:s&#45;&gt;n29:n</title>
<path fill="none" stroke="#000000" d="M1258.898,-120C1258.898,-40.3278 1430.5594,-159.738 1438.606,-89.3978"/>
<polygon fill="#000000" stroke="#000000" points="1440.3753,-89.0873 1438.898,-84 1436.8804,-88.8981 1440.3753,-89.0873"/>
<text text-anchor="middle" x="1332.8756" y="-104.7812" font-family="Helvetica,sans-Serif" font-size="14.00" fill="#000000">array</text>
</g>
<!-- n34 -->
<!-- array&#45;shape -->
<g id="n34" class="node">
<title>n34</title>
<path fill="none" stroke="#000000" d="M1498.898,-60C1498.898,-60 1566.898,-60 1566.898,-60 1570.898,-60 1574.898,-64 1574.898,-68 1574.898,-68 1574.898,-76 1574.898,-76 1574.898,-80 1570.898,-84 1566.898,-84 1566.898,-84 1498.898,-84 1498.898,-84 1494.898,-84 1490.898,-80 1490.898,-76 1490.898,-76 1490.898,-68 1490.898,-68 1490.898,-64 1494.898,-60 1498.898,-60"/>
<text text-anchor="start" x="1495.5465" y="-67.8" font-family="Helvetica,sans-Serif" font-size="14.00" fill="#000000">array&#45;shape</text>
</g>
<!-- n21&#45;&gt;n34 -->
<!-- array -->
<g id="e18" class="edge">
<title>n21:s&#45;&gt;n34:n</title>
<path fill="none" stroke="#000000" d="M1282.898,-120C1282.898,-65.735 1516.5721,-135.2106 1532.0895,-89.1628"/>
<polygon fill="#000000" stroke="#000000" points="1533.8533,-89.2106 1532.898,-84 1530.3954,-88.669 1533.8533,-89.2106"/>
<text text-anchor="middle" x="1392.0971" y="-104.8119" font-family="Helvetica,sans-Serif" font-size="14.00" fill="#000000">array</text>
</g>
<!-- n23 -->
<!-- ? -->
<g id="n23" class="node">
<title>n23</title>
<path fill="none" stroke="#000000" d="M715.898,-120C715.898,-120 771.898,-120 771.898,-120 775.898,-120 779.898,-124 779.898,-128 779.898,-128 779.898,-136 779.898,-136 779.898,-140 775.898,-144 771.898,-144 771.898,-144 715.898,-144 715.898,-144 711.898,-144 707.898,-140 707.898,-136 707.898,-136 707.898,-128 707.898,-128 707.898,-124 711.898,-120 715.898,-120"/>
<text text-anchor="start" x="740.005" y="-127.8" font-family="Helvetica,sans-Serif" font-size="14.00" fill="#000000">?</text>
</g>
<!-- n23&#45;&gt;n17 -->
<!-- array -->
<g id="e19" class="edge">
<title>n23:s&#45;&gt;n17:n</title>
<path fill="none" stroke="#000000" d="M767.898,-120C767.898,-61.5062 890.8385,-139.2248 898.5222,-89.2443"/>
<polygon fill="#000000" stroke="#000000" points="900.2861,-89.1123 898.898,-84 896.7951,-88.8621 900.2861,-89.1123"/>
<text text-anchor="middle" x="817.7256" y="-104.8513" font-family="Helvetica,sans-Serif" font-size="14.00" fill="#000000">array</text>
</g>
<!-- n23&#45;&gt;n18 -->
<!-- array -->
<g id="e20" class="edge">
<title>n23:s&#45;&gt;n18:n</title>
<path fill="none" stroke="#000000" d="M719.898,-120C719.898,-102.9417 701.3327,-102.802 697.5616,-89.1803"/>
<polygon fill="#000000" stroke="#000000" points="699.2692,-88.7371 696.898,-84 695.7976,-89.1819 699.2692,-88.7371"/>
<text text-anchor="middle" x="692.7488" y="-105.0212" font-family="Helvetica,sans-Serif" font-size="14.00" fill="#000000">array</text>
</g>
<!-- n23&#45;&gt;n22 -->
<!-- array -->
<g id="e21" class="edge">
<title>n23:s&#45;&gt;n22:n</title>
<path fill="none" stroke="#000000" d="M719.898,-120C719.898,-83.4257 665.2951,-115.007 645.898,-84 640.241,-74.957 641.6199,-69.7712 645.898,-60 654.5459,-40.2483 679.9693,-46.2357 684.2751,-29.3955"/>
<polygon fill="#000000" stroke="#000000" points="686.0629,-29.1678 684.898,-24 682.586,-28.7663 686.0629,-29.1678"/>
<text text-anchor="middle" x="683.6254" y="-89.272" font-family="Helvetica,sans-Serif" font-size="14.00" fill="#000000">array</text>
</g>
<!-- n23&#45;&gt;n22 -->
<!-- array -->
<g id="e22" class="edge">
<title>n23:s&#45;&gt;n22:n</title>
<path fill="none" stroke="#000000" d="M743.898,-120C743.898,-93.2741 758.6171,-84.4821 747.898,-60 739.2501,-40.2483 713.8268,-46.2357 709.521,-29.3955"/>
<polygon fill="#000000" stroke="#000000" points="711.2101,-28.7663 708.898,-24 707.7332,-29.1678 711.2101,-28.7663"/>
<text text-anchor="middle" x="763.8209" y="-62.7422" font-family="Helvetica,sans-Serif" font-size="14.00" fill="#000000">array</text>
</g>
<!-- n24 -->
<!-- ? -->
<g id="n24" class="node">
<title>n24</title>
<path fill="none" stroke="#000000" d="M1721.898,0C1721.898,0 1753.898,0 1753.898,0 1757.898,0 1761.898,-4 1761.898,-8 1761.898,-8 1761.898,-16 1761.898,-16 1761.898,-20 1757.898,-24 1753.898,-24 1753.898,-24 1721.898,-24 1721.898,-24 1717.898,-24 1713.898,-20 1713.898,-16 1713.898,-16 1713.898,-8 1713.898,-8 1713.898,-4 1717.898,0 1721.898,0"/>
<text text-anchor="start" x="1734.005" y="-7.8" font-family="Helvetica,sans-Serif" font-size="14.00" fill="#000000">?</text>
</g>
<!-- n25 -->
<!-- ? -->
<g id="n25" class="node">
<title>n25</title>
<path fill="none" stroke="#000000" d="M1079.898,0C1079.898,0 1111.898,0 1111.898,0 1115.898,0 1119.898,-4 1119.898,-8 1119.898,-8 1119.898,-16 1119.898,-16 1119.898,-20 1115.898,-24 1111.898,-24 1111.898,-24 1079.898,-24 1079.898,-24 1075.898,-24 1071.898,-20 1071.898,-16 1071.898,-16 1071.898,-8 1071.898,-8 1071.898,-4 1075.898,0 1079.898,0"/>
<text text-anchor="start" x="1092.005" y="-7.8" font-family="Helvetica,sans-Serif" font-size="14.00" fill="#000000">?</text>
</g>
<!-- n26 -->
<!-- ? -->
<g id="n26" class="node">
<title>n26</title>
<path fill="none" stroke="#000000" d="M1689.898,-180C1689.898,-180 1697.898,-180 1697.898,-180 1701.898,-180 1705.898,-184 1705.898,-188 1705.898,-188 1705.898,-196 1705.898,-196 1705.898,-200 1701.898,-204 1697.898,-204 1697.898,-204 1689.898,-204 1689.898,-204 1685.898,-204 1681.898,-200 1681.898,-196 1681.898,-196 1681.898,-188 1681.898,-188 1681.898,-184 1685.898,-180 1689.898,-180"/>
<text text-anchor="start" x="1690.005" y="-187.8" font-family="Helvetica,sans-Serif" font-size="14.00" fill="#000000">?</text>
</g>
<!-- n27 -->
<!-- ? -->
<g id="n27" class="node">
<title>n27</title>
<path fill="none" stroke="#000000" d="M1731.898,-180C1731.898,-180 1739.898,-180 1739.898,-180 1743.898,-180 1747.898,-184 1747.898,-188 1747.898,-188 1747.898,-196 1747.898,-196 1747.898,-200 1743.898,-204 1739.898,-204 1739.898,-204 1731.898,-204 1731.898,-204 1727.898,-204 1723.898,-200 1723.898,-196 1723.898,-196 1723.898,-188 1723.898,-188 1723.898,-184 1727.898,-180 1731.898,-180"/>
<text text-anchor="start" x="1732.005" y="-187.8" font-family="Helvetica,sans-Serif" font-size="14.00" fill="#000000">?</text>
</g>
<!-- n28 -->
<!-- ? -->
<g id="n28" class="node">
<title>n28</title>
<path fill="none" stroke="#000000" d="M1773.898,-180C1773.898,-180 1781.898,-180 1781.898,-180 1785.898,-180 1789.898,-184 1789.898,-188 1789.898,-188 1789.898,-196 1789.898,-196 1789.898,-200 1785.898,-204 1781.898,-204 1781.898,-204 1773.898,-204 1773.898,-204 1769.898,-204 1765.898,-200 1765.898,-196 1765.898,-196 1765.898,-188 1765.898,-188 1765.898,-184 1769.898,-180 1773.898,-180"/>
<text text-anchor="start" x="1774.005" y="-187.8" font-family="Helvetica,sans-Serif" font-size="14.00" fill="#000000">?</text>
</g>
<!-- n29&#45;&gt;n13 -->
<!-- vector -->
<g id="e23" class="edge">
<title>n29:s&#45;&gt;n13:n</title>
<path fill="none" stroke="#000000" d="M1403.898,-60C1403.898,-39.0279 1372.9842,-45.4869 1367.6708,-29.2295"/>
<polygon fill="#000000" stroke="#000000" points="1369.3603,-28.6904 1366.898,-24 1365.8979,-29.2021 1369.3603,-28.6904"/>
<text text-anchor="middle" x="1366.3428" y="-44.8024" font-family="Helvetica,sans-Serif" font-size="14.00" fill="#000000">vector</text>
</g>
<!-- n30 -->
<!-- svm&#45;classification -->
<g id="n30" class="node">
<title>n30</title>
<path fill="none" stroke="#000000" d="M446.898,-180C446.898,-180 549.898,-180 549.898,-180 553.898,-180 557.898,-184 557.898,-188 557.898,-188 557.898,-196 557.898,-196 557.898,-200 553.898,-204 549.898,-204 549.898,-204 446.898,-204 446.898,-204 442.898,-204 438.898,-200 438.898,-196 438.898,-196 438.898,-188 438.898,-188 438.898,-184 442.898,-180 446.898,-180"/>
<text text-anchor="start" x="443.5533" y="-187.8" font-family="Helvetica,sans-Serif" font-size="14.00" fill="#000000">svm&#45;classification</text>
</g>
<!-- n30&#45;&gt;n31 -->
<!-- svm&#45;classification -->
<g id="e24" class="edge">
<title>n30:s&#45;&gt;n31:n</title>
<path fill="none" stroke="#000000" d="M498.898,-180C498.898,-165.875 498.898,-161.1023 498.898,-149.1692"/>
<polygon fill="#000000" stroke="#000000" points="500.6481,-149 498.898,-144 497.1481,-149 500.6481,-149"/>
<text text-anchor="middle" x="444.0533" y="-164.9025" font-family="Helvetica,sans-Serif" font-size="14.00" fill="#000000">svm&#45;classification</text>
</g>
<!-- n31&#45;&gt;n11 -->
<!-- supervised&#45;model -->
<g id="e25" class="edge">
<title>n31:s&#45;&gt;n11:n</title>
<path fill="none" stroke="#000000" d="M530.898,-120C530.898,-44.9395 202.8341,-155.4505 187.4561,-89.0887"/>
<polygon fill="#000000" stroke="#000000" points="189.1827,-88.7794 186.898,-84 185.7036,-89.161 189.1827,-88.7794"/>
<text text-anchor="middle" x="303.2996" y="-104.8416" font-family="Helvetica,sans-Serif" font-size="14.00" fill="#000000">supervised&#45;model</text>
</g>
<!-- n35 -->
<!-- svm&#45;support&#45;vectors -->
<g id="n35" class="node">
<title>n35</title>
<path fill="none" stroke="#000000" d="M316.898,-60C316.898,-60 436.898,-60 436.898,-60 440.898,-60 444.898,-64 444.898,-68 444.898,-68 444.898,-76 444.898,-76 444.898,-80 440.898,-84 436.898,-84 436.898,-84 316.898,-84 316.898,-84 312.898,-84 308.898,-80 308.898,-76 308.898,-76 308.898,-68 308.898,-68 308.898,-64 312.898,-60 316.898,-60"/>
<text text-anchor="start" x="313.4947" y="-67.8" font-family="Helvetica,sans-Serif" font-size="14.00" fill="#000000">svm&#45;support&#45;vectors</text>
</g>
<!-- n31&#45;&gt;n35 -->
<!-- supervised&#45;model -->
<g id="e26" class="edge">
<title>n31:s&#45;&gt;n35:n</title>
<path fill="none" stroke="#000000" d="M530.898,-120C530.898,-51.495 384.6191,-149.0918 377.1908,-89.0216"/>
<polygon fill="#000000" stroke="#000000" points="378.9362,-88.8896 376.898,-84 375.4422,-89.0934 378.9362,-88.8896"/>
<text text-anchor="middle" x="398.5046" y="-90.8324" font-family="Helvetica,sans-Serif" font-size="14.00" fill="#000000">supervised&#45;model</text>
</g>
<!-- n39 -->
<!-- svm&#45;support&#45;vectors -->
<g id="n39" class="node">
<title>n39</title>
<path fill="none" stroke="#000000" d="M470.898,-60C470.898,-60 590.898,-60 590.898,-60 594.898,-60 598.898,-64 598.898,-68 598.898,-68 598.898,-76 598.898,-76 598.898,-80 594.898,-84 590.898,-84 590.898,-84 470.898,-84 470.898,-84 466.898,-84 462.898,-80 462.898,-76 462.898,-76 462.898,-68 462.898,-68 462.898,-64 466.898,-60 470.898,-60"/>
<text text-anchor="start" x="467.4947" y="-67.8" font-family="Helvetica,sans-Serif" font-size="14.00" fill="#000000">svm&#45;support&#45;vectors</text>
</g>
<!-- n31&#45;&gt;n39 -->
<!-- supervised&#45;model -->
<g id="e27" class="edge">
<title>n31:s&#45;&gt;n39:n</title>
<path fill="none" stroke="#000000" d="M530.898,-120C530.898,-105.875 530.898,-101.1023 530.898,-89.1692"/>
<polygon fill="#000000" stroke="#000000" points="532.6481,-89 530.898,-84 529.1481,-89 532.6481,-89"/>
<text text-anchor="middle" x="475.65" y="-104.9025" font-family="Helvetica,sans-Serif" font-size="14.00" fill="#000000">supervised&#45;model</text>
</g>
<!-- n32 -->
<!-- svm&#45;classification -->
<g id="n32" class="node">
<title>n32</title>
<path fill="none" stroke="#000000" d="M884.898,-180C884.898,-180 987.898,-180 987.898,-180 991.898,-180 995.898,-184 995.898,-188 995.898,-188 995.898,-196 995.898,-196 995.898,-200 991.898,-204 987.898,-204 987.898,-204 884.898,-204 884.898,-204 880.898,-204 876.898,-200 876.898,-196 876.898,-196 876.898,-188 876.898,-188 876.898,-184 880.898,-180 884.898,-180"/>
<text text-anchor="start" x="881.5533" y="-187.8" font-family="Helvetica,sans-Serif" font-size="14.00" fill="#000000">svm&#45;classification</text>
</g>
<!-- n32&#45;&gt;n33 -->
<!-- svm&#45;classification -->
<g id="e28" class="edge">
<title>n32:s&#45;&gt;n33:n</title>
<path fill="none" stroke="#000000" d="M936.898,-180C936.898,-154.5424 980.114,-168.9722 986.1912,-149.1237"/>
<polygon fill="#000000" stroke="#000000" points="987.9483,-149.1923 986.898,-144 984.4811,-148.7139 987.9483,-149.1923"/>
<text text-anchor="middle" x="907.1403" y="-164.785" font-family="Helvetica,sans-Serif" font-size="14.00" fill="#000000">svm&#45;classification</text>
</g>
<!-- n33&#45;&gt;n17 -->
<!-- supervised&#45;model -->
<g id="e29" class="edge">
<title>n33:s&#45;&gt;n17:n</title>
<path fill="none" stroke="#000000" d="M1018.898,-120C1018.898,-35.8996 836.9744,-164.2101 829.1574,-89.2368"/>
<polygon fill="#000000" stroke="#000000" points="830.8933,-88.9073 828.898,-84 827.3976,-89.0805 830.8933,-88.9073"/>
<text text-anchor="middle" x="978.9395" y="-90.8543" font-family="Helvetica,sans-Serif" font-size="14.00" fill="#000000">supervised&#45;model</text>
</g>
<!-- n38 -->
<!-- svm&#45;support&#45;vectors -->
<g id="n38" class="node">
<title>n38</title>
<path fill="none" stroke="#000000" d="M1112.898,-60C1112.898,-60 1232.898,-60 1232.898,-60 1236.898,-60 1240.898,-64 1240.898,-68 1240.898,-68 1240.898,-76 1240.898,-76 1240.898,-80 1236.898,-84 1232.898,-84 1232.898,-84 1112.898,-84 1112.898,-84 1108.898,-84 1104.898,-80 1104.898,-76 1104.898,-76 1104.898,-68 1104.898,-68 1104.898,-64 1108.898,-60 1112.898,-60"/>
<text text-anchor="start" x="1109.4947" y="-67.8" font-family="Helvetica,sans-Serif" font-size="14.00" fill="#000000">svm&#45;support&#45;vectors</text>
</g>
<!-- n33&#45;&gt;n38 -->
<!-- supervised&#45;model -->
<g id="e30" class="edge">
<title>n33:s&#45;&gt;n38:n</title>
<path fill="none" stroke="#000000" d="M1018.898,-120C1018.898,-51.495 1165.177,-149.0918 1172.6052,-89.0216"/>
<polygon fill="#000000" stroke="#000000" points="1174.3539,-89.0934 1172.898,-84 1170.8599,-88.8896 1174.3539,-89.0934"/>
<text text-anchor="middle" x="1151.2915" y="-104.8324" font-family="Helvetica,sans-Serif" font-size="14.00" fill="#000000">supervised&#45;model</text>
</g>
<!-- n43 -->
<!-- svm&#45;support&#45;vectors -->
<g id="n43" class="node">
<title>n43</title>
<path fill="none" stroke="#000000" d="M958.898,-60C958.898,-60 1078.898,-60 1078.898,-60 1082.898,-60 1086.898,-64 1086.898,-68 1086.898,-68 1086.898,-76 1086.898,-76 1086.898,-80 1082.898,-84 1078.898,-84 1078.898,-84 958.898,-84 958.898,-84 954.898,-84 950.898,-80 950.898,-76 950.898,-76 950.898,-68 950.898,-68 950.898,-64 954.898,-60 958.898,-60"/>
<text text-anchor="start" x="955.4947" y="-67.8" font-family="Helvetica,sans-Serif" font-size="14.00" fill="#000000">svm&#45;support&#45;vectors</text>
</g>
<!-- n33&#45;&gt;n43 -->
<!-- supervised&#45;model -->
<g id="e31" class="edge">
<title>n33:s&#45;&gt;n43:n</title>
<path fill="none" stroke="#000000" d="M1018.898,-120C1018.898,-105.875 1018.898,-101.1023 1018.898,-89.1692"/>
<polygon fill="#000000" stroke="#000000" points="1020.6481,-89 1018.898,-84 1017.1481,-89 1020.6481,-89"/>
<text text-anchor="middle" x="963.65" y="-104.9025" font-family="Helvetica,sans-Serif" font-size="14.00" fill="#000000">supervised&#45;model</text>
</g>
<!-- n34&#45;&gt;n13 -->
<!-- vector -->
<g id="e32" class="edge">
<title>n34:s&#45;&gt;n13:n</title>
<path fill="none" stroke="#000000" d="M1532.898,-60C1532.898,3.2002 1399.0965,-83.724 1391.2565,-29.3201"/>
<polygon fill="#000000" stroke="#000000" points="1392.9803,-28.871 1390.898,-24 1389.4883,-29.1064 1392.9803,-28.871"/>
<text text-anchor="middle" x="1443.1294" y="-44.7399" font-family="Helvetica,sans-Serif" font-size="14.00" fill="#000000">vector</text>
</g>
<!-- n48 -->
<!-- ? -->
<g id="n48" class="node">
<title>n48</title>
<path fill="none" stroke="#000000" d="M437.898,0C437.898,0 469.898,0 469.898,0 473.898,0 477.898,-4 477.898,-8 477.898,-8 477.898,-16 477.898,-16 477.898,-20 473.898,-24 469.898,-24 469.898,-24 437.898,-24 437.898,-24 433.898,-24 429.898,-20 429.898,-16 429.898,-16 429.898,-8 429.898,-8 429.898,-4 433.898,0 437.898,0"/>
<text text-anchor="start" x="450.005" y="-7.8" font-family="Helvetica,sans-Serif" font-size="14.00" fill="#000000">?</text>
</g>
<!-- n35&#45;&gt;n48 -->
<!-- array -->
<g id="e33" class="edge">
<title>n35:s&#45;&gt;n48:n</title>
<path fill="none" stroke="#000000" d="M376.898,-60C376.898,-28.9112 434.504,-53.7191 441.2547,-29.1807"/>
<polygon fill="#000000" stroke="#000000" points="443.0185,-29.1776 441.898,-24 439.5451,-28.7462 443.0185,-29.1776"/>
<text text-anchor="middle" x="393.4617" y="-44.7995" font-family="Helvetica,sans-Serif" font-size="14.00" fill="#000000">array</text>
</g>
<!-- n36 -->
<!-- ? -->
<g id="n36" class="node">
<title>n36</title>
<path fill="none" stroke="#000000" d="M1815.898,-180C1815.898,-180 1823.898,-180 1823.898,-180 1827.898,-180 1831.898,-184 1831.898,-188 1831.898,-188 1831.898,-196 1831.898,-196 1831.898,-200 1827.898,-204 1823.898,-204 1823.898,-204 1815.898,-204 1815.898,-204 1811.898,-204 1807.898,-200 1807.898,-196 1807.898,-196 1807.898,-188 1807.898,-188 1807.898,-184 1811.898,-180 1815.898,-180"/>
<text text-anchor="start" x="1816.005" y="-187.8" font-family="Helvetica,sans-Serif" font-size="14.00" fill="#000000">?</text>
</g>
<!-- n37 -->
<!-- ? -->
<g id="n37" class="node">
<title>n37</title>
<path fill="none" stroke="#000000" d="M1857.898,-180C1857.898,-180 1865.898,-180 1865.898,-180 1869.898,-180 1873.898,-184 1873.898,-188 1873.898,-188 1873.898,-196 1873.898,-196 1873.898,-200 1869.898,-204 1865.898,-204 1865.898,-204 1857.898,-204 1857.898,-204 1853.898,-204 1849.898,-200 1849.898,-196 1849.898,-196 1849.898,-188 1849.898,-188 1849.898,-184 1853.898,-180 1857.898,-180"/>
<text text-anchor="start" x="1858.005" y="-187.8" font-family="Helvetica,sans-Serif" font-size="14.00" fill="#000000">?</text>
</g>
<!-- n38&#45;&gt;n25 -->
<!-- array -->
<g id="e34" class="edge">
<title>n38:s&#45;&gt;n25:n</title>
<path fill="none" stroke="#000000" d="M1172.898,-60C1172.898,-28.9112 1115.2921,-53.7191 1108.5414,-29.1807"/>
<polygon fill="#000000" stroke="#000000" points="1110.2509,-28.7462 1107.898,-24 1106.7776,-29.1776 1110.2509,-28.7462"/>
<text text-anchor="middle" x="1124.4379" y="-44.7995" font-family="Helvetica,sans-Serif" font-size="14.00" fill="#000000">array</text>
</g>
<!-- n39&#45;&gt;n48 -->
<!-- array -->
<g id="e35" class="edge">
<title>n39:s&#45;&gt;n48:n</title>
<path fill="none" stroke="#000000" d="M530.898,-60C530.898,-28.9112 473.2921,-53.7191 466.5414,-29.1807"/>
<polygon fill="#000000" stroke="#000000" points="468.2509,-28.7462 465.898,-24 464.7776,-29.1776 468.2509,-28.7462"/>
<text text-anchor="middle" x="482.4379" y="-44.7995" font-family="Helvetica,sans-Serif" font-size="14.00" fill="#000000">array</text>
</g>
<!-- n40 -->
<!-- ? -->
<g id="n40" class="node">
<title>n40</title>
<path fill="none" stroke="#000000" d="M1899.898,-180C1899.898,-180 1907.898,-180 1907.898,-180 1911.898,-180 1915.898,-184 1915.898,-188 1915.898,-188 1915.898,-196 1915.898,-196 1915.898,-200 1911.898,-204 1907.898,-204 1907.898,-204 1899.898,-204 1899.898,-204 1895.898,-204 1891.898,-200 1891.898,-196 1891.898,-196 1891.898,-188 1891.898,-188 1891.898,-184 1895.898,-180 1899.898,-180"/>
<text text-anchor="start" x="1900.005" y="-187.8" font-family="Helvetica,sans-Serif" font-size="14.00" fill="#000000">?</text>
</g>
<!-- n41 -->
<!-- ? -->
<g id="n41" class="node">
<title>n41</title>
<path fill="none" stroke="#000000" d="M1941.898,-180C1941.898,-180 1949.898,-180 1949.898,-180 1953.898,-180 1957.898,-184 1957.898,-188 1957.898,-188 1957.898,-196 1957.898,-196 1957.898,-200 1953.898,-204 1949.898,-204 1949.898,-204 1941.898,-204 1941.898,-204 1937.898,-204 1933.898,-200 1933.898,-196 1933.898,-196 1933.898,-188 1933.898,-188 1933.898,-184 1937.898,-180 1941.898,-180"/>
<text text-anchor="start" x="1942.005" y="-187.8" font-family="Helvetica,sans-Serif" font-size="14.00" fill="#000000">?</text>
</g>
<!-- n42 -->
<!-- ? -->
<g id="n42" class="node">
<title>n42</title>
<path fill="none" stroke="#000000" d="M1983.898,-180C1983.898,-180 1991.898,-180 1991.898,-180 1995.898,-180 1999.898,-184 1999.898,-188 1999.898,-188 1999.898,-196 1999.898,-196 1999.898,-200 1995.898,-204 1991.898,-204 1991.898,-204 1983.898,-204 1983.898,-204 1979.898,-204 1975.898,-200 1975.898,-196 1975.898,-196 1975.898,-188 1975.898,-188 1975.898,-184 1979.898,-180 1983.898,-180"/>
<text text-anchor="start" x="1984.005" y="-187.8" font-family="Helvetica,sans-Serif" font-size="14.00" fill="#000000">?</text>
</g>
<!-- n43&#45;&gt;n25 -->
<!-- array -->
<g id="e36" class="edge">
<title>n43:s&#45;&gt;n25:n</title>
<path fill="none" stroke="#000000" d="M1018.898,-60C1018.898,-28.9112 1076.504,-53.7191 1083.2547,-29.1807"/>
<polygon fill="#000000" stroke="#000000" points="1085.0185,-29.1776 1083.898,-24 1081.5451,-28.7462 1085.0185,-29.1776"/>
<text text-anchor="middle" x="1035.4617" y="-44.7995" font-family="Helvetica,sans-Serif" font-size="14.00" fill="#000000">array</text>
</g>
<!-- n44 -->
<!-- svm&#45;classification -->
<g id="n44" class="node">
<title>n44</title>
<path fill="none" stroke="#000000" d="M1300.898,-180C1300.898,-180 1403.898,-180 1403.898,-180 1407.898,-180 1411.898,-184 1411.898,-188 1411.898,-188 1411.898,-196 1411.898,-196 1411.898,-200 1407.898,-204 1403.898,-204 1403.898,-204 1300.898,-204 1300.898,-204 1296.898,-204 1292.898,-200 1292.898,-196 1292.898,-196 1292.898,-188 1292.898,-188 1292.898,-184 1296.898,-180 1300.898,-180"/>
<text text-anchor="start" x="1297.5533" y="-187.8" font-family="Helvetica,sans-Serif" font-size="14.00" fill="#000000">svm&#45;classification</text>
</g>
<!-- n44&#45;&gt;n45 -->
<!-- svm&#45;classification -->
<g id="e37" class="edge">
<title>n44:s&#45;&gt;n45:n</title>
<path fill="none" stroke="#000000" d="M1352.898,-180C1352.898,-165.875 1352.898,-161.1023 1352.898,-149.1692"/>
<polygon fill="#000000" stroke="#000000" points="1354.6481,-149 1352.898,-144 1351.1481,-149 1354.6481,-149"/>
<text text-anchor="middle" x="1298.0533" y="-164.9025" font-family="Helvetica,sans-Serif" font-size="14.00" fill="#000000">svm&#45;classification</text>
</g>
<!-- n45&#45;&gt;n29 -->
<!-- supervised&#45;model -->
<g id="e38" class="edge">
<title>n45:s&#45;&gt;n29:n</title>
<path fill="none" stroke="#000000" d="M1384.898,-120C1384.898,-104.406 1372.2066,-101.9216 1369.4304,-89.1953"/>
<polygon fill="#000000" stroke="#000000" points="1371.1487,-88.7955 1368.898,-84 1367.6669,-89.1524 1371.1487,-88.7955"/>
<text text-anchor="middle" x="1321.6266" y="-90.7729" font-family="Helvetica,sans-Serif" font-size="14.00" fill="#000000">supervised&#45;model</text>
</g>
<!-- n49 -->
<!-- svm&#45;support&#45;vectors -->
<g id="n49" class="node">
<title>n49</title>
<path fill="none" stroke="#000000" d="M1600.898,-60C1600.898,-60 1720.898,-60 1720.898,-60 1724.898,-60 1728.898,-64 1728.898,-68 1728.898,-68 1728.898,-76 1728.898,-76 1728.898,-80 1724.898,-84 1720.898,-84 1720.898,-84 1600.898,-84 1600.898,-84 1596.898,-84 1592.898,-80 1592.898,-76 1592.898,-76 1592.898,-68 1592.898,-68 1592.898,-64 1596.898,-60 1600.898,-60"/>
<text text-anchor="start" x="1597.4947" y="-67.8" font-family="Helvetica,sans-Serif" font-size="14.00" fill="#000000">svm&#45;support&#45;vectors</text>
</g>
<!-- n45&#45;&gt;n49 -->
<!-- supervised&#45;model -->
<g id="e39" class="edge">
<title>n45:s&#45;&gt;n49:n</title>
<path fill="none" stroke="#000000" d="M1384.898,-120C1384.898,-59.9592 1644.9631,-140.8422 1660.2012,-89.0587"/>
<polygon fill="#000000" stroke="#000000" points="1661.9493,-89.1921 1660.898,-84 1658.4821,-88.7144 1661.9493,-89.1921"/>
<text text-anchor="middle" x="1467.4723" y="-104.7834" font-family="Helvetica,sans-Serif" font-size="14.00" fill="#000000">supervised&#45;model</text>
</g>
<!-- n53 -->
<!-- svm&#45;support&#45;vectors -->
<g id="n53" class="node">
<title>n53</title>
<path fill="none" stroke="#000000" d="M1754.898,-60C1754.898,-60 1874.898,-60 1874.898,-60 1878.898,-60 1882.898,-64 1882.898,-68 1882.898,-68 1882.898,-76 1882.898,-76 1882.898,-80 1878.898,-84 1874.898,-84 1874.898,-84 1754.898,-84 1754.898,-84 1750.898,-84 1746.898,-80 1746.898,-76 1746.898,-76 1746.898,-68 1746.898,-68 1746.898,-64 1750.898,-60 1754.898,-60"/>
<text text-anchor="start" x="1751.4947" y="-67.8" font-family="Helvetica,sans-Serif" font-size="14.00" fill="#000000">svm&#45;support&#45;vectors</text>
</g>
<!-- n45&#45;&gt;n53 -->
<!-- supervised&#45;model -->
<g id="e40" class="edge">
<title>n45:s&#45;&gt;n53:n</title>
<path fill="none" stroke="#000000" d="M1384.898,-120C1384.898,-25.8894 1799.0891,-174.1956 1814.4594,-89.0809"/>
<polygon fill="#000000" stroke="#000000" points="1816.2114,-89.132 1814.898,-84 1812.7244,-88.8309 1816.2114,-89.132"/>
<text text-anchor="middle" x="1655.3442" y="-104.8276" font-family="Helvetica,sans-Serif" font-size="14.00" fill="#000000">supervised&#45;model</text>
</g>
<!-- n46 -->
<!-- ? -->
<g id="n46" class="node">
<title>n46</title>
<path fill="none" stroke="#000000" d="M2025.898,-180C2025.898,-180 2033.898,-180 2033.898,-180 2037.898,-180 2041.898,-184 2041.898,-188 2041.898,-188 2041.898,-196 2041.898,-196 2041.898,-200 2037.898,-204 2033.898,-204 2033.898,-204 2025.898,-204 2025.898,-204 2021.898,-204 2017.898,-200 2017.898,-196 2017.898,-196 2017.898,-188 2017.898,-188 2017.898,-184 2021.898,-180 2025.898,-180"/>
<text text-anchor="start" x="2026.005" y="-187.8" font-family="Helvetica,sans-Serif" font-size="14.00" fill="#000000">?</text>
</g>
<!-- n47 -->
<!-- ? -->
<g id="n47" class="node">
<title>n47</title>
<path fill="none" stroke="#000000" d="M2067.898,-180C2067.898,-180 2075.898,-180 2075.898,-180 2079.898,-180 2083.898,-184 2083.898,-188 2083.898,-188 2083.898,-196 2083.898,-196 2083.898,-200 2079.898,-204 2075.898,-204 2075.898,-204 2067.898,-204 2067.898,-204 2063.898,-204 2059.898,-200 2059.898,-196 2059.898,-196 2059.898,-188 2059.898,-188 2059.898,-184 2063.898,-180 2067.898,-180"/>
<text text-anchor="start" x="2068.005" y="-187.8" font-family="Helvetica,sans-Serif" font-size="14.00" fill="#000000">?</text>
</g>
<!-- n49&#45;&gt;n24 -->
<!-- array -->
<g id="e41" class="edge">
<title>n49:s&#45;&gt;n24:n</title>
<path fill="none" stroke="#000000" d="M1660.898,-60C1660.898,-28.9112 1718.504,-53.7191 1725.2547,-29.1807"/>
<polygon fill="#000000" stroke="#000000" points="1727.0185,-29.1776 1725.898,-24 1723.5451,-28.7462 1727.0185,-29.1776"/>
<text text-anchor="middle" x="1677.4617" y="-44.7995" font-family="Helvetica,sans-Serif" font-size="14.00" fill="#000000">array</text>
</g>
<!-- n50 -->
<!-- ? -->
<g id="n50" class="node">
<title>n50</title>
<path fill="none" stroke="#000000" d="M2109.898,-180C2109.898,-180 2117.898,-180 2117.898,-180 2121.898,-180 2125.898,-184 2125.898,-188 2125.898,-188 2125.898,-196 2125.898,-196 2125.898,-200 2121.898,-204 2117.898,-204 2117.898,-204 2109.898,-204 2109.898,-204 2105.898,-204 2101.898,-200 2101.898,-196 2101.898,-196 2101.898,-188 2101.898,-188 2101.898,-184 2105.898,-180 2109.898,-180"/>
<text text-anchor="start" x="2110.005" y="-187.8" font-family="Helvetica,sans-Serif" font-size="14.00" fill="#000000">?</text>
</g>
<!-- n52 -->
<!-- ? -->
<g id="n52" class="node">
<title>n52</title>
<path fill="none" stroke="#000000" d="M2151.898,-180C2151.898,-180 2159.898,-180 2159.898,-180 2163.898,-180 2167.898,-184 2167.898,-188 2167.898,-188 2167.898,-196 2167.898,-196 2167.898,-200 2163.898,-204 2159.898,-204 2159.898,-204 2151.898,-204 2151.898,-204 2147.898,-204 2143.898,-200 2143.898,-196 2143.898,-196 2143.898,-188 2143.898,-188 2143.898,-184 2147.898,-180 2151.898,-180"/>
<text text-anchor="start" x="2152.005" y="-187.8" font-family="Helvetica,sans-Serif" font-size="14.00" fill="#000000">?</text>
</g>
<!-- n53&#45;&gt;n24 -->
<!-- array -->
<g id="e42" class="edge">
<title>n53:s&#45;&gt;n24:n</title>
<path fill="none" stroke="#000000" d="M1814.898,-60C1814.898,-28.9112 1757.2921,-53.7191 1750.5414,-29.1807"/>
<polygon fill="#000000" stroke="#000000" points="1752.2509,-28.7462 1749.898,-24 1748.7776,-29.1776 1752.2509,-28.7462"/>
<text text-anchor="middle" x="1766.4379" y="-44.7995" font-family="Helvetica,sans-Serif" font-size="14.00" fill="#000000">array</text>
</g>
<!-- n54 -->
<!-- ? -->
<g id="n54" class="node">
<title>n54</title>
<path fill="none" stroke="#000000" d="M2193.898,-180C2193.898,-180 2201.898,-180 2201.898,-180 2205.898,-180 2209.898,-184 2209.898,-188 2209.898,-188 2209.898,-196 2209.898,-196 2209.898,-200 2205.898,-204 2201.898,-204 2201.898,-204 2193.898,-204 2193.898,-204 2189.898,-204 2185.898,-200 2185.898,-196 2185.898,-196 2185.898,-188 2185.898,-188 2185.898,-184 2189.898,-180 2193.898,-180"/>
<text text-anchor="start" x="2194.005" y="-187.8" font-family="Helvetica,sans-Serif" font-size="14.00" fill="#000000">?</text>
</g>
</g>
</svg>
