<?xml version="1.0" encoding="UTF-8" standalone="no"?>
<!DOCTYPE svg PUBLIC "-//W3C//DTD SVG 1.1//EN"
 "http://www.w3.org/Graphics/SVG/1.1/DTD/svg11.dtd">
<!-- Generated by graphviz version 2.40.1 (20161225.0304)
 -->
<!-- Title: semantic_flow_graph Pages: 1 -->
<svg width="942pt" height="212pt"
 viewBox="0.00 0.00 942.42 212.00" xmlns="http://www.w3.org/2000/svg" xmlns:xlink="http://www.w3.org/1999/xlink">
<g id="graph0" class="graph" transform="scale(1 1) rotate(0) translate(4 208)">
<title>semantic_flow_graph</title>
<polygon fill="#ffffff" stroke="transparent" points="-4,4 -4,-208 938.4228,-208 938.4228,4 -4,4"/>
<!-- n3 -->
<!-- predict -->
<g id="n3" class="node">
<title>n3</title>
<path fill="none" stroke="#000000" d="M211.4228,-60C211.4228,-60 247.4228,-60 247.4228,-60 251.4228,-60 255.4228,-64 255.4228,-68 255.4228,-68 255.4228,-76 255.4228,-76 255.4228,-80 251.4228,-84 247.4228,-84 247.4228,-84 211.4228,-84 211.4228,-84 207.4228,-84 203.4228,-80 203.4228,-76 203.4228,-76 203.4228,-68 203.4228,-68 203.4228,-64 207.4228,-60 211.4228,-60"/>
<text text-anchor="start" x="208.4125" y="-67.8" font-family="Helvetica,sans-Serif" font-size="14.00" fill="#000000">predict</text>
</g>
<!-- n14 -->
<!-- ? -->
<g id="n14" class="node">
<title>n14</title>
<path fill="none" stroke="#000000" d="M169.4228,0C169.4228,0 201.4228,0 201.4228,0 205.4228,0 209.4228,-4 209.4228,-8 209.4228,-8 209.4228,-16 209.4228,-16 209.4228,-20 205.4228,-24 201.4228,-24 201.4228,-24 169.4228,-24 169.4228,-24 165.4228,-24 161.4228,-20 161.4228,-16 161.4228,-16 161.4228,-8 161.4228,-8 161.4228,-4 165.4228,0 169.4228,0"/>
<text text-anchor="start" x="181.5297" y="-7.8" font-family="Helvetica,sans-Serif" font-size="14.00" fill="#000000">?</text>
</g>
<!-- n3&#45;&gt;n14 -->
<!-- data -->
<g id="e1" class="edge">
<title>n3:s&#45;&gt;n14:n</title>
<path fill="none" stroke="#000000" d="M229.4228,-60C229.4228,-40.5997 203.1415,-44.3776 198.2138,-29.3232"/>
<polygon fill="#000000" stroke="#000000" points="199.8888,-28.6884 197.4228,-24 196.4268,-29.2029 199.8888,-28.6884"/>
<text text-anchor="middle" x="200.0097" y="-44.8962" font-family="Helvetica,sans-Serif" font-size="14.00" fill="#000000">data</text>
</g>
<!-- n4 -->
<!-- fit&#45;supervised -->
<g id="n4" class="node">
<title>n4</title>
<path fill="none" stroke="#000000" d="M365.4228,-120C365.4228,-120 442.4228,-120 442.4228,-120 446.4228,-120 450.4228,-124 450.4228,-128 450.4228,-128 450.4228,-136 450.4228,-136 450.4228,-140 446.4228,-144 442.4228,-144 442.4228,-144 365.4228,-144 365.4228,-144 361.4228,-144 357.4228,-140 357.4228,-136 357.4228,-136 357.4228,-128 357.4228,-128 357.4228,-124 361.4228,-120 365.4228,-120"/>
<text text-anchor="start" x="362.2953" y="-127.8" font-family="Helvetica,sans-Serif" font-size="14.00" fill="#000000">fit&#45;supervised</text>
</g>
<!-- n5 -->
<!-- predict -->
<g id="n5" class="node">
<title>n5</title>
<path fill="none" stroke="#000000" d="M399.4228,-60C399.4228,-60 435.4228,-60 435.4228,-60 439.4228,-60 443.4228,-64 443.4228,-68 443.4228,-68 443.4228,-76 443.4228,-76 443.4228,-80 439.4228,-84 435.4228,-84 435.4228,-84 399.4228,-84 399.4228,-84 395.4228,-84 391.4228,-80 391.4228,-76 391.4228,-76 391.4228,-68 391.4228,-68 391.4228,-64 395.4228,-60 399.4228,-60"/>
<text text-anchor="start" x="396.4125" y="-67.8" font-family="Helvetica,sans-Serif" font-size="14.00" fill="#000000">predict</text>
</g>
<!-- n4&#45;&gt;n5 -->
<!-- supervised&#45;model -->
<g id="e2" class="edge">
<title>n4:s&#45;&gt;n5:n</title>
<path fill="none" stroke="#000000" d="M404.4228,-120C404.4228,-105.875 404.4228,-101.1023 404.4228,-89.1692"/>
<polygon fill="#000000" stroke="#000000" points="406.1729,-89 404.4228,-84 402.6729,-89 406.1729,-89"/>
<text text-anchor="middle" x="349.1747" y="-104.9025" font-family="Helvetica,sans-Serif" font-size="14.00" fill="#000000">supervised&#45;model</text>
</g>
<!-- n13 -->
<!-- ? -->
<g id="n13" class="node">
<title>n13</title>
<path fill="none" stroke="#000000" d="M356.4228,0C356.4228,0 388.4228,0 388.4228,0 392.4228,0 396.4228,-4 396.4228,-8 396.4228,-8 396.4228,-16 396.4228,-16 396.4228,-20 392.4228,-24 388.4228,-24 388.4228,-24 356.4228,-24 356.4228,-24 352.4228,-24 348.4228,-20 348.4228,-16 348.4228,-16 348.4228,-8 348.4228,-8 348.4228,-4 352.4228,0 356.4228,0"/>
<text text-anchor="start" x="368.5297" y="-7.8" font-family="Helvetica,sans-Serif" font-size="14.00" fill="#000000">?</text>
</g>
<!-- n5&#45;&gt;n13 -->
<!-- data -->
<g id="e3" class="edge">
<title>n5:s&#45;&gt;n13:n</title>
<path fill="none" stroke="#000000" d="M417.4228,-60C417.4228,-40.1602 389.851,-44.6465 385.112,-28.9877"/>
<polygon fill="#000000" stroke="#000000" points="386.8408,-28.7133 384.4228,-24 383.3738,-29.1925 386.8408,-28.7133"/>
<text text-anchor="middle" x="387.3048" y="-44.8026" font-family="Helvetica,sans-Serif" font-size="14.00" fill="#000000">data</text>
</g>
<!-- n6 -->
<!-- ? -->
<g id="n6" class="node">
<title>n6</title>
<path fill="none" stroke="#000000" d="M431.4228,-180C431.4228,-180 463.4228,-180 463.4228,-180 467.4228,-180 471.4228,-184 471.4228,-188 471.4228,-188 471.4228,-196 471.4228,-196 471.4228,-200 467.4228,-204 463.4228,-204 463.4228,-204 431.4228,-204 431.4228,-204 427.4228,-204 423.4228,-200 423.4228,-196 423.4228,-196 423.4228,-188 423.4228,-188 423.4228,-184 427.4228,-180 431.4228,-180"/>
<text text-anchor="start" x="443.5297" y="-187.8" font-family="Helvetica,sans-Serif" font-size="14.00" fill="#000000">?</text>
</g>
<!-- n6&#45;&gt;n3 -->
<!-- array -->
<g id="e4" class="edge">
<title>n6:s&#45;&gt;n3:n</title>
<path fill="none" stroke="#000000" d="M435.4228,-180C435.4228,-123.8925 363.8764,-170.5026 314.4228,-144 297.4996,-134.9307 250.5891,-109.2919 243.3626,-89.0238"/>
<polygon fill="#000000" stroke="#000000" points="245.0624,-88.5929 242.4228,-84 241.6221,-89.2366 245.0624,-88.5929"/>
<text text-anchor="middle" x="298.4621" y="-132.7934" font-family="Helvetica,sans-Serif" font-size="14.00" fill="#000000">array</text>
</g>
<!-- n6&#45;&gt;n4 -->
<!-- array -->
<g id="e5" class="edge">
<title>n6:s&#45;&gt;n4:n</title>
<path fill="none" stroke="#000000" d="M435.4228,-180C435.4228,-160.8649 409.9628,-164.187 405.1891,-149.2626"/>
<polygon fill="#000000" stroke="#000000" points="406.8751,-148.6956 404.4228,-144 403.4116,-149.2 406.8751,-148.6956"/>
<text text-anchor="middle" x="404.1789" y="-164.8981" font-family="Helvetica,sans-Serif" font-size="14.00" fill="#000000">array</text>
</g>
<!-- n6&#45;&gt;n4 -->
<!-- array -->
<g id="e6" class="edge">
<title>n6:s&#45;&gt;n4:n</title>
<path fill="none" stroke="#000000" d="M459.4228,-180C459.4228,-162.7234 440.0502,-162.9538 436.1152,-149.2333"/>
<polygon fill="#000000" stroke="#000000" points="437.8136,-148.7272 435.4228,-144 434.3438,-149.1864 437.8136,-148.7272"/>
<text text-anchor="middle" x="463.683" y="-165.0181" font-family="Helvetica,sans-Serif" font-size="14.00" fill="#000000">array</text>
</g>
<!-- n6&#45;&gt;n5 -->
<!-- array -->
<g id="e7" class="edge">
<title>n6:s&#45;&gt;n5:n</title>
<path fill="none" stroke="#000000" d="M435.4228,-180C435.4228,-160.7704 453.8504,-162.4045 459.4228,-144 462.5138,-133.791 462.9705,-130.0594 459.4228,-120 453.2299,-102.4406 434.4442,-104.0151 430.9764,-89.1727"/>
<polygon fill="#000000" stroke="#000000" points="432.695,-88.7854 430.4228,-84 429.2149,-89.1579 432.695,-88.7854"/>
<text text-anchor="middle" x="443.4564" y="-108.7486" font-family="Helvetica,sans-Serif" font-size="14.00" fill="#000000">array</text>
</g>
<!-- n11 -->
<!-- ? -->
<g id="n11" class="node">
<title>n11</title>
<path fill="none" stroke="#000000" d="M527.4228,0C527.4228,0 559.4228,0 559.4228,0 563.4228,0 567.4228,-4 567.4228,-8 567.4228,-8 567.4228,-16 567.4228,-16 567.4228,-20 563.4228,-24 559.4228,-24 559.4228,-24 527.4228,-24 527.4228,-24 523.4228,-24 519.4228,-20 519.4228,-16 519.4228,-16 519.4228,-8 519.4228,-8 519.4228,-4 523.4228,0 527.4228,0"/>
<text text-anchor="start" x="539.5297" y="-7.8" font-family="Helvetica,sans-Serif" font-size="14.00" fill="#000000">?</text>
</g>
<!-- n6&#45;&gt;n11 -->
<!-- array -->
<g id="e8" class="edge">
<title>n6:s&#45;&gt;n11:n</title>
<path fill="none" stroke="#000000" d="M435.4228,-180C435.4228,-156.4109 460.4414,-162.9991 474.4228,-144 508.3933,-97.8378 530.1223,-83.8587 531.3664,-29.0739"/>
<polygon fill="#000000" stroke="#000000" points="533.117,-29.0192 531.4228,-24 529.6172,-28.9802 533.117,-29.0192"/>
<text text-anchor="middle" x="482.1664" y="-116.2631" font-family="Helvetica,sans-Serif" font-size="14.00" fill="#000000">array</text>
</g>
<!-- n6&#45;&gt;n13 -->
<!-- array -->
<g id="e9" class="edge">
<title>n6:s&#45;&gt;n13:n</title>
<path fill="none" stroke="#000000" d="M435.4228,-180C435.4228,-138.1537 371.6776,-178.7897 348.4228,-144 342.4951,-135.1321 347.76,-130.6461 348.4228,-120 350.9798,-78.9284 359.6334,-67.9261 360.3724,-29.3657"/>
<polygon fill="#000000" stroke="#000000" points="362.1257,-29.0162 360.4228,-24 358.6258,-28.9833 362.1257,-29.0162"/>
<text text-anchor="middle" x="335.3442" y="-82.5604" font-family="Helvetica,sans-Serif" font-size="14.00" fill="#000000">array</text>
</g>
<!-- n6&#45;&gt;n14 -->
<!-- array -->
<g id="e10" class="edge">
<title>n6:s&#45;&gt;n14:n</title>
<path fill="none" stroke="#000000" d="M435.4228,-180C435.4228,-118.3675 201.0769,-190.3229 160.4228,-144 153.3868,-135.9829 159.7055,-130.6425 160.4228,-120 163.1938,-78.8873 172.5677,-67.9751 173.3682,-29.3723"/>
<polygon fill="#000000" stroke="#000000" points="175.1218,-29.0176 173.4228,-24 171.622,-28.9819 175.1218,-29.0176"/>
<text text-anchor="middle" x="292.3611" y="-159.4044" font-family="Helvetica,sans-Serif" font-size="14.00" fill="#000000">array</text>
</g>
<!-- n19 -->
<!-- fit&#45;supervised -->
<g id="n19" class="node">
<title>n19</title>
<path fill="none" stroke="#000000" d="M591.4228,-120C591.4228,-120 668.4228,-120 668.4228,-120 672.4228,-120 676.4228,-124 676.4228,-128 676.4228,-128 676.4228,-136 676.4228,-136 676.4228,-140 672.4228,-144 668.4228,-144 668.4228,-144 591.4228,-144 591.4228,-144 587.4228,-144 583.4228,-140 583.4228,-136 583.4228,-136 583.4228,-128 583.4228,-128 583.4228,-124 587.4228,-120 591.4228,-120"/>
<text text-anchor="start" x="588.2953" y="-127.8" font-family="Helvetica,sans-Serif" font-size="14.00" fill="#000000">fit&#45;supervised</text>
</g>
<!-- n6&#45;&gt;n19 -->
<!-- array -->
<g id="e11" class="edge">
<title>n6:s&#45;&gt;n19:n</title>
<path fill="none" stroke="#000000" d="M435.4228,-180C435.4228,-93.7622 622.1339,-226.2097 630.1566,-149.3686"/>
<polygon fill="#000000" stroke="#000000" points="631.923,-149.0806 630.4228,-144 628.4273,-148.9072 631.923,-149.0806"/>
<text text-anchor="middle" x="516.6275" y="-164.7072" font-family="Helvetica,sans-Serif" font-size="14.00" fill="#000000">array</text>
</g>
<!-- n6&#45;&gt;n19 -->
<!-- array -->
<g id="e12" class="edge">
<title>n6:s&#45;&gt;n19:n</title>
<path fill="none" stroke="#000000" d="M459.4228,-180C459.4228,-90.5887 653.6092,-229.5648 661.1946,-149.075"/>
<polygon fill="#000000" stroke="#000000" points="662.9464,-149.0736 661.4228,-144 659.4499,-148.9163 662.9464,-149.0736"/>
<text text-anchor="middle" x="576.3132" y="-164.7842" font-family="Helvetica,sans-Serif" font-size="14.00" fill="#000000">array</text>
</g>
<!-- n20 -->
<!-- predict -->
<g id="n20" class="node">
<title>n20</title>
<path fill="none" stroke="#000000" d="M552.4228,-60C552.4228,-60 588.4228,-60 588.4228,-60 592.4228,-60 596.4228,-64 596.4228,-68 596.4228,-68 596.4228,-76 596.4228,-76 596.4228,-80 592.4228,-84 588.4228,-84 588.4228,-84 552.4228,-84 552.4228,-84 548.4228,-84 544.4228,-80 544.4228,-76 544.4228,-76 544.4228,-68 544.4228,-68 544.4228,-64 548.4228,-60 552.4228,-60"/>
<text text-anchor="start" x="549.4125" y="-67.8" font-family="Helvetica,sans-Serif" font-size="14.00" fill="#000000">predict</text>
</g>
<!-- n6&#45;&gt;n20 -->
<!-- array -->
<g id="e13" class="edge">
<title>n6:s&#45;&gt;n20:n</title>
<path fill="none" stroke="#000000" d="M435.4228,-180C435.4228,-134.8479 493.2785,-169.6714 530.4228,-144 558.2066,-124.7978 580.9984,-120.0475 583.2416,-89.1838"/>
<polygon fill="#000000" stroke="#000000" points="584.997,-89.0581 583.4228,-84 581.4991,-88.9358 584.997,-89.0581"/>
<text text-anchor="middle" x="514.4847" y="-146.793" font-family="Helvetica,sans-Serif" font-size="14.00" fill="#000000">array</text>
</g>
<!-- n21 -->
<!-- fit&#45;supervised -->
<g id="n21" class="node">
<title>n21</title>
<path fill="none" stroke="#000000" d="M177.4228,-120C177.4228,-120 254.4228,-120 254.4228,-120 258.4228,-120 262.4228,-124 262.4228,-128 262.4228,-128 262.4228,-136 262.4228,-136 262.4228,-140 258.4228,-144 254.4228,-144 254.4228,-144 177.4228,-144 177.4228,-144 173.4228,-144 169.4228,-140 169.4228,-136 169.4228,-136 169.4228,-128 169.4228,-128 169.4228,-124 173.4228,-120 177.4228,-120"/>
<text text-anchor="start" x="174.2953" y="-127.8" font-family="Helvetica,sans-Serif" font-size="14.00" fill="#000000">fit&#45;supervised</text>
</g>
<!-- n6&#45;&gt;n21 -->
<!-- array -->
<g id="e14" class="edge">
<title>n6:s&#45;&gt;n21:n</title>
<path fill="none" stroke="#000000" d="M435.4228,-180C435.4228,-83.1906 224.4743,-236.7441 216.6462,-149.2256"/>
<polygon fill="#000000" stroke="#000000" points="218.3848,-148.9207 216.4228,-144 214.888,-149.0702 218.3848,-148.9207"/>
<text text-anchor="middle" x="341.7702" y="-164.8289" font-family="Helvetica,sans-Serif" font-size="14.00" fill="#000000">array</text>
</g>
<!-- n6&#45;&gt;n21 -->
<!-- array -->
<g id="e15" class="edge">
<title>n6:s&#45;&gt;n21:n</title>
<path fill="none" stroke="#000000" d="M459.4228,-180C459.4228,-86.2022 255.217,-233.9001 247.639,-149.0641"/>
<polygon fill="#000000" stroke="#000000" points="249.3846,-148.9208 247.4228,-144 245.8878,-149.0701 249.3846,-148.9208"/>
<text text-anchor="middle" x="369.2734" y="-150.8274" font-family="Helvetica,sans-Serif" font-size="14.00" fill="#000000">array</text>
</g>
<!-- n7 -->
<!-- ? -->
<g id="n7" class="node">
<title>n7</title>
<path fill="none" stroke="#000000" d="M708.4228,-180C708.4228,-180 716.4228,-180 716.4228,-180 720.4228,-180 724.4228,-184 724.4228,-188 724.4228,-188 724.4228,-196 724.4228,-196 724.4228,-200 720.4228,-204 716.4228,-204 716.4228,-204 708.4228,-204 708.4228,-204 704.4228,-204 700.4228,-200 700.4228,-196 700.4228,-196 700.4228,-188 700.4228,-188 700.4228,-184 704.4228,-180 708.4228,-180"/>
<text text-anchor="start" x="708.5297" y="-187.8" font-family="Helvetica,sans-Serif" font-size="14.00" fill="#000000">?</text>
</g>
<!-- n8 -->
<!-- ? -->
<g id="n8" class="node">
<title>n8</title>
<path fill="none" stroke="#000000" d="M750.4228,-180C750.4228,-180 758.4228,-180 758.4228,-180 762.4228,-180 766.4228,-184 766.4228,-188 766.4228,-188 766.4228,-196 766.4228,-196 766.4228,-200 762.4228,-204 758.4228,-204 758.4228,-204 750.4228,-204 750.4228,-204 746.4228,-204 742.4228,-200 742.4228,-196 742.4228,-196 742.4228,-188 742.4228,-188 742.4228,-184 746.4228,-180 750.4228,-180"/>
<text text-anchor="start" x="750.5297" y="-187.8" font-family="Helvetica,sans-Serif" font-size="14.00" fill="#000000">?</text>
</g>
<!-- n9 -->
<!-- ? -->
<g id="n9" class="node">
<title>n9</title>
<path fill="none" stroke="#000000" d="M792.4228,-180C792.4228,-180 800.4228,-180 800.4228,-180 804.4228,-180 808.4228,-184 808.4228,-188 808.4228,-188 808.4228,-196 808.4228,-196 808.4228,-200 804.4228,-204 800.4228,-204 800.4228,-204 792.4228,-204 792.4228,-204 788.4228,-204 784.4228,-200 784.4228,-196 784.4228,-196 784.4228,-188 784.4228,-188 784.4228,-184 788.4228,-180 792.4228,-180"/>
<text text-anchor="start" x="792.5297" y="-187.8" font-family="Helvetica,sans-Serif" font-size="14.00" fill="#000000">?</text>
</g>
<!-- n10 -->
<!-- ? -->
<g id="n10" class="node">
<title>n10</title>
<path fill="none" stroke="#000000" d="M834.4228,-180C834.4228,-180 842.4228,-180 842.4228,-180 846.4228,-180 850.4228,-184 850.4228,-188 850.4228,-188 850.4228,-196 850.4228,-196 850.4228,-200 846.4228,-204 842.4228,-204 842.4228,-204 834.4228,-204 834.4228,-204 830.4228,-204 826.4228,-200 826.4228,-196 826.4228,-196 826.4228,-188 826.4228,-188 826.4228,-184 830.4228,-180 834.4228,-180"/>
<text text-anchor="start" x="834.5297" y="-187.8" font-family="Helvetica,sans-Serif" font-size="14.00" fill="#000000">?</text>
</g>
<!-- n12 -->
<!-- ? -->
<g id="n12" class="node">
<title>n12</title>
<path fill="none" stroke="#000000" d="M876.4228,-180C876.4228,-180 884.4228,-180 884.4228,-180 888.4228,-180 892.4228,-184 892.4228,-188 892.4228,-188 892.4228,-196 892.4228,-196 892.4228,-200 888.4228,-204 884.4228,-204 884.4228,-204 876.4228,-204 876.4228,-204 872.4228,-204 868.4228,-200 868.4228,-196 868.4228,-196 868.4228,-188 868.4228,-188 868.4228,-184 872.4228,-180 876.4228,-180"/>
<text text-anchor="start" x="876.5297" y="-187.8" font-family="Helvetica,sans-Serif" font-size="14.00" fill="#000000">?</text>
</g>
<!-- n15 -->
<!-- ? -->
<g id="n15" class="node">
<title>n15</title>
<path fill="none" stroke="#000000" d="M918.4228,-180C918.4228,-180 926.4228,-180 926.4228,-180 930.4228,-180 934.4228,-184 934.4228,-188 934.4228,-188 934.4228,-196 934.4228,-196 934.4228,-200 930.4228,-204 926.4228,-204 926.4228,-204 918.4228,-204 918.4228,-204 914.4228,-204 910.4228,-200 910.4228,-196 910.4228,-196 910.4228,-188 910.4228,-188 910.4228,-184 914.4228,-180 918.4228,-180"/>
<text text-anchor="start" x="918.5297" y="-187.8" font-family="Helvetica,sans-Serif" font-size="14.00" fill="#000000">?</text>
</g>
<!-- n16 -->
<!-- support&#45;vector&#45;regression -->
<g id="n16" class="node">
<title>n16</title>
<path fill="none" stroke="#000000" d="M521.4228,-180C521.4228,-180 674.4228,-180 674.4228,-180 678.4228,-180 682.4228,-184 682.4228,-188 682.4228,-188 682.4228,-196 682.4228,-196 682.4228,-200 678.4228,-204 674.4228,-204 674.4228,-204 521.4228,-204 521.4228,-204 517.4228,-204 513.4228,-200 513.4228,-196 513.4228,-196 513.4228,-188 513.4228,-188 513.4228,-184 517.4228,-180 521.4228,-180"/>
<text text-anchor="start" x="518.1679" y="-187.8" font-family="Helvetica,sans-Serif" font-size="14.00" fill="#000000">support&#45;vector&#45;regression</text>
</g>
<!-- n16&#45;&gt;n19 -->
<!-- support&#45;vector&#45;regression -->
<g id="e16" class="edge">
<title>n16:s&#45;&gt;n19:n</title>
<path fill="none" stroke="#000000" d="M598.4228,-180C598.4228,-165.875 598.4228,-161.1023 598.4228,-149.1692"/>
<polygon fill="#000000" stroke="#000000" points="600.1729,-149 598.4228,-144 596.6729,-149 600.1729,-149"/>
<text text-anchor="middle" x="678.1777" y="-164.9025" font-family="Helvetica,sans-Serif" font-size="14.00" fill="#000000">support&#45;vector&#45;regression</text>
</g>
<!-- n17 -->
<!-- support&#45;vector&#45;regression -->
<g id="n17" class="node">
<title>n17</title>
<path fill="none" stroke="#000000" d="M57.4228,-180C57.4228,-180 210.4228,-180 210.4228,-180 214.4228,-180 218.4228,-184 218.4228,-188 218.4228,-188 218.4228,-196 218.4228,-196 218.4228,-200 214.4228,-204 210.4228,-204 210.4228,-204 57.4228,-204 57.4228,-204 53.4228,-204 49.4228,-200 49.4228,-196 49.4228,-196 49.4228,-188 49.4228,-188 49.4228,-184 53.4228,-180 57.4228,-180"/>
<text text-anchor="start" x="54.1679" y="-187.8" font-family="Helvetica,sans-Serif" font-size="14.00" fill="#000000">support&#45;vector&#45;regression</text>
</g>
<!-- n17&#45;&gt;n21 -->
<!-- support&#45;vector&#45;regression -->
<g id="e17" class="edge">
<title>n17:s&#45;&gt;n21:n</title>
<path fill="none" stroke="#000000" d="M134.4228,-180C134.4228,-154.5424 177.6387,-168.9722 183.716,-149.1237"/>
<polygon fill="#000000" stroke="#000000" points="185.473,-149.1923 184.4228,-144 182.0058,-148.7139 185.473,-149.1923"/>
<text text-anchor="middle" x="79.7549" y="-164.785" font-family="Helvetica,sans-Serif" font-size="14.00" fill="#000000">support&#45;vector&#45;regression</text>
</g>
<!-- n18 -->
<!-- support&#45;vector&#45;regression -->
<g id="n18" class="node">
<title>n18</title>
<path fill="none" stroke="#000000" d="M244.4228,-180C244.4228,-180 397.4228,-180 397.4228,-180 401.4228,-180 405.4228,-184 405.4228,-188 405.4228,-188 405.4228,-196 405.4228,-196 405.4228,-200 401.4228,-204 397.4228,-204 397.4228,-204 244.4228,-204 244.4228,-204 240.4228,-204 236.4228,-200 236.4228,-196 236.4228,-196 236.4228,-188 236.4228,-188 236.4228,-184 240.4228,-180 244.4228,-180"/>
<text text-anchor="start" x="241.1679" y="-187.8" font-family="Helvetica,sans-Serif" font-size="14.00" fill="#000000">support&#45;vector&#45;regression</text>
</g>
<!-- n18&#45;&gt;n4 -->
<!-- support&#45;vector&#45;regression -->
<g id="e18" class="edge">
<title>n18:s&#45;&gt;n4:n</title>
<path fill="none" stroke="#000000" d="M321.4228,-180C321.4228,-154.2059 365.5031,-169.2376 371.7018,-149.1847"/>
<polygon fill="#000000" stroke="#000000" points="373.4674,-149.1934 372.4228,-144 370.0007,-148.7113 373.4674,-149.1934"/>
<text text-anchor="middle" x="267.2566" y="-150.7856" font-family="Helvetica,sans-Serif" font-size="14.00" fill="#000000">support&#45;vector&#45;regression</text>
</g>
<!-- n19&#45;&gt;n20 -->
<!-- supervised&#45;model -->
<g id="e19" class="edge">
<title>n19:s&#45;&gt;n20:n</title>
<path fill="none" stroke="#000000" d="M630.4228,-120C630.4228,-85.8032 565.1888,-116.4162 558.0539,-89.308"/>
<polygon fill="#000000" stroke="#000000" points="559.7509,-88.7584 557.4228,-84 556.2754,-89.1717 559.7509,-88.7584"/>
<text text-anchor="middle" x="538.8385" y="-90.7996" font-family="Helvetica,sans-Serif" font-size="14.00" fill="#000000">supervised&#45;model</text>
</g>
<!-- n20&#45;&gt;n11 -->
<!-- data -->
<g id="e20" class="edge">
<title>n20:s&#45;&gt;n11:n</title>
<path fill="none" stroke="#000000" d="M570.4228,-60C570.4228,-44.5625 558.5246,-41.8164 555.9219,-29.1552"/>
<polygon fill="#000000" stroke="#000000" points="557.6465,-28.8081 555.4228,-24 554.1628,-29.1454 557.6465,-28.8081"/>
<text text-anchor="middle" x="549.2768" y="-44.7727" font-family="Helvetica,sans-Serif" font-size="14.00" fill="#000000">data</text>
</g>
<!-- n21&#45;&gt;n3 -->
<!-- supervised&#45;model -->
<g id="e21" class="edge">
<title>n21:s&#45;&gt;n3:n</title>
<path fill="none" stroke="#000000" d="M216.4228,-120C216.4228,-105.875 216.4228,-101.1023 216.4228,-89.1692"/>
<polygon fill="#000000" stroke="#000000" points="218.1729,-89 216.4228,-84 214.6729,-89 218.1729,-89"/>
<text text-anchor="middle" x="161.1747" y="-104.9025" font-family="Helvetica,sans-Serif" font-size="14.00" fill="#000000">supervised&#45;model</text>
</g>
</g>
</svg>
