<?xml version="1.0" encoding="UTF-8" standalone="no"?>
<!DOCTYPE svg PUBLIC "-//W3C//DTD SVG 1.1//EN"
 "http://www.w3.org/Graphics/SVG/1.1/DTD/svg11.dtd">
<!-- Generated by graphviz version 2.40.1 (20161225.0304)
 -->
<!-- Title: semantic_flow_graph Pages: 1 -->
<svg width="509pt" height="212pt"
 viewBox="0.00 0.00 509.25 212.00" xmlns="http://www.w3.org/2000/svg" xmlns:xlink="http://www.w3.org/1999/xlink">
<g id="graph0" class="graph" transform="scale(1 1) rotate(0) translate(4 208)">
<title>semantic_flow_graph</title>
<polygon fill="#ffffff" stroke="transparent" points="-4,4 -4,-208 505.2453,-208 505.2453,4 -4,4"/>
<!-- n3 -->
<!-- ? -->
<g id="n3" class="node">
<title>n3</title>
<path fill="none" stroke="#000000" d="M19.2453,-180C19.2453,-180 27.2453,-180 27.2453,-180 31.2453,-180 35.2453,-184 35.2453,-188 35.2453,-188 35.2453,-196 35.2453,-196 35.2453,-200 31.2453,-204 27.2453,-204 27.2453,-204 19.2453,-204 19.2453,-204 15.2453,-204 11.2453,-200 11.2453,-196 11.2453,-196 11.2453,-188 11.2453,-188 11.2453,-184 15.2453,-180 19.2453,-180"/>
<text text-anchor="start" x="19.3522" y="-187.8" font-family="Helvetica,sans-Serif" font-size="14.00" fill="#000000">?</text>
</g>
<!-- n4 -->
<!-- ? -->
<g id="n4" class="node">
<title>n4</title>
<path fill="none" stroke="#000000" d="M263.2453,-180C263.2453,-180 367.2453,-180 367.2453,-180 371.2453,-180 375.2453,-184 375.2453,-188 375.2453,-188 375.2453,-196 375.2453,-196 375.2453,-200 371.2453,-204 367.2453,-204 367.2453,-204 263.2453,-204 263.2453,-204 259.2453,-204 255.2453,-200 255.2453,-196 255.2453,-196 255.2453,-188 255.2453,-188 255.2453,-184 259.2453,-180 263.2453,-180"/>
<text text-anchor="start" x="311.3522" y="-187.8" font-family="Helvetica,sans-Serif" font-size="14.00" fill="#000000">?</text>
</g>
<!-- n6 -->
<!-- ? -->
<g id="n6" class="node">
<title>n6</title>
<path fill="none" stroke="#000000" d="M316.2453,0C316.2453,0 396.2453,0 396.2453,0 400.2453,0 404.2453,-4 404.2453,-8 404.2453,-8 404.2453,-16 404.2453,-16 404.2453,-20 400.2453,-24 396.2453,-24 396.2453,-24 316.2453,-24 316.2453,-24 312.2453,-24 308.2453,-20 308.2453,-16 308.2453,-16 308.2453,-8 308.2453,-8 308.2453,-4 312.2453,0 316.2453,0"/>
<text text-anchor="start" x="352.3522" y="-7.8" font-family="Helvetica,sans-Serif" font-size="14.00" fill="#000000">?</text>
</g>
<!-- n4&#45;&gt;n6 -->
<!-- array -->
<g id="e1" class="edge">
<title>n4:s&#45;&gt;n6:n</title>
<path fill="none" stroke="#000000" d="M315.2453,-180C315.2453,-130.3792 359.11,-131.8507 372.2453,-84 378.8501,-59.939 369.6361,-51.8027 368.3832,-29.0809"/>
<polygon fill="#000000" stroke="#000000" points="370.1304,-28.9506 368.2453,-24 366.6317,-29.0457 370.1304,-28.9506"/>
<text text-anchor="middle" x="340.1543" y="-117.0423" font-family="Helvetica,sans-Serif" font-size="14.00" fill="#000000">array</text>
</g>
<!-- n4&#45;&gt;n6 -->
<!-- array -->
<g id="e2" class="edge">
<title>n4:s&#45;&gt;n6:n</title>
<path fill="none" stroke="#000000" d="M339.2453,-180C339.2453,-156.1486 380.8054,-106.9655 387.2453,-84 393.9905,-59.9457 392.4991,-51.8326 392.2713,-29.0868"/>
<polygon fill="#000000" stroke="#000000" points="394.0209,-28.991 392.2453,-24 390.521,-29.0089 394.0209,-28.991"/>
<text text-anchor="middle" x="361.1083" y="-94.0864" font-family="Helvetica,sans-Serif" font-size="14.00" fill="#000000">array</text>
</g>
<!-- n7 -->
<!-- predict -->
<g id="n7" class="node">
<title>n7</title>
<path fill="none" stroke="#000000" d="M217.2453,-60C217.2453,-60 253.2453,-60 253.2453,-60 257.2453,-60 261.2453,-64 261.2453,-68 261.2453,-68 261.2453,-76 261.2453,-76 261.2453,-80 257.2453,-84 253.2453,-84 253.2453,-84 217.2453,-84 217.2453,-84 213.2453,-84 209.2453,-80 209.2453,-76 209.2453,-76 209.2453,-68 209.2453,-68 209.2453,-64 213.2453,-60 217.2453,-60"/>
<text text-anchor="start" x="214.235" y="-67.8" font-family="Helvetica,sans-Serif" font-size="14.00" fill="#000000">predict</text>
</g>
<!-- n4&#45;&gt;n7 -->
<!-- array -->
<g id="e3" class="edge">
<title>n4:s&#45;&gt;n7:n</title>
<path fill="none" stroke="#000000" d="M363.2453,-180C363.2453,-164.6556 265.5121,-110.1621 250.2413,-88.7007"/>
<polygon fill="#000000" stroke="#000000" points="251.8104,-87.9183 248.2453,-84 248.5888,-89.2863 251.8104,-87.9183"/>
<text text-anchor="middle" x="321.5988" y="-134.7346" font-family="Helvetica,sans-Serif" font-size="14.00" fill="#000000">array</text>
</g>
<!-- n8 -->
<!-- array&#45;shape -->
<g id="n8" class="node">
<title>n8</title>
<path fill="none" stroke="#000000" d="M287.2453,-60C287.2453,-60 355.2453,-60 355.2453,-60 359.2453,-60 363.2453,-64 363.2453,-68 363.2453,-68 363.2453,-76 363.2453,-76 363.2453,-80 359.2453,-84 355.2453,-84 355.2453,-84 287.2453,-84 287.2453,-84 283.2453,-84 279.2453,-80 279.2453,-76 279.2453,-76 279.2453,-68 279.2453,-68 279.2453,-64 283.2453,-60 287.2453,-60"/>
<text text-anchor="start" x="283.8937" y="-67.8" font-family="Helvetica,sans-Serif" font-size="14.00" fill="#000000">array&#45;shape</text>
</g>
<!-- n4&#45;&gt;n8 -->
<!-- array -->
<g id="e4" class="edge">
<title>n4:s&#45;&gt;n8:n</title>
<path fill="none" stroke="#000000" d="M315.2453,-180C315.2453,-139.087 320.7407,-127.7118 321.213,-89.3372"/>
<polygon fill="#000000" stroke="#000000" points="322.9649,-89.0105 321.2453,-84 319.465,-88.9893 322.9649,-89.0105"/>
<text text-anchor="middle" x="302.3055" y="-120.7244" font-family="Helvetica,sans-Serif" font-size="14.00" fill="#000000">array</text>
</g>
<!-- n12 -->
<!-- fit&#45;supervised -->
<g id="n12" class="node">
<title>n12</title>
<path fill="none" stroke="#000000" d="M193.2453,-120C193.2453,-120 270.2453,-120 270.2453,-120 274.2453,-120 278.2453,-124 278.2453,-128 278.2453,-128 278.2453,-136 278.2453,-136 278.2453,-140 274.2453,-144 270.2453,-144 270.2453,-144 193.2453,-144 193.2453,-144 189.2453,-144 185.2453,-140 185.2453,-136 185.2453,-136 185.2453,-128 185.2453,-128 185.2453,-124 189.2453,-120 193.2453,-120"/>
<text text-anchor="start" x="190.1178" y="-127.8" font-family="Helvetica,sans-Serif" font-size="14.00" fill="#000000">fit&#45;supervised</text>
</g>
<!-- n4&#45;&gt;n12 -->
<!-- array -->
<g id="e5" class="edge">
<title>n4:s&#45;&gt;n12:n</title>
<path fill="none" stroke="#000000" d="M267.2453,-180C267.2453,-159.6024 238.0024,-165.0605 232.9763,-149.1068"/>
<polygon fill="#000000" stroke="#000000" points="234.6862,-148.7015 232.2453,-144 231.2215,-149.1976 234.6862,-148.7015"/>
<text text-anchor="middle" x="233.8034" y="-164.8025" font-family="Helvetica,sans-Serif" font-size="14.00" fill="#000000">array</text>
</g>
<!-- n4&#45;&gt;n12 -->
<!-- array -->
<g id="e6" class="edge">
<title>n4:s&#45;&gt;n12:n</title>
<path fill="none" stroke="#000000" d="M291.2453,-180C291.2453,-161.6305 268.2492,-163.6367 263.9374,-149.0876"/>
<polygon fill="#000000" stroke="#000000" points="265.6534,-148.7184 263.2453,-144 262.1853,-149.1903 265.6534,-148.7184"/>
<text text-anchor="middle" x="293.3781" y="-164.9037" font-family="Helvetica,sans-Serif" font-size="14.00" fill="#000000">array</text>
</g>
<!-- n5 -->
<!-- ? -->
<g id="n5" class="node">
<title>n5</title>
<path fill="none" stroke="#000000" d="M401.2453,-180C401.2453,-180 409.2453,-180 409.2453,-180 413.2453,-180 417.2453,-184 417.2453,-188 417.2453,-188 417.2453,-196 417.2453,-196 417.2453,-200 413.2453,-204 409.2453,-204 409.2453,-204 401.2453,-204 401.2453,-204 397.2453,-204 393.2453,-200 393.2453,-196 393.2453,-196 393.2453,-188 393.2453,-188 393.2453,-184 397.2453,-180 401.2453,-180"/>
<text text-anchor="start" x="401.3522" y="-187.8" font-family="Helvetica,sans-Serif" font-size="14.00" fill="#000000">?</text>
</g>
<!-- n7&#45;&gt;n6 -->
<!-- data -->
<g id="e7" class="edge">
<title>n7:s&#45;&gt;n6:n</title>
<path fill="none" stroke="#000000" d="M235.2453,-60C235.2453,-20.8968 312.4633,-60.9002 319.7025,-29.2133"/>
<polygon fill="#000000" stroke="#000000" points="321.468,-29.1544 320.2453,-24 317.9868,-28.7919 321.468,-29.1544"/>
<text text-anchor="middle" x="263.9812" y="-44.7917" font-family="Helvetica,sans-Serif" font-size="14.00" fill="#000000">data</text>
</g>
<!-- n8&#45;&gt;n6 -->
<!-- vector -->
<g id="e8" class="edge">
<title>n8:s&#45;&gt;n6:n</title>
<path fill="none" stroke="#000000" d="M321.2453,-60C321.2453,-42.9417 339.8106,-42.802 343.5817,-29.1803"/>
<polygon fill="#000000" stroke="#000000" points="345.3458,-29.1819 344.2453,-24 341.8741,-28.7371 345.3458,-29.1819"/>
<text text-anchor="middle" x="313.3843" y="-45.0212" font-family="Helvetica,sans-Serif" font-size="14.00" fill="#000000">vector</text>
</g>
<!-- n9 -->
<!-- ? -->
<g id="n9" class="node">
<title>n9</title>
<path fill="none" stroke="#000000" d="M443.2453,-180C443.2453,-180 451.2453,-180 451.2453,-180 455.2453,-180 459.2453,-184 459.2453,-188 459.2453,-188 459.2453,-196 459.2453,-196 459.2453,-200 455.2453,-204 451.2453,-204 451.2453,-204 443.2453,-204 443.2453,-204 439.2453,-204 435.2453,-200 435.2453,-196 435.2453,-196 435.2453,-188 435.2453,-188 435.2453,-184 439.2453,-180 443.2453,-180"/>
<text text-anchor="start" x="443.3522" y="-187.8" font-family="Helvetica,sans-Serif" font-size="14.00" fill="#000000">?</text>
</g>
<!-- n10 -->
<!-- ? -->
<g id="n10" class="node">
<title>n10</title>
<path fill="none" stroke="#000000" d="M485.2453,-180C485.2453,-180 493.2453,-180 493.2453,-180 497.2453,-180 501.2453,-184 501.2453,-188 501.2453,-188 501.2453,-196 501.2453,-196 501.2453,-200 497.2453,-204 493.2453,-204 493.2453,-204 485.2453,-204 485.2453,-204 481.2453,-204 477.2453,-200 477.2453,-196 477.2453,-196 477.2453,-188 477.2453,-188 477.2453,-184 481.2453,-180 485.2453,-180"/>
<text text-anchor="start" x="485.3522" y="-187.8" font-family="Helvetica,sans-Serif" font-size="14.00" fill="#000000">?</text>
</g>
<!-- n11 -->
<!-- support&#45;vector&#45;classification -->
<g id="n11" class="node">
<title>n11</title>
<path fill="none" stroke="#000000" d="M62.2453,-180C62.2453,-180 229.2453,-180 229.2453,-180 233.2453,-180 237.2453,-184 237.2453,-188 237.2453,-188 237.2453,-196 237.2453,-196 237.2453,-200 233.2453,-204 229.2453,-204 229.2453,-204 62.2453,-204 62.2453,-204 58.2453,-204 54.2453,-200 54.2453,-196 54.2453,-196 54.2453,-188 54.2453,-188 54.2453,-184 58.2453,-180 62.2453,-180"/>
<text text-anchor="start" x="58.9904" y="-187.8" font-family="Helvetica,sans-Serif" font-size="14.00" fill="#000000">support&#45;vector&#45;classification</text>
</g>
<!-- n11&#45;&gt;n12 -->
<!-- support&#45;vector&#45;classification -->
<g id="e9" class="edge">
<title>n11:s&#45;&gt;n12:n</title>
<path fill="none" stroke="#000000" d="M146.2453,-180C146.2453,-153.071 193.3115,-170.1867 199.5625,-149.1074"/>
<polygon fill="#000000" stroke="#000000" points="201.3173,-149.1878 200.2453,-144 197.8481,-148.724 201.3173,-149.1878"/>
<text text-anchor="middle" x="86.7549" y="-164.7649" font-family="Helvetica,sans-Serif" font-size="14.00" fill="#000000">support&#45;vector&#45;classification</text>
</g>
<!-- n12&#45;&gt;n7 -->
<!-- supervised&#45;model -->
<g id="e10" class="edge">
<title>n12:s&#45;&gt;n7:n</title>
<path fill="none" stroke="#000000" d="M232.2453,-120C232.2453,-105.2104 224.3131,-101.3811 222.578,-88.9891"/>
<polygon fill="#000000" stroke="#000000" points="224.3242,-88.8724 222.2453,-84 220.832,-89.1054 224.3242,-88.8724"/>
<text text-anchor="middle" x="171.9826" y="-104.7716" font-family="Helvetica,sans-Serif" font-size="14.00" fill="#000000">supervised&#45;model</text>
</g>
</g>
</svg>
