<?xml version="1.0" encoding="UTF-8" standalone="no"?>
<!DOCTYPE svg PUBLIC "-//W3C//DTD SVG 1.1//EN"
 "http://www.w3.org/Graphics/SVG/1.1/DTD/svg11.dtd">
<!-- Generated by graphviz version 2.40.1 (20161225.0304)
 -->
<!-- Title: raw_flow_graph Pages: 1 -->
<svg width="1490pt" height="512pt"
 viewBox="0.00 0.00 1489.50 512.00" xmlns="http://www.w3.org/2000/svg" xmlns:xlink="http://www.w3.org/1999/xlink">
<g id="graph0" class="graph" transform="scale(1 1) rotate(0) translate(4 508)">
<title>raw_flow_graph</title>
<polygon fill="#ffffff" stroke="transparent" points="-4,4 -4,-508 1485.5,-508 1485.5,4 -4,4"/>
<!-- n3 -->
<g id="print" class="node">
<title>n3</title>
<polygon fill="none" stroke="#000000" points="0,-480 0,-504 52,-504 52,-480 0,-480"/>
<text text-anchor="start" x="4.9966" y="-487.8" font-family="Courier,monospace" font-size="14.00" fill="#000000">print</text>
</g>
<!-- n4 -->
<g id="linspace" class="node">
<title>n4</title>
<polygon fill="none" stroke="#000000" points="852,-420 852,-444 929,-444 929,-420 852,-420"/>
<text text-anchor="start" x="856.8945" y="-427.8" font-family="Courier,monospace" font-size="14.00" fill="#000000">linspace</text>
</g>
<!-- n6 -->
<g id="meshgrid" class="node">
<title>n6</title>
<polygon fill="none" stroke="#000000" points="900,-360 900,-384 977,-384 977,-360 900,-360"/>
<text text-anchor="start" x="904.8945" y="-367.8" font-family="Courier,monospace" font-size="14.00" fill="#000000">meshgrid</text>
</g>
<!-- n4&#45;&gt;n6 -->
<g id="ndarray" class="edge">
<title>n4:s&#45;&gt;n6:n</title>
<path fill="none" stroke="#000000" d="M891,-420C891,-401.6305 913.9961,-403.6367 918.3079,-389.0876"/>
<polygon fill="#000000" stroke="#000000" points="920.0599,-389.1903 919,-384 916.5919,-388.7184 920.0599,-389.1903"/>
<text text-anchor="middle" x="875.4106" y="-404.9037" font-family="Courier,monospace" font-size="14.00" fill="#000000">ndarray</text>
</g>
<!-- n5 -->
<g id="linspace" class="node">
<title>n5</title>
<polygon fill="none" stroke="#000000" points="947,-420 947,-444 1024,-444 1024,-420 947,-420"/>
<text text-anchor="start" x="951.8945" y="-427.8" font-family="Courier,monospace" font-size="14.00" fill="#000000">linspace</text>
</g>
<!-- n5&#45;&gt;n6 -->
<g id="ndarray" class="edge">
<title>n5:s&#45;&gt;n6:n</title>
<path fill="none" stroke="#000000" d="M986,-420C986,-401.6305 963.0039,-403.6367 958.6921,-389.0876"/>
<polygon fill="#000000" stroke="#000000" points="960.4081,-388.7184 958,-384 956.9401,-389.1903 960.4081,-388.7184"/>
<text text-anchor="middle" x="942.7798" y="-404.9037" font-family="Courier,monospace" font-size="14.00" fill="#000000">ndarray</text>
</g>
<!-- n21 -->
<g id="ndarray.ravel" class="node">
<title>n21</title>
<polygon fill="none" stroke="#000000" points="611,-300 611,-324 730,-324 730,-300 611,-300"/>
<text text-anchor="start" x="615.8911" y="-307.8" font-family="Courier,monospace" font-size="14.00" fill="#000000">ndarray.ravel</text>
</g>
<!-- n6&#45;&gt;n21 -->
<g id="ndarray" class="edge">
<title>n6:s&#45;&gt;n21:n</title>
<path fill="none" stroke="#000000" d="M919,-360C919,-306.1603 687.1953,-374.8277 671.8021,-329.1232"/>
<polygon fill="#000000" stroke="#000000" points="673.5024,-328.6691 671,-324 670.0445,-329.2105 673.5024,-328.6691"/>
<text text-anchor="middle" x="765.4491" y="-344.8116" font-family="Courier,monospace" font-size="14.00" fill="#000000">ndarray</text>
</g>
<!-- n22 -->
<g id="ndarray.ravel" class="node">
<title>n22</title>
<polygon fill="none" stroke="#000000" points="989,-300 989,-324 1108,-324 1108,-300 989,-300"/>
<text text-anchor="start" x="993.8911" y="-307.8" font-family="Courier,monospace" font-size="14.00" fill="#000000">ndarray.ravel</text>
</g>
<!-- n6&#45;&gt;n22 -->
<g id="ndarray" class="edge">
<title>n6:s&#45;&gt;n22:n</title>
<path fill="none" stroke="#000000" d="M958,-360C958,-318.3746 1041.3477,-363.2869 1048.5104,-329.0983"/>
<polygon fill="#000000" stroke="#000000" points="1050.2639,-329.1444 1049,-324 1046.78,-328.8098 1050.2639,-329.1444"/>
<text text-anchor="middle" x="974.2243" y="-344.8106" font-family="Courier,monospace" font-size="14.00" fill="#000000">ndarray</text>
</g>
<!-- n26 -->
<g id="shape" class="node">
<title>n26</title>
<polygon fill="none" stroke="#000000" points="510,-120 510,-144 562,-144 562,-120 510,-120"/>
<text text-anchor="start" x="514.9966" y="-127.8" font-family="Courier,monospace" font-size="14.00" fill="#000000">shape</text>
</g>
<!-- n6&#45;&gt;n26 -->
<g id="ndarray" class="edge">
<title>n6:s&#45;&gt;n26:n</title>
<path fill="none" stroke="#000000" d="M919,-360C919,-281.5908 625.4495,-377.3624 568,-324 509.7449,-269.8893 534.8571,-227.1267 535.963,-149.1852"/>
<polygon fill="#000000" stroke="#000000" points="537.7142,-149.0124 536,-144 534.2143,-148.9874 537.7142,-149.0124"/>
<text text-anchor="middle" x="706.1713" y="-338.1877" font-family="Courier,monospace" font-size="14.00" fill="#000000">ndarray</text>
</g>
<!-- n28 -->
<g id="ndarray.min" class="node">
<title>n28</title>
<polygon fill="none" stroke="#000000" points="748,-300 748,-324 850,-324 850,-300 748,-300"/>
<text text-anchor="start" x="752.7925" y="-307.8" font-family="Courier,monospace" font-size="14.00" fill="#000000">ndarray.min</text>
</g>
<!-- n6&#45;&gt;n28 -->
<g id="ndarray" class="edge">
<title>n6:s&#45;&gt;n28:n</title>
<path fill="none" stroke="#000000" d="M919,-360C919,-306.1672 806.8365,-374.8215 799.3881,-329.1226"/>
<polygon fill="#000000" stroke="#000000" points="801.1228,-328.8535 799,-324 797.6328,-329.1179 801.1228,-328.8535"/>
<text text-anchor="middle" x="829.5245" y="-344.8116" font-family="Courier,monospace" font-size="14.00" fill="#000000">ndarray</text>
</g>
<!-- n29 -->
<g id="ndarray.max" class="node">
<title>n29</title>
<polygon fill="none" stroke="#000000" points="868,-300 868,-324 970,-324 970,-300 868,-300"/>
<text text-anchor="start" x="872.7925" y="-307.8" font-family="Courier,monospace" font-size="14.00" fill="#000000">ndarray.max</text>
</g>
<!-- n6&#45;&gt;n29 -->
<g id="ndarray" class="edge">
<title>n6:s&#45;&gt;n29:n</title>
<path fill="none" stroke="#000000" d="M919,-360C919,-345.875 919,-341.1023 919,-329.1692"/>
<polygon fill="#000000" stroke="#000000" points="920.7501,-329 919,-324 917.2501,-329 920.7501,-329"/>
<text text-anchor="middle" x="889.5952" y="-344.9025" font-family="Courier,monospace" font-size="14.00" fill="#000000">ndarray</text>
</g>
<!-- n30 -->
<g id="ndarray.min" class="node">
<title>n30</title>
<polygon fill="none" stroke="#000000" points="1126,-300 1126,-324 1228,-324 1228,-300 1126,-300"/>
<text text-anchor="start" x="1130.7925" y="-307.8" font-family="Courier,monospace" font-size="14.00" fill="#000000">ndarray.min</text>
</g>
<!-- n6&#45;&gt;n30 -->
<g id="ndarray" class="edge">
<title>n6:s&#45;&gt;n30:n</title>
<path fill="none" stroke="#000000" d="M958,-360C958,-263.1906 1168.9484,-416.7441 1176.7766,-329.2256"/>
<polygon fill="#000000" stroke="#000000" points="1178.5348,-329.0702 1177,-324 1175.038,-328.9207 1178.5348,-329.0702"/>
<text text-anchor="middle" x="1038.1961" y="-344.8289" font-family="Courier,monospace" font-size="14.00" fill="#000000">ndarray</text>
</g>
<!-- n31 -->
<g id="ndarray.max" class="node">
<title>n31</title>
<polygon fill="none" stroke="#000000" points="1246,-300 1246,-324 1348,-324 1348,-300 1246,-300"/>
<text text-anchor="start" x="1250.7925" y="-307.8" font-family="Courier,monospace" font-size="14.00" fill="#000000">ndarray.max</text>
</g>
<!-- n6&#45;&gt;n31 -->
<g id="ndarray" class="edge">
<title>n6:s&#45;&gt;n31:n</title>
<path fill="none" stroke="#000000" d="M958,-360C958,-286.0186 1281.2956,-394.4473 1296.4501,-329.0164"/>
<polygon fill="#000000" stroke="#000000" points="1298.1946,-329.161 1297,-324 1294.7155,-328.7795 1298.1946,-329.161"/>
<text text-anchor="middle" x="1098.4405" y="-344.8405" font-family="Courier,monospace" font-size="14.00" fill="#000000">ndarray</text>
</g>
<!-- n36 -->
<g id="contour" class="node">
<title>n36</title>
<polygon fill="none" stroke="#000000" points="1003,0 1003,-24 1099,-24 1099,0 1003,0"/>
<text text-anchor="start" x="1021.5952" y="-7.8" font-family="Courier,monospace" font-size="14.00" fill="#000000">contour</text>
</g>
<!-- n6&#45;&gt;n36 -->
<g id="ndarray" class="edge">
<title>n6:s&#45;&gt;n36:n</title>
<path fill="none" stroke="#000000" d="M919,-360C919,-288.8819 648.3753,-377.0411 601,-324 558.3664,-276.2676 564.5877,-232.6322 601,-180 711.8875,-19.7177 1009.7038,-217.1009 1014.9303,-29.0926"/>
<polygon fill="#000000" stroke="#000000" points="1016.6813,-29.0235 1015,-24 1013.1817,-28.9756 1016.6813,-29.0235"/>
<text text-anchor="middle" x="920.4077" y="-116.0274" font-family="Courier,monospace" font-size="14.00" fill="#000000">ndarray</text>
</g>
<!-- n6&#45;&gt;n36 -->
<g id="ndarray" class="edge">
<title>n6:s&#45;&gt;n36:n</title>
<path fill="none" stroke="#000000" d="M958,-360C958,-315.4866 1322.994,-352.7235 1357,-324 1382.2832,-302.6443 1376,-285.0954 1376,-252 1376,-252 1376,-252 1376,-132 1376,23.4381 1046.8522,-176.4899 1039.1378,-29.3807"/>
<polygon fill="#000000" stroke="#000000" points="1040.8775,-28.9535 1039,-24 1037.3786,-29.0432 1040.8775,-28.9535"/>
<text text-anchor="middle" x="1035.5012" y="-79.043" font-family="Courier,monospace" font-size="14.00" fill="#000000">ndarray</text>
</g>
<!-- n7 -->
<g id="RandomState.seed" class="node">
<title>n7</title>
<polygon fill="none" stroke="#000000" points="729,-480 729,-504 873,-504 873,-480 729,-480"/>
<text text-anchor="start" x="733.7891" y="-487.8" font-family="Courier,monospace" font-size="14.00" fill="#000000">RandomState.seed</text>
</g>
<!-- n8 -->
<g id="RandomState.randn" class="node">
<title>n8</title>
<polygon fill="none" stroke="#000000" points="156,-420 156,-444 308,-444 308,-420 156,-420"/>
<text text-anchor="start" x="160.5884" y="-427.8" font-family="Courier,monospace" font-size="14.00" fill="#000000">RandomState.randn</text>
</g>
<!-- n11 -->
<g id="getitem" class="node">
<title>n11</title>
<polygon fill="none" stroke="#000000" points="136,-360 136,-384 204,-384 204,-360 136,-360"/>
<text text-anchor="start" x="140.5952" y="-367.8" font-family="Courier,monospace" font-size="14.00" fill="#000000">getitem</text>
</g>
<!-- n8&#45;&gt;n11 -->
<g id="ndarray" class="edge">
<title>n8:s&#45;&gt;n11:n</title>
<path fill="none" stroke="#000000" d="M232,-420C232,-383.3745 160.8197,-418.6092 153.5905,-389.2821"/>
<polygon fill="#000000" stroke="#000000" points="155.2947,-388.7746 153,-384 151.8164,-389.1635 155.2947,-388.7746"/>
<text text-anchor="middle" x="163.0283" y="-404.8022" font-family="Courier,monospace" font-size="14.00" fill="#000000">ndarray</text>
</g>
<!-- n15 -->
<g id="getitem" class="node">
<title>n15</title>
<polygon fill="none" stroke="#000000" points="270,-360 270,-384 338,-384 338,-360 270,-360"/>
<text text-anchor="start" x="274.5952" y="-367.8" font-family="Courier,monospace" font-size="14.00" fill="#000000">getitem</text>
</g>
<!-- n8&#45;&gt;n15 -->
<g id="ndarray" class="edge">
<title>n8:s&#45;&gt;n15:n</title>
<path fill="none" stroke="#000000" d="M232,-420C232,-392.7248 279.9379,-410.4639 286.3046,-389.1672"/>
<polygon fill="#000000" stroke="#000000" points="288.0674,-389.1888 287,-384 284.5987,-388.7219 288.0674,-389.1888"/>
<text text-anchor="middle" x="230.3646" y="-404.7668" font-family="Courier,monospace" font-size="14.00" fill="#000000">ndarray</text>
</g>
<!-- n19 -->
<g id="BaseLibSVM.fit" class="node">
<title>n19</title>
<polygon fill="none" stroke="#000000" points="187,-180 187,-204 314,-204 314,-180 187,-180"/>
<text text-anchor="start" x="191.6904" y="-187.8" font-family="Courier,monospace" font-size="14.00" fill="#000000">BaseLibSVM.fit</text>
</g>
<!-- n8&#45;&gt;n19 -->
<g id="ndarray" class="edge">
<title>n8:s&#45;&gt;n19:n</title>
<path fill="none" stroke="#000000" d="M232,-420C232,-325.3233 250.3379,-301.211 250.9826,-209.0151"/>
<polygon fill="#000000" stroke="#000000" points="252.7325,-209.0061 251,-204 249.2326,-208.9939 252.7325,-209.0061"/>
<text text-anchor="middle" x="270.9277" y="-314.6556" font-family="Courier,monospace" font-size="14.00" fill="#000000">ndarray</text>
</g>
<!-- n39 -->
<g id="getitem" class="node">
<title>n39</title>
<polygon fill="none" stroke="#000000" points="356,-360 356,-384 424,-384 424,-360 356,-360"/>
<text text-anchor="start" x="360.5952" y="-367.8" font-family="Courier,monospace" font-size="14.00" fill="#000000">getitem</text>
</g>
<!-- n8&#45;&gt;n39 -->
<g id="ndarray" class="edge">
<title>n8:s&#45;&gt;n39:n</title>
<path fill="none" stroke="#000000" d="M232,-420C232,-357.2179 364.8593,-443.3427 372.644,-389.2855"/>
<polygon fill="#000000" stroke="#000000" points="374.41,-389.1063 373,-384 370.9179,-388.8711 374.41,-389.1063"/>
<text text-anchor="middle" x="272.804" y="-390.7408" font-family="Courier,monospace" font-size="14.00" fill="#000000">ndarray</text>
</g>
<!-- n42 -->
<g id="getitem" class="node">
<title>n42</title>
<polygon fill="none" stroke="#000000" points="442,-360 442,-384 510,-384 510,-360 442,-360"/>
<text text-anchor="start" x="446.5952" y="-367.8" font-family="Courier,monospace" font-size="14.00" fill="#000000">getitem</text>
</g>
<!-- n8&#45;&gt;n42 -->
<g id="ndarray" class="edge">
<title>n8:s&#45;&gt;n42:n</title>
<path fill="none" stroke="#000000" d="M232,-420C232,-319.6459 451.0897,-480.3165 458.792,-389.139"/>
<polygon fill="#000000" stroke="#000000" points="460.5463,-389.0667 459,-384 457.0492,-388.9251 460.5463,-389.0667"/>
<text text-anchor="middle" x="316.3693" y="-404.8799" font-family="Courier,monospace" font-size="14.00" fill="#000000">ndarray</text>
</g>
<!-- n9 -->
<g id="slice" class="node">
<title>n9</title>
<polygon fill="none" stroke="#000000" points="70,-480 70,-504 122,-504 122,-480 70,-480"/>
<text text-anchor="start" x="74.9966" y="-487.8" font-family="Courier,monospace" font-size="14.00" fill="#000000">slice</text>
</g>
<!-- n10 -->
<g id="__tuple__" class="node">
<title>n10</title>
<polygon fill="none" stroke="#000000" points="53,-420 53,-444 138,-444 138,-420 53,-420"/>
<text text-anchor="start" x="57.6938" y="-427.8" font-family="Courier,monospace" font-size="14.00" fill="#000000">__tuple__</text>
</g>
<!-- n9&#45;&gt;n10 -->
<g id="edge17" class="edge">
<title>n9:s&#45;&gt;n10:n</title>
<path fill="none" stroke="#000000" d="M96,-480C96,-465.875 96,-461.1023 96,-449.1692"/>
<polygon fill="#000000" stroke="#000000" points="97.7501,-449 96,-444 94.2501,-449 97.7501,-449"/>
</g>
<!-- n10&#45;&gt;n11 -->
<g id="edge18" class="edge">
<title>n10:s&#45;&gt;n11:n</title>
<path fill="none" stroke="#000000" d="M96,-420C96,-378.3746 179.3477,-423.2869 186.5104,-389.0983"/>
<polygon fill="#000000" stroke="#000000" points="188.2639,-389.1444 187,-384 184.78,-388.8098 188.2639,-389.1444"/>
</g>
<!-- n12 -->
<g id="gt" class="node">
<title>n12</title>
<polygon fill="none" stroke="#000000" points="168,-300 168,-324 194,-324 194,-300 168,-300"/>
<text text-anchor="start" x="172.5986" y="-307.8" font-family="Courier,monospace" font-size="14.00" fill="#000000">gt</text>
</g>
<!-- n11&#45;&gt;n12 -->
<g id="ndarray" class="edge">
<title>n11:s&#45;&gt;n12:n</title>
<path fill="none" stroke="#000000" d="M170,-360C170,-345.0996 178.7253,-341.4555 180.634,-329.0175"/>
<polygon fill="#000000" stroke="#000000" points="182.3815,-329.1141 181,-324 178.8908,-328.8594 182.3815,-329.1141"/>
<text text-anchor="middle" x="146.1113" y="-344.7718" font-family="Courier,monospace" font-size="14.00" fill="#000000">ndarray</text>
</g>
<!-- n17 -->
<g id="logical_xor" class="node">
<title>n17</title>
<polygon fill="none" stroke="#000000" points="260,-240 260,-264 362,-264 362,-240 260,-240"/>
<text text-anchor="start" x="264.7925" y="-247.8" font-family="Courier,monospace" font-size="14.00" fill="#000000">logical_xor</text>
</g>
<!-- n12&#45;&gt;n17 -->
<g id="ndarray" class="edge">
<title>n12:s&#45;&gt;n17:n</title>
<path fill="none" stroke="#000000" d="M181,-300C181,-252.9975 277.0337,-308.2519 284.5363,-269.2383"/>
<polygon fill="#000000" stroke="#000000" points="286.3022,-269.1349 285,-264 282.8159,-268.8262 286.3022,-269.1349"/>
<text text-anchor="middle" x="203.4762" y="-284.7852" font-family="Courier,monospace" font-size="14.00" fill="#000000">ndarray</text>
</g>
<!-- n13 -->
<g id="slice" class="node">
<title>n13</title>
<polygon fill="none" stroke="#000000" points="344,-480 344,-504 396,-504 396,-480 344,-480"/>
<text text-anchor="start" x="348.9966" y="-487.8" font-family="Courier,monospace" font-size="14.00" fill="#000000">slice</text>
</g>
<!-- n14 -->
<g id="__tuple__" class="node">
<title>n14</title>
<polygon fill="none" stroke="#000000" points="327,-420 327,-444 412,-444 412,-420 327,-420"/>
<text text-anchor="start" x="331.6938" y="-427.8" font-family="Courier,monospace" font-size="14.00" fill="#000000">__tuple__</text>
</g>
<!-- n13&#45;&gt;n14 -->
<g id="edge21" class="edge">
<title>n13:s&#45;&gt;n14:n</title>
<path fill="none" stroke="#000000" d="M370,-480C370,-465.875 370,-461.1023 370,-449.1692"/>
<polygon fill="#000000" stroke="#000000" points="371.7501,-449 370,-444 368.2501,-449 371.7501,-449"/>
</g>
<!-- n14&#45;&gt;n15 -->
<g id="edge22" class="edge">
<title>n14:s&#45;&gt;n15:n</title>
<path fill="none" stroke="#000000" d="M370,-420C370,-394.8766 327.6484,-408.7085 321.6927,-389.0631"/>
<polygon fill="#000000" stroke="#000000" points="323.4117,-388.7166 321,-384 319.944,-389.1911 323.4117,-388.7166"/>
</g>
<!-- n16 -->
<g id="gt" class="node">
<title>n16</title>
<polygon fill="none" stroke="#000000" points="308,-300 308,-324 334,-324 334,-300 308,-300"/>
<text text-anchor="start" x="312.5986" y="-307.8" font-family="Courier,monospace" font-size="14.00" fill="#000000">gt</text>
</g>
<!-- n15&#45;&gt;n16 -->
<g id="ndarray" class="edge">
<title>n15:s&#45;&gt;n16:n</title>
<path fill="none" stroke="#000000" d="M304,-360C304,-344.2411 317.4846,-342.0324 320.4344,-329.2376"/>
<polygon fill="#000000" stroke="#000000" points="322.203,-329.159 321,-324 318.7232,-328.7832 322.203,-329.159"/>
<text text-anchor="middle" x="283.1201" y="-344.7732" font-family="Courier,monospace" font-size="14.00" fill="#000000">ndarray</text>
</g>
<!-- n16&#45;&gt;n17 -->
<g id="ndarray" class="edge">
<title>n16:s&#45;&gt;n17:n</title>
<path fill="none" stroke="#000000" d="M321,-300C321,-284.406 333.6914,-281.9216 336.4677,-269.1953"/>
<polygon fill="#000000" stroke="#000000" points="338.2311,-269.1524 337,-264 334.7494,-268.7955 338.2311,-269.1524"/>
<text text-anchor="middle" x="299.6187" y="-284.7729" font-family="Courier,monospace" font-size="14.00" fill="#000000">ndarray</text>
</g>
<!-- n17&#45;&gt;n19 -->
<g id="ndarray" class="edge">
<title>n17:s&#45;&gt;n19:n</title>
<path fill="none" stroke="#000000" d="M311,-240C311,-224.068 296.7222,-222.1486 293.5989,-209.2819"/>
<polygon fill="#000000" stroke="#000000" points="295.3023,-208.771 293,-204 291.8245,-209.1654 295.3023,-208.771"/>
<text text-anchor="middle" x="272.5688" y="-224.7735" font-family="Courier,monospace" font-size="14.00" fill="#000000">ndarray</text>
</g>
<!-- n44 -->
<g id="scatter" class="node">
<title>n44</title>
<polygon fill="none" stroke="#000000" points="378,-180 378,-204 498,-204 498,-180 378,-180"/>
<text text-anchor="start" x="408.5952" y="-187.8" font-family="Courier,monospace" font-size="14.00" fill="#000000">scatter</text>
</g>
<!-- n17&#45;&gt;n44 -->
<g id="ndarray" class="edge">
<title>n17:s&#45;&gt;n44:n</title>
<path fill="none" stroke="#000000" d="M311,-240C311,-172.8945 453.8551,-267.5426 461.6675,-209.283"/>
<polygon fill="#000000" stroke="#000000" points="463.4324,-209.1001 462,-204 459.9393,-208.8802 463.4324,-209.1001"/>
<text text-anchor="middle" x="357.0105" y="-224.7815" font-family="Courier,monospace" font-size="14.00" fill="#000000">ndarray</text>
</g>
<!-- n18 -->
<g id="NuSVC" class="node">
<title>n18</title>
<polygon fill="none" stroke="#000000" points="152,-240 152,-264 204,-264 204,-240 152,-240"/>
<text text-anchor="start" x="156.9966" y="-247.8" font-family="Courier,monospace" font-size="14.00" fill="#000000">NuSVC</text>
</g>
<!-- n18&#45;&gt;n19 -->
<g id="NuSVC" class="edge">
<title>n18:s&#45;&gt;n19:n</title>
<path fill="none" stroke="#000000" d="M178,-240C178,-221.1252 202.6387,-223.9998 207.2584,-209.2031"/>
<polygon fill="#000000" stroke="#000000" points="209.0269,-209.1969 208,-204 205.5619,-208.703 209.0269,-209.1969"/>
<text text-anchor="middle" x="171.7988" y="-224.9" font-family="Courier,monospace" font-size="14.00" fill="#000000">NuSVC</text>
</g>
<!-- n25 -->
<g id="BaseSVC.decision_function" class="node">
<title>n25</title>
<polygon fill="none" stroke="#000000" points="272,-120 272,-144 492,-144 492,-120 272,-120"/>
<text text-anchor="start" x="276.9829" y="-127.8" font-family="Courier,monospace" font-size="14.00" fill="#000000">BaseSVC.decision_function</text>
</g>
<!-- n19&#45;&gt;n25 -->
<g id="NuSVC" class="edge">
<title>n19:s&#45;&gt;n25:n</title>
<path fill="none" stroke="#000000" d="M283,-180C283,-156.707 320.3936,-167.239 326.2363,-149.2311"/>
<polygon fill="#000000" stroke="#000000" points="328.0093,-149.2004 327,-144 324.546,-148.6947 328.0093,-149.2004"/>
<text text-anchor="middle" x="283.7952" y="-164.8491" font-family="Courier,monospace" font-size="14.00" fill="#000000">NuSVC</text>
</g>
<!-- n20 -->
<g id="c_" class="node">
<title>n20</title>
<polygon fill="none" stroke="#000000" points="612,-240 612,-264 638,-264 638,-240 612,-240"/>
<text text-anchor="start" x="616.5986" y="-247.8" font-family="Courier,monospace" font-size="14.00" fill="#000000">c_</text>
</g>
<!-- n24 -->
<g id="getitem" class="node">
<title>n24</title>
<polygon fill="none" stroke="#000000" points="610,-180 610,-204 678,-204 678,-180 610,-180"/>
<text text-anchor="start" x="614.5952" y="-187.8" font-family="Courier,monospace" font-size="14.00" fill="#000000">getitem</text>
</g>
<!-- n20&#45;&gt;n24 -->
<g id="CClass" class="edge">
<title>n20:s&#45;&gt;n24:n</title>
<path fill="none" stroke="#000000" d="M625,-240C625,-225.8532 626.5587,-221.1164 626.924,-209.1751"/>
<polygon fill="#000000" stroke="#000000" points="628.6763,-209.0252 627,-204 625.1767,-208.9737 628.6763,-209.0252"/>
<text text-anchor="middle" x="600.7856" y="-224.9024" font-family="Courier,monospace" font-size="14.00" fill="#000000">CClass</text>
</g>
<!-- n23 -->
<g id="__tuple__" class="node">
<title>n23</title>
<polygon fill="none" stroke="#000000" points="657,-240 657,-264 742,-264 742,-240 657,-240"/>
<text text-anchor="start" x="661.6938" y="-247.8" font-family="Courier,monospace" font-size="14.00" fill="#000000">__tuple__</text>
</g>
<!-- n21&#45;&gt;n23 -->
<g id="ndarray" class="edge">
<title>n21:s&#45;&gt;n23:n</title>
<path fill="none" stroke="#000000" d="M671,-300C671,-285.6105 676.4555,-281.2738 677.7341,-269.2404"/>
<polygon fill="#000000" stroke="#000000" points="679.4943,-269.0823 678,-264 675.9988,-268.9049 679.4943,-269.0823"/>
<text text-anchor="middle" x="645.0593" y="-284.901" font-family="Courier,monospace" font-size="14.00" fill="#000000">ndarray</text>
</g>
<!-- n22&#45;&gt;n23 -->
<g id="ndarray" class="edge">
<title>n22:s&#45;&gt;n23:n</title>
<path fill="none" stroke="#000000" d="M1049,-300C1049,-228.5352 737.4448,-331.8261 721.6236,-269.2356"/>
<polygon fill="#000000" stroke="#000000" points="723.3292,-268.7579 721,-264 719.8538,-269.1719 723.3292,-268.7579"/>
<text text-anchor="middle" x="855.7538" y="-270.782" font-family="Courier,monospace" font-size="14.00" fill="#000000">ndarray</text>
</g>
<!-- n23&#45;&gt;n24 -->
<g id="edge32" class="edge">
<title>n23:s&#45;&gt;n24:n</title>
<path fill="none" stroke="#000000" d="M700,-240C700,-218.4381 667.4151,-225.9246 661.8146,-209.3554"/>
<polygon fill="#000000" stroke="#000000" points="663.482,-208.68 661,-204 660.0218,-209.2063 663.482,-208.68"/>
</g>
<!-- n24&#45;&gt;n25 -->
<g id="ndarray" class="edge">
<title>n24:s&#45;&gt;n25:n</title>
<path fill="none" stroke="#000000" d="M644,-180C644,-88.4429 445.007,-231.5849 437.2338,-149.1958"/>
<polygon fill="#000000" stroke="#000000" points="438.9731,-148.9162 437,-144 435.4766,-149.0736 438.9731,-148.9162"/>
<text text-anchor="middle" x="511.1544" y="-164.7836" font-family="Courier,monospace" font-size="14.00" fill="#000000">ndarray</text>
</g>
<!-- n27 -->
<g id="ndarray.reshape" class="node">
<title>n27</title>
<polygon fill="none" stroke="#000000" points="348,-60 348,-84 484,-84 484,-60 348,-60"/>
<text text-anchor="start" x="352.9897" y="-67.8" font-family="Courier,monospace" font-size="14.00" fill="#000000">ndarray.reshape</text>
</g>
<!-- n25&#45;&gt;n27 -->
<g id="ndarray" class="edge">
<title>n25:s&#45;&gt;n27:n</title>
<path fill="none" stroke="#000000" d="M382,-120C382,-105.875 382,-101.1023 382,-89.1692"/>
<polygon fill="#000000" stroke="#000000" points="383.7501,-89 382,-84 380.2501,-89 383.7501,-89"/>
<text text-anchor="middle" x="352.5952" y="-104.9025" font-family="Courier,monospace" font-size="14.00" fill="#000000">ndarray</text>
</g>
<!-- n26&#45;&gt;n27 -->
<g id="edge35" class="edge">
<title>n26:s&#45;&gt;n27:n</title>
<path fill="none" stroke="#000000" d="M536,-120C536,-80.5064 457.8735,-121.2357 450.5492,-89.263"/>
<polygon fill="#000000" stroke="#000000" points="452.2596,-88.7913 450,-84 448.7785,-89.1547 452.2596,-88.7913"/>
</g>
<!-- n34 -->
<g id="imshow" class="node">
<title>n34</title>
<polygon fill="none" stroke="#000000" points="496,0 496,-24 640,-24 640,0 496,0"/>
<text text-anchor="start" x="542.7959" y="-7.8" font-family="Courier,monospace" font-size="14.00" fill="#000000">imshow</text>
</g>
<!-- n27&#45;&gt;n34 -->
<g id="ndarray" class="edge">
<title>n27:s&#45;&gt;n34:n</title>
<path fill="none" stroke="#000000" d="M416,-60C416,-17.9788 500.2636,-63.6317 507.505,-29.145"/>
<polygon fill="#000000" stroke="#000000" points="509.263,-29.1446 508,-24 505.7791,-28.8094 509.263,-29.1446"/>
<text text-anchor="middle" x="432.7258" y="-44.8112" font-family="Courier,monospace" font-size="14.00" fill="#000000">ndarray</text>
</g>
<!-- n27&#45;&gt;n36 -->
<g id="ndarray" class="edge">
<title>n27:s&#45;&gt;n36:n</title>
<path fill="none" stroke="#000000" d="M416,-60C416,10.172 1030.5616,-90.6317 1061.7699,-29.1421"/>
<polygon fill="#000000" stroke="#000000" points="1063.5386,-29.27 1063,-24 1060.1346,-28.4556 1063.5386,-29.27"/>
<text text-anchor="middle" x="710.2442" y="-44.8083" font-family="Courier,monospace" font-size="14.00" fill="#000000">ndarray</text>
</g>
<!-- n32 -->
<g id="__tuple__" class="node">
<title>n32</title>
<polygon fill="none" stroke="#000000" points="883,-240 883,-264 979,-264 979,-240 883,-240"/>
<text text-anchor="start" x="893.1938" y="-247.8" font-family="Courier,monospace" font-size="14.00" fill="#000000">__tuple__</text>
</g>
<!-- n28&#45;&gt;n32 -->
<g id="float64" class="edge">
<title>n28:s&#45;&gt;n32:n</title>
<path fill="none" stroke="#000000" d="M799,-300C799,-256.39 886.9272,-305.0157 894.4835,-269.3322"/>
<polygon fill="#000000" stroke="#000000" points="896.2597,-269.1455 895,-264 892.776,-268.808 896.2597,-269.1455"/>
<text text-anchor="middle" x="817.7314" y="-284.8136" font-family="Courier,monospace" font-size="14.00" fill="#000000">float64</text>
</g>
<!-- n29&#45;&gt;n32 -->
<g id="float64" class="edge">
<title>n29:s&#45;&gt;n32:n</title>
<path fill="none" stroke="#000000" d="M919,-300C919,-285.875 919,-281.1023 919,-269.1692"/>
<polygon fill="#000000" stroke="#000000" points="920.7501,-269 919,-264 917.2501,-269 920.7501,-269"/>
<text text-anchor="middle" x="889.5952" y="-284.9025" font-family="Courier,monospace" font-size="14.00" fill="#000000">float64</text>
</g>
<!-- n30&#45;&gt;n32 -->
<g id="float64" class="edge">
<title>n30:s&#45;&gt;n32:n</title>
<path fill="none" stroke="#000000" d="M1177,-300C1177,-196.5233 950.705,-363.5085 943.1913,-269.0119"/>
<polygon fill="#000000" stroke="#000000" points="944.9396,-268.9296 943,-264 941.4421,-269.0632 944.9396,-268.9296"/>
<text text-anchor="middle" x="1030.475" y="-284.8355" font-family="Courier,monospace" font-size="14.00" fill="#000000">float64</text>
</g>
<!-- n31&#45;&gt;n32 -->
<g id="float64" class="edge">
<title>n31:s&#45;&gt;n32:n</title>
<path fill="none" stroke="#000000" d="M1297,-300C1297,-228.1046 983.5451,-332.2239 967.6274,-269.2668"/>
<polygon fill="#000000" stroke="#000000" points="969.3293,-268.7578 967,-264 965.8538,-269.1719 969.3293,-268.7578"/>
<text text-anchor="middle" x="1102.7548" y="-284.7817" font-family="Courier,monospace" font-size="14.00" fill="#000000">float64</text>
</g>
<!-- n32&#45;&gt;n34 -->
<g id="edge42" class="edge">
<title>n32:s&#45;&gt;n34:n</title>
<path fill="none" stroke="#000000" d="M931,-240C931,-76.3948 634.4748,-186.9484 628.1041,-29.2334"/>
<polygon fill="#000000" stroke="#000000" points="629.8492,-28.9642 628,-24 626.3499,-29.0339 629.8492,-28.9642"/>
</g>
<!-- n33 -->
<g id="PuOr_r" class="node">
<title>n33</title>
<polygon fill="none" stroke="#000000" points="502,-60 502,-84 562,-84 562,-60 502,-60"/>
<text text-anchor="start" x="506.7959" y="-67.8" font-family="Courier,monospace" font-size="14.00" fill="#000000">PuOr_r</text>
</g>
<!-- n33&#45;&gt;n34 -->
<g id="LinearSegmentedColormap" class="edge">
<title>n33:s&#45;&gt;n34:n</title>
<path fill="none" stroke="#000000" d="M532,-60C532,-45.875 532,-41.1023 532,-29.1692"/>
<polygon fill="#000000" stroke="#000000" points="533.7501,-29 532,-24 530.2501,-29 533.7501,-29"/>
<text text-anchor="middle" x="628.6157" y="-30.9025" font-family="Courier,monospace" font-size="14.00" fill="#000000">LinearSegmentedColormap</text>
</g>
<!-- n35 -->
<g id="__list__" class="node">
<title>n35</title>
<polygon fill="none" stroke="#000000" points="1405,-60 1405,-84 1482,-84 1482,-60 1405,-60"/>
<text text-anchor="start" x="1409.8945" y="-67.8" font-family="Courier,monospace" font-size="14.00" fill="#000000">__list__</text>
</g>
<!-- n35&#45;&gt;n36 -->
<g id="edge44" class="edge">
<title>n35:s&#45;&gt;n36:n</title>
<path fill="none" stroke="#000000" d="M1444,-60C1444,17.8669 1103.5383,-98.0596 1087.5791,-29.2768"/>
<polygon fill="#000000" stroke="#000000" points="1089.2851,-28.7792 1087,-24 1085.806,-29.1611 1089.2851,-28.7792"/>
</g>
<!-- n37 -->
<g id="slice" class="node">
<title>n37</title>
<polygon fill="none" stroke="#000000" points="447,-480 447,-504 499,-504 499,-480 447,-480"/>
<text text-anchor="start" x="451.9966" y="-487.8" font-family="Courier,monospace" font-size="14.00" fill="#000000">slice</text>
</g>
<!-- n38 -->
<g id="__tuple__" class="node">
<title>n38</title>
<polygon fill="none" stroke="#000000" points="430,-420 430,-444 515,-444 515,-420 430,-420"/>
<text text-anchor="start" x="434.6938" y="-427.8" font-family="Courier,monospace" font-size="14.00" fill="#000000">__tuple__</text>
</g>
<!-- n37&#45;&gt;n38 -->
<g id="edge45" class="edge">
<title>n37:s&#45;&gt;n38:n</title>
<path fill="none" stroke="#000000" d="M473,-480C473,-465.875 473,-461.1023 473,-449.1692"/>
<polygon fill="#000000" stroke="#000000" points="474.7501,-449 473,-444 471.2501,-449 474.7501,-449"/>
</g>
<!-- n38&#45;&gt;n39 -->
<g id="edge46" class="edge">
<title>n38:s&#45;&gt;n39:n</title>
<path fill="none" stroke="#000000" d="M473,-420C473,-388.5446 414.5078,-414.0213 407.6532,-389.2376"/>
<polygon fill="#000000" stroke="#000000" points="409.3554,-388.745 407,-384 405.8823,-389.1782 409.3554,-388.745"/>
</g>
<!-- n39&#45;&gt;n44 -->
<g id="ndarray" class="edge">
<title>n39:s&#45;&gt;n44:n</title>
<path fill="none" stroke="#000000" d="M390,-360C390,-292.4271 390,-274.2471 390,-209.1824"/>
<polygon fill="#000000" stroke="#000000" points="391.7501,-209 390,-204 388.2501,-209 391.7501,-209"/>
<text text-anchor="middle" x="360.5952" y="-284.9656" font-family="Courier,monospace" font-size="14.00" fill="#000000">ndarray</text>
</g>
<!-- n40 -->
<g id="slice" class="node">
<title>n40</title>
<polygon fill="none" stroke="#000000" points="550,-480 550,-504 602,-504 602,-480 550,-480"/>
<text text-anchor="start" x="554.9966" y="-487.8" font-family="Courier,monospace" font-size="14.00" fill="#000000">slice</text>
</g>
<!-- n41 -->
<g id="__tuple__" class="node">
<title>n41</title>
<polygon fill="none" stroke="#000000" points="533,-420 533,-444 618,-444 618,-420 533,-420"/>
<text text-anchor="start" x="537.6938" y="-427.8" font-family="Courier,monospace" font-size="14.00" fill="#000000">__tuple__</text>
</g>
<!-- n40&#45;&gt;n41 -->
<g id="edge48" class="edge">
<title>n40:s&#45;&gt;n41:n</title>
<path fill="none" stroke="#000000" d="M576,-480C576,-465.875 576,-461.1023 576,-449.1692"/>
<polygon fill="#000000" stroke="#000000" points="577.7501,-449 576,-444 574.2501,-449 577.7501,-449"/>
</g>
<!-- n41&#45;&gt;n42 -->
<g id="edge49" class="edge">
<title>n41:s&#45;&gt;n42:n</title>
<path fill="none" stroke="#000000" d="M576,-420C576,-381.6755 500.5989,-420.231 493.53,-389.114"/>
<polygon fill="#000000" stroke="#000000" points="495.2562,-388.7929 493,-384 491.7749,-389.1538 495.2562,-388.7929"/>
</g>
<!-- n42&#45;&gt;n44 -->
<g id="ndarray" class="edge">
<title>n42:s&#45;&gt;n44:n</title>
<path fill="none" stroke="#000000" d="M476,-360C476,-287.1402 416.8722,-278.9637 414.1006,-209.1359"/>
<polygon fill="#000000" stroke="#000000" points="415.8477,-208.9647 414,-204 412.3483,-209.0333 415.8477,-208.9647"/>
<text text-anchor="middle" x="415.6208" y="-270.8335" font-family="Courier,monospace" font-size="14.00" fill="#000000">ndarray</text>
</g>
<!-- n43 -->
<g id="Paired" class="node">
<title>n43</title>
<polygon fill="none" stroke="#000000" points="456,-240 456,-264 516,-264 516,-240 456,-240"/>
<text text-anchor="start" x="460.7959" y="-247.8" font-family="Courier,monospace" font-size="14.00" fill="#000000">Paired</text>
</g>
<!-- n43&#45;&gt;n44 -->
<g id="ListedColormap" class="edge">
<title>n43:s&#45;&gt;n44:n</title>
<path fill="none" stroke="#000000" d="M486,-240C486,-225.875 486,-221.1023 486,-209.1692"/>
<polygon fill="#000000" stroke="#000000" points="487.7501,-209 486,-204 484.2501,-209 487.7501,-209"/>
<text text-anchor="middle" x="544.8096" y="-210.9025" font-family="Courier,monospace" font-size="14.00" fill="#000000">ListedColormap</text>
</g>
<!-- n45 -->
<g id="__tuple__" class="node">
<title>n45</title>
<polygon fill="none" stroke="#000000" points="1029,-480 1029,-504 1114,-504 1114,-480 1029,-480"/>
<text text-anchor="start" x="1033.6938" y="-487.8" font-family="Courier,monospace" font-size="14.00" fill="#000000">__tuple__</text>
</g>
<!-- n46 -->
<g id="xticks" class="node">
<title>n46</title>
<polygon fill="none" stroke="#000000" points="1042,-420 1042,-444 1102,-444 1102,-420 1042,-420"/>
<text text-anchor="start" x="1046.7959" y="-427.8" font-family="Courier,monospace" font-size="14.00" fill="#000000">xticks</text>
</g>
<!-- n45&#45;&gt;n46 -->
<g id="edge52" class="edge">
<title>n45:s&#45;&gt;n46:n</title>
<path fill="none" stroke="#000000" d="M1072,-480C1072,-465.875 1072,-461.1023 1072,-449.1692"/>
<polygon fill="#000000" stroke="#000000" points="1073.7501,-449 1072,-444 1070.2501,-449 1073.7501,-449"/>
</g>
<!-- n47 -->
<g id="__tuple__" class="node">
<title>n47</title>
<polygon fill="none" stroke="#000000" points="1132,-480 1132,-504 1217,-504 1217,-480 1132,-480"/>
<text text-anchor="start" x="1136.6938" y="-487.8" font-family="Courier,monospace" font-size="14.00" fill="#000000">__tuple__</text>
</g>
<!-- n48 -->
<g id="yticks" class="node">
<title>n48</title>
<polygon fill="none" stroke="#000000" points="1145,-420 1145,-444 1205,-444 1205,-420 1145,-420"/>
<text text-anchor="start" x="1149.7959" y="-427.8" font-family="Courier,monospace" font-size="14.00" fill="#000000">yticks</text>
</g>
<!-- n47&#45;&gt;n48 -->
<g id="edge53" class="edge">
<title>n47:s&#45;&gt;n48:n</title>
<path fill="none" stroke="#000000" d="M1175,-480C1175,-465.875 1175,-461.1023 1175,-449.1692"/>
<polygon fill="#000000" stroke="#000000" points="1176.7501,-449 1175,-444 1173.2501,-449 1176.7501,-449"/>
</g>
<!-- n49 -->
<g id="__list__" class="node">
<title>n49</title>
<polygon fill="none" stroke="#000000" points="1235,-480 1235,-504 1312,-504 1312,-480 1235,-480"/>
<text text-anchor="start" x="1239.8945" y="-487.8" font-family="Courier,monospace" font-size="14.00" fill="#000000">__list__</text>
</g>
<!-- n50 -->
<g id="axis" class="node">
<title>n50</title>
<polygon fill="none" stroke="#000000" points="1252,-420 1252,-444 1295,-444 1295,-420 1252,-420"/>
<text text-anchor="start" x="1256.6973" y="-427.8" font-family="Courier,monospace" font-size="14.00" fill="#000000">axis</text>
</g>
<!-- n49&#45;&gt;n50 -->
<g id="edge54" class="edge">
<title>n49:s&#45;&gt;n50:n</title>
<path fill="none" stroke="#000000" d="M1274,-480C1274,-465.875 1274,-461.1023 1274,-449.1692"/>
<polygon fill="#000000" stroke="#000000" points="1275.7501,-449 1274,-444 1272.2501,-449 1275.7501,-449"/>
</g>
<!-- n51 -->
<g id="show" class="node">
<title>n51</title>
<polygon fill="none" stroke="#000000" points="1330,-480 1330,-504 1373,-504 1373,-480 1330,-480"/>
<text text-anchor="start" x="1334.6973" y="-487.8" font-family="Courier,monospace" font-size="14.00" fill="#000000">show</text>
</g>
</g>
</svg>
